<svg width="159" height="122" viewBox="0 0 159 122" fill="none" xmlns="http://www.w3.org/2000/svg">
<g opacity="0.9">
<path d="M19.4243 112.132H101.076" stroke="#31383F" stroke-width="2" stroke-miterlimit="10" stroke-linecap="round" stroke-linejoin="round"/>
<path d="M109.394 88.4301H11.1053C5.52225 88.4301 1 83.9078 1 78.3248V11.1053C1 5.52225 5.52225 1 11.1053 1H109.394C114.977 1 119.5 5.52225 119.5 11.1053V78.3248C119.5 83.9078 114.977 88.4301 109.394 88.4301Z" stroke="#31383F" stroke-width="2" stroke-miterlimit="10"/>
<path d="M52.8945 9.76562H67.6337" stroke="#31383F" stroke-width="2" stroke-miterlimit="10" stroke-linecap="round" stroke-linejoin="round"/>
<path d="M49 89V112" stroke="#31383F" stroke-width="2" stroke-miterlimit="10" stroke-linecap="round" stroke-linejoin="round"/>
<path d="M72 89V112" stroke="#31383F" stroke-width="2" stroke-miterlimit="10" stroke-linecap="round" stroke-linejoin="round"/>
<path d="M106.156 92.8125C122.468 92.8125 135.691 79.5896 135.691 63.2783C135.691 46.967 122.468 33.7441 106.156 33.7441C89.8452 33.7441 76.6223 46.967 76.6223 63.2783C76.6223 79.5896 89.8452 92.8125 106.156 92.8125Z" fill="white" stroke="#31383F" stroke-width="2" stroke-miterlimit="10"/>
<path d="M137.858 92.1474L130.176 98.7988L149.4 121L157.081 114.349L137.858 92.1474Z" fill="white" stroke="#31383F" stroke-width="2" stroke-miterlimit="10" stroke-linecap="round" stroke-linejoin="round"/>
<path d="M125.446 85.583L134.044 95.4929" stroke="#31383F" stroke-width="2" stroke-miterlimit="10" stroke-linecap="round" stroke-linejoin="round"/>
</g>
</svg>
