<svg width="40" height="40" viewBox="0 0 40 40" fill="none" xmlns="http://www.w3.org/2000/svg">
<path d="M12.9517 10.2338C13.723 9.41325 14.7841 8.99854 16.1349 8.99854C17.3833 8.99854 18.3819 9.35082 19.1309 10.0554C19.8799 10.76 20.2589 11.6563 20.2589 12.7533C20.2589 13.4177 20.1207 13.9528 19.8487 14.3675C19.5768 14.7823 19.0195 15.3887 18.1769 16.1869C17.5616 16.7711 17.1648 17.2616 16.9776 17.663C16.7903 18.0643 16.7011 18.6619 16.7011 19.4512H15.0293C15.0293 18.5548 15.1363 17.8369 15.3503 17.2884C15.5643 16.7399 16.0369 16.1156 16.768 15.4066L17.5349 14.6663C17.7622 14.4523 17.9495 14.2338 18.0921 14.0019C18.3507 13.5961 18.48 13.1724 18.48 12.7354C18.48 12.1201 18.2928 11.5894 17.9183 11.139C17.5438 10.6886 16.9285 10.4612 16.0636 10.4612C14.9981 10.4612 14.258 10.8491 13.8523 11.6251C13.6205 12.0576 13.4912 12.6775 13.46 13.4935H11.7881C11.7925 12.1468 12.176 11.0587 12.9517 10.2338ZM14.9892 21.0119H16.8572V22.9651H14.9892V21.0119Z" fill="#2B3035"/>
<path d="M28.5154 26.0513C30.8025 23.2152 32.0464 19.7101 32.0464 16.0268C32.0464 7.18841 24.8596 0 16.0232 0C7.1868 0 0 7.18841 0 16.0268C0 24.8606 7.1868 32.0491 16.0232 32.0491C19.7637 32.0491 23.3036 30.7737 26.1658 28.4281L37.6282 40L40 37.6499L28.5154 26.0513ZM16.0232 29.6945C8.48417 29.6945 2.35399 23.563 2.35399 16.0268C2.35399 8.48606 8.48417 2.35897 16.0232 2.35897C23.5577 2.35897 29.6924 8.49052 29.6924 16.0268C29.6924 23.563 23.5577 29.6945 16.0232 29.6945Z" fill="#2B3035"/>
</svg>
