<svg width="54" height="54" viewBox="0 0 54 54" fill="none" xmlns="http://www.w3.org/2000/svg">
<path d="M27.0002 0.333008C12.2802 0.333008 0.333496 12.2797 0.333496 26.9997C0.333496 41.7197 12.2802 53.6663 27.0002 53.6663C41.7202 53.6663 53.6668 41.7197 53.6668 26.9997C53.6668 12.2797 41.7202 0.333008 27.0002 0.333008ZM27.0002 8.33301C31.4268 8.33301 35.0002 11.9063 35.0002 16.333C35.0002 20.7597 31.4268 24.333 27.0002 24.333C22.5735 24.333 19.0002 20.7597 19.0002 16.333C19.0002 11.9063 22.5735 8.33301 27.0002 8.33301ZM27.0002 46.1997C20.3335 46.1997 14.4402 42.7863 11.0002 37.613C11.0802 32.3063 21.6668 29.3997 27.0002 29.3997C32.3068 29.3997 42.9202 32.3063 43.0002 37.613C39.5602 42.7863 33.6668 46.1997 27.0002 46.1997Z" fill="#31383F"/>
</svg>
