<svg width="22" height="22" viewBox="0 0 22 22" fill="none" xmlns="http://www.w3.org/2000/svg">
<path d="M3.07019 4.03085H18.5835" stroke="#31383F" stroke-opacity="0.75" stroke-width="0.75" stroke-miterlimit="10"/>
<path d="M3.07019 4.03085H18.5835" stroke="#31383F" stroke-opacity="0.75" stroke-width="0.75" stroke-miterlimit="10"/>
<path d="M15.3877 15.9692C17.416 15.9692 19.0602 14.325 19.0602 12.2967C19.0602 10.2684 17.416 8.62421 15.3877 8.62421C13.3594 8.62421 11.7152 10.2684 11.7152 12.2967C11.7152 14.325 13.3594 15.9692 15.3877 15.9692Z" stroke="#31383F" stroke-opacity="0.75" stroke-width="0.75" stroke-miterlimit="10"/>
<path d="M15.3874 13.9325C16.2909 13.9325 17.0233 13.2001 17.0233 12.2967C17.0233 11.3932 16.2909 10.6609 15.3874 10.6609C14.484 10.6609 13.7516 11.3932 13.7516 12.2967C13.7516 13.2001 14.484 13.9325 15.3874 13.9325Z" stroke="#31383F" stroke-opacity="0.75" stroke-width="0.75" stroke-miterlimit="10"/>
<path d="M3.07019 6.44672H18.5835" stroke="#31383F" stroke-opacity="0.75" stroke-width="0.75" stroke-miterlimit="10"/>
<path d="M3.07019 9.12238H9.68936" stroke="#31383F" stroke-opacity="0.75" stroke-width="0.75" stroke-miterlimit="10"/>
<path d="M3.07019 11.7982H9.68936" stroke="#31383F" stroke-opacity="0.75" stroke-width="0.75" stroke-miterlimit="10"/>
<path d="M13.3293 15.4059V20.8659L15.301 20.1075V15.8175" stroke="#31383F" stroke-opacity="0.75" stroke-width="0.75" stroke-miterlimit="10"/>
<path d="M17.2725 15.4059V20.8659L15.3116 20.1075V15.8175" stroke="#31383F" stroke-opacity="0.75" stroke-width="0.75" stroke-miterlimit="10"/>
<path d="M13.3292 17.0091H0.805908V1.30078H21.1942V17.0091H17.2726" stroke="#31383F" stroke-opacity="0.75" stroke-width="0.75" stroke-miterlimit="10"/>
</svg>
