<svg width="22" height="22" viewBox="0 0 22 22" fill="none" xmlns="http://www.w3.org/2000/svg">
<path d="M3.07031 4.03088H18.5836" stroke="white" stroke-opacity="0.75" stroke-width="0.75" stroke-miterlimit="10"/>
<path d="M3.07031 4.03088H18.5836" stroke="white" stroke-opacity="0.75" stroke-width="0.75" stroke-miterlimit="10"/>
<path d="M15.3893 15.9691C17.4176 15.9691 19.0618 14.3249 19.0618 12.2966C19.0618 10.2684 17.4176 8.62415 15.3893 8.62415C13.361 8.62415 11.7168 10.2684 11.7168 12.2966C11.7168 14.3249 13.361 15.9691 15.3893 15.9691Z" stroke="white" stroke-opacity="0.75" stroke-width="0.75" stroke-miterlimit="10"/>
<path d="M15.3878 13.9326C16.2912 13.9326 17.0236 13.2002 17.0236 12.2967C17.0236 11.3933 16.2912 10.6609 15.3878 10.6609C14.4843 10.6609 13.752 11.3933 13.752 12.2967C13.752 13.2002 14.4843 13.9326 15.3878 13.9326Z" stroke="white" stroke-opacity="0.75" stroke-width="0.75" stroke-miterlimit="10"/>
<path d="M3.07031 6.44678H18.5836" stroke="white" stroke-opacity="0.75" stroke-width="0.75" stroke-miterlimit="10"/>
<path d="M3.07031 9.12244H9.68948" stroke="white" stroke-opacity="0.75" stroke-width="0.75" stroke-miterlimit="10"/>
<path d="M3.07031 11.7981H9.68948" stroke="white" stroke-opacity="0.75" stroke-width="0.75" stroke-miterlimit="10"/>
<path d="M13.3301 15.4059V20.8659L15.3017 20.1076V15.8176" stroke="white" stroke-opacity="0.75" stroke-width="0.75" stroke-miterlimit="10"/>
<path d="M17.2733 15.4059V20.8659L15.3125 20.1076V15.8176" stroke="white" stroke-opacity="0.75" stroke-width="0.75" stroke-miterlimit="10"/>
<path d="M13.33 17.0091H0.806641V1.30078H21.195V17.0091H17.2733" stroke="white" stroke-opacity="0.75" stroke-width="0.75" stroke-miterlimit="10"/>
</svg>
