<svg width="202" height="8" viewBox="0 0 202 8" fill="none" xmlns="http://www.w3.org/2000/svg">
<path opacity="0.5" d="M0.646447 3.64645C0.451184 3.84171 0.451184 4.15829 0.646447 4.35355L3.82843 7.53553C4.02369 7.7308 4.34027 7.7308 4.53553 7.53553C4.7308 7.34027 4.7308 7.02369 4.53553 6.82843L1.70711 4L4.53553 1.17157C4.7308 0.976311 4.7308 0.659728 4.53553 0.464466C4.34027 0.269204 4.02369 0.269204 3.82843 0.464466L0.646447 3.64645ZM201.354 4.35355C201.549 4.15829 201.549 3.84171 201.354 3.64645L198.172 0.464466C197.976 0.269204 197.66 0.269204 197.464 0.464466C197.269 0.659728 197.269 0.976311 197.464 1.17157L200.293 4L197.464 6.82843C197.269 7.02369 197.269 7.34027 197.464 7.53553C197.66 7.7308 197.976 7.7308 198.172 7.53553L201.354 4.35355ZM1 4.5H201V3.5H1V4.5Z" fill="#31383F"/>
</svg>
