<svg width="810" height="400" viewBox="0 0 810 400" fill="none" xmlns="http://www.w3.org/2000/svg">
<path d="M0 0H810V400H0V0Z" fill="#FAFBFC"/>
<circle opacity="0.8" cx="211" cy="198" r="89.5" fill="#F1EAE2" stroke="#EEE7E0"/>
<path d="M200.52 198.32H193.44V205.72H190.76V198.32H183.88V196.2H195.48C195.707 195.027 195.847 193.98 195.9 193.06C195.953 192.14 195.98 191.28 195.98 190.48H185.78V188.36H198.56V190.02C198.56 190.887 198.54 191.813 198.5 192.8C198.46 193.773 198.327 194.907 198.1 196.2H200.52V198.32ZM218.058 187.28V205.7H215.558V196.44H214.018V204.88H211.558V187.58H214.018V194.32H215.558V187.28H218.058ZM202.778 189.18H210.038V201.12H202.778V189.18ZM205.238 199.06H207.598V191.26H205.238V199.06ZM237.757 196.5H235.077V205.72H232.437V187.3H235.077V194.32H237.757V196.5ZM227.417 192.26C227.417 192.953 227.51 193.673 227.697 194.42C227.884 195.153 228.157 195.853 228.517 196.52C228.89 197.187 229.357 197.8 229.917 198.36C230.477 198.92 231.137 199.373 231.897 199.72L230.437 201.8C229.397 201.333 228.524 200.667 227.817 199.8C227.11 198.92 226.55 197.933 226.137 196.84C225.724 198.053 225.15 199.133 224.417 200.08C223.684 201.027 222.79 201.753 221.737 202.26L220.257 200.16C221.017 199.813 221.677 199.353 222.237 198.78C222.797 198.193 223.264 197.547 223.637 196.84C224.024 196.12 224.31 195.367 224.497 194.58C224.684 193.793 224.777 193.02 224.777 192.26V191.24H220.957V189.06H231.077V191.24H227.417V192.26Z" fill="#31383F"/>
<circle opacity="0.8" cx="589" cy="198" r="79.5" fill="#E9EEF5" stroke="#E5EBF0"/>
<path d="M578.8 192.5V194.68H576.36V200.86H573.72V187.3H576.36V192.5H578.8ZM572.88 197.7C571.973 197.86 571.04 197.987 570.08 198.08C569.133 198.173 568.187 198.247 567.24 198.3C566.307 198.353 565.393 198.387 564.5 198.4C563.62 198.413 562.8 198.42 562.04 198.42L561.76 196.28L563.68 196.26V190.92H562.24V188.82H572.06V190.92H570.6V196C570.96 195.973 571.313 195.94 571.66 195.9C572.007 195.86 572.353 195.82 572.7 195.78L572.88 197.7ZM566.22 196.22C566.527 196.207 566.833 196.2 567.14 196.2C567.46 196.187 567.773 196.167 568.08 196.14V190.92H566.22V196.22ZM567.12 203.3H577.02V205.4H564.48V199.6H567.12V203.3ZM596.058 187.28V205.7H593.558V196.44H592.018V204.88H589.558V187.58H592.018V194.32H593.558V187.28H596.058ZM580.778 189.18H588.038V201.12H580.778V189.18ZM583.238 199.06H585.598V191.26H583.238V199.06ZM615.757 196.5H613.077V205.72H610.437V187.3H613.077V194.32H615.757V196.5ZM605.417 192.26C605.417 192.953 605.51 193.673 605.697 194.42C605.884 195.153 606.157 195.853 606.517 196.52C606.89 197.187 607.357 197.8 607.917 198.36C608.477 198.92 609.137 199.373 609.897 199.72L608.437 201.8C607.397 201.333 606.524 200.667 605.817 199.8C605.11 198.92 604.55 197.933 604.137 196.84C603.724 198.053 603.15 199.133 602.417 200.08C601.684 201.027 600.79 201.753 599.737 202.26L598.257 200.16C599.017 199.813 599.677 199.353 600.237 198.78C600.797 198.193 601.264 197.547 601.637 196.84C602.024 196.12 602.31 195.367 602.497 194.58C602.684 193.793 602.777 193.02 602.777 192.26V191.24H598.957V189.06H609.077V191.24H605.417V192.26Z" fill="#31383F"/>
<path d="M340.762 170.296V183.232H338.914V170.296H340.762ZM330.346 176.288C330.822 176.167 331.238 176.003 331.592 175.798C331.947 175.593 332.246 175.359 332.488 175.098C332.74 174.827 332.932 174.538 333.062 174.23C333.193 173.922 333.272 173.609 333.3 173.292H330.724V171.822H333.314V170.422H335.176V171.822H337.794V173.292H335.19C335.218 173.6 335.298 173.903 335.428 174.202C335.568 174.491 335.76 174.762 336.002 175.014C336.245 175.266 336.544 175.495 336.898 175.7C337.253 175.896 337.668 176.055 338.144 176.176L337.332 177.576C336.576 177.389 335.946 177.1 335.442 176.708C334.948 176.307 334.556 175.84 334.266 175.308C333.977 175.868 333.576 176.358 333.062 176.778C332.558 177.189 331.928 177.497 331.172 177.702L330.346 176.288ZM335.176 179.2C335.708 179.163 336.222 179.121 336.716 179.074C337.211 179.027 337.71 178.967 338.214 178.892L338.326 180.236C337.636 180.376 336.931 180.488 336.212 180.572C335.503 180.647 334.798 180.703 334.098 180.74C333.408 180.777 332.74 180.801 332.096 180.81C331.452 180.819 330.855 180.824 330.304 180.824L330.066 179.326C330.542 179.326 331.056 179.326 331.606 179.326C332.157 179.317 332.726 179.303 333.314 179.284V177.324H335.176V179.2ZM353.669 170.324V177.982H351.821V174.874H349.917V173.39H351.821V170.324H353.669ZM349.763 177.632C349.054 177.399 348.456 177.067 347.971 176.638C347.486 176.199 347.108 175.686 346.837 175.098C346.548 175.742 346.151 176.307 345.647 176.792C345.143 177.277 344.513 177.641 343.757 177.884L342.819 176.428C343.342 176.251 343.79 176.022 344.163 175.742C344.546 175.462 344.858 175.149 345.101 174.804C345.353 174.449 345.54 174.076 345.661 173.684C345.782 173.292 345.848 172.895 345.857 172.494H343.323V171.024H350.253V172.494H347.747C347.756 172.858 347.817 173.227 347.929 173.6C348.05 173.964 348.228 174.314 348.461 174.65C348.704 174.977 349.007 175.275 349.371 175.546C349.735 175.807 350.164 176.022 350.659 176.19L349.763 177.632ZM344.877 178.556H353.669V183.218H351.821V180.026H344.877V178.556ZM366.52 170.296V183.232H364.672V170.296H366.52ZM359.912 171.164C360.416 171.164 360.883 171.243 361.312 171.402C361.751 171.561 362.129 171.78 362.446 172.06C362.763 172.34 363.011 172.676 363.188 173.068C363.375 173.451 363.468 173.875 363.468 174.342C363.468 174.799 363.375 175.224 363.188 175.616C363.011 176.008 362.763 176.344 362.446 176.624C362.129 176.904 361.751 177.123 361.312 177.282C360.883 177.441 360.416 177.52 359.912 177.52C359.408 177.52 358.937 177.441 358.498 177.282C358.069 177.123 357.695 176.904 357.378 176.624C357.07 176.344 356.823 176.008 356.636 175.616C356.459 175.224 356.37 174.799 356.37 174.342C356.37 173.875 356.459 173.451 356.636 173.068C356.823 172.676 357.07 172.34 357.378 172.06C357.695 171.78 358.069 171.561 358.498 171.402C358.937 171.243 359.408 171.164 359.912 171.164ZM359.912 172.746C359.408 172.746 358.988 172.886 358.652 173.166C358.325 173.446 358.162 173.838 358.162 174.342C358.162 174.846 358.325 175.238 358.652 175.518C358.988 175.798 359.408 175.938 359.912 175.938C360.416 175.938 360.831 175.798 361.158 175.518C361.494 175.238 361.662 174.846 361.662 174.342C361.662 173.838 361.494 173.446 361.158 173.166C360.831 172.886 360.416 172.746 359.912 172.746ZM355.824 179.116C356.393 179.116 357.009 179.116 357.672 179.116C358.335 179.107 359.021 179.088 359.73 179.06C360.439 179.032 361.153 178.99 361.872 178.934C362.591 178.878 363.291 178.799 363.972 178.696L364.084 180.026C363.393 180.166 362.689 180.278 361.97 180.362C361.261 180.437 360.561 180.493 359.87 180.53C359.179 180.567 358.512 180.591 357.868 180.6C357.224 180.609 356.622 180.614 356.062 180.614L355.824 179.116ZM383.481 178.024H378.525V183.204H376.649V178.024H371.833V176.54H379.953C380.111 175.719 380.209 174.986 380.247 174.342C380.284 173.698 380.303 173.096 380.303 172.536H373.163V171.052H382.109V172.214C382.109 172.821 382.095 173.469 382.067 174.16C382.039 174.841 381.945 175.635 381.787 176.54H383.481V178.024ZM395.758 170.296V183.19H394.008V176.708H392.93V182.616H391.208V170.506H392.93V175.224H394.008V170.296H395.758ZM385.062 171.626H390.144V179.984H385.062V171.626ZM386.784 178.542H388.436V173.082H386.784V178.542ZM409.547 176.75H407.671V183.204H405.823V170.31H407.671V175.224H409.547V176.75ZM402.309 173.782C402.309 174.267 402.374 174.771 402.505 175.294C402.635 175.807 402.827 176.297 403.079 176.764C403.34 177.231 403.667 177.66 404.059 178.052C404.451 178.444 404.913 178.761 405.445 179.004L404.423 180.46C403.695 180.133 403.083 179.667 402.589 179.06C402.094 178.444 401.702 177.753 401.413 176.988C401.123 177.837 400.722 178.593 400.209 179.256C399.695 179.919 399.07 180.427 398.333 180.782L397.297 179.312C397.829 179.069 398.291 178.747 398.683 178.346C399.075 177.935 399.401 177.483 399.663 176.988C399.933 176.484 400.134 175.957 400.265 175.406C400.395 174.855 400.461 174.314 400.461 173.782V173.068H397.787V171.542H404.871V173.068H402.309V173.782ZM424.687 170.296V183.19H422.937V176.708H421.859V182.616H420.137V170.506H421.859V175.224H422.937V170.296H424.687ZM413.991 171.626H419.073V179.984H413.991V171.626ZM415.713 178.542H417.365V173.082H415.713V178.542ZM437.216 178.08H435.354V170.31H437.216V178.08ZM433.716 177.688C432.979 177.492 432.354 177.198 431.84 176.806C431.327 176.414 430.921 175.952 430.622 175.42C430.333 176.017 429.927 176.54 429.404 176.988C428.891 177.427 428.252 177.753 427.486 177.968L426.618 176.526C427.122 176.386 427.561 176.199 427.934 175.966C428.308 175.723 428.62 175.453 428.872 175.154C429.124 174.846 429.311 174.519 429.432 174.174C429.563 173.819 429.638 173.465 429.656 173.11H427.052V171.654H429.656V170.324H431.504V171.654H434.094V173.11H431.504C431.523 173.437 431.598 173.759 431.728 174.076C431.859 174.393 432.05 174.692 432.302 174.972C432.554 175.252 432.867 175.504 433.24 175.728C433.614 175.943 434.052 176.115 434.556 176.246L433.716 177.688ZM432.862 178.304C433.544 178.304 434.155 178.36 434.696 178.472C435.238 178.584 435.695 178.747 436.068 178.962C436.451 179.167 436.745 179.424 436.95 179.732C437.156 180.031 437.258 180.371 437.258 180.754C437.258 181.146 437.156 181.496 436.95 181.804C436.745 182.112 436.451 182.369 436.068 182.574C435.695 182.789 435.238 182.947 434.696 183.05C434.155 183.162 433.544 183.218 432.862 183.218C432.181 183.218 431.565 183.162 431.014 183.05C430.473 182.947 430.011 182.789 429.628 182.574C429.255 182.369 428.966 182.112 428.76 181.804C428.555 181.496 428.452 181.146 428.452 180.754C428.452 180.371 428.555 180.031 428.76 179.732C428.966 179.424 429.255 179.167 429.628 178.962C430.011 178.747 430.473 178.584 431.014 178.472C431.565 178.36 432.181 178.304 432.862 178.304ZM432.862 181.79C434.57 181.79 435.424 181.445 435.424 180.754C435.424 180.063 434.57 179.718 432.862 179.718C431.145 179.718 430.286 180.063 430.286 180.754C430.286 181.445 431.145 181.79 432.862 181.79ZM453.239 170.296V183.232H451.391V170.296H453.239ZM447.555 173.18C447.555 173.777 447.62 174.365 447.751 174.944C447.882 175.523 448.078 176.064 448.339 176.568C448.6 177.072 448.932 177.525 449.333 177.926C449.744 178.318 450.22 178.631 450.761 178.864L449.711 180.362C448.955 180.026 448.33 179.555 447.835 178.948C447.34 178.332 446.948 177.627 446.659 176.834C446.37 177.711 445.968 178.481 445.455 179.144C444.942 179.797 444.288 180.306 443.495 180.67L442.389 179.144C442.949 178.901 443.439 178.575 443.859 178.164C444.279 177.744 444.624 177.273 444.895 176.75C445.166 176.218 445.366 175.649 445.497 175.042C445.637 174.426 445.707 173.805 445.707 173.18V171.304H447.555V173.18ZM465.922 177.926C464.793 177.702 463.827 177.296 463.024 176.708C462.231 176.12 461.624 175.415 461.204 174.594C460.784 175.415 460.177 176.125 459.384 176.722C458.591 177.31 457.629 177.711 456.5 177.926L455.716 176.386C456.444 176.265 457.088 176.055 457.648 175.756C458.208 175.448 458.679 175.093 459.062 174.692C459.445 174.291 459.734 173.857 459.93 173.39C460.126 172.914 460.224 172.447 460.224 171.99V171.066H462.198V171.99C462.198 172.457 462.296 172.928 462.492 173.404C462.688 173.871 462.977 174.305 463.36 174.706C463.743 175.107 464.214 175.457 464.774 175.756C465.334 176.055 465.978 176.265 466.706 176.386L465.922 177.926ZM467.112 180.138V181.636H455.436V180.138H467.112ZM479.305 170.324V178.01H477.555V170.324H479.305ZM475.021 174.888H473.761V173.404H475.021V170.506H476.743V177.912H475.021V174.888ZM474.279 177.226C473.915 177.291 473.56 177.343 473.215 177.38C472.87 177.417 472.515 177.45 472.151 177.478C471.796 177.497 471.418 177.511 471.017 177.52C470.616 177.52 470.177 177.52 469.701 177.52H468.819V171.08H473.663V172.536H470.597V173.558H473.215V174.958H470.597V176.064C471.269 176.064 471.88 176.045 472.431 176.008C472.991 175.961 473.556 175.882 474.125 175.77L474.279 177.226ZM470.569 178.514H479.305V183.05H470.569V178.514ZM472.389 181.608H477.499V179.956H472.389V181.608Z" fill="#BE9162"/>
<path opacity="0.5" d="M304.646 197.646C304.451 197.842 304.451 198.158 304.646 198.354L307.828 201.536C308.024 201.731 308.34 201.731 308.536 201.536C308.731 201.34 308.731 201.024 308.536 200.828L305.707 198L308.536 195.172C308.731 194.976 308.731 194.66 308.536 194.464C308.34 194.269 308.024 194.269 307.828 194.464L304.646 197.646ZM505.354 198.354C505.549 198.158 505.549 197.842 505.354 197.646L502.172 194.464C501.976 194.269 501.66 194.269 501.464 194.464C501.269 194.66 501.269 194.976 501.464 195.172L504.293 198L501.464 200.828C501.269 201.024 501.269 201.34 501.464 201.536C501.66 201.731 501.976 201.731 502.172 201.536L505.354 198.354ZM305 198.5H505V197.5H305V198.5Z" fill="#31383F"/>
<path d="M54.032 48.952V50.664H40.688V48.952H46.288V46.248H42.096V38.552H44.192V40.84H50.496V38.552H52.576V46.248H48.4V48.952H54.032ZM44.192 44.568H50.496V42.504H44.192V44.568ZM55.9828 42.232C57.3801 42.104 58.4468 41.832 59.1828 41.416C59.9188 40.9893 60.3721 40.52 60.5428 40.008H56.6228V38.328H67.5188V40.008H63.5828C63.7534 40.52 64.2068 40.9893 64.9428 41.416C65.6788 41.832 66.7508 42.104 68.1588 42.232L67.4228 43.88C65.9614 43.752 64.7988 43.448 63.9348 42.968C63.0708 42.488 62.4468 41.896 62.0628 41.192C61.6681 41.896 61.0388 42.488 60.1748 42.968C59.3108 43.448 58.1481 43.752 56.6868 43.88L55.9828 42.232ZM68.7188 44.44V46.104H55.4068V44.44H68.7188ZM62.0308 46.904C62.8308 46.904 63.5454 46.968 64.1748 47.096C64.8041 47.2133 65.3374 47.3893 65.7748 47.624C66.2228 47.8587 66.5641 48.1467 66.7988 48.488C67.0334 48.8187 67.1508 49.2027 67.1508 49.64C67.1508 50.0773 67.0334 50.4667 66.7988 50.808C66.5641 51.1493 66.2228 51.4373 65.7748 51.672C65.3374 51.9067 64.8041 52.0827 64.1748 52.2C63.5454 52.328 62.8308 52.392 62.0308 52.392C60.4414 52.392 59.1934 52.152 58.2868 51.672C57.3801 51.192 56.9268 50.5147 56.9268 49.64C56.9268 48.776 57.3801 48.104 58.2868 47.624C59.1934 47.144 60.4414 46.904 62.0308 46.904ZM62.0308 50.76C64.0148 50.76 65.0068 50.3867 65.0068 49.64C65.0068 49.256 64.7614 48.9787 64.2708 48.808C63.7801 48.6267 63.0334 48.536 62.0308 48.536C61.0281 48.536 60.2814 48.6267 59.7908 48.808C59.3001 48.9787 59.0548 49.256 59.0548 49.64C59.0548 50.3867 60.0468 50.76 62.0308 50.76ZM82.3335 37.624V52.408H80.2215V37.624H82.3335ZM75.8375 40.92C75.8375 41.6027 75.9122 42.2747 76.0615 42.936C76.2108 43.5973 76.4348 44.216 76.7335 44.792C77.0322 45.368 77.4108 45.8853 77.8695 46.344C78.3388 46.792 78.8828 47.1493 79.5015 47.416L78.3015 49.128C77.4375 48.744 76.7228 48.2053 76.1575 47.512C75.5922 46.808 75.1442 46.0027 74.8135 45.096C74.4828 46.0987 74.0242 46.9787 73.4375 47.736C72.8508 48.4827 72.1042 49.064 71.1975 49.48L69.9335 47.736C70.5735 47.4587 71.1335 47.0853 71.6135 46.616C72.0935 46.136 72.4882 45.5973 72.7975 45C73.1068 44.392 73.3362 43.7413 73.4855 43.048C73.6455 42.344 73.7255 41.6347 73.7255 40.92V38.776H75.8375V40.92ZM96.8283 46.344C95.5376 46.088 94.4336 45.624 93.5163 44.952C92.6096 44.28 91.9163 43.4747 91.4363 42.536C90.9563 43.4747 90.2629 44.2853 89.3563 44.968C88.4496 45.64 87.3509 46.0987 86.0603 46.344L85.1643 44.584C85.9963 44.4453 86.7323 44.2053 87.3723 43.864C88.0123 43.512 88.5509 43.1067 88.9883 42.648C89.4256 42.1893 89.7563 41.6933 89.9803 41.16C90.2043 40.616 90.3163 40.0827 90.3163 39.56V38.504H92.5723V39.56C92.5723 40.0933 92.6843 40.632 92.9083 41.176C93.1323 41.7093 93.4629 42.2053 93.9003 42.664C94.3376 43.1227 94.8763 43.5227 95.5163 43.864C96.1563 44.2053 96.8923 44.4453 97.7243 44.584L96.8283 46.344ZM98.1883 48.872V50.584H84.8443V48.872H98.1883ZM112.123 37.656V46.44H110.123V37.656H112.123ZM107.227 42.872H105.787V41.176H107.227V37.864H109.195V46.328H107.227V42.872ZM106.379 45.544C105.963 45.6187 105.558 45.6773 105.163 45.72C104.768 45.7627 104.363 45.8 103.947 45.832C103.542 45.8533 103.11 45.8693 102.651 45.88C102.192 45.88 101.691 45.88 101.147 45.88H100.139V38.52H105.675V40.184H102.171V41.352H105.163V42.952H102.171V44.216C102.939 44.216 103.638 44.1947 104.267 44.152C104.907 44.0987 105.552 44.008 106.203 43.88L106.379 45.544ZM102.139 47.016H112.123V52.2H102.139V47.016ZM104.219 50.552H110.059V48.664H104.219V50.552ZM121.411 37.32H122.979L119.011 53.112H117.443L121.411 37.32ZM141.063 46.456H135.399V52.376H133.255V46.456H127.751V44.76H137.031C137.212 43.8213 137.324 42.984 137.367 42.248C137.41 41.512 137.431 40.824 137.431 40.184H129.271V38.488H139.495V39.816C139.495 40.5093 139.479 41.2507 139.447 42.04C139.415 42.8187 139.308 43.7253 139.127 44.76H141.063V46.456ZM155.094 37.624V52.36H153.094V44.952H151.862V51.704H149.894V37.864H151.862V43.256H153.094V37.624H155.094ZM142.87 39.144H148.678V48.696H142.87V39.144ZM144.838 47.048H146.726V40.808H144.838V47.048ZM170.852 45H168.708V52.376H166.596V37.64H168.708V43.256H170.852V45ZM162.58 41.608C162.58 42.1627 162.655 42.7387 162.804 43.336C162.954 43.9227 163.172 44.4827 163.46 45.016C163.759 45.5493 164.132 46.04 164.58 46.488C165.028 46.936 165.556 47.2987 166.164 47.576L164.996 49.24C164.164 48.8667 163.466 48.3333 162.9 47.64C162.335 46.936 161.887 46.1467 161.556 45.272C161.226 46.2427 160.767 47.1067 160.18 47.864C159.594 48.6213 158.879 49.2027 158.036 49.608L156.852 47.928C157.46 47.6507 157.988 47.2827 158.436 46.824C158.884 46.3547 159.258 45.8373 159.556 45.272C159.866 44.696 160.095 44.0933 160.244 43.464C160.394 42.8347 160.468 42.216 160.468 41.608V40.792H157.412V39.048H165.508V40.792H162.58V41.608Z" fill="#31383F"/>
<path d="M645.032 321.952V323.664H631.688V321.952H637.288V319.248H633.096V311.552H635.192V313.84H641.496V311.552H643.576V319.248H639.4V321.952H645.032ZM635.192 317.568H641.496V315.504H635.192V317.568ZM646.983 315.232C648.38 315.104 649.447 314.832 650.183 314.416C650.919 313.989 651.372 313.52 651.543 313.008H647.623V311.328H658.519V313.008H654.583C654.753 313.52 655.207 313.989 655.943 314.416C656.679 314.832 657.751 315.104 659.159 315.232L658.423 316.88C656.961 316.752 655.799 316.448 654.935 315.968C654.071 315.488 653.447 314.896 653.063 314.192C652.668 314.896 652.039 315.488 651.175 315.968C650.311 316.448 649.148 316.752 647.687 316.88L646.983 315.232ZM659.719 317.44V319.104H646.407V317.44H659.719ZM653.031 319.904C653.831 319.904 654.545 319.968 655.175 320.096C655.804 320.213 656.337 320.389 656.775 320.624C657.223 320.859 657.564 321.147 657.799 321.488C658.033 321.819 658.151 322.203 658.151 322.64C658.151 323.077 658.033 323.467 657.799 323.808C657.564 324.149 657.223 324.437 656.775 324.672C656.337 324.907 655.804 325.083 655.175 325.2C654.545 325.328 653.831 325.392 653.031 325.392C651.441 325.392 650.193 325.152 649.287 324.672C648.38 324.192 647.927 323.515 647.927 322.64C647.927 321.776 648.38 321.104 649.287 320.624C650.193 320.144 651.441 319.904 653.031 319.904ZM653.031 323.76C655.015 323.76 656.007 323.387 656.007 322.64C656.007 322.256 655.761 321.979 655.271 321.808C654.78 321.627 654.033 321.536 653.031 321.536C652.028 321.536 651.281 321.627 650.791 321.808C650.3 321.979 650.055 322.256 650.055 322.64C650.055 323.387 651.047 323.76 653.031 323.76ZM673.334 310.624V325.408H671.222V310.624H673.334ZM666.838 313.92C666.838 314.603 666.912 315.275 667.062 315.936C667.211 316.597 667.435 317.216 667.734 317.792C668.032 318.368 668.411 318.885 668.87 319.344C669.339 319.792 669.883 320.149 670.502 320.416L669.302 322.128C668.438 321.744 667.723 321.205 667.158 320.512C666.592 319.808 666.144 319.003 665.814 318.096C665.483 319.099 665.024 319.979 664.438 320.736C663.851 321.483 663.104 322.064 662.198 322.48L660.934 320.736C661.574 320.459 662.134 320.085 662.614 319.616C663.094 319.136 663.488 318.597 663.798 318C664.107 317.392 664.336 316.741 664.486 316.048C664.646 315.344 664.726 314.635 664.726 313.92V311.776H666.838V313.92ZM687.828 319.344C686.538 319.088 685.434 318.624 684.516 317.952C683.61 317.28 682.916 316.475 682.436 315.536C681.956 316.475 681.263 317.285 680.356 317.968C679.45 318.64 678.351 319.099 677.06 319.344L676.164 317.584C676.996 317.445 677.732 317.205 678.372 316.864C679.012 316.512 679.551 316.107 679.988 315.648C680.426 315.189 680.756 314.693 680.98 314.16C681.204 313.616 681.316 313.083 681.316 312.56V311.504H683.572V312.56C683.572 313.093 683.684 313.632 683.908 314.176C684.132 314.709 684.463 315.205 684.9 315.664C685.338 316.123 685.876 316.523 686.516 316.864C687.156 317.205 687.892 317.445 688.724 317.584L687.828 319.344ZM689.188 321.872V323.584H675.844V321.872H689.188ZM703.123 310.656V319.44H701.123V310.656H703.123ZM698.227 315.872H696.787V314.176H698.227V310.864H700.195V319.328H698.227V315.872ZM697.379 318.544C696.963 318.619 696.558 318.677 696.163 318.72C695.768 318.763 695.363 318.8 694.947 318.832C694.542 318.853 694.11 318.869 693.651 318.88C693.192 318.88 692.691 318.88 692.147 318.88H691.139V311.52H696.675V313.184H693.171V314.352H696.163V315.952H693.171V317.216C693.939 317.216 694.638 317.195 695.267 317.152C695.907 317.099 696.552 317.008 697.203 316.88L697.379 318.544ZM693.139 320.016H703.123V325.2H693.139V320.016ZM695.219 323.552H701.059V321.664H695.219V323.552ZM712.411 310.32H713.979L710.011 326.112H708.443L712.411 310.32ZM732.287 314.8V316.544H730.335V321.488H728.223V310.64H730.335V314.8H732.287ZM727.551 318.96C726.826 319.088 726.079 319.189 725.311 319.264C724.554 319.339 723.796 319.397 723.039 319.44C722.292 319.483 721.562 319.509 720.847 319.52C720.143 319.531 719.487 319.536 718.879 319.536L718.655 317.824L720.191 317.808V313.536H719.039V311.856H726.895V313.536H725.727V317.6C726.015 317.579 726.298 317.552 726.575 317.52C726.852 317.488 727.13 317.456 727.407 317.424L727.551 318.96ZM722.223 317.776C722.468 317.765 722.714 317.76 722.959 317.76C723.215 317.749 723.466 317.733 723.711 317.712V313.536H722.223V317.776ZM722.943 323.44H730.863V325.12H720.831V320.48H722.943V323.44ZM746.094 310.624V325.36H744.094V317.952H742.862V324.704H740.894V310.864H742.862V316.256H744.094V310.624H746.094ZM733.87 312.144H739.678V321.696H733.87V312.144ZM735.838 320.048H737.726V313.808H735.838V320.048ZM761.852 318H759.708V325.376H757.596V310.64H759.708V316.256H761.852V318ZM753.58 314.608C753.58 315.163 753.655 315.739 753.804 316.336C753.954 316.923 754.172 317.483 754.46 318.016C754.759 318.549 755.132 319.04 755.58 319.488C756.028 319.936 756.556 320.299 757.164 320.576L755.996 322.24C755.164 321.867 754.466 321.333 753.9 320.64C753.335 319.936 752.887 319.147 752.556 318.272C752.226 319.243 751.767 320.107 751.18 320.864C750.594 321.621 749.879 322.203 749.036 322.608L747.852 320.928C748.46 320.651 748.988 320.283 749.436 319.824C749.884 319.355 750.258 318.837 750.556 318.272C750.866 317.696 751.095 317.093 751.244 316.464C751.394 315.835 751.468 315.216 751.468 314.608V313.792H748.412V312.048H756.508V313.792H753.58V314.608Z" fill="#31383F"/>
<g opacity="0.75">
<path d="M312.889 341.436V354.092H311.447V341.436H312.889ZM306.547 347.288C306.071 347.288 305.632 347.223 305.231 347.092C304.839 346.961 304.498 346.779 304.209 346.546C303.919 346.313 303.691 346.033 303.523 345.706C303.364 345.379 303.285 345.02 303.285 344.628C303.285 344.236 303.364 343.881 303.523 343.564C303.691 343.237 303.919 342.957 304.209 342.724C304.498 342.491 304.839 342.309 305.231 342.178C305.632 342.047 306.071 341.982 306.547 341.982C307.023 341.982 307.457 342.047 307.849 342.178C308.25 342.309 308.595 342.491 308.885 342.724C309.174 342.957 309.398 343.237 309.557 343.564C309.725 343.881 309.809 344.236 309.809 344.628C309.809 345.02 309.725 345.379 309.557 345.706C309.398 346.033 309.174 346.313 308.885 346.546C308.595 346.779 308.25 346.961 307.849 347.092C307.457 347.223 307.023 347.288 306.547 347.288ZM306.547 343.172C305.987 343.172 305.534 343.303 305.189 343.564C304.843 343.825 304.671 344.18 304.671 344.628C304.671 345.076 304.843 345.435 305.189 345.706C305.534 345.967 305.987 346.098 306.547 346.098C307.107 346.098 307.559 345.967 307.905 345.706C308.25 345.435 308.423 345.076 308.423 344.628C308.423 344.18 308.25 343.825 307.905 343.564C307.559 343.303 307.107 343.172 306.547 343.172ZM310.719 348.828C310.159 348.94 309.594 349.029 309.025 349.094C308.455 349.159 307.891 349.215 307.331 349.262V353.7H305.889V349.346C305.291 349.365 304.717 349.379 304.167 349.388C303.625 349.397 303.103 349.402 302.599 349.402L302.431 348.212C303 348.212 303.616 348.207 304.279 348.198C304.951 348.189 305.641 348.17 306.351 348.142C307.069 348.114 307.788 348.072 308.507 348.016C309.235 347.951 309.939 347.867 310.621 347.764L310.719 348.828ZM326.972 345.86H325.18V349.08H323.738V341.422H325.18V344.67H326.972V345.86ZM322.59 348.142C322.16 348.217 321.736 348.277 321.316 348.324C320.905 348.371 320.471 348.408 320.014 348.436C319.566 348.464 319.08 348.483 318.558 348.492C318.044 348.501 317.466 348.506 316.822 348.506H315.828V342.276H321.68V343.438H317.27V344.796H321.442V345.93H317.27V347.344C317.83 347.344 318.338 347.339 318.796 347.33C319.262 347.321 319.696 347.302 320.098 347.274C320.508 347.246 320.9 347.209 321.274 347.162C321.656 347.115 322.044 347.059 322.436 346.994L322.59 348.142ZM316.864 349.668H325.18V354.078H323.738V350.83H316.864V349.668ZM339.851 345.174V346.364H338.059V350.746H336.617V341.436H338.059V345.174H339.851ZM335.889 348.478C335.263 348.581 334.619 348.665 333.957 348.73C333.294 348.786 332.636 348.833 331.983 348.87C331.329 348.907 330.69 348.931 330.065 348.94C329.449 348.949 328.87 348.954 328.329 348.954L328.175 347.764C328.408 347.764 328.646 347.764 328.889 347.764C329.141 347.764 329.397 347.759 329.659 347.75V343.718H328.511V342.542H335.273V343.718H334.125V347.596C334.722 347.549 335.277 347.493 335.791 347.428L335.889 348.478ZM331.045 347.736C331.315 347.727 331.591 347.717 331.871 347.708C332.16 347.699 332.445 347.685 332.725 347.666V343.718H331.045V347.736ZM331.507 352.664H338.563V353.84H330.051V349.878H331.507V352.664ZM351.862 341.436V354.064H350.49V347.54H349.048V353.476H347.69V341.674H349.048V346.364H350.49V341.436H351.862ZM341.488 342.822H346.36V350.788H341.488V342.822ZM342.832 349.64H345.016V343.97H342.832V349.64ZM367.885 341.436V354.078H366.499V341.436H367.885ZM363.951 341.744H365.295V353.462H363.951V349.206H361.879V348.03H363.951V346.028H362.103C361.814 347.101 361.324 348.091 360.633 348.996C359.952 349.892 359.014 350.695 357.819 351.404L356.993 350.382C358.309 349.589 359.289 348.683 359.933 347.666C360.587 346.639 360.965 345.468 361.067 344.152H357.609V342.99H362.495C362.495 343.317 362.481 343.634 362.453 343.942C362.435 344.25 362.402 344.553 362.355 344.852H363.951V341.744ZM379.826 344.432V345.958H381.576V347.148H379.826V348.926H378.384V341.436H379.826V343.242H381.576V344.432H379.826ZM376.844 345.202C376.844 345.65 376.76 346.061 376.592 346.434C376.424 346.807 376.186 347.129 375.878 347.4C375.58 347.661 375.225 347.867 374.814 348.016C374.404 348.165 373.956 348.24 373.47 348.24C372.994 348.24 372.551 348.165 372.14 348.016C371.73 347.867 371.37 347.661 371.062 347.4C370.764 347.129 370.53 346.807 370.362 346.434C370.194 346.061 370.11 345.65 370.11 345.202C370.11 344.754 370.194 344.343 370.362 343.97C370.53 343.597 370.764 343.279 371.062 343.018C371.37 342.747 371.73 342.537 372.14 342.388C372.551 342.239 372.994 342.164 373.47 342.164C373.956 342.164 374.404 342.239 374.814 342.388C375.225 342.537 375.58 342.747 375.878 343.018C376.186 343.279 376.424 343.597 376.592 343.97C376.76 344.343 376.844 344.754 376.844 345.202ZM371.524 345.202C371.524 345.762 371.706 346.205 372.07 346.532C372.444 346.859 372.91 347.022 373.47 347.022C374.04 347.022 374.506 346.859 374.87 346.532C375.244 346.205 375.43 345.762 375.43 345.202C375.43 344.642 375.244 344.199 374.87 343.872C374.506 343.545 374.04 343.382 373.47 343.382C372.91 343.382 372.444 343.545 372.07 343.872C371.706 344.199 371.524 344.642 371.524 345.202ZM371.51 349.486H379.826V354.092H378.384V350.648H371.51V349.486ZM393.335 341.408V354.092H391.879V346.742H389.177V345.566H391.879V341.408H393.335ZM387.413 344.544C387.413 345.132 387.483 345.711 387.623 346.28C387.772 346.84 387.982 347.367 388.253 347.862C388.524 348.347 388.85 348.786 389.233 349.178C389.625 349.561 390.064 349.864 390.549 350.088L389.695 351.25C388.967 350.895 388.351 350.387 387.847 349.724C387.352 349.061 386.97 348.305 386.699 347.456C386.419 348.361 386.022 349.164 385.509 349.864C385.005 350.555 384.389 351.087 383.661 351.46L382.751 350.312C383.246 350.069 383.689 349.743 384.081 349.332C384.482 348.921 384.818 348.464 385.089 347.96C385.369 347.447 385.584 346.896 385.733 346.308C385.882 345.72 385.957 345.132 385.957 344.544V342.458H387.413V344.544Z" fill="#31383F"/>
<circle cx="405" cy="348" r="2" fill="#31383F"/>
<circle cx="526" cy="348" r="2" fill="#31383F"/>
<circle cx="643" cy="349" r="2" fill="#31383F"/>
<path d="M426.479 341.422V348.59H425.037V345.762H422.531V344.572H425.037V341.422H426.479ZM422.503 342.192C422.503 343.013 422.368 343.769 422.097 344.46C421.836 345.151 421.453 345.776 420.949 346.336C420.454 346.887 419.848 347.367 419.129 347.778C418.41 348.179 417.594 348.511 416.679 348.772L416.091 347.624C417.584 347.232 418.732 346.672 419.535 345.944C420.347 345.216 420.818 344.357 420.949 343.368H416.763V342.192H422.503ZM418.247 349.108H426.479V353.924H418.247V349.108ZM419.661 352.762H425.065V350.256H419.661V352.762ZM440.646 347.638H438.672V354.078H437.23V341.436H438.672V346.448H440.646V347.638ZM433.31 344.558C433.31 345.118 433.38 345.678 433.52 346.238C433.669 346.789 433.875 347.307 434.136 347.792C434.407 348.277 434.729 348.716 435.102 349.108C435.485 349.491 435.914 349.799 436.39 350.032L435.508 351.18C434.827 350.825 434.239 350.331 433.744 349.696C433.249 349.052 432.867 348.305 432.596 347.456C432.325 348.333 431.929 349.122 431.406 349.822C430.893 350.513 430.272 351.045 429.544 351.418L428.662 350.256C429.157 350.013 429.6 349.691 429.992 349.29C430.393 348.879 430.729 348.422 431 347.918C431.28 347.414 431.495 346.877 431.644 346.308C431.793 345.729 431.868 345.146 431.868 344.558V342.486H433.31V344.558ZM448.242 341.128H449.362L445.47 354.82H444.35L448.242 341.128ZM463.954 341.422V348.59H462.512V345.762H460.006V344.572H462.512V341.422H463.954ZM459.978 342.192C459.978 343.013 459.842 343.769 459.572 344.46C459.31 345.151 458.928 345.776 458.424 346.336C457.929 346.887 457.322 347.367 456.604 347.778C455.885 348.179 455.068 348.511 454.154 348.772L453.566 347.624C455.059 347.232 456.207 346.672 457.01 345.944C457.822 345.216 458.293 344.357 458.424 343.368H454.238V342.192H459.978ZM455.722 349.108H463.954V353.924H455.722V349.108ZM457.136 352.762H462.54V350.256H457.136V352.762ZM476.734 347.26C475.661 347.092 474.723 346.756 473.92 346.252C473.118 345.748 472.506 345.132 472.086 344.404C471.666 345.141 471.05 345.762 470.238 346.266C469.436 346.761 468.498 347.092 467.424 347.26L466.864 346.098C467.508 346.005 468.101 345.846 468.642 345.622C469.193 345.389 469.664 345.113 470.056 344.796C470.448 344.469 470.756 344.115 470.98 343.732C471.204 343.34 471.316 342.934 471.316 342.514V341.842H472.842V342.514C472.842 342.925 472.954 343.326 473.178 343.718C473.402 344.11 473.71 344.469 474.102 344.796C474.504 345.113 474.975 345.389 475.516 345.622C476.067 345.846 476.66 346.005 477.294 346.098L476.734 347.26ZM477.784 349.626H472.758V354.092H471.316V349.626H466.36V348.45H477.784V349.626ZM485.716 341.128H486.836L482.944 354.82H481.824L485.716 341.128ZM501.33 347.26C500.257 347.092 499.319 346.756 498.516 346.252C497.714 345.748 497.102 345.132 496.682 344.404C496.262 345.141 495.646 345.762 494.834 346.266C494.032 346.761 493.094 347.092 492.02 347.26L491.46 346.098C492.104 346.005 492.697 345.846 493.238 345.622C493.789 345.389 494.26 345.113 494.652 344.796C495.044 344.469 495.352 344.115 495.576 343.732C495.8 343.34 495.912 342.934 495.912 342.514V341.842H497.438V342.514C497.438 342.925 497.55 343.326 497.774 343.718C497.998 344.11 498.306 344.469 498.698 344.796C499.1 345.113 499.571 345.389 500.112 345.622C500.663 345.846 501.256 346.005 501.89 346.098L501.33 347.26ZM502.38 349.626H497.354V354.092H495.912V349.626H490.956V348.45H502.38V349.626ZM514.265 341.408V354.106H512.809V341.408H514.265ZM506.005 349.906C507.004 349.897 507.96 349.864 508.875 349.808C509.799 349.743 510.76 349.631 511.759 349.472L511.913 350.648C511.372 350.741 510.844 350.821 510.331 350.886C509.818 350.942 509.304 350.989 508.791 351.026C508.278 351.054 507.76 351.073 507.237 351.082C506.724 351.091 506.187 351.096 505.627 351.096H504.549V346.084H508.959V343.732H504.521V342.556H510.415V347.246H506.005V349.906Z" fill="#31383F"/>
<path d="M549.06 347.638H547.086V354.078H545.644V341.436H547.086V346.448H549.06V347.638ZM541.724 344.558C541.724 345.118 541.794 345.678 541.934 346.238C542.083 346.789 542.289 347.307 542.55 347.792C542.821 348.277 543.143 348.716 543.516 349.108C543.899 349.491 544.328 349.799 544.804 350.032L543.922 351.18C543.241 350.825 542.653 350.331 542.158 349.696C541.663 349.052 541.281 348.305 541.01 347.456C540.739 348.333 540.343 349.122 539.82 349.822C539.307 350.513 538.686 351.045 537.958 351.418L537.076 350.256C537.571 350.013 538.014 349.691 538.406 349.29C538.807 348.879 539.143 348.422 539.414 347.918C539.694 347.414 539.909 346.877 540.058 346.308C540.207 345.729 540.282 345.146 540.282 344.558V342.486H541.724V344.558ZM560.973 343.97H550.739V342.822H555.163V341.394H556.605V342.822H560.973V343.97ZM551.677 346.728C551.677 346.028 552.046 345.496 552.783 345.132C553.53 344.768 554.566 344.586 555.891 344.586C557.216 344.586 558.248 344.768 558.985 345.132C559.732 345.496 560.105 346.028 560.105 346.728C560.105 347.409 559.732 347.937 558.985 348.31C558.248 348.683 557.216 348.87 555.891 348.87C554.566 348.87 553.53 348.683 552.783 348.31C552.046 347.937 551.677 347.409 551.677 346.728ZM558.593 346.728C558.593 346.028 557.692 345.678 555.891 345.678C554.08 345.678 553.175 346.028 553.175 346.728C553.175 347.437 554.08 347.792 555.891 347.792C557.692 347.792 558.593 347.437 558.593 346.728ZM561.631 350.788H556.605V354.092H555.163V350.788H550.165V349.626H561.631V350.788ZM577.823 345.44V346.63H576.143V350.928H574.687V341.436H576.143V345.44H577.823ZM571.453 346.7C571.583 346.019 571.663 345.426 571.691 344.922C571.728 344.409 571.751 343.956 571.761 343.564H566.819V342.388H573.175V343.116C573.175 343.545 573.161 344.073 573.133 344.698C573.114 345.314 573.025 346.033 572.867 346.854L571.453 346.7ZM574.015 348.534C573.361 348.646 572.689 348.739 571.999 348.814C571.308 348.879 570.622 348.931 569.941 348.968C569.269 349.005 568.615 349.033 567.981 349.052C567.346 349.061 566.753 349.066 566.203 349.066L566.049 347.89C566.441 347.89 566.847 347.89 567.267 347.89C567.687 347.89 568.121 347.881 568.569 347.862V345.272H569.997V347.82C570.669 347.792 571.331 347.755 571.985 347.708C572.647 347.661 573.291 347.587 573.917 347.484L574.015 348.534ZM569.409 352.664H576.549V353.84H567.953V350.088H569.409V352.664ZM589.498 341.408V354.106H588.042V341.408H589.498ZM581.238 349.906C582.236 349.897 583.193 349.864 584.108 349.808C585.032 349.743 585.993 349.631 586.992 349.472L587.146 350.648C586.604 350.741 586.077 350.821 585.564 350.886C585.05 350.942 584.537 350.989 584.024 351.026C583.51 351.054 582.992 351.073 582.47 351.082C581.956 351.091 581.42 351.096 580.86 351.096H579.782V346.084H584.192V343.732H579.754V342.556H585.648V347.246H581.238V349.906ZM605.479 341.422V354.106H604.023V341.422H605.479ZM599.739 344.558C599.739 345.146 599.814 345.725 599.963 346.294C600.122 346.854 600.341 347.381 600.621 347.876C600.911 348.361 601.256 348.8 601.657 349.192C602.068 349.575 602.521 349.878 603.015 350.102L602.175 351.25C601.447 350.905 600.813 350.405 600.271 349.752C599.739 349.099 599.329 348.333 599.039 347.456C598.75 348.389 598.33 349.211 597.779 349.92C597.238 350.62 596.585 351.157 595.819 351.53L594.965 350.326C595.469 350.102 595.927 349.789 596.337 349.388C596.748 348.987 597.098 348.529 597.387 348.016C597.677 347.503 597.901 346.952 598.059 346.364C598.218 345.767 598.297 345.165 598.297 344.558V342.486H599.739V344.558ZM618.288 348.8C617.775 348.697 617.28 348.539 616.804 348.324C616.338 348.109 615.899 347.853 615.488 347.554C615.087 347.255 614.728 346.919 614.41 346.546C614.093 346.163 613.832 345.757 613.626 345.328C613.421 345.757 613.16 346.163 612.842 346.546C612.525 346.919 612.161 347.255 611.75 347.554C611.349 347.853 610.91 348.109 610.434 348.324C609.968 348.539 609.478 348.697 608.964 348.8L608.348 347.61C608.974 347.498 609.557 347.297 610.098 347.008C610.649 346.719 611.13 346.378 611.54 345.986C611.951 345.585 612.273 345.146 612.506 344.67C612.749 344.185 612.87 343.695 612.87 343.2V342.248H614.396V343.2C614.396 343.704 614.513 344.199 614.746 344.684C614.989 345.16 615.316 345.599 615.726 346C616.137 346.392 616.613 346.733 617.154 347.022C617.705 347.302 618.293 347.498 618.918 347.61L618.288 348.8ZM619.408 351.264V352.454H607.956V351.264H619.408ZM631.531 341.422V349.024H630.159V341.422H631.531ZM627.723 345.706H626.225V344.544H627.723V341.632H629.067V348.912H627.723V345.706ZM626.799 348.072C626.435 348.137 626.08 348.193 625.735 348.24C625.399 348.277 625.049 348.305 624.685 348.324C624.321 348.343 623.938 348.357 623.537 348.366C623.136 348.375 622.688 348.38 622.193 348.38H621.367V342.22H626.127V343.382H622.753V344.698H625.665V345.804H622.753V347.232C623.154 347.232 623.523 347.227 623.859 347.218C624.204 347.209 624.531 347.19 624.839 347.162C625.147 347.134 625.45 347.101 625.749 347.064C626.048 347.027 626.351 346.98 626.659 346.924L626.799 348.072ZM623.117 349.57H631.531V353.924H623.117V349.57ZM624.545 352.776H630.131V350.718H624.545V352.776Z" fill="#31383F"/>
<path d="M664.893 342.436V355.092H663.437V348.596H660.721V347.406H663.437V342.436H664.893ZM660.777 343.766C660.777 344.69 660.684 345.581 660.497 346.44C660.31 347.299 659.998 348.111 659.559 348.876C659.12 349.632 658.537 350.341 657.809 351.004C657.09 351.657 656.194 352.25 655.121 352.782L654.351 351.662C655.172 351.251 655.882 350.808 656.479 350.332C657.076 349.847 657.576 349.324 657.977 348.764C658.378 348.204 658.686 347.607 658.901 346.972C659.116 346.337 659.251 345.661 659.307 344.942H654.911V343.766H660.777ZM678.08 342.436V355.064H676.708V348.498H675.21V354.448H673.852V342.688H675.21V347.322H676.708V342.436H678.08ZM669.078 350.962C669.75 350.953 670.399 350.929 671.024 350.892C671.659 350.845 672.34 350.761 673.068 350.64L673.194 351.816C672.345 351.965 671.551 352.059 670.814 352.096C670.086 352.133 669.33 352.152 668.546 352.152H667.692V347.224H671.024V344.914H667.664V343.738H672.41V348.386H669.078V350.962ZM691.883 348.624H689.965V355.064H688.523V342.422H689.965V347.42H691.883V348.624ZM686.661 343.766C686.661 344.681 686.558 345.567 686.353 346.426C686.148 347.285 685.816 348.097 685.359 348.862C684.902 349.627 684.314 350.341 683.595 351.004C682.876 351.657 681.999 352.245 680.963 352.768L680.165 351.662C683.245 350.075 684.93 347.835 685.219 344.942H680.795V343.766H686.661ZM703.754 342.45V349.954H702.382V346.776H701.066V349.898H699.708V342.688H701.066V345.6H702.382V342.45H703.754ZM698.91 346.244C698.91 346.692 698.835 347.103 698.686 347.476C698.546 347.84 698.345 348.157 698.084 348.428C697.832 348.689 697.528 348.895 697.174 349.044C696.828 349.193 696.446 349.268 696.026 349.268C695.606 349.268 695.218 349.193 694.864 349.044C694.509 348.895 694.206 348.689 693.954 348.428C693.702 348.157 693.501 347.84 693.352 347.476C693.212 347.103 693.142 346.692 693.142 346.244C693.142 345.796 693.212 345.385 693.352 345.012C693.501 344.639 693.702 344.321 693.954 344.06C694.206 343.789 694.509 343.584 694.864 343.444C695.218 343.295 695.606 343.22 696.026 343.22C696.446 343.22 696.828 343.295 697.174 343.444C697.528 343.584 697.832 343.789 698.084 344.06C698.345 344.321 698.546 344.639 698.686 345.012C698.835 345.385 698.91 345.796 698.91 346.244ZM694.444 346.244C694.444 346.804 694.588 347.247 694.878 347.574C695.167 347.901 695.55 348.064 696.026 348.064C696.483 348.064 696.861 347.901 697.16 347.574C697.458 347.247 697.608 346.804 697.608 346.244C697.608 345.684 697.458 345.245 697.16 344.928C696.861 344.601 696.483 344.438 696.026 344.438C695.55 344.438 695.167 344.601 694.878 344.928C694.588 345.245 694.444 345.684 694.444 346.244ZM695.186 350.612H703.754V355.078H702.312V351.774H695.186V350.612ZM720.73 346.188V347.378H718.938V351.704H717.496V342.436H718.938V346.188H720.73ZM715.956 346.44C715.956 346.897 715.867 347.322 715.69 347.714C715.522 348.097 715.288 348.428 714.99 348.708C714.691 348.988 714.332 349.207 713.912 349.366C713.501 349.525 713.058 349.604 712.582 349.604C712.106 349.604 711.662 349.525 711.252 349.366C710.841 349.207 710.486 348.988 710.188 348.708C709.889 348.428 709.651 348.097 709.474 347.714C709.306 347.322 709.222 346.897 709.222 346.44C709.222 345.973 709.306 345.549 709.474 345.166C709.651 344.783 709.889 344.452 710.188 344.172C710.486 343.892 710.841 343.677 711.252 343.528C711.662 343.369 712.106 343.29 712.582 343.29C713.058 343.29 713.501 343.369 713.912 343.528C714.332 343.677 714.691 343.892 714.99 344.172C715.288 344.452 715.522 344.783 715.69 345.166C715.867 345.549 715.956 345.973 715.956 346.44ZM710.636 346.44C710.636 346.729 710.682 346.995 710.776 347.238C710.878 347.471 711.018 347.672 711.196 347.84C711.373 348.008 711.578 348.139 711.812 348.232C712.045 348.316 712.302 348.358 712.582 348.358C712.862 348.358 713.118 348.316 713.352 348.232C713.594 348.139 713.8 348.008 713.968 347.84C714.145 347.672 714.285 347.471 714.388 347.238C714.49 346.995 714.542 346.729 714.542 346.44C714.542 346.151 714.49 345.889 714.388 345.656C714.285 345.423 714.145 345.222 713.968 345.054C713.8 344.886 713.594 344.76 713.352 344.676C713.118 344.583 712.862 344.536 712.582 344.536C712.302 344.536 712.045 344.583 711.812 344.676C711.578 344.76 711.373 344.886 711.196 345.054C711.018 345.222 710.878 345.423 710.776 345.656C710.682 345.889 710.636 346.151 710.636 346.44ZM712.386 353.664H719.442V354.84H710.93V350.752H712.386V353.664ZM730.976 345.824V342.45H732.418V351.69H730.976V347.014H728.68V345.824H730.976ZM728.75 349.898C728.05 349.655 727.448 349.301 726.944 348.834C726.45 348.358 726.067 347.807 725.796 347.182C725.516 347.882 725.115 348.493 724.592 349.016C724.07 349.529 723.43 349.917 722.674 350.178L721.932 349.044C722.427 348.876 722.866 348.652 723.248 348.372C723.631 348.083 723.953 347.761 724.214 347.406C724.485 347.042 724.69 346.655 724.83 346.244C724.97 345.824 725.04 345.404 725.04 344.984V344.55H722.366V343.388H729.128V344.55H726.496V344.984C726.496 345.376 726.562 345.763 726.692 346.146C726.823 346.519 727.014 346.874 727.266 347.21C727.518 347.546 727.826 347.849 728.19 348.12C728.564 348.391 728.988 348.61 729.464 348.778L728.75 349.898ZM732.74 353.664V354.84H724.228V350.892H725.67V353.664H732.74ZM748.428 342.436V355.092H746.972V348.596H744.256V347.406H746.972V342.436H748.428ZM744.312 343.766C744.312 344.69 744.219 345.581 744.032 346.44C743.846 347.299 743.533 348.111 743.094 348.876C742.656 349.632 742.072 350.341 741.344 351.004C740.626 351.657 739.73 352.25 738.656 352.782L737.886 351.662C738.708 351.251 739.417 350.808 740.014 350.332C740.612 349.847 741.111 349.324 741.512 348.764C741.914 348.204 742.222 347.607 742.436 346.972C742.651 346.337 742.786 345.661 742.842 344.942H738.446V343.766H744.312ZM761.615 342.436V355.064H760.243V348.498H758.745V354.448H757.387V342.688H758.745V347.322H760.243V342.436H761.615ZM752.613 350.962C753.285 350.953 753.934 350.929 754.559 350.892C755.194 350.845 755.875 350.761 756.603 350.64L756.729 351.816C755.88 351.965 755.086 352.059 754.349 352.096C753.621 352.133 752.865 352.152 752.081 352.152H751.227V347.224H754.559V344.914H751.199V343.738H755.945V348.386H752.613V350.962Z" fill="#31383F"/>
</g>
<g opacity="0.75">
<path d="M51.172 68.436V81.092H49.73V68.436H51.172ZM44.83 74.288C44.354 74.288 43.9153 74.2227 43.514 74.092C43.122 73.9613 42.7813 73.7793 42.492 73.546C42.2027 73.3127 41.974 73.0327 41.806 72.706C41.6473 72.3793 41.568 72.02 41.568 71.628C41.568 71.236 41.6473 70.8813 41.806 70.564C41.974 70.2373 42.2027 69.9573 42.492 69.724C42.7813 69.4907 43.122 69.3087 43.514 69.178C43.9153 69.0473 44.354 68.982 44.83 68.982C45.306 68.982 45.74 69.0473 46.132 69.178C46.5333 69.3087 46.8787 69.4907 47.168 69.724C47.4573 69.9573 47.6813 70.2373 47.84 70.564C48.008 70.8813 48.092 71.236 48.092 71.628C48.092 72.02 48.008 72.3793 47.84 72.706C47.6813 73.0327 47.4573 73.3127 47.168 73.546C46.8787 73.7793 46.5333 73.9613 46.132 74.092C45.74 74.2227 45.306 74.288 44.83 74.288ZM44.83 70.172C44.27 70.172 43.8173 70.3027 43.472 70.564C43.1267 70.8253 42.954 71.18 42.954 71.628C42.954 72.076 43.1267 72.4353 43.472 72.706C43.8173 72.9673 44.27 73.098 44.83 73.098C45.39 73.098 45.8427 72.9673 46.188 72.706C46.5333 72.4353 46.706 72.076 46.706 71.628C46.706 71.18 46.5333 70.8253 46.188 70.564C45.8427 70.3027 45.39 70.172 44.83 70.172ZM49.002 75.828C48.442 75.94 47.8773 76.0287 47.308 76.094C46.7387 76.1593 46.174 76.2153 45.614 76.262V80.7H44.172V76.346C43.5747 76.3647 43.0007 76.3787 42.45 76.388C41.9087 76.3973 41.386 76.402 40.882 76.402L40.714 75.212C41.2833 75.212 41.8993 75.2073 42.562 75.198C43.234 75.1887 43.9247 75.17 44.634 75.142C45.3527 75.114 46.0713 75.072 46.79 75.016C47.518 74.9507 48.2227 74.8667 48.904 74.764L49.002 75.828ZM65.2549 72.86H63.4629V76.08H62.0209V68.422H63.4629V71.67H65.2549V72.86ZM60.8729 75.142C60.4436 75.2167 60.0189 75.2773 59.5989 75.324C59.1882 75.3707 58.7542 75.408 58.2969 75.436C57.8489 75.464 57.3636 75.4827 56.8409 75.492C56.3276 75.5013 55.7489 75.506 55.1049 75.506H54.1109V69.276H59.9629V70.438H55.5529V71.796H59.7249V72.93H55.5529V74.344C56.1129 74.344 56.6216 74.3393 57.0789 74.33C57.5456 74.3207 57.9796 74.302 58.3809 74.274C58.7916 74.246 59.1836 74.2087 59.5569 74.162C59.9396 74.1153 60.3269 74.0593 60.7189 73.994L60.8729 75.142ZM55.1469 76.668H63.4629V81.078H62.0209V77.83H55.1469V76.668ZM77.9098 75.8H72.8698V81.078H71.4138V75.8H66.4718V74.61H74.6898C74.8765 73.7327 74.9838 72.9533 75.0118 72.272C75.0398 71.5907 75.0538 70.956 75.0538 70.368H67.8438V69.206H76.4678V70.312C76.4678 70.9093 76.4538 71.5487 76.4258 72.23C76.3978 72.9113 76.3045 73.7047 76.1458 74.61H77.9098V75.8ZM90.1447 68.436V81.064H88.7727V74.54H87.3307V80.476H85.9727V68.674H87.3307V73.364H88.7727V68.436H90.1447ZM79.7707 69.822H84.6427V77.788H79.7707V69.822ZM81.1147 76.64H83.2987V70.97H81.1147V76.64ZM106.168 68.436V81.078H104.782V68.436H106.168ZM102.234 68.744H103.578V80.462H102.234V76.206H100.162V75.03H102.234V73.028H100.386C100.097 74.1013 99.6072 75.0907 98.9165 75.996C98.2352 76.892 97.2972 77.6947 96.1025 78.404L95.2765 77.382C96.5925 76.5887 97.5725 75.6833 98.2165 74.666C98.8698 73.6393 99.2478 72.468 99.3505 71.152H95.8925V69.99H100.778C100.778 70.3167 100.764 70.634 100.736 70.942C100.718 71.25 100.685 71.5533 100.638 71.852H102.234V68.744ZM118.109 71.432V72.958H119.859V74.148H118.109V75.926H116.667V68.436H118.109V70.242H119.859V71.432H118.109ZM115.127 72.202C115.127 72.65 115.043 73.0607 114.875 73.434C114.707 73.8073 114.469 74.1293 114.161 74.4C113.863 74.6613 113.508 74.8667 113.097 75.016C112.687 75.1653 112.239 75.24 111.753 75.24C111.277 75.24 110.834 75.1653 110.423 75.016C110.013 74.8667 109.653 74.6613 109.345 74.4C109.047 74.1293 108.813 73.8073 108.645 73.434C108.477 73.0607 108.393 72.65 108.393 72.202C108.393 71.754 108.477 71.3433 108.645 70.97C108.813 70.5967 109.047 70.2793 109.345 70.018C109.653 69.7473 110.013 69.5373 110.423 69.388C110.834 69.2387 111.277 69.164 111.753 69.164C112.239 69.164 112.687 69.2387 113.097 69.388C113.508 69.5373 113.863 69.7473 114.161 70.018C114.469 70.2793 114.707 70.5967 114.875 70.97C115.043 71.3433 115.127 71.754 115.127 72.202ZM109.807 72.202C109.807 72.762 109.989 73.2053 110.353 73.532C110.727 73.8587 111.193 74.022 111.753 74.022C112.323 74.022 112.789 73.8587 113.153 73.532C113.527 73.2053 113.713 72.762 113.713 72.202C113.713 71.642 113.527 71.1987 113.153 70.872C112.789 70.5453 112.323 70.382 111.753 70.382C111.193 70.382 110.727 70.5453 110.353 70.872C109.989 71.1987 109.807 71.642 109.807 72.202ZM109.793 76.486H118.109V81.092H116.667V77.648H109.793V76.486ZM131.618 68.408V81.092H130.162V73.742H127.46V72.566H130.162V68.408H131.618ZM125.696 71.544C125.696 72.132 125.766 72.7107 125.906 73.28C126.056 73.84 126.266 74.3673 126.536 74.862C126.807 75.3473 127.134 75.786 127.516 76.178C127.908 76.5607 128.347 76.864 128.832 77.088L127.978 78.25C127.25 77.8953 126.634 77.3867 126.13 76.724C125.636 76.0613 125.253 75.3053 124.982 74.456C124.702 75.3613 124.306 76.164 123.792 76.864C123.288 77.5547 122.672 78.0867 121.944 78.46L121.034 77.312C121.529 77.0693 121.972 76.7427 122.364 76.332C122.766 75.9213 123.102 75.464 123.372 74.96C123.652 74.4467 123.867 73.896 124.016 73.308C124.166 72.72 124.24 72.132 124.24 71.544V69.458H125.696V71.544Z" fill="#31383F"/>
<path d="M166.376 72.174V73.364H164.584V77.746H163.142V68.436H164.584V72.174H166.376ZM162.414 75.478C161.789 75.5807 161.145 75.6647 160.482 75.73C159.819 75.786 159.161 75.8327 158.508 75.87C157.855 75.9073 157.215 75.9307 156.59 75.94C155.974 75.9493 155.395 75.954 154.854 75.954L154.7 74.764C154.933 74.764 155.171 74.764 155.414 74.764C155.666 74.764 155.923 74.7593 156.184 74.75V70.718H155.036V69.542H161.798V70.718H160.65V74.596C161.247 74.5493 161.803 74.4933 162.316 74.428L162.414 75.478ZM157.57 74.736C157.841 74.7267 158.116 74.7173 158.396 74.708C158.685 74.6987 158.97 74.6847 159.25 74.666V70.718H157.57V74.736ZM158.032 79.664H165.088V80.84H156.576V76.878H158.032V79.664ZM178.387 68.436V81.064H177.015V74.54H175.573V80.476H174.215V68.674H175.573V73.364H177.015V68.436H178.387ZM168.013 69.822H172.885V77.788H168.013V69.822ZM169.357 76.64H171.541V70.97H169.357V76.64ZM192.232 74.61H190.258V81.078H188.816V68.436H190.258V73.42H192.232V74.61ZM184.896 72.104C184.896 72.5893 184.97 73.0887 185.12 73.602C185.269 74.106 185.479 74.5913 185.75 75.058C186.03 75.5153 186.366 75.9353 186.758 76.318C187.15 76.6913 187.584 76.99 188.06 77.214L187.262 78.348C186.552 78.012 185.936 77.522 185.414 76.878C184.891 76.234 184.485 75.5013 184.196 74.68C183.916 75.5667 183.505 76.3647 182.964 77.074C182.432 77.7833 181.797 78.3153 181.06 78.67L180.234 77.522C180.719 77.2887 181.158 76.976 181.55 76.584C181.951 76.1827 182.292 75.7393 182.572 75.254C182.852 74.7593 183.066 74.2413 183.216 73.7C183.374 73.1587 183.454 72.6267 183.454 72.104V70.886H180.696V69.696H187.57V70.886H184.896V72.104ZM205.512 72.468H202.95V71.278H205.512V68.436H206.954V77.844H205.512V72.468ZM203.174 75.856C202.492 75.604 201.909 75.2353 201.424 74.75C200.938 74.2647 200.56 73.7 200.29 73.056C200.01 73.7653 199.608 74.3907 199.086 74.932C198.572 75.464 197.952 75.87 197.224 76.15L196.454 75.03C196.948 74.8527 197.387 74.6147 197.77 74.316C198.152 74.0173 198.47 73.6767 198.722 73.294C198.983 72.9113 199.179 72.496 199.31 72.048C199.45 71.6 199.52 71.1427 199.52 70.676V69.206H200.99V70.704C200.99 71.124 201.055 71.5393 201.186 71.95C201.316 72.3607 201.508 72.7433 201.76 73.098C202.012 73.4527 202.32 73.7747 202.684 74.064C203.048 74.344 203.468 74.568 203.944 74.736L203.174 75.856ZM207.248 79.664V80.84H198.722V76.85H200.178V79.664H207.248ZM218.39 71.614V68.436H219.832V75.968H218.39V72.79H216.15V71.614H218.39ZM216.164 75.562C215.464 75.3193 214.867 74.9647 214.372 74.498C213.878 74.022 213.495 73.476 213.224 72.86C212.944 73.56 212.543 74.176 212.02 74.708C211.498 75.2307 210.858 75.6273 210.102 75.898L209.36 74.75C209.855 74.5727 210.294 74.344 210.676 74.064C211.059 73.7747 211.381 73.448 211.642 73.084C211.904 72.72 212.104 72.328 212.244 71.908C212.384 71.488 212.454 71.0633 212.454 70.634V70.452H209.78V69.29H216.542V70.452H213.91V70.62C213.91 71.0213 213.976 71.4133 214.106 71.796C214.237 72.1787 214.428 72.538 214.68 72.874C214.932 73.21 215.24 73.5133 215.604 73.784C215.978 74.0453 216.402 74.26 216.878 74.428L216.164 75.562ZM215.632 76.304C216.295 76.304 216.888 76.36 217.41 76.472C217.933 76.5747 218.376 76.7287 218.74 76.934C219.114 77.1393 219.398 77.3913 219.594 77.69C219.79 77.9793 219.888 78.3153 219.888 78.698C219.888 79.0713 219.79 79.4073 219.594 79.706C219.398 80.0047 219.114 80.2567 218.74 80.462C218.376 80.6673 217.933 80.8213 217.41 80.924C216.888 81.036 216.295 81.092 215.632 81.092C214.97 81.092 214.372 81.036 213.84 80.924C213.318 80.8213 212.87 80.6673 212.496 80.462C212.132 80.2567 211.852 80.0047 211.656 79.706C211.46 79.4073 211.362 79.0713 211.362 78.698C211.362 78.3153 211.46 77.9793 211.656 77.69C211.852 77.3913 212.132 77.1393 212.496 76.934C212.87 76.7287 213.318 76.5747 213.84 76.472C214.372 76.36 214.97 76.304 215.632 76.304ZM215.632 79.972C216.538 79.972 217.233 79.8647 217.718 79.65C218.204 79.4353 218.446 79.118 218.446 78.698C218.446 78.278 218.204 77.9607 217.718 77.746C217.233 77.5313 216.538 77.424 215.632 77.424C214.727 77.424 214.027 77.5313 213.532 77.746C213.047 77.9607 212.804 78.278 212.804 78.698C212.804 79.118 213.047 79.4353 213.532 79.65C214.027 79.8647 214.727 79.972 215.632 79.972Z" fill="#31383F"/>
<path d="M254.166 78.348V79.538H242.714V78.348H247.698V75.8H244.002V69.276H245.43V71.404H251.422V69.276H252.85V75.8H249.14V78.348H254.166ZM245.43 74.638H251.422V72.566H245.43V74.638ZM256.153 72.608C256.741 72.552 257.278 72.4493 257.763 72.3C258.258 72.1507 258.687 71.9687 259.051 71.754C259.415 71.5393 259.704 71.3013 259.919 71.04C260.143 70.7787 260.278 70.5033 260.325 70.214H256.643V69.052H265.981V70.214H262.271C262.318 70.5033 262.448 70.7787 262.663 71.04C262.887 71.3013 263.181 71.5393 263.545 71.754C263.909 71.9687 264.334 72.1507 264.819 72.3C265.314 72.4493 265.855 72.552 266.443 72.608L265.939 73.728C264.81 73.6067 263.839 73.3313 263.027 72.902C262.215 72.4727 261.641 71.9313 261.305 71.278C260.96 71.9313 260.381 72.4727 259.569 72.902C258.766 73.3313 257.8 73.6067 256.671 73.728L256.153 72.608ZM267.017 74.372V75.534H255.579V74.372H267.017ZM261.277 76.444C262.64 76.444 263.704 76.6493 264.469 77.06C265.244 77.4613 265.631 78.0307 265.631 78.768C265.631 79.5053 265.253 80.0747 264.497 80.476C263.75 80.8773 262.677 81.078 261.277 81.078C260.605 81.078 259.998 81.0267 259.457 80.924C258.916 80.8213 258.458 80.672 258.085 80.476C257.712 80.28 257.422 80.0373 257.217 79.748C257.021 79.4587 256.923 79.132 256.923 78.768C256.923 78.404 257.021 78.0773 257.217 77.788C257.422 77.4987 257.712 77.256 258.085 77.06C258.458 76.8547 258.916 76.7007 259.457 76.598C259.998 76.4953 260.605 76.444 261.277 76.444ZM261.277 79.944C262.21 79.944 262.924 79.846 263.419 79.65C263.923 79.454 264.175 79.16 264.175 78.768C264.175 78.376 263.923 78.082 263.419 77.886C262.924 77.6807 262.21 77.578 261.277 77.578C260.344 77.578 259.63 77.6807 259.135 77.886C258.64 78.082 258.393 78.376 258.393 78.768C258.393 79.16 258.64 79.454 259.135 79.65C259.63 79.846 260.344 79.944 261.277 79.944ZM278.972 68.408V81.092H277.516V73.742H274.814V72.566H277.516V68.408H278.972ZM273.05 71.544C273.05 72.132 273.12 72.7107 273.26 73.28C273.409 73.84 273.619 74.3673 273.89 74.862C274.16 75.3473 274.487 75.786 274.87 76.178C275.262 76.5607 275.7 76.864 276.186 77.088L275.332 78.25C274.604 77.8953 273.988 77.3867 273.484 76.724C272.989 76.0613 272.606 75.3053 272.336 74.456C272.056 75.3613 271.659 76.164 271.146 76.864C270.642 77.5547 270.026 78.0867 269.298 78.46L268.388 77.312C268.882 77.0693 269.326 76.7427 269.718 76.332C270.119 75.9213 270.455 75.464 270.726 74.96C271.006 74.4467 271.22 73.896 271.37 73.308C271.519 72.72 271.594 72.132 271.594 71.544V69.458H273.05V71.544ZM283.941 82.03C283.287 80.966 282.779 79.8553 282.415 78.698C282.051 77.5313 281.869 76.2527 281.869 74.862C281.869 73.4713 282.051 72.1973 282.415 71.04C282.779 69.8827 283.287 68.772 283.941 67.708L284.949 68.142C284.333 69.1593 283.885 70.2327 283.605 71.362C283.325 72.482 283.185 73.6487 283.185 74.862C283.185 76.0847 283.325 77.256 283.605 78.376C283.885 79.496 284.333 80.5647 284.949 81.582L283.941 82.03ZM298.031 74.624H296.113V81.064H294.671V68.422H296.113V73.42H298.031V74.624ZM292.851 69.696C292.851 70.6387 292.767 71.5533 292.599 72.44C292.441 73.3173 292.147 74.1527 291.717 74.946C291.297 75.7393 290.719 76.486 289.981 77.186C289.244 77.8767 288.301 78.5113 287.153 79.09L286.369 77.97C287.489 77.41 288.39 76.808 289.071 76.164C289.753 75.5107 290.28 74.7873 290.653 73.994L286.649 74.386L286.453 73.14L291.087 72.846C291.255 72.23 291.367 71.572 291.423 70.872H287.097V69.696H292.851ZM309.37 75.562H300.606V69.542H309.272V70.718H302.048V74.4H309.37V75.562ZM310.672 78.264V79.454H299.206V78.264H310.672ZM312.001 81.582C312.617 80.5647 313.065 79.496 313.345 78.376C313.625 77.256 313.765 76.0847 313.765 74.862C313.765 73.6487 313.625 72.482 313.345 71.362C313.065 70.2327 312.617 69.1593 312.001 68.142L313.009 67.708C313.681 68.772 314.194 69.8827 314.549 71.04C314.913 72.1973 315.095 73.4713 315.095 74.862C315.095 76.2527 314.913 77.5313 314.549 78.698C314.185 79.8553 313.672 80.966 313.009 82.03L312.001 81.582ZM331.841 71.026V72.216H330.063V74.918H328.621V68.436H330.063V71.026H331.841ZM326.591 74.498H320.627V68.968H322.069V70.634H325.163V68.968H326.591V74.498ZM325.163 71.74H322.069V73.35H325.163V71.74ZM323.343 79.832H330.483V80.966H321.929V77.648H328.635V76.598H321.901V75.478H330.063V78.712H323.343V79.832ZM344.523 73.49V74.666H333.071V73.49H341.359C341.509 72.79 341.597 72.1787 341.625 71.656C341.663 71.124 341.681 70.62 341.681 70.144H334.513V68.982H343.095V69.948C343.095 70.4333 343.081 70.956 343.053 71.516C343.035 72.076 342.946 72.734 342.787 73.49H344.523ZM341.639 75.66H343.081V80.924H334.499V75.66H335.927V77.172H341.639V75.66ZM341.639 78.292H335.927V79.762H341.639V78.292Z" fill="#31383F"/>
<path d="M378.474 74.638H376.5V81.078H375.058V68.436H376.5V73.448H378.474V74.638ZM371.138 71.558C371.138 72.118 371.208 72.678 371.348 73.238C371.497 73.7887 371.703 74.3067 371.964 74.792C372.235 75.2773 372.557 75.716 372.93 76.108C373.313 76.4907 373.742 76.7987 374.218 77.032L373.336 78.18C372.655 77.8253 372.067 77.3307 371.572 76.696C371.077 76.052 370.695 75.3053 370.424 74.456C370.153 75.3333 369.757 76.122 369.234 76.822C368.721 77.5127 368.1 78.0447 367.372 78.418L366.49 77.256C366.985 77.0133 367.428 76.6913 367.82 76.29C368.221 75.8793 368.557 75.422 368.828 74.918C369.108 74.414 369.323 73.8773 369.472 73.308C369.621 72.7293 369.696 72.146 369.696 71.558V69.486H371.138V71.558ZM390.387 70.97H380.153V69.822H384.577V68.394H386.019V69.822H390.387V70.97ZM381.091 73.728C381.091 73.028 381.46 72.496 382.197 72.132C382.944 71.768 383.98 71.586 385.305 71.586C386.63 71.586 387.662 71.768 388.399 72.132C389.146 72.496 389.519 73.028 389.519 73.728C389.519 74.4093 389.146 74.9367 388.399 75.31C387.662 75.6833 386.63 75.87 385.305 75.87C383.98 75.87 382.944 75.6833 382.197 75.31C381.46 74.9367 381.091 74.4093 381.091 73.728ZM388.007 73.728C388.007 73.028 387.106 72.678 385.305 72.678C383.494 72.678 382.589 73.028 382.589 73.728C382.589 74.4373 383.494 74.792 385.305 74.792C387.106 74.792 388.007 74.4373 388.007 73.728ZM391.045 77.788H386.019V81.092H384.577V77.788H379.579V76.626H391.045V77.788ZM407.237 72.44V73.63H405.557V77.928H404.101V68.436H405.557V72.44H407.237ZM400.867 73.7C400.997 73.0187 401.077 72.426 401.105 71.922C401.142 71.4087 401.165 70.956 401.175 70.564H396.233V69.388H402.589V70.116C402.589 70.5453 402.575 71.0727 402.547 71.698C402.528 72.314 402.439 73.0327 402.281 73.854L400.867 73.7ZM403.429 75.534C402.775 75.646 402.103 75.7393 401.413 75.814C400.722 75.8793 400.036 75.9307 399.355 75.968C398.683 76.0053 398.029 76.0333 397.395 76.052C396.76 76.0613 396.167 76.066 395.617 76.066L395.463 74.89C395.855 74.89 396.261 74.89 396.681 74.89C397.101 74.89 397.535 74.8807 397.983 74.862V72.272H399.411V74.82C400.083 74.792 400.745 74.7547 401.399 74.708C402.061 74.6613 402.705 74.5867 403.331 74.484L403.429 75.534ZM398.823 79.664H405.963V80.84H397.367V77.088H398.823V79.664ZM418.912 68.408V81.106H417.456V68.408H418.912ZM410.652 76.906C411.65 76.8967 412.607 76.864 413.522 76.808C414.446 76.7427 415.407 76.6307 416.406 76.472L416.56 77.648C416.018 77.7413 415.491 77.8207 414.978 77.886C414.464 77.942 413.951 77.9887 413.438 78.026C412.924 78.054 412.406 78.0727 411.884 78.082C411.37 78.0913 410.834 78.096 410.274 78.096H409.196V73.084H413.606V70.732H409.168V69.556H415.062V74.246H410.652V76.906ZM434.893 68.422V81.106H433.437V68.422H434.893ZM429.153 71.558C429.153 72.146 429.228 72.7247 429.377 73.294C429.536 73.854 429.755 74.3813 430.035 74.876C430.325 75.3613 430.67 75.8 431.071 76.192C431.482 76.5747 431.935 76.878 432.429 77.102L431.589 78.25C430.861 77.9047 430.227 77.4053 429.685 76.752C429.153 76.0987 428.743 75.3333 428.453 74.456C428.164 75.3893 427.744 76.2107 427.193 76.92C426.652 77.62 425.999 78.1567 425.233 78.53L424.379 77.326C424.883 77.102 425.341 76.7893 425.751 76.388C426.162 75.9867 426.512 75.5293 426.801 75.016C427.091 74.5027 427.315 73.952 427.473 73.364C427.632 72.7667 427.711 72.1647 427.711 71.558V69.486H429.153V71.558ZM447.702 75.8C447.189 75.6973 446.694 75.5387 446.218 75.324C445.752 75.1093 445.313 74.8527 444.902 74.554C444.501 74.2553 444.142 73.9193 443.824 73.546C443.507 73.1633 443.246 72.7573 443.04 72.328C442.835 72.7573 442.574 73.1633 442.256 73.546C441.939 73.9193 441.575 74.2553 441.164 74.554C440.763 74.8527 440.324 75.1093 439.848 75.324C439.382 75.5387 438.892 75.6973 438.378 75.8L437.762 74.61C438.388 74.498 438.971 74.2973 439.512 74.008C440.063 73.7187 440.544 73.378 440.954 72.986C441.365 72.5847 441.687 72.146 441.92 71.67C442.163 71.1847 442.284 70.6947 442.284 70.2V69.248H443.81V70.2C443.81 70.704 443.927 71.1987 444.16 71.684C444.403 72.16 444.73 72.5987 445.14 73C445.551 73.392 446.027 73.7327 446.568 74.022C447.119 74.302 447.707 74.498 448.332 74.61L447.702 75.8ZM448.822 78.264V79.454H437.37V78.264H448.822ZM460.945 68.422V76.024H459.573V68.422H460.945ZM457.137 72.706H455.639V71.544H457.137V68.632H458.481V75.912H457.137V72.706ZM456.213 75.072C455.849 75.1373 455.494 75.1933 455.149 75.24C454.813 75.2773 454.463 75.3053 454.099 75.324C453.735 75.3427 453.352 75.3567 452.951 75.366C452.55 75.3753 452.102 75.38 451.607 75.38H450.781V69.22H455.541V70.382H452.167V71.698H455.079V72.804H452.167V74.232C452.568 74.232 452.937 74.2273 453.273 74.218C453.618 74.2087 453.945 74.19 454.253 74.162C454.561 74.134 454.864 74.1013 455.163 74.064C455.462 74.0267 455.765 73.98 456.073 73.924L456.213 75.072ZM452.531 76.57H460.945V80.924H452.531V76.57ZM453.959 79.776H459.545V77.718H453.959V79.776Z" fill="#31383F"/>
<path d="M494.186 68.436V81.092H492.73V74.596H490.014V73.406H492.73V68.436H494.186ZM490.07 69.766C490.07 70.69 489.977 71.5813 489.79 72.44C489.603 73.2987 489.291 74.1107 488.852 74.876C488.413 75.632 487.83 76.3413 487.102 77.004C486.383 77.6573 485.487 78.25 484.414 78.782L483.644 77.662C484.465 77.2513 485.175 76.808 485.772 76.332C486.369 75.8467 486.869 75.324 487.27 74.764C487.671 74.204 487.979 73.6067 488.194 72.972C488.409 72.3373 488.544 71.6607 488.6 70.942H484.204V69.766H490.07ZM507.373 68.436V81.064H506.001V74.498H504.503V80.448H503.145V68.688H504.503V73.322H506.001V68.436H507.373ZM498.371 76.962C499.043 76.9527 499.692 76.9293 500.317 76.892C500.952 76.8453 501.633 76.7613 502.361 76.64L502.487 77.816C501.638 77.9653 500.844 78.0587 500.107 78.096C499.379 78.1333 498.623 78.152 497.839 78.152H496.985V73.224H500.317V70.914H496.957V69.738H501.703V74.386H498.371V76.962ZM521.176 74.624H519.258V81.064H517.816V68.422H519.258V73.42H521.176V74.624ZM515.954 69.766C515.954 70.6807 515.851 71.5673 515.646 72.426C515.44 73.2847 515.109 74.0967 514.652 74.862C514.194 75.6273 513.606 76.3413 512.888 77.004C512.169 77.6573 511.292 78.2453 510.256 78.768L509.458 77.662C512.538 76.0753 514.222 73.8353 514.512 70.942H510.088V69.766H515.954ZM533.047 68.45V75.954H531.675V72.776H530.359V75.898H529.001V68.688H530.359V71.6H531.675V68.45H533.047ZM528.203 72.244C528.203 72.692 528.128 73.1027 527.979 73.476C527.839 73.84 527.638 74.1573 527.377 74.428C527.125 74.6893 526.821 74.8947 526.467 75.044C526.121 75.1933 525.739 75.268 525.319 75.268C524.899 75.268 524.511 75.1933 524.157 75.044C523.802 74.8947 523.499 74.6893 523.247 74.428C522.995 74.1573 522.794 73.84 522.645 73.476C522.505 73.1027 522.435 72.692 522.435 72.244C522.435 71.796 522.505 71.3853 522.645 71.012C522.794 70.6387 522.995 70.3213 523.247 70.06C523.499 69.7893 523.802 69.584 524.157 69.444C524.511 69.2947 524.899 69.22 525.319 69.22C525.739 69.22 526.121 69.2947 526.467 69.444C526.821 69.584 527.125 69.7893 527.377 70.06C527.638 70.3213 527.839 70.6387 527.979 71.012C528.128 71.3853 528.203 71.796 528.203 72.244ZM523.737 72.244C523.737 72.804 523.881 73.2473 524.171 73.574C524.46 73.9007 524.843 74.064 525.319 74.064C525.776 74.064 526.154 73.9007 526.453 73.574C526.751 73.2473 526.901 72.804 526.901 72.244C526.901 71.684 526.751 71.2453 526.453 70.928C526.154 70.6013 525.776 70.438 525.319 70.438C524.843 70.438 524.46 70.6013 524.171 70.928C523.881 71.2453 523.737 71.684 523.737 72.244ZM524.479 76.612H533.047V81.078H531.605V77.774H524.479V76.612ZM550.022 72.188V73.378H548.23V77.704H546.788V68.436H548.23V72.188H550.022ZM545.248 72.44C545.248 72.8973 545.16 73.322 544.982 73.714C544.814 74.0967 544.581 74.428 544.282 74.708C543.984 74.988 543.624 75.2073 543.204 75.366C542.794 75.5247 542.35 75.604 541.874 75.604C541.398 75.604 540.955 75.5247 540.544 75.366C540.134 75.2073 539.779 74.988 539.48 74.708C539.182 74.428 538.944 74.0967 538.766 73.714C538.598 73.322 538.514 72.8973 538.514 72.44C538.514 71.9733 538.598 71.5487 538.766 71.166C538.944 70.7833 539.182 70.452 539.48 70.172C539.779 69.892 540.134 69.6773 540.544 69.528C540.955 69.3693 541.398 69.29 541.874 69.29C542.35 69.29 542.794 69.3693 543.204 69.528C543.624 69.6773 543.984 69.892 544.282 70.172C544.581 70.452 544.814 70.7833 544.982 71.166C545.16 71.5487 545.248 71.9733 545.248 72.44ZM539.928 72.44C539.928 72.7293 539.975 72.9953 540.068 73.238C540.171 73.4713 540.311 73.672 540.488 73.84C540.666 74.008 540.871 74.1387 541.104 74.232C541.338 74.316 541.594 74.358 541.874 74.358C542.154 74.358 542.411 74.316 542.644 74.232C542.887 74.1387 543.092 74.008 543.26 73.84C543.438 73.672 543.578 73.4713 543.68 73.238C543.783 72.9953 543.834 72.7293 543.834 72.44C543.834 72.1507 543.783 71.8893 543.68 71.656C543.578 71.4227 543.438 71.222 543.26 71.054C543.092 70.886 542.887 70.76 542.644 70.676C542.411 70.5827 542.154 70.536 541.874 70.536C541.594 70.536 541.338 70.5827 541.104 70.676C540.871 70.76 540.666 70.886 540.488 71.054C540.311 71.222 540.171 71.4227 540.068 71.656C539.975 71.8893 539.928 72.1507 539.928 72.44ZM541.678 79.664H548.734V80.84H540.222V76.752H541.678V79.664ZM560.269 71.824V68.45H561.711V77.69H560.269V73.014H557.973V71.824H560.269ZM558.043 75.898C557.343 75.6553 556.741 75.3007 556.237 74.834C555.743 74.358 555.36 73.8073 555.089 73.182C554.809 73.882 554.408 74.4933 553.885 75.016C553.363 75.5293 552.723 75.9167 551.967 76.178L551.225 75.044C551.72 74.876 552.159 74.652 552.541 74.372C552.924 74.0827 553.246 73.7607 553.507 73.406C553.778 73.042 553.983 72.6547 554.123 72.244C554.263 71.824 554.333 71.404 554.333 70.984V70.55H551.659V69.388H558.421V70.55H555.789V70.984C555.789 71.376 555.855 71.7633 555.985 72.146C556.116 72.5193 556.307 72.874 556.559 73.21C556.811 73.546 557.119 73.8493 557.483 74.12C557.857 74.3907 558.281 74.61 558.757 74.778L558.043 75.898ZM562.033 79.664V80.84H553.521V76.892H554.963V79.664H562.033ZM577.721 68.436V81.092H576.265V74.596H573.549V73.406H576.265V68.436H577.721ZM573.605 69.766C573.605 70.69 573.512 71.5813 573.325 72.44C573.138 73.2987 572.826 74.1107 572.387 74.876C571.948 75.632 571.365 76.3413 570.637 77.004C569.918 77.6573 569.022 78.25 567.949 78.782L567.179 77.662C568 77.2513 568.71 76.808 569.307 76.332C569.904 75.8467 570.404 75.324 570.805 74.764C571.206 74.204 571.514 73.6067 571.729 72.972C571.944 72.3373 572.079 71.6607 572.135 70.942H567.739V69.766H573.605ZM590.908 68.436V81.064H589.536V74.498H588.038V80.448H586.68V68.688H588.038V73.322H589.536V68.436H590.908ZM581.906 76.962C582.578 76.9527 583.227 76.9293 583.852 76.892C584.487 76.8453 585.168 76.7613 585.896 76.64L586.022 77.816C585.173 77.9653 584.379 78.0587 583.642 78.096C582.914 78.1333 582.158 78.152 581.374 78.152H580.52V73.224H583.852V70.914H580.492V69.738H585.238V74.386H581.906V76.962Z" fill="#31383F"/>
<circle cx="144" cy="75" r="2" fill="#31383F"/>
<circle cx="232" cy="75" r="2" fill="#31383F"/>
<circle cx="356" cy="75" r="2" fill="#31383F"/>
<circle cx="473" cy="75" r="2" fill="#31383F"/>
</g>
<path opacity="0.5" d="M121 198H88V99.5L96 107.5" stroke="#31383F"/>
<path opacity="0.5" d="M669 194H718V292.5L710 284.5" stroke="#31383F"/>
</svg>
