<svg width="810" height="308" viewBox="0 0 810 308" fill="none" xmlns="http://www.w3.org/2000/svg">
<path d="M0 0H810V308H0V0Z" fill="#FAFBFC"/>
<circle opacity="0.8" cx="214" cy="117" r="79.5" fill="#E9EEF5" stroke="#E5EBF0"/>
<path d="M203.8 111.5V113.68H201.36V119.86H198.72V106.3H201.36V111.5H203.8ZM197.88 116.7C196.973 116.86 196.04 116.987 195.08 117.08C194.133 117.173 193.187 117.247 192.24 117.3C191.307 117.353 190.393 117.387 189.5 117.4C188.62 117.413 187.8 117.42 187.04 117.42L186.76 115.28L188.68 115.26V109.92H187.24V107.82H197.06V109.92H195.6V115C195.96 114.973 196.313 114.94 196.66 114.9C197.007 114.86 197.353 114.82 197.7 114.78L197.88 116.7ZM191.22 115.22C191.527 115.207 191.833 115.2 192.14 115.2C192.46 115.187 192.773 115.167 193.08 115.14V109.92H191.22V115.22ZM192.12 122.3H202.02V124.4H189.48V118.6H192.12V122.3ZM221.058 106.28V124.7H218.558V115.44H217.018V123.88H214.558V106.58H217.018V113.32H218.558V106.28H221.058ZM205.778 108.18H213.038V120.12H205.778V108.18ZM208.238 118.06H210.598V110.26H208.238V118.06ZM240.757 115.5H238.077V124.72H235.437V106.3H238.077V113.32H240.757V115.5ZM230.417 111.26C230.417 111.953 230.51 112.673 230.697 113.42C230.884 114.153 231.157 114.853 231.517 115.52C231.89 116.187 232.357 116.8 232.917 117.36C233.477 117.92 234.137 118.373 234.897 118.72L233.437 120.8C232.397 120.333 231.524 119.667 230.817 118.8C230.11 117.92 229.55 116.933 229.137 115.84C228.724 117.053 228.15 118.133 227.417 119.08C226.684 120.027 225.79 120.753 224.737 121.26L223.257 119.16C224.017 118.813 224.677 118.353 225.237 117.78C225.797 117.193 226.264 116.547 226.637 115.84C227.024 115.12 227.31 114.367 227.497 113.58C227.684 112.793 227.777 112.02 227.777 111.26V110.24H223.957V108.06H234.077V110.24H230.417V111.26Z" fill="#31383F"/>
<circle opacity="0.8" cx="594" cy="117" r="79.5" fill="#F1EAE2" stroke="#EEE7E0"/>
<path d="M583.52 117.32H576.44V124.72H573.76V117.32H566.88V115.2H578.48C578.707 114.027 578.847 112.98 578.9 112.06C578.953 111.14 578.98 110.28 578.98 109.48H568.78V107.36H581.56V109.02C581.56 109.887 581.54 110.813 581.5 111.8C581.46 112.773 581.327 113.907 581.1 115.2H583.52V117.32ZM601.058 106.28V124.7H598.558V115.44H597.018V123.88H594.558V106.58H597.018V113.32H598.558V106.28H601.058ZM585.778 108.18H593.038V120.12H585.778V108.18ZM588.238 118.06H590.598V110.26H588.238V118.06ZM620.757 115.5H618.077V124.72H615.437V106.3H618.077V113.32H620.757V115.5ZM610.417 111.26C610.417 111.953 610.51 112.673 610.697 113.42C610.884 114.153 611.157 114.853 611.517 115.52C611.89 116.187 612.357 116.8 612.917 117.36C613.477 117.92 614.137 118.373 614.897 118.72L613.437 120.8C612.397 120.333 611.524 119.667 610.817 118.8C610.11 117.92 609.55 116.933 609.137 115.84C608.724 117.053 608.15 118.133 607.417 119.08C606.684 120.027 605.79 120.753 604.737 121.26L603.257 119.16C604.017 118.813 604.677 118.353 605.237 117.78C605.797 117.193 606.264 116.547 606.637 115.84C607.024 115.12 607.31 114.367 607.497 113.58C607.684 112.793 607.777 112.02 607.777 111.26V110.24H603.957V108.06H614.077V110.24H610.417V111.26Z" fill="#31383F"/>
<path d="M364.088 192.592C363.33 191.355 362.744 190.069 362.328 188.736C361.912 187.392 361.704 185.915 361.704 184.304C361.704 182.704 361.912 181.237 362.328 179.904C362.744 178.56 363.33 177.269 364.088 176.032L365.56 176.656C364.888 177.851 364.392 179.083 364.072 180.352C363.762 181.611 363.608 182.928 363.608 184.304C363.608 185.701 363.762 187.029 364.072 188.288C364.392 189.547 364.888 190.773 365.56 191.968L364.088 192.592ZM367.719 182.288C368.476 182.192 369.137 182.037 369.703 181.824C370.279 181.611 370.764 181.36 371.159 181.072C371.564 180.784 371.873 180.469 372.087 180.128C372.311 179.776 372.449 179.424 372.503 179.072H368.263V177.392H379.191V179.072H375.015C375.068 179.424 375.201 179.776 375.415 180.128C375.639 180.469 375.948 180.784 376.343 181.072C376.737 181.36 377.217 181.611 377.783 181.824C378.359 182.037 379.02 182.192 379.767 182.288L379.015 183.936C377.724 183.755 376.636 183.408 375.751 182.896C374.865 182.384 374.199 181.744 373.751 180.976C373.303 181.744 372.636 182.384 371.751 182.896C370.865 183.408 369.777 183.755 368.487 183.936L367.719 182.288ZM380.407 186.464H374.759V191.408H372.647V186.464H367.095V184.784H380.407V186.464ZM381.941 191.968C382.613 190.773 383.104 189.547 383.413 188.288C383.733 187.029 383.893 185.701 383.893 184.304C383.893 182.928 383.733 181.611 383.413 180.352C383.104 179.083 382.613 177.851 381.941 176.656L383.397 176.032C384.165 177.269 384.757 178.56 385.173 179.904C385.589 181.237 385.797 182.704 385.797 184.304C385.797 185.915 385.584 187.392 385.157 188.736C384.741 190.069 384.155 191.355 383.397 192.592L381.941 191.968ZM401.524 184.144H399.412V191.376H397.3V176.64H399.412V182.4H401.524V184.144ZM393.14 178.816H396.34V180.496H387.764V178.816H391.028V176.896H393.14V178.816ZM392.1 181.328C392.634 181.328 393.124 181.413 393.572 181.584C394.031 181.755 394.426 182 394.756 182.32C395.087 182.629 395.343 182.997 395.524 183.424C395.716 183.851 395.812 184.32 395.812 184.832C395.812 185.355 395.716 185.835 395.524 186.272C395.343 186.699 395.087 187.072 394.756 187.392C394.426 187.701 394.031 187.941 393.572 188.112C393.124 188.283 392.634 188.368 392.1 188.368C391.567 188.368 391.071 188.283 390.612 188.112C390.154 187.941 389.754 187.701 389.412 187.392C389.082 187.072 388.82 186.699 388.628 186.272C388.447 185.835 388.356 185.355 388.356 184.832C388.356 184.32 388.447 183.851 388.628 183.424C388.82 182.997 389.082 182.629 389.412 182.32C389.754 182 390.154 181.755 390.612 181.584C391.071 181.413 391.567 181.328 392.1 181.328ZM392.1 186.64C392.612 186.64 393.023 186.485 393.332 186.176C393.652 185.856 393.812 185.408 393.812 184.832C393.812 184.277 393.652 183.84 393.332 183.52C393.023 183.2 392.612 183.04 392.1 183.04C391.588 183.04 391.172 183.2 390.852 183.52C390.532 183.829 390.372 184.272 390.372 184.848C390.372 185.424 390.532 185.867 390.852 186.176C391.172 186.485 391.588 186.64 392.1 186.64ZM414.771 176.624V191.408H412.659V176.624H414.771ZM406.851 177.664C407.406 177.664 407.918 177.787 408.387 178.032C408.867 178.277 409.278 178.629 409.619 179.088C409.96 179.536 410.227 180.085 410.419 180.736C410.622 181.376 410.723 182.101 410.723 182.912C410.723 183.723 410.622 184.453 410.419 185.104C410.227 185.755 409.96 186.309 409.619 186.768C409.278 187.227 408.867 187.579 408.387 187.824C407.918 188.069 407.406 188.192 406.851 188.192C406.296 188.192 405.779 188.069 405.299 187.824C404.83 187.579 404.424 187.227 404.083 186.768C403.742 186.309 403.47 185.755 403.267 185.104C403.075 184.453 402.979 183.723 402.979 182.912C402.979 182.101 403.075 181.376 403.267 180.736C403.47 180.085 403.742 179.536 404.083 179.088C404.424 178.629 404.83 178.277 405.299 178.032C405.779 177.787 406.296 177.664 406.851 177.664ZM406.851 179.568C406.307 179.568 405.864 179.851 405.523 180.416C405.182 180.981 405.011 181.813 405.011 182.912C405.011 184.011 405.182 184.848 405.523 185.424C405.864 185.989 406.307 186.272 406.851 186.272C407.395 186.272 407.838 185.989 408.179 185.424C408.52 184.848 408.691 184.011 408.691 182.912C408.691 181.813 408.52 180.981 408.179 180.416C407.838 179.851 407.395 179.568 406.851 179.568ZM429.49 176.624V191.408H427.378V176.624H429.49ZM422.994 179.92C422.994 180.603 423.068 181.275 423.218 181.936C423.367 182.597 423.591 183.216 423.89 183.792C424.188 184.368 424.567 184.885 425.026 185.344C425.495 185.792 426.039 186.149 426.658 186.416L425.458 188.128C424.594 187.744 423.879 187.205 423.314 186.512C422.748 185.808 422.3 185.003 421.97 184.096C421.639 185.099 421.18 185.979 420.594 186.736C420.007 187.483 419.26 188.064 418.354 188.48L417.09 186.736C417.73 186.459 418.29 186.085 418.77 185.616C419.25 185.136 419.644 184.597 419.954 184C420.263 183.392 420.492 182.741 420.642 182.048C420.802 181.344 420.882 180.635 420.882 179.92V177.776H422.994V179.92ZM445.553 180.752V182.48H443.585V187.184H441.473V176.64H443.585V180.752H445.553ZM439.617 177.744C439.617 179.76 439.03 181.445 437.857 182.8C436.683 184.144 434.987 185.136 432.769 185.776L431.889 184.096C433.574 183.648 434.859 183.019 435.745 182.208C436.63 181.387 437.158 180.459 437.329 179.424H432.529V177.744H439.617ZM436.193 189.44H444.097V191.12H434.081V186.128H436.193V189.44ZM330.22 215.952V217.664H316.876V215.952H322.476V213.248H318.284V205.552H320.38V207.84H326.684V205.552H328.764V213.248H324.588V215.952H330.22ZM320.38 211.568H326.684V209.504H320.38V211.568ZM332.17 209.232C333.568 209.104 334.634 208.832 335.37 208.416C336.106 207.989 336.56 207.52 336.73 207.008H332.81V205.328H343.706V207.008H339.77C339.941 207.52 340.394 207.989 341.13 208.416C341.866 208.832 342.938 209.104 344.346 209.232L343.61 210.88C342.149 210.752 340.986 210.448 340.122 209.968C339.258 209.488 338.634 208.896 338.25 208.192C337.856 208.896 337.226 209.488 336.362 209.968C335.498 210.448 334.336 210.752 332.874 210.88L332.17 209.232ZM344.906 211.44V213.104H331.594V211.44H344.906ZM338.218 213.904C339.018 213.904 339.733 213.968 340.362 214.096C340.992 214.213 341.525 214.389 341.962 214.624C342.41 214.859 342.752 215.147 342.986 215.488C343.221 215.819 343.338 216.203 343.338 216.64C343.338 217.077 343.221 217.467 342.986 217.808C342.752 218.149 342.41 218.437 341.962 218.672C341.525 218.907 340.992 219.083 340.362 219.2C339.733 219.328 339.018 219.392 338.218 219.392C336.629 219.392 335.381 219.152 334.474 218.672C333.568 218.192 333.114 217.515 333.114 216.64C333.114 215.776 333.568 215.104 334.474 214.624C335.381 214.144 336.629 213.904 338.218 213.904ZM338.218 217.76C340.202 217.76 341.194 217.387 341.194 216.64C341.194 216.256 340.949 215.979 340.458 215.808C339.968 215.627 339.221 215.536 338.218 215.536C337.216 215.536 336.469 215.627 335.978 215.808C335.488 215.979 335.242 216.256 335.242 216.64C335.242 217.387 336.234 217.76 338.218 217.76ZM358.633 204.64V219.376H356.521V212H353.673V210.288H356.521V204.64H358.633ZM353.769 206.16C353.769 207.269 353.668 208.331 353.465 209.344C353.262 210.357 352.91 211.312 352.409 212.208C351.918 213.104 351.252 213.941 350.409 214.72C349.577 215.488 348.526 216.192 347.257 216.832L346.137 215.2C347.054 214.741 347.844 214.251 348.505 213.728C349.166 213.205 349.716 212.64 350.153 212.032C350.59 211.424 350.926 210.773 351.161 210.08C351.396 209.387 351.55 208.64 351.625 207.84H346.841V206.16H353.769ZM373.672 204.624V219.36H371.672V211.888H370.344V218.672H368.376V204.896H370.344V210.192H371.672V204.624H373.672ZM363.48 214.384C364.152 214.363 364.818 214.331 365.48 214.288C366.141 214.245 366.84 214.165 367.576 214.048L367.736 215.76C366.776 215.909 365.88 216.005 365.048 216.048C364.226 216.091 363.368 216.112 362.472 216.112H361.432V210.112H364.952V207.76H361.416V206.064H366.984V211.776H363.48V214.384ZM391.584 204.624V219.408H389.472V204.624H391.584ZM385.088 207.92C385.088 208.603 385.162 209.275 385.312 209.936C385.461 210.597 385.685 211.216 385.984 211.792C386.282 212.368 386.661 212.885 387.12 213.344C387.589 213.792 388.133 214.149 388.752 214.416L387.552 216.128C386.688 215.744 385.973 215.205 385.408 214.512C384.842 213.808 384.394 213.003 384.064 212.096C383.733 213.099 383.274 213.979 382.688 214.736C382.101 215.483 381.354 216.064 380.448 216.48L379.184 214.736C379.824 214.459 380.384 214.085 380.864 213.616C381.344 213.136 381.738 212.597 382.048 212C382.357 211.392 382.586 210.741 382.736 210.048C382.896 209.344 382.976 208.635 382.976 207.92V205.776H385.088V207.92ZM406.078 213.344C404.788 213.088 403.684 212.624 402.766 211.952C401.86 211.28 401.166 210.475 400.686 209.536C400.206 210.475 399.513 211.285 398.606 211.968C397.7 212.64 396.601 213.099 395.31 213.344L394.414 211.584C395.246 211.445 395.982 211.205 396.622 210.864C397.262 210.512 397.801 210.107 398.238 209.648C398.676 209.189 399.006 208.693 399.23 208.16C399.454 207.616 399.566 207.083 399.566 206.56V205.504H401.822V206.56C401.822 207.093 401.934 207.632 402.158 208.176C402.382 208.709 402.713 209.205 403.15 209.664C403.588 210.123 404.126 210.523 404.766 210.864C405.406 211.205 406.142 211.445 406.974 211.584L406.078 213.344ZM407.438 215.872V217.584H394.094V215.872H407.438ZM421.373 204.656V213.44H419.373V204.656H421.373ZM416.477 209.872H415.037V208.176H416.477V204.864H418.445V213.328H416.477V209.872ZM415.629 212.544C415.213 212.619 414.808 212.677 414.413 212.72C414.018 212.763 413.613 212.8 413.197 212.832C412.792 212.853 412.36 212.869 411.901 212.88C411.442 212.88 410.941 212.88 410.397 212.88H409.389V205.52H414.925V207.184H411.421V208.352H414.413V209.952H411.421V211.216C412.189 211.216 412.888 211.195 413.517 211.152C414.157 211.099 414.802 211.008 415.453 210.88L415.629 212.544ZM411.389 214.016H421.373V219.2H411.389V214.016ZM413.469 217.552H419.309V215.664H413.469V217.552ZM426.588 220.592C425.83 219.355 425.244 218.069 424.828 216.736C424.412 215.392 424.204 213.915 424.204 212.304C424.204 210.704 424.412 209.237 424.828 207.904C425.244 206.56 425.83 205.269 426.588 204.032L428.06 204.656C427.388 205.851 426.892 207.083 426.572 208.352C426.262 209.611 426.108 210.928 426.108 212.304C426.108 213.701 426.262 215.029 426.572 216.288C426.892 217.547 427.388 218.773 428.06 219.968L426.588 220.592ZM443.131 208.864V210.592H441.179V215.36H439.067V204.64H441.179V208.864H443.131ZM437.675 209.328C437.675 209.872 437.573 210.373 437.371 210.832C437.168 211.28 436.885 211.675 436.523 212.016C436.16 212.347 435.739 212.608 435.259 212.8C434.779 212.981 434.256 213.072 433.691 213.072C433.125 213.072 432.597 212.981 432.107 212.8C431.627 212.608 431.205 212.347 430.843 212.016C430.48 211.675 430.197 211.28 429.995 210.832C429.792 210.373 429.691 209.872 429.691 209.328C429.691 208.784 429.792 208.283 429.995 207.824C430.197 207.365 430.48 206.971 430.843 206.64C431.205 206.309 431.627 206.053 432.107 205.872C432.597 205.68 433.125 205.584 433.691 205.584C434.256 205.584 434.779 205.68 435.259 205.872C435.739 206.053 436.16 206.309 436.523 206.64C436.885 206.971 437.168 207.365 437.371 207.824C437.573 208.283 437.675 208.784 437.675 209.328ZM431.755 209.328C431.755 209.936 431.936 210.411 432.299 210.752C432.672 211.083 433.136 211.248 433.691 211.248C434.235 211.248 434.693 211.083 435.067 210.752C435.44 210.411 435.627 209.936 435.627 209.328C435.627 208.72 435.44 208.251 435.067 207.92C434.693 207.579 434.235 207.408 433.691 207.408C433.136 207.408 432.672 207.579 432.299 207.92C431.936 208.251 431.755 208.72 431.755 209.328ZM433.787 217.44H441.707V219.12H431.675V214.256H433.787V217.44ZM454.505 208.448V204.64H456.617V215.392H454.505V210.16H452.201V208.448H454.505ZM452.153 213.488C451.343 213.221 450.66 212.837 450.105 212.336C449.551 211.835 449.119 211.248 448.809 210.576C448.479 211.312 448.02 211.957 447.433 212.512C446.857 213.067 446.137 213.488 445.273 213.776L444.217 212.096C444.825 211.904 445.348 211.643 445.785 211.312C446.223 210.981 446.58 210.613 446.857 210.208C447.145 209.803 447.353 209.371 447.481 208.912C447.62 208.443 447.689 207.979 447.689 207.52V207.312H444.793V205.632H452.713V207.312H449.849V207.504C449.849 207.941 449.913 208.379 450.041 208.816C450.169 209.243 450.367 209.648 450.633 210.032C450.911 210.416 451.257 210.768 451.673 211.088C452.1 211.397 452.601 211.648 453.177 211.84L452.153 213.488ZM456.953 217.44V219.12H446.905V214.496H449.017V217.44H456.953ZM471.336 204.64V219.376H469.224V212H466.376V210.288H469.224V204.64H471.336ZM466.472 206.16C466.472 207.269 466.371 208.331 466.168 209.344C465.965 210.357 465.613 211.312 465.112 212.208C464.621 213.104 463.955 213.941 463.112 214.72C462.28 215.488 461.229 216.192 459.96 216.832L458.84 215.2C459.757 214.741 460.547 214.251 461.208 213.728C461.869 213.205 462.419 212.64 462.856 212.032C463.293 211.424 463.629 210.773 463.864 210.08C464.099 209.387 464.253 208.64 464.328 207.84H459.544V206.16H466.472ZM486.375 204.624V219.36H484.375V211.888H483.047V218.672H481.079V204.896H483.047V210.192H484.375V204.624H486.375ZM476.183 214.384C476.855 214.363 477.522 214.331 478.183 214.288C478.844 214.245 479.543 214.165 480.279 214.048L480.439 215.76C479.479 215.909 478.583 216.005 477.751 216.048C476.93 216.091 476.071 216.112 475.175 216.112H474.135V210.112H477.655V207.76H474.119V206.064H479.687V211.776H476.183V214.384ZM488.598 219.968C489.27 218.773 489.76 217.547 490.07 216.288C490.39 215.029 490.55 213.701 490.55 212.304C490.55 210.928 490.39 209.611 490.07 208.352C489.76 207.083 489.27 205.851 488.598 204.656L490.054 204.032C490.822 205.269 491.414 206.56 491.83 207.904C492.246 209.237 492.454 210.704 492.454 212.304C492.454 213.915 492.24 215.392 491.814 216.736C491.398 218.069 490.811 219.355 490.054 220.592L488.598 219.968Z" fill="#31383F"/>
<path opacity="0.5" d="M303.646 110.646C303.451 110.842 303.451 111.158 303.646 111.354L306.828 114.536C307.024 114.731 307.34 114.731 307.536 114.536C307.731 114.34 307.731 114.024 307.536 113.828L304.707 111L307.536 108.172C307.731 107.976 307.731 107.66 307.536 107.464C307.34 107.269 307.024 107.269 306.828 107.464L303.646 110.646ZM504.354 111.354C504.549 111.158 504.549 110.842 504.354 110.646L501.172 107.464C500.976 107.269 500.66 107.269 500.464 107.464C500.269 107.66 500.269 107.976 500.464 108.172L503.293 111L500.464 113.828C500.269 114.024 500.269 114.34 500.464 114.536C500.66 114.731 500.976 114.731 501.172 114.536L504.354 111.354ZM304 111.5H504V110.5H304V111.5Z" fill="#31383F"/>
<path d="M372.312 84.64V99.376H370.296V91.888H368.984V98.752H367.016V85.024H368.984V90.192H370.296V84.64H372.312ZM366.056 86.464C366.056 87.4987 365.971 88.4853 365.8 89.424C365.629 90.352 365.341 91.232 364.936 92.064C364.531 92.896 363.981 93.6747 363.288 94.4C362.605 95.1147 361.752 95.7707 360.728 96.368L359.496 94.896C360.968 94.0427 362.051 93.0613 362.744 91.952C363.437 90.8427 363.848 89.5733 363.976 88.144H360.248V86.464H366.056ZM386.647 95.232H384.519V84.656H386.647V95.232ZM382.631 89.328C382.631 89.8613 382.529 90.3573 382.327 90.816C382.124 91.2747 381.841 91.6693 381.479 92C381.116 92.3307 380.689 92.592 380.199 92.784C379.719 92.9653 379.196 93.056 378.631 93.056C378.065 93.056 377.537 92.9653 377.047 92.784C376.556 92.592 376.129 92.3307 375.767 92C375.415 91.6693 375.132 91.2747 374.919 90.816C374.716 90.3573 374.615 89.8613 374.615 89.328C374.615 88.784 374.716 88.2827 374.919 87.824C375.132 87.3653 375.415 86.9707 375.767 86.64C376.129 86.3093 376.556 86.0533 377.047 85.872C377.537 85.68 378.065 85.584 378.631 85.584C379.196 85.584 379.719 85.68 380.199 85.872C380.689 86.0533 381.116 86.3093 381.479 86.64C381.841 86.9707 382.124 87.3653 382.327 87.824C382.529 88.2827 382.631 88.784 382.631 89.328ZM376.679 89.328C376.679 89.936 376.865 90.4053 377.239 90.736C377.623 91.0667 378.087 91.232 378.631 91.232C379.185 91.232 379.644 91.0667 380.007 90.736C380.38 90.4053 380.567 89.936 380.567 89.328C380.567 88.72 380.38 88.2507 380.007 87.92C379.644 87.5787 379.185 87.408 378.631 87.408C378.087 87.408 377.623 87.5787 377.239 87.92C376.865 88.2507 376.679 88.72 376.679 89.328ZM387.015 97.44V99.12H376.839V94.192H378.951V97.44H387.015ZM402.678 88.752V90.48H400.71V95.184H398.598V84.64H400.71V88.752H402.678ZM396.742 85.744C396.742 87.76 396.155 89.4453 394.982 90.8C393.808 92.144 392.112 93.136 389.894 93.776L389.014 92.096C390.699 91.648 391.984 91.0187 392.87 90.208C393.755 89.3867 394.283 88.4587 394.454 87.424H389.654V85.744H396.742ZM393.318 97.44H401.222V99.12H391.206V94.128H393.318V97.44ZM419.709 84.64V93.52H417.581V84.64H419.709ZM415.581 93.024C414.749 92.768 414.056 92.3947 413.501 91.904C412.947 91.4027 412.499 90.816 412.157 90.144C411.827 90.88 411.368 91.52 410.781 92.064C410.195 92.608 409.469 93.0187 408.605 93.296L407.533 91.648C408.131 91.456 408.648 91.2 409.085 90.88C409.523 90.56 409.885 90.2027 410.173 89.808C410.461 89.4133 410.675 88.992 410.813 88.544C410.963 88.096 411.043 87.6427 411.053 87.184H408.093V85.52H416.109V87.184H413.197C413.208 87.6107 413.283 88.0373 413.421 88.464C413.571 88.8907 413.784 89.2907 414.061 89.664C414.339 90.0267 414.691 90.3627 415.117 90.672C415.555 90.9707 416.067 91.216 416.653 91.408L415.581 93.024ZM409.677 94.176H419.709V99.392H417.581V95.856H409.677V94.176ZM434.508 84.64V99.376H432.396V92H429.548V90.288H432.396V84.64H434.508ZM429.644 86.16C429.644 87.2693 429.543 88.3307 429.34 89.344C429.137 90.3573 428.785 91.312 428.284 92.208C427.793 93.104 427.127 93.9413 426.284 94.72C425.452 95.488 424.401 96.192 423.132 96.832L422.012 95.2C422.929 94.7413 423.719 94.2507 424.38 93.728C425.041 93.2053 425.591 92.64 426.028 92.032C426.465 91.424 426.801 90.7733 427.036 90.08C427.271 89.3867 427.425 88.64 427.5 87.84H422.716V86.16H429.644ZM449.547 84.624V99.36H447.547V91.888H446.219V98.672H444.251V84.896H446.219V90.192H447.547V84.624H449.547ZM439.355 94.384C440.027 94.3627 440.693 94.3307 441.355 94.288C442.016 94.2453 442.715 94.1653 443.451 94.048L443.611 95.76C442.651 95.9093 441.755 96.0053 440.923 96.048C440.101 96.0907 439.243 96.112 438.347 96.112H437.307V90.112H440.827V87.76H437.291V86.064H442.859V91.776H439.355V94.384Z" fill="#BE9162"/>
<path opacity="0.5" d="M404 111V161L410.5 154.5" stroke="#31383F"/>
<g opacity="0.75">
<path d="M168.136 244.768V259.216H166.568V244.768H168.136ZM163.656 245.056H165.208V258.528H163.656V251.2H161.528V249.856H163.656V245.056ZM160.2 248.752C160.2 249.36 160.259 249.968 160.376 250.576C160.493 251.184 160.669 251.76 160.904 252.304C161.149 252.837 161.453 253.328 161.816 253.776C162.189 254.224 162.632 254.592 163.144 254.88L162.184 256.08C161.501 255.675 160.931 255.136 160.472 254.464C160.024 253.781 159.672 253.019 159.416 252.176C159.16 253.115 158.797 253.947 158.328 254.672C157.869 255.397 157.288 255.984 156.584 256.432L155.592 255.216C156.104 254.896 156.547 254.501 156.92 254.032C157.304 253.563 157.619 253.045 157.864 252.48C158.109 251.904 158.291 251.301 158.408 250.672C158.536 250.032 158.6 249.392 158.6 248.752V247.712H156.056V246.352H162.584V247.712H160.2V248.752ZM173.735 246.528H171.687V245.2H182.391V246.528H180.359V249.184H182.311V250.512H171.767V249.184H173.735V246.528ZM178.711 246.528H175.383V249.184H178.711V246.528ZM177.879 252.992V254.464H182.007V259.056H172.087V254.464H176.231V252.992H170.519V251.664H183.591V252.992H177.879ZM180.391 255.776H173.719V257.744H180.391V255.776ZM200.8 244.768V252.96H199.152V249.728H196.288V248.368H199.152V244.768H200.8ZM196.256 245.648C196.256 246.587 196.101 247.451 195.792 248.24C195.493 249.029 195.056 249.744 194.48 250.384C193.914 251.013 193.221 251.563 192.4 252.032C191.578 252.491 190.645 252.869 189.6 253.168L188.928 251.856C190.634 251.408 191.946 250.768 192.864 249.936C193.792 249.104 194.33 248.123 194.48 246.992H189.696V245.648H196.256ZM191.392 253.552H200.8V259.056H191.392V253.552ZM193.008 257.728H199.184V254.864H193.008V257.728ZM215.406 251.44C214.18 251.248 213.108 250.864 212.19 250.288C211.273 249.712 210.574 249.008 210.094 248.176C209.614 249.019 208.91 249.728 207.982 250.304C207.065 250.869 205.993 251.248 204.766 251.44L204.126 250.112C204.862 250.005 205.54 249.824 206.158 249.568C206.788 249.301 207.326 248.987 207.774 248.624C208.222 248.251 208.574 247.845 208.83 247.408C209.086 246.96 209.214 246.496 209.214 246.016V245.248H210.958V246.016C210.958 246.485 211.086 246.944 211.342 247.392C211.598 247.84 211.95 248.251 212.398 248.624C212.857 248.987 213.396 249.301 214.014 249.568C214.644 249.824 215.321 250.005 216.046 250.112L215.406 251.44ZM216.606 254.144H210.862V259.248H209.214V254.144H203.55V252.8H216.606V254.144ZM225.671 244.432H226.951L222.503 260.08H221.223L225.671 244.432ZM243.516 251.44C242.289 251.248 241.217 250.864 240.3 250.288C239.382 249.712 238.684 249.008 238.204 248.176C237.724 249.019 237.02 249.728 236.092 250.304C235.174 250.869 234.102 251.248 232.876 251.44L232.236 250.112C232.972 250.005 233.649 249.824 234.268 249.568C234.897 249.301 235.436 248.987 235.884 248.624C236.332 248.251 236.684 247.845 236.94 247.408C237.196 246.96 237.324 246.496 237.324 246.016V245.248H239.068V246.016C239.068 246.485 239.196 246.944 239.452 247.392C239.708 247.84 240.06 248.251 240.508 248.624C240.966 248.987 241.505 249.301 242.124 249.568C242.753 249.824 243.43 250.005 244.156 250.112L243.516 251.44ZM244.716 254.144H238.972V259.248H237.324V254.144H231.66V252.8H244.716V254.144ZM258.299 244.752V259.264H256.635V244.752H258.299ZM248.859 254.464C250 254.453 251.093 254.416 252.139 254.352C253.195 254.277 254.293 254.149 255.435 253.968L255.611 255.312C254.992 255.419 254.389 255.509 253.803 255.584C253.216 255.648 252.629 255.701 252.043 255.744C251.456 255.776 250.864 255.797 250.266 255.808C249.68 255.819 249.067 255.824 248.427 255.824H247.195V250.096H252.235V247.408H247.163V246.064H253.899V251.424H248.859V254.464Z" fill="#31383F"/>
<path d="M304.904 256.112V257.472H291.816V256.112H297.512V253.2H293.288V245.744H294.92V248.176H301.768V245.744H303.4V253.2H299.16V256.112H304.904ZM294.92 251.872H301.768V249.504H294.92V251.872ZM307.175 249.552C307.847 249.488 308.46 249.371 309.015 249.2C309.58 249.029 310.071 248.821 310.487 248.576C310.903 248.331 311.233 248.059 311.479 247.76C311.735 247.461 311.889 247.147 311.943 246.816H307.735V245.488H318.407V246.816H314.167C314.22 247.147 314.369 247.461 314.615 247.76C314.871 248.059 315.207 248.331 315.623 248.576C316.039 248.821 316.524 249.029 317.079 249.2C317.644 249.371 318.263 249.488 318.935 249.552L318.359 250.832C317.068 250.693 315.959 250.379 315.031 249.888C314.103 249.397 313.447 248.779 313.063 248.032C312.668 248.779 312.007 249.397 311.079 249.888C310.161 250.379 309.057 250.693 307.767 250.832L307.175 249.552ZM319.591 251.568V252.896H306.519V251.568H319.591ZM313.031 253.936C314.588 253.936 315.804 254.171 316.679 254.64C317.564 255.099 318.007 255.749 318.007 256.592C318.007 257.435 317.575 258.085 316.711 258.544C315.857 259.003 314.631 259.232 313.031 259.232C312.263 259.232 311.569 259.173 310.951 259.056C310.332 258.939 309.809 258.768 309.383 258.544C308.956 258.32 308.625 258.043 308.391 257.712C308.167 257.381 308.055 257.008 308.055 256.592C308.055 256.176 308.167 255.803 308.391 255.472C308.625 255.141 308.956 254.864 309.383 254.64C309.809 254.405 310.332 254.229 310.951 254.112C311.569 253.995 312.263 253.936 313.031 253.936ZM313.031 257.936C314.097 257.936 314.913 257.824 315.479 257.6C316.055 257.376 316.343 257.04 316.343 256.592C316.343 256.144 316.055 255.808 315.479 255.584C314.913 255.349 314.097 255.232 313.031 255.232C311.964 255.232 311.148 255.349 310.583 255.584C310.017 255.808 309.735 256.144 309.735 256.592C309.735 257.04 310.017 257.376 310.583 257.6C311.148 257.824 311.964 257.936 313.031 257.936ZM333.254 244.752V259.248H331.59V250.848H328.502V249.504H331.59V244.752H333.254ZM326.486 248.336C326.486 249.008 326.566 249.669 326.726 250.32C326.896 250.96 327.136 251.563 327.446 252.128C327.755 252.683 328.128 253.184 328.566 253.632C329.014 254.069 329.515 254.416 330.07 254.672L329.094 256C328.262 255.595 327.558 255.013 326.982 254.256C326.416 253.499 325.979 252.635 325.67 251.664C325.35 252.699 324.896 253.616 324.31 254.416C323.734 255.205 323.03 255.813 322.198 256.24L321.158 254.928C321.723 254.651 322.23 254.277 322.678 253.808C323.136 253.339 323.52 252.816 323.83 252.24C324.15 251.653 324.395 251.024 324.566 250.352C324.736 249.68 324.822 249.008 324.822 248.336V245.952H326.486V248.336ZM338.932 260.32C338.186 259.104 337.604 257.835 337.188 256.512C336.772 255.179 336.564 253.717 336.564 252.128C336.564 250.539 336.772 249.083 337.188 247.76C337.604 246.437 338.186 245.168 338.932 243.952L340.084 244.448C339.38 245.611 338.868 246.837 338.548 248.128C338.228 249.408 338.068 250.741 338.068 252.128C338.068 253.525 338.228 254.864 338.548 256.144C338.868 257.424 339.38 258.645 340.084 259.808L338.932 260.32ZM355.036 251.856H352.844V259.216H351.196V244.768H352.844V250.48H355.036V251.856ZM349.116 246.224C349.116 247.301 349.02 248.347 348.828 249.36C348.646 250.363 348.31 251.317 347.82 252.224C347.34 253.131 346.678 253.984 345.836 254.784C344.993 255.573 343.916 256.299 342.604 256.96L341.708 255.68C342.988 255.04 344.017 254.352 344.796 253.616C345.574 252.869 346.177 252.043 346.604 251.136L342.028 251.584L341.804 250.16L347.1 249.824C347.292 249.12 347.42 248.368 347.484 247.568H342.54V246.224H349.116ZM367.995 252.928H357.979V246.048H367.883V247.392H359.627V251.6H367.995V252.928ZM369.483 256.016V257.376H356.379V256.016H369.483ZM371.001 259.808C371.705 258.645 372.217 257.424 372.537 256.144C372.857 254.864 373.017 253.525 373.017 252.128C373.017 250.741 372.857 249.408 372.537 248.128C372.217 246.837 371.705 245.611 371.001 244.448L372.153 243.952C372.921 245.168 373.508 246.437 373.913 247.76C374.329 249.083 374.537 250.539 374.537 252.128C374.537 253.717 374.329 255.179 373.913 256.512C373.497 257.835 372.911 259.104 372.153 260.32L371.001 259.808ZM393.675 247.744V249.104H391.643V252.192H389.995V244.784H391.643V247.744H393.675ZM387.675 251.712H380.859V245.392H382.507V247.296H386.043V245.392H387.675V251.712ZM386.043 248.56H382.507V250.4H386.043V248.56ZM383.963 257.808H392.123V259.104H382.347V255.312H390.011V254.112H382.315V252.832H391.643V256.528H383.963V257.808ZM408.17 250.56V251.904H395.082V250.56H404.554C404.724 249.76 404.826 249.061 404.858 248.464C404.9 247.856 404.922 247.28 404.922 246.736H396.73V245.408H406.538V246.512C406.538 247.067 406.522 247.664 406.49 248.304C406.468 248.944 406.367 249.696 406.186 250.56H408.17ZM404.874 253.04H406.522V259.056H396.714V253.04H398.346V254.768H404.874V253.04ZM404.874 256.048H398.346V257.728H404.874V256.048Z" fill="#31383F"/>
<path d="M453.256 251.872H451V259.232H449.352V244.784H451V250.512H453.256V251.872ZM444.872 248.352C444.872 248.992 444.952 249.632 445.112 250.272C445.283 250.901 445.517 251.493 445.816 252.048C446.125 252.603 446.493 253.104 446.92 253.552C447.357 253.989 447.848 254.341 448.392 254.608L447.384 255.92C446.605 255.515 445.933 254.949 445.368 254.224C444.803 253.488 444.365 252.635 444.056 251.664C443.747 252.667 443.293 253.568 442.696 254.368C442.109 255.157 441.4 255.765 440.568 256.192L439.56 254.864C440.125 254.587 440.632 254.219 441.08 253.76C441.539 253.291 441.923 252.768 442.232 252.192C442.552 251.616 442.797 251.003 442.968 250.352C443.139 249.691 443.224 249.024 443.224 248.352V245.984H444.872V248.352ZM466.871 247.68H455.175V246.368H460.231V244.736H461.879V246.368H466.871V247.68ZM456.247 250.832C456.247 250.032 456.668 249.424 457.511 249.008C458.364 248.592 459.548 248.384 461.063 248.384C462.577 248.384 463.756 248.592 464.599 249.008C465.452 249.424 465.879 250.032 465.879 250.832C465.879 251.611 465.452 252.213 464.599 252.64C463.756 253.067 462.577 253.28 461.063 253.28C459.548 253.28 458.364 253.067 457.511 252.64C456.668 252.213 456.247 251.611 456.247 250.832ZM464.151 250.832C464.151 250.032 463.121 249.632 461.063 249.632C458.993 249.632 457.959 250.032 457.959 250.832C457.959 251.643 458.993 252.048 461.063 252.048C463.121 252.048 464.151 251.643 464.151 250.832ZM467.623 255.472H461.879V259.248H460.231V255.472H454.519V254.144H467.623V255.472ZM486.128 249.36V250.72H484.208V255.632H482.544V244.784H484.208V249.36H486.128ZM478.848 250.8C478.997 250.021 479.088 249.344 479.12 248.768C479.162 248.181 479.189 247.664 479.2 247.216H473.552V245.872H480.816V246.704C480.816 247.195 480.8 247.797 480.768 248.512C480.746 249.216 480.645 250.037 480.464 250.976L478.848 250.8ZM481.776 252.896C481.029 253.024 480.261 253.131 479.472 253.216C478.682 253.291 477.898 253.349 477.12 253.392C476.352 253.435 475.605 253.467 474.88 253.488C474.154 253.499 473.477 253.504 472.848 253.504L472.672 252.16C473.12 252.16 473.584 252.16 474.064 252.16C474.544 252.16 475.04 252.149 475.552 252.128V249.168H477.184V252.08C477.952 252.048 478.709 252.005 479.456 251.952C480.213 251.899 480.949 251.813 481.664 251.696L481.776 252.896ZM476.512 257.616H484.672V258.96H474.848V254.672H476.512V257.616ZM499.47 244.752V259.264H497.806V244.752H499.47ZM490.03 254.464C491.172 254.453 492.265 254.416 493.31 254.352C494.366 254.277 495.465 254.149 496.606 253.968L496.782 255.312C496.164 255.419 495.561 255.509 494.974 255.584C494.388 255.648 493.801 255.701 493.214 255.744C492.628 255.776 492.036 255.797 491.438 255.808C490.852 255.819 490.238 255.824 489.598 255.824H488.366V250.096H493.406V247.408H488.334V246.064H495.07V251.424H490.03V254.464Z" fill="#31383F"/>
<path d="M544.784 244.784V259.248H543.12V251.824H540.016V250.464H543.12V244.784H544.784ZM540.08 246.304C540.08 247.36 539.973 248.379 539.76 249.36C539.547 250.341 539.189 251.269 538.688 252.144C538.187 253.008 537.52 253.819 536.688 254.576C535.867 255.323 534.843 256 533.616 256.608L532.736 255.328C533.675 254.859 534.485 254.352 535.168 253.808C535.851 253.253 536.421 252.656 536.88 252.016C537.339 251.376 537.691 250.693 537.936 249.968C538.181 249.243 538.336 248.469 538.4 247.648H533.376V246.304H540.08ZM559.855 244.784V259.216H558.287V251.712H556.575V258.512H555.023V245.072H556.575V250.368H558.287V244.784H559.855ZM549.567 254.528C550.335 254.517 551.076 254.491 551.791 254.448C552.516 254.395 553.295 254.299 554.127 254.16L554.271 255.504C553.3 255.675 552.393 255.781 551.551 255.824C550.719 255.867 549.855 255.888 548.959 255.888H547.983V250.256H551.791V247.616H547.951V246.272H553.375V251.584H549.567V254.528ZM575.63 251.856H573.438V259.216H571.79V244.768H573.438V250.48H575.63V251.856ZM569.661 246.304C569.661 247.349 569.544 248.363 569.31 249.344C569.075 250.325 568.696 251.253 568.174 252.128C567.651 253.003 566.979 253.819 566.158 254.576C565.336 255.323 564.334 255.995 563.15 256.592L562.238 255.328C565.758 253.515 567.683 250.955 568.014 247.648H562.958V246.304H569.661ZM589.196 244.8V253.376H587.628V249.744H586.124V253.312H584.572V245.072H586.124V248.4H587.628V244.8H589.196ZM583.66 249.136C583.66 249.648 583.575 250.117 583.404 250.544C583.244 250.96 583.015 251.323 582.716 251.632C582.428 251.931 582.082 252.165 581.676 252.336C581.282 252.507 580.844 252.592 580.364 252.592C579.884 252.592 579.442 252.507 579.036 252.336C578.631 252.165 578.284 251.931 577.996 251.632C577.708 251.323 577.479 250.96 577.308 250.544C577.148 250.117 577.068 249.648 577.068 249.136C577.068 248.624 577.148 248.155 577.308 247.728C577.479 247.301 577.708 246.939 577.996 246.64C578.284 246.331 578.631 246.096 579.036 245.936C579.442 245.765 579.884 245.68 580.364 245.68C580.844 245.68 581.282 245.765 581.676 245.936C582.082 246.096 582.428 246.331 582.716 246.64C583.015 246.939 583.244 247.301 583.404 247.728C583.575 248.155 583.66 248.624 583.66 249.136ZM578.556 249.136C578.556 249.776 578.722 250.283 579.052 250.656C579.383 251.029 579.82 251.216 580.364 251.216C580.887 251.216 581.319 251.029 581.66 250.656C582.002 250.283 582.172 249.776 582.172 249.136C582.172 248.496 582.002 247.995 581.66 247.632C581.319 247.259 580.887 247.072 580.364 247.072C579.82 247.072 579.383 247.259 579.052 247.632C578.722 247.995 578.556 248.496 578.556 249.136ZM579.404 254.128H589.196V259.232H587.548V255.456H579.404V254.128ZM608.597 249.072V250.432H606.549V255.376H604.901V244.784H606.549V249.072H608.597ZM603.141 249.36C603.141 249.883 603.04 250.368 602.837 250.816C602.645 251.253 602.378 251.632 602.037 251.952C601.696 252.272 601.285 252.523 600.805 252.704C600.336 252.885 599.829 252.976 599.285 252.976C598.741 252.976 598.234 252.885 597.765 252.704C597.296 252.523 596.89 252.272 596.549 251.952C596.208 251.632 595.936 251.253 595.733 250.816C595.541 250.368 595.445 249.883 595.445 249.36C595.445 248.827 595.541 248.341 595.733 247.904C595.936 247.467 596.208 247.088 596.549 246.768C596.89 246.448 597.296 246.203 597.765 246.032C598.234 245.851 598.741 245.76 599.285 245.76C599.829 245.76 600.336 245.851 600.805 246.032C601.285 246.203 601.696 246.448 602.037 246.768C602.378 247.088 602.645 247.467 602.837 247.904C603.04 248.341 603.141 248.827 603.141 249.36ZM597.061 249.36C597.061 249.691 597.114 249.995 597.221 250.272C597.338 250.539 597.498 250.768 597.701 250.96C597.904 251.152 598.138 251.301 598.405 251.408C598.672 251.504 598.965 251.552 599.285 251.552C599.605 251.552 599.898 251.504 600.165 251.408C600.442 251.301 600.677 251.152 600.869 250.96C601.072 250.768 601.232 250.539 601.349 250.272C601.466 249.995 601.525 249.691 601.525 249.36C601.525 249.029 601.466 248.731 601.349 248.464C601.232 248.197 601.072 247.968 600.869 247.776C600.677 247.584 600.442 247.44 600.165 247.344C599.898 247.237 599.605 247.184 599.285 247.184C598.965 247.184 598.672 247.237 598.405 247.344C598.138 247.44 597.904 247.584 597.701 247.776C597.498 247.968 597.338 248.197 597.221 248.464C597.114 248.731 597.061 249.029 597.061 249.36ZM599.061 257.616H607.125V258.96H597.397V254.288H599.061V257.616ZM620.308 248.656V244.8H621.956V255.36H620.308V250.016H617.684V248.656H620.308ZM617.764 253.312C616.964 253.035 616.276 252.629 615.7 252.096C615.135 251.552 614.697 250.923 614.388 250.208C614.068 251.008 613.609 251.707 613.012 252.304C612.415 252.891 611.684 253.333 610.82 253.632L609.972 252.336C610.537 252.144 611.039 251.888 611.476 251.568C611.913 251.237 612.281 250.869 612.58 250.464C612.889 250.048 613.124 249.605 613.284 249.136C613.444 248.656 613.524 248.176 613.524 247.696V247.2H610.468V245.872H618.196V247.2H615.188V247.696C615.188 248.144 615.263 248.587 615.412 249.024C615.561 249.451 615.78 249.856 616.068 250.24C616.356 250.624 616.708 250.971 617.124 251.28C617.551 251.589 618.036 251.84 618.58 252.032L617.764 253.312ZM622.324 257.616V258.96H612.596V254.448H614.244V257.616H622.324ZM636.675 244.784V259.248H635.011V251.824H631.907V250.464H635.011V244.784H636.675ZM631.971 246.304C631.971 247.36 631.864 248.379 631.651 249.36C631.437 250.341 631.08 251.269 630.579 252.144C630.077 253.008 629.411 253.819 628.579 254.576C627.757 255.323 626.733 256 625.507 256.608L624.627 255.328C625.565 254.859 626.376 254.352 627.059 253.808C627.741 253.253 628.312 252.656 628.771 252.016C629.229 251.376 629.581 250.693 629.827 249.968C630.072 249.243 630.227 248.469 630.291 247.648H625.267V246.304H631.971ZM651.745 244.784V259.216H650.177V251.712H648.465V258.512H646.913V245.072H648.465V250.368H650.177V244.784H651.745ZM641.457 254.528C642.225 254.517 642.967 254.491 643.681 254.448C644.407 254.395 645.185 254.299 646.017 254.16L646.161 255.504C645.191 255.675 644.284 255.781 643.441 255.824C642.609 255.867 641.745 255.888 640.849 255.888H639.873V250.256H643.681V247.616H639.841V246.272H645.265V251.584H641.457V254.528Z" fill="#31383F"/>
<circle cx="276" cy="253" r="3" fill="#31383F"/>
<circle cx="424" cy="253" r="3" fill="#31383F"/>
<circle cx="517" cy="253" r="3" fill="#31383F"/>
</g>
</svg>
