<svg width="810" height="426" viewBox="0 0 810 426" fill="none" xmlns="http://www.w3.org/2000/svg">
<path d="M0 0H810V426H0V0Z" fill="#FAFBFC"/>
<path d="M55.7596 57.592C55.0023 56.3547 54.4156 55.0693 53.9996 53.736C53.5836 52.392 53.3756 50.9147 53.3756 49.304C53.3756 47.704 53.5836 46.2373 53.9996 44.904C54.4156 43.56 55.0023 42.2693 55.7596 41.032L57.2316 41.656C56.5596 42.8507 56.0636 44.0827 55.7436 45.352C55.4343 46.6107 55.2796 47.928 55.2796 49.304C55.2796 50.7013 55.4343 52.0293 55.7436 53.288C56.0636 54.5467 56.5596 55.7733 57.2316 56.968L55.7596 57.592ZM59.3905 47.288C60.1478 47.192 60.8092 47.0373 61.3745 46.824C61.9505 46.6107 62.4358 46.36 62.8305 46.072C63.2358 45.784 63.5452 45.4693 63.7585 45.128C63.9825 44.776 64.1212 44.424 64.1745 44.072H59.9345V42.392H70.8625V44.072H66.6865C66.7398 44.424 66.8732 44.776 67.0865 45.128C67.3105 45.4693 67.6198 45.784 68.0145 46.072C68.4092 46.36 68.8892 46.6107 69.4545 46.824C70.0305 47.0373 70.6918 47.192 71.4385 47.288L70.6865 48.936C69.3958 48.7547 68.3078 48.408 67.4225 47.896C66.5372 47.384 65.8705 46.744 65.4225 45.976C64.9745 46.744 64.3078 47.384 63.4225 47.896C62.5372 48.408 61.4492 48.7547 60.1585 48.936L59.3905 47.288ZM72.0785 51.464H66.4305V56.408H64.3185V51.464H58.7665V49.784H72.0785V51.464ZM73.6133 56.968C74.2853 55.7733 74.7759 54.5467 75.0853 53.288C75.4053 52.0293 75.5653 50.7013 75.5653 49.304C75.5653 47.928 75.4053 46.6107 75.0853 45.352C74.7759 44.0827 74.2853 42.8507 73.6133 41.656L75.0693 41.032C75.8373 42.2693 76.4293 43.56 76.8453 44.904C77.2613 46.2373 77.4693 47.704 77.4693 49.304C77.4693 50.9147 77.2559 52.392 76.8293 53.736C76.4133 55.0693 75.8266 56.3547 75.0693 57.592L73.6133 56.968ZM93.1961 49.144H91.0841V56.376H88.9721V41.64H91.0841V47.4H93.1961V49.144ZM84.8121 43.816H88.0121V45.496H79.4361V43.816H82.7001V41.896H84.8121V43.816ZM83.7721 46.328C84.3055 46.328 84.7961 46.4133 85.2441 46.584C85.7028 46.7547 86.0975 47 86.4281 47.32C86.7588 47.6293 87.0148 47.9973 87.1961 48.424C87.3881 48.8507 87.4841 49.32 87.4841 49.832C87.4841 50.3547 87.3881 50.8347 87.1961 51.272C87.0148 51.6987 86.7588 52.072 86.4281 52.392C86.0975 52.7013 85.7028 52.9413 85.2441 53.112C84.7961 53.2827 84.3055 53.368 83.7721 53.368C83.2388 53.368 82.7428 53.2827 82.2841 53.112C81.8255 52.9413 81.4255 52.7013 81.0841 52.392C80.7535 52.072 80.4921 51.6987 80.3001 51.272C80.1188 50.8347 80.0281 50.3547 80.0281 49.832C80.0281 49.32 80.1188 48.8507 80.3001 48.424C80.4921 47.9973 80.7535 47.6293 81.0841 47.32C81.4255 47 81.8255 46.7547 82.2841 46.584C82.7428 46.4133 83.2388 46.328 83.7721 46.328ZM83.7721 51.64C84.2841 51.64 84.6948 51.4853 85.0041 51.176C85.3241 50.856 85.4841 50.408 85.4841 49.832C85.4841 49.2773 85.3241 48.84 85.0041 48.52C84.6948 48.2 84.2841 48.04 83.7721 48.04C83.2601 48.04 82.8441 48.2 82.5241 48.52C82.2041 48.8293 82.0441 49.272 82.0441 49.848C82.0441 50.424 82.2041 50.8667 82.5241 51.176C82.8441 51.4853 83.2601 51.64 83.7721 51.64ZM106.443 41.624V56.408H104.331V41.624H106.443ZM98.5229 42.664C99.0775 42.664 99.5895 42.7867 100.059 43.032C100.539 43.2773 100.95 43.6293 101.291 44.088C101.632 44.536 101.899 45.0853 102.091 45.736C102.294 46.376 102.395 47.1013 102.395 47.912C102.395 48.7227 102.294 49.4533 102.091 50.104C101.899 50.7547 101.632 51.3093 101.291 51.768C100.95 52.2267 100.539 52.5787 100.059 52.824C99.5895 53.0693 99.0775 53.192 98.5229 53.192C97.9682 53.192 97.4509 53.0693 96.9709 52.824C96.5015 52.5787 96.0962 52.2267 95.7549 51.768C95.4135 51.3093 95.1415 50.7547 94.9389 50.104C94.7469 49.4533 94.6509 48.7227 94.6509 47.912C94.6509 47.1013 94.7469 46.376 94.9389 45.736C95.1415 45.0853 95.4135 44.536 95.7549 44.088C96.0962 43.6293 96.5015 43.2773 96.9709 43.032C97.4509 42.7867 97.9682 42.664 98.5229 42.664ZM98.5229 44.568C97.9789 44.568 97.5362 44.8507 97.1949 45.416C96.8535 45.9813 96.6829 46.8133 96.6829 47.912C96.6829 49.0107 96.8535 49.848 97.1949 50.424C97.5362 50.9893 97.9789 51.272 98.5229 51.272C99.0669 51.272 99.5095 50.9893 99.8509 50.424C100.192 49.848 100.363 49.0107 100.363 47.912C100.363 46.8133 100.192 45.9813 99.8509 45.416C99.5095 44.8507 99.0669 44.568 98.5229 44.568ZM121.162 41.624V56.408H119.05V41.624H121.162ZM114.666 44.92C114.666 45.6027 114.74 46.2747 114.89 46.936C115.039 47.5973 115.263 48.216 115.562 48.792C115.86 49.368 116.239 49.8853 116.698 50.344C117.167 50.792 117.711 51.1493 118.33 51.416L117.13 53.128C116.266 52.744 115.551 52.2053 114.986 51.512C114.42 50.808 113.972 50.0027 113.642 49.096C113.311 50.0987 112.852 50.9787 112.266 51.736C111.679 52.4827 110.932 53.064 110.026 53.48L108.762 51.736C109.402 51.4587 109.962 51.0853 110.442 50.616C110.922 50.136 111.316 49.5973 111.626 49C111.935 48.392 112.164 47.7413 112.314 47.048C112.474 46.344 112.554 45.6347 112.554 44.92V42.776H114.666V44.92ZM137.224 45.752V47.48H135.256V52.184H133.144V41.64H135.256V45.752H137.224ZM131.288 42.744C131.288 44.76 130.702 46.4453 129.528 47.8C128.355 49.144 126.659 50.136 124.44 50.776L123.56 49.096C125.246 48.648 126.531 48.0187 127.416 47.208C128.302 46.3867 128.83 45.4587 129 44.424H124.2V42.744H131.288ZM127.864 54.44H135.768V56.12H125.752V51.128H127.864V54.44ZM154.336 41.64V56.376H152.224V49H149.376V47.288H152.224V41.64H154.336ZM149.472 43.16C149.472 44.2693 149.371 45.3307 149.168 46.344C148.965 47.3573 148.613 48.312 148.112 49.208C147.621 50.104 146.955 50.9413 146.112 51.72C145.28 52.488 144.229 53.192 142.96 53.832L141.84 52.2C142.757 51.7413 143.547 51.2507 144.208 50.728C144.869 50.2053 145.419 49.64 145.856 49.032C146.293 48.424 146.629 47.7733 146.864 47.08C147.099 46.3867 147.253 45.64 147.328 44.84H142.544V43.16H149.472ZM169.375 41.624V56.36H167.375V48.888H166.047V55.672H164.079V41.896H166.047V47.192H167.375V41.624H169.375ZM159.183 51.384C159.855 51.3627 160.522 51.3307 161.183 51.288C161.844 51.2453 162.543 51.1653 163.279 51.048L163.439 52.76C162.479 52.9093 161.583 53.0053 160.751 53.048C159.93 53.0907 159.071 53.112 158.175 53.112H157.135V47.112H160.655V44.76H157.119V43.064H162.687V48.776H159.183V51.384ZM183.486 50.104C182.12 49.8693 180.99 49.4373 180.094 48.808C179.208 48.168 178.526 47.3787 178.046 46.44C177.566 47.3467 176.867 48.1253 175.95 48.776C175.032 49.4267 173.928 49.8693 172.638 50.104L171.774 48.36C172.606 48.2213 173.342 47.9867 173.982 47.656C174.622 47.3253 175.16 46.9413 175.598 46.504C176.035 46.056 176.366 45.576 176.59 45.064C176.814 44.5413 176.926 44.024 176.926 43.512V42.456H179.182V43.512C179.182 44.0347 179.294 44.5573 179.518 45.08C179.742 45.6027 180.072 46.0827 180.51 46.52C180.947 46.9573 181.486 47.3413 182.126 47.672C182.766 47.992 183.507 48.2213 184.35 48.36L183.486 50.104ZM184.798 52.936V54.632H171.454V52.936H177.006V49.64H179.118V52.936H184.798ZM202.005 41.624V56.408H199.893V41.624H202.005ZM194.085 42.664C194.64 42.664 195.152 42.7867 195.621 43.032C196.101 43.2773 196.512 43.6293 196.853 44.088C197.195 44.536 197.461 45.0853 197.653 45.736C197.856 46.376 197.957 47.1013 197.957 47.912C197.957 48.7227 197.856 49.4533 197.653 50.104C197.461 50.7547 197.195 51.3093 196.853 51.768C196.512 52.2267 196.101 52.5787 195.621 52.824C195.152 53.0693 194.64 53.192 194.085 53.192C193.531 53.192 193.013 53.0693 192.533 52.824C192.064 52.5787 191.659 52.2267 191.317 51.768C190.976 51.3093 190.704 50.7547 190.501 50.104C190.309 49.4533 190.213 48.7227 190.213 47.912C190.213 47.1013 190.309 46.376 190.501 45.736C190.704 45.0853 190.976 44.536 191.317 44.088C191.659 43.6293 192.064 43.2773 192.533 43.032C193.013 42.7867 193.531 42.664 194.085 42.664ZM194.085 44.568C193.541 44.568 193.099 44.8507 192.757 45.416C192.416 45.9813 192.245 46.8133 192.245 47.912C192.245 49.0107 192.416 49.848 192.757 50.424C193.099 50.9893 193.541 51.272 194.085 51.272C194.629 51.272 195.072 50.9893 195.413 50.424C195.755 49.848 195.925 49.0107 195.925 47.912C195.925 46.8133 195.755 45.9813 195.413 45.416C195.072 44.8507 194.629 44.568 194.085 44.568ZM217.828 48.632V50.296H204.516V48.632H207.508V46.856C206.399 46.3547 205.844 45.6347 205.844 44.696C205.844 44.2587 205.967 43.864 206.212 43.512C206.468 43.16 206.825 42.8613 207.284 42.616C207.753 42.3707 208.313 42.184 208.964 42.056C209.625 41.928 210.361 41.864 211.172 41.864C211.993 41.864 212.729 41.928 213.38 42.056C214.041 42.184 214.601 42.3707 215.06 42.616C215.529 42.8613 215.887 43.16 216.132 43.512C216.388 43.864 216.516 44.2587 216.516 44.696C216.516 45.176 216.367 45.5973 216.068 45.96C215.769 46.3227 215.348 46.6267 214.804 46.872V48.632H217.828ZM211.172 43.464C210.169 43.464 209.391 43.5653 208.836 43.768C208.292 43.9707 208.02 44.28 208.02 44.696C208.02 45.1013 208.292 45.4053 208.836 45.608C209.391 45.8107 210.169 45.912 211.172 45.912C212.207 45.912 212.991 45.8107 213.524 45.608C214.068 45.4053 214.34 45.1013 214.34 44.696C214.34 44.28 214.068 43.9707 213.524 43.768C212.991 43.5653 212.207 43.464 211.172 43.464ZM209.62 48.632H212.692V47.416C212.457 47.4373 212.212 47.4587 211.956 47.48C211.711 47.4907 211.449 47.496 211.172 47.496C210.617 47.496 210.1 47.464 209.62 47.4V48.632ZM211.14 51.032C212.729 51.032 213.977 51.2667 214.884 51.736C215.801 52.1947 216.26 52.8507 216.26 53.704C216.26 54.568 215.801 55.2293 214.884 55.688C213.977 56.1573 212.729 56.392 211.14 56.392C209.551 56.392 208.303 56.1573 207.396 55.688C206.489 55.2293 206.036 54.568 206.036 53.704C206.036 52.8507 206.489 52.1947 207.396 51.736C208.303 51.2667 209.551 51.032 211.14 51.032ZM211.14 54.792C213.124 54.792 214.116 54.4293 214.116 53.704C214.116 53.3307 213.871 53.0587 213.38 52.888C212.889 52.7173 212.143 52.632 211.14 52.632C210.137 52.632 209.391 52.7173 208.9 52.888C208.409 53.0587 208.164 53.3307 208.164 53.704C208.164 54.4293 209.156 54.792 211.14 54.792ZM231.523 41.64V56.376H229.411V41.64H231.523ZM228.451 44.92H219.603V43.272H222.979V41.688H225.091V43.272H228.451V44.92ZM225.091 52.104C225.699 52.072 226.296 52.0347 226.883 51.992C227.48 51.9493 228.067 51.8853 228.643 51.8L228.803 53.32C228.003 53.4693 227.192 53.5867 226.371 53.672C225.55 53.7467 224.744 53.8053 223.955 53.848C223.166 53.8907 222.398 53.9173 221.651 53.928C220.915 53.928 220.222 53.928 219.571 53.928L219.315 52.216C219.87 52.216 220.451 52.216 221.059 52.216C221.667 52.216 222.307 52.2053 222.979 52.184V50.936C222.179 50.7867 221.544 50.4773 221.075 50.008C220.606 49.5387 220.371 48.9627 220.371 48.28C220.371 47.864 220.462 47.4853 220.643 47.144C220.824 46.8027 221.075 46.5093 221.395 46.264C221.715 46.0187 222.099 45.832 222.547 45.704C222.995 45.5653 223.491 45.496 224.035 45.496C224.568 45.496 225.059 45.5653 225.507 45.704C225.955 45.832 226.339 46.0187 226.659 46.264C226.979 46.5093 227.23 46.8027 227.411 47.144C227.592 47.4853 227.683 47.864 227.683 48.28C227.683 48.9627 227.448 49.5387 226.979 50.008C226.52 50.4773 225.891 50.7867 225.091 50.936V52.104ZM222.387 48.28C222.387 48.6533 222.536 48.9413 222.835 49.144C223.144 49.3467 223.544 49.448 224.035 49.448C224.547 49.448 224.947 49.3467 225.235 49.144C225.534 48.9413 225.683 48.6533 225.683 48.28C225.683 47.896 225.534 47.6027 225.235 47.4C224.947 47.1973 224.547 47.096 224.035 47.096C223.544 47.096 223.144 47.1973 222.835 47.4C222.536 47.6027 222.387 47.896 222.387 48.28ZM244.242 50.2V41.64H246.354V52.808H244.242V51.64H241.474V50.2H244.242ZM238.642 47.4C238.098 47.4 237.602 47.336 237.154 47.208C236.706 47.08 236.316 46.904 235.986 46.68C235.666 46.4453 235.415 46.168 235.234 45.848C235.052 45.528 234.962 45.1707 234.962 44.776C234.962 44.3813 235.052 44.024 235.234 43.704C235.415 43.3733 235.666 43.096 235.986 42.872C236.316 42.6373 236.706 42.456 237.154 42.328C237.602 42.2 238.098 42.136 238.642 42.136C239.175 42.136 239.666 42.2 240.114 42.328C240.562 42.456 240.946 42.6373 241.266 42.872C241.596 43.096 241.852 43.3733 242.034 43.704C242.215 44.024 242.306 44.3813 242.306 44.776C242.306 45.1707 242.215 45.528 242.034 45.848C241.852 46.168 241.596 46.4453 241.266 46.68C240.946 46.904 240.562 47.08 240.114 47.208C239.666 47.336 239.175 47.4 238.642 47.4ZM238.642 43.672C238.13 43.672 237.719 43.768 237.41 43.96C237.111 44.1413 236.962 44.4133 236.962 44.776C236.962 45.1387 237.111 45.4107 237.41 45.592C237.719 45.7733 238.13 45.864 238.642 45.864C239.132 45.864 239.532 45.7733 239.842 45.592C240.151 45.4107 240.306 45.1387 240.306 44.776C240.306 44.4133 240.151 44.1413 239.842 43.96C239.532 43.768 239.132 43.672 238.642 43.672ZM246.674 54.44V56.12H235.746V51.736H237.794V49.768C237.143 49.8 236.514 49.8213 235.906 49.832C235.298 49.8427 234.716 49.848 234.162 49.848L233.89 48.168C234.562 48.168 235.282 48.1627 236.05 48.152C236.818 48.1413 237.607 48.12 238.418 48.088C239.228 48.056 240.044 48.0133 240.866 47.96C241.687 47.896 242.487 47.816 243.266 47.72L243.41 49.224C242.834 49.3307 242.252 49.416 241.666 49.48C241.09 49.544 240.498 49.5973 239.89 49.64V52.424H237.858V54.44H246.674Z" fill="#31383F"/>
<path d="M287.01 222.592C286.252 221.355 285.666 220.069 285.25 218.736C284.834 217.392 284.626 215.915 284.626 214.304C284.626 212.704 284.834 211.237 285.25 209.904C285.666 208.56 286.252 207.269 287.01 206.032L288.482 206.656C287.81 207.851 287.314 209.083 286.994 210.352C286.684 211.611 286.53 212.928 286.53 214.304C286.53 215.701 286.684 217.029 286.994 218.288C287.314 219.547 287.81 220.773 288.482 221.968L287.01 222.592ZM290.641 212.288C291.398 212.192 292.059 212.037 292.625 211.824C293.201 211.611 293.686 211.36 294.081 211.072C294.486 210.784 294.795 210.469 295.009 210.128C295.233 209.776 295.371 209.424 295.425 209.072H291.185V207.392H302.113V209.072H297.937C297.99 209.424 298.123 209.776 298.337 210.128C298.561 210.469 298.87 210.784 299.265 211.072C299.659 211.36 300.139 211.611 300.705 211.824C301.281 212.037 301.942 212.192 302.689 212.288L301.937 213.936C300.646 213.755 299.558 213.408 298.673 212.896C297.787 212.384 297.121 211.744 296.673 210.976C296.225 211.744 295.558 212.384 294.673 212.896C293.787 213.408 292.699 213.755 291.409 213.936L290.641 212.288ZM303.329 216.464H297.681V221.408H295.569V216.464H290.017V214.784H303.329V216.464ZM304.863 221.968C305.535 220.773 306.026 219.547 306.335 218.288C306.655 217.029 306.815 215.701 306.815 214.304C306.815 212.928 306.655 211.611 306.335 210.352C306.026 209.083 305.535 207.851 304.863 206.656L306.319 206.032C307.087 207.269 307.679 208.56 308.095 209.904C308.511 211.237 308.719 212.704 308.719 214.304C308.719 215.915 308.506 217.392 308.079 218.736C307.663 220.069 307.077 221.355 306.319 222.592L304.863 221.968ZM324.446 214.144H322.334V221.376H320.222V206.64H322.334V212.4H324.446V214.144ZM316.062 208.816H319.262V210.496H310.686V208.816H313.95V206.896H316.062V208.816ZM315.022 211.328C315.555 211.328 316.046 211.413 316.494 211.584C316.953 211.755 317.347 212 317.678 212.32C318.009 212.629 318.265 212.997 318.446 213.424C318.638 213.851 318.734 214.32 318.734 214.832C318.734 215.355 318.638 215.835 318.446 216.272C318.265 216.699 318.009 217.072 317.678 217.392C317.347 217.701 316.953 217.941 316.494 218.112C316.046 218.283 315.555 218.368 315.022 218.368C314.489 218.368 313.993 218.283 313.534 218.112C313.075 217.941 312.675 217.701 312.334 217.392C312.003 217.072 311.742 216.699 311.55 216.272C311.369 215.835 311.278 215.355 311.278 214.832C311.278 214.32 311.369 213.851 311.55 213.424C311.742 212.997 312.003 212.629 312.334 212.32C312.675 212 313.075 211.755 313.534 211.584C313.993 211.413 314.489 211.328 315.022 211.328ZM315.022 216.64C315.534 216.64 315.945 216.485 316.254 216.176C316.574 215.856 316.734 215.408 316.734 214.832C316.734 214.277 316.574 213.84 316.254 213.52C315.945 213.2 315.534 213.04 315.022 213.04C314.51 213.04 314.094 213.2 313.774 213.52C313.454 213.829 313.294 214.272 313.294 214.848C313.294 215.424 313.454 215.867 313.774 216.176C314.094 216.485 314.51 216.64 315.022 216.64ZM337.693 206.624V221.408H335.581V206.624H337.693ZM329.773 207.664C330.328 207.664 330.84 207.787 331.309 208.032C331.789 208.277 332.2 208.629 332.541 209.088C332.882 209.536 333.149 210.085 333.341 210.736C333.544 211.376 333.645 212.101 333.645 212.912C333.645 213.723 333.544 214.453 333.341 215.104C333.149 215.755 332.882 216.309 332.541 216.768C332.2 217.227 331.789 217.579 331.309 217.824C330.84 218.069 330.328 218.192 329.773 218.192C329.218 218.192 328.701 218.069 328.221 217.824C327.752 217.579 327.346 217.227 327.005 216.768C326.664 216.309 326.392 215.755 326.189 215.104C325.997 214.453 325.901 213.723 325.901 212.912C325.901 212.101 325.997 211.376 326.189 210.736C326.392 210.085 326.664 209.536 327.005 209.088C327.346 208.629 327.752 208.277 328.221 208.032C328.701 207.787 329.218 207.664 329.773 207.664ZM329.773 209.568C329.229 209.568 328.786 209.851 328.445 210.416C328.104 210.981 327.933 211.813 327.933 212.912C327.933 214.011 328.104 214.848 328.445 215.424C328.786 215.989 329.229 216.272 329.773 216.272C330.317 216.272 330.76 215.989 331.101 215.424C331.442 214.848 331.613 214.011 331.613 212.912C331.613 211.813 331.442 210.981 331.101 210.416C330.76 209.851 330.317 209.568 329.773 209.568ZM352.412 206.624V221.408H350.3V206.624H352.412ZM345.916 209.92C345.916 210.603 345.99 211.275 346.14 211.936C346.289 212.597 346.513 213.216 346.812 213.792C347.11 214.368 347.489 214.885 347.948 215.344C348.417 215.792 348.961 216.149 349.58 216.416L348.38 218.128C347.516 217.744 346.801 217.205 346.236 216.512C345.67 215.808 345.222 215.003 344.892 214.096C344.561 215.099 344.102 215.979 343.516 216.736C342.929 217.483 342.182 218.064 341.276 218.48L340.012 216.736C340.652 216.459 341.212 216.085 341.692 215.616C342.172 215.136 342.566 214.597 342.876 214C343.185 213.392 343.414 212.741 343.564 212.048C343.724 211.344 343.804 210.635 343.804 209.92V207.776H345.916V209.92ZM368.474 210.752V212.48H366.506V217.184H364.394V206.64H366.506V210.752H368.474ZM362.538 207.744C362.538 209.76 361.952 211.445 360.778 212.8C359.605 214.144 357.909 215.136 355.69 215.776L354.81 214.096C356.496 213.648 357.781 213.019 358.666 212.208C359.552 211.387 360.08 210.459 360.25 209.424H355.45V207.744H362.538ZM359.114 219.44H367.018V221.12H357.002V216.128H359.114V219.44ZM385.586 206.64V221.376H383.474V214H380.626V212.288H383.474V206.64H385.586ZM380.722 208.16C380.722 209.269 380.621 210.331 380.418 211.344C380.215 212.357 379.863 213.312 379.362 214.208C378.871 215.104 378.205 215.941 377.362 216.72C376.53 217.488 375.479 218.192 374.21 218.832L373.09 217.2C374.007 216.741 374.797 216.251 375.458 215.728C376.119 215.205 376.669 214.64 377.106 214.032C377.543 213.424 377.879 212.773 378.114 212.08C378.349 211.387 378.503 210.64 378.578 209.84H373.794V208.16H380.722ZM400.625 206.624V221.36H398.625V213.888H397.297V220.672H395.329V206.896H397.297V212.192H398.625V206.624H400.625ZM390.433 216.384C391.105 216.363 391.772 216.331 392.433 216.288C393.094 216.245 393.793 216.165 394.529 216.048L394.689 217.76C393.729 217.909 392.833 218.005 392.001 218.048C391.18 218.091 390.321 218.112 389.425 218.112H388.385V212.112H391.905V209.76H388.369V208.064H393.937V213.776H390.433V216.384ZM414.736 215.104C413.37 214.869 412.24 214.437 411.344 213.808C410.458 213.168 409.776 212.379 409.296 211.44C408.816 212.347 408.117 213.125 407.2 213.776C406.282 214.427 405.178 214.869 403.888 215.104L403.024 213.36C403.856 213.221 404.592 212.987 405.232 212.656C405.872 212.325 406.41 211.941 406.848 211.504C407.285 211.056 407.616 210.576 407.84 210.064C408.064 209.541 408.176 209.024 408.176 208.512V207.456H410.432V208.512C410.432 209.035 410.544 209.557 410.768 210.08C410.992 210.603 411.322 211.083 411.76 211.52C412.197 211.957 412.736 212.341 413.376 212.672C414.016 212.992 414.757 213.221 415.6 213.36L414.736 215.104ZM416.048 217.936V219.632H402.704V217.936H408.256V214.64H410.368V217.936H416.048Z" fill="#31383F"/>
<path d="M330.618 259.064H328.474V266.376H326.362V251.64H328.474V257.304H330.618V259.064ZM322.362 254.92C322.362 255.581 322.426 256.237 322.554 256.888C322.693 257.539 322.901 258.152 323.178 258.728C323.455 259.304 323.807 259.827 324.234 260.296C324.671 260.755 325.183 261.128 325.77 261.416L324.49 263.08C323.722 262.685 323.077 262.152 322.554 261.48C322.031 260.808 321.615 260.019 321.306 259.112C320.986 260.051 320.543 260.893 319.978 261.64C319.423 262.376 318.73 262.947 317.898 263.352L316.634 261.64C317.253 261.352 317.786 260.968 318.234 260.488C318.693 260.008 319.066 259.469 319.354 258.872C319.653 258.275 319.871 257.64 320.01 256.968C320.159 256.285 320.234 255.603 320.234 254.92V252.776H322.362V254.92ZM344.281 254.824H332.297V253.176H337.257V251.624H339.369V253.176H344.281V254.824ZM333.273 257.944C333.273 257.133 333.715 256.509 334.601 256.072C335.497 255.624 336.734 255.4 338.313 255.4C339.891 255.4 341.129 255.624 342.025 256.072C342.921 256.509 343.369 257.133 343.369 257.944C343.369 258.755 342.921 259.379 342.025 259.816C341.129 260.253 339.891 260.472 338.313 260.472C336.734 260.472 335.497 260.253 334.601 259.816C333.715 259.379 333.273 258.755 333.273 257.944ZM341.177 257.944C341.177 257.603 340.942 257.357 340.473 257.208C340.003 257.048 339.283 256.968 338.313 256.968C337.342 256.968 336.622 257.048 336.153 257.208C335.694 257.357 335.465 257.603 335.465 257.944C335.465 258.584 336.414 258.904 338.313 258.904C340.222 258.904 341.177 258.584 341.177 257.944ZM345.001 262.872H339.369V266.392H337.257V262.872H331.657V261.176H345.001V262.872ZM363.521 256.12V257.864H361.761V262.664H359.649V251.624H361.761V256.12H363.521ZM355.809 257.72C355.926 257.016 356.006 256.397 356.049 255.864C356.091 255.331 356.118 254.84 356.129 254.392H350.641V252.712H358.209V253.624C358.209 254.136 358.193 254.755 358.161 255.48C358.139 256.195 358.043 257.021 357.873 257.96L355.809 257.72ZM358.977 260.056C358.219 260.195 357.441 260.307 356.641 260.392C355.851 260.477 355.067 260.541 354.289 260.584C353.51 260.627 352.753 260.659 352.017 260.68C351.291 260.691 350.614 260.696 349.985 260.696L349.793 259.016C350.198 259.016 350.625 259.016 351.073 259.016C351.531 259.016 352.001 259.011 352.481 259V256.136H354.545V258.92C355.281 258.888 356.006 258.845 356.721 258.792C357.435 258.728 358.145 258.648 358.849 258.552L358.977 260.056ZM354.049 264.44H362.225V266.12H351.937V261.688H354.049V264.44ZM376.975 251.624V266.408H374.863V251.624H376.975ZM367.663 261.24C368.783 261.24 369.834 261.203 370.815 261.128C371.797 261.053 372.805 260.931 373.839 260.76L374.063 262.472C373.455 262.579 372.863 262.669 372.287 262.744C371.711 262.808 371.13 262.861 370.543 262.904C369.957 262.936 369.359 262.957 368.751 262.968C368.143 262.979 367.503 262.984 366.831 262.984H365.503V256.92H370.287V254.568H365.487V252.888H372.447V258.584H367.663V261.24Z" fill="#BE9162"/>
<path opacity="0.5" d="M180 234H493.5L483 223.5" stroke="#31383F"/>
<path d="M526.744 135.592C525.987 134.355 525.4 133.069 524.984 131.736C524.568 130.392 524.36 128.915 524.36 127.304C524.36 125.704 524.568 124.237 524.984 122.904C525.4 121.56 525.987 120.269 526.744 119.032L528.216 119.656C527.544 120.851 527.048 122.083 526.728 123.352C526.419 124.611 526.264 125.928 526.264 127.304C526.264 128.701 526.419 130.029 526.728 131.288C527.048 132.547 527.544 133.773 528.216 134.968L526.744 135.592ZM530.375 125.288C531.132 125.192 531.794 125.037 532.359 124.824C532.935 124.611 533.42 124.36 533.815 124.072C534.22 123.784 534.53 123.469 534.743 123.128C534.967 122.776 535.106 122.424 535.159 122.072H530.919V120.392H541.847V122.072H537.671C537.724 122.424 537.858 122.776 538.071 123.128C538.295 123.469 538.604 123.784 538.999 124.072C539.394 124.36 539.874 124.611 540.439 124.824C541.015 125.037 541.676 125.192 542.423 125.288L541.671 126.936C540.38 126.755 539.292 126.408 538.407 125.896C537.522 125.384 536.855 124.744 536.407 123.976C535.959 124.744 535.292 125.384 534.407 125.896C533.522 126.408 532.434 126.755 531.143 126.936L530.375 125.288ZM543.063 129.464H537.415V134.408H535.303V129.464H529.751V127.784H543.063V129.464ZM544.598 134.968C545.27 133.773 545.76 132.547 546.07 131.288C546.39 130.029 546.55 128.701 546.55 127.304C546.55 125.928 546.39 124.611 546.07 123.352C545.76 122.083 545.27 120.851 544.598 119.656L546.054 119.032C546.822 120.269 547.414 121.56 547.83 122.904C548.246 124.237 548.454 125.704 548.454 127.304C548.454 128.915 548.24 130.392 547.814 131.736C547.398 133.069 546.811 134.355 546.054 135.592L544.598 134.968ZM564.181 127.144H562.069V134.376H559.957V119.64H562.069V125.4H564.181V127.144ZM555.797 121.816H558.997V123.496H550.421V121.816H553.685V119.896H555.797V121.816ZM554.757 124.328C555.29 124.328 555.781 124.413 556.229 124.584C556.687 124.755 557.082 125 557.413 125.32C557.743 125.629 557.999 125.997 558.181 126.424C558.373 126.851 558.469 127.32 558.469 127.832C558.469 128.355 558.373 128.835 558.181 129.272C557.999 129.699 557.743 130.072 557.413 130.392C557.082 130.701 556.687 130.941 556.229 131.112C555.781 131.283 555.29 131.368 554.757 131.368C554.223 131.368 553.727 131.283 553.269 131.112C552.81 130.941 552.41 130.701 552.069 130.392C551.738 130.072 551.477 129.699 551.285 129.272C551.103 128.835 551.013 128.355 551.013 127.832C551.013 127.32 551.103 126.851 551.285 126.424C551.477 125.997 551.738 125.629 552.069 125.32C552.41 125 552.81 124.755 553.269 124.584C553.727 124.413 554.223 124.328 554.757 124.328ZM554.757 129.64C555.269 129.64 555.679 129.485 555.989 129.176C556.309 128.856 556.469 128.408 556.469 127.832C556.469 127.277 556.309 126.84 555.989 126.52C555.679 126.2 555.269 126.04 554.757 126.04C554.245 126.04 553.829 126.2 553.509 126.52C553.189 126.829 553.029 127.272 553.029 127.848C553.029 128.424 553.189 128.867 553.509 129.176C553.829 129.485 554.245 129.64 554.757 129.64ZM577.427 119.624V134.408H575.315V119.624H577.427ZM569.507 120.664C570.062 120.664 570.574 120.787 571.043 121.032C571.523 121.277 571.934 121.629 572.275 122.088C572.617 122.536 572.883 123.085 573.075 123.736C573.278 124.376 573.379 125.101 573.379 125.912C573.379 126.723 573.278 127.453 573.075 128.104C572.883 128.755 572.617 129.309 572.275 129.768C571.934 130.227 571.523 130.579 571.043 130.824C570.574 131.069 570.062 131.192 569.507 131.192C568.953 131.192 568.435 131.069 567.955 130.824C567.486 130.579 567.081 130.227 566.739 129.768C566.398 129.309 566.126 128.755 565.923 128.104C565.731 127.453 565.635 126.723 565.635 125.912C565.635 125.101 565.731 124.376 565.923 123.736C566.126 123.085 566.398 122.536 566.739 122.088C567.081 121.629 567.486 121.277 567.955 121.032C568.435 120.787 568.953 120.664 569.507 120.664ZM569.507 122.568C568.963 122.568 568.521 122.851 568.179 123.416C567.838 123.981 567.667 124.813 567.667 125.912C567.667 127.011 567.838 127.848 568.179 128.424C568.521 128.989 568.963 129.272 569.507 129.272C570.051 129.272 570.494 128.989 570.835 128.424C571.177 127.848 571.347 127.011 571.347 125.912C571.347 124.813 571.177 123.981 570.835 123.416C570.494 122.851 570.051 122.568 569.507 122.568ZM592.146 119.624V134.408H590.034V119.624H592.146ZM585.65 122.92C585.65 123.603 585.725 124.275 585.874 124.936C586.023 125.597 586.247 126.216 586.546 126.792C586.845 127.368 587.223 127.885 587.682 128.344C588.151 128.792 588.695 129.149 589.314 129.416L588.114 131.128C587.25 130.744 586.535 130.205 585.97 129.512C585.405 128.808 584.957 128.003 584.626 127.096C584.295 128.099 583.837 128.979 583.25 129.736C582.663 130.483 581.917 131.064 581.01 131.48L579.746 129.736C580.386 129.459 580.946 129.085 581.426 128.616C581.906 128.136 582.301 127.597 582.61 127C582.919 126.392 583.149 125.741 583.298 125.048C583.458 124.344 583.538 123.635 583.538 122.92V120.776H585.65V122.92ZM608.209 123.752V125.48H606.241V130.184H604.129V119.64H606.241V123.752H608.209ZM602.273 120.744C602.273 122.76 601.686 124.445 600.513 125.8C599.339 127.144 597.643 128.136 595.425 128.776L594.545 127.096C596.23 126.648 597.515 126.019 598.401 125.208C599.286 124.387 599.814 123.459 599.985 122.424H595.185V120.744H602.273ZM598.849 132.44H606.753V134.12H596.737V129.128H598.849V132.44ZM616.505 119.32H618.073L614.105 135.112H612.537L616.505 119.32ZM636.509 127.064H634.365V134.376H632.253V119.64H634.365V125.304H636.509V127.064ZM628.253 122.92C628.253 123.581 628.317 124.237 628.445 124.888C628.583 125.539 628.791 126.152 629.069 126.728C629.346 127.304 629.698 127.827 630.125 128.296C630.562 128.755 631.074 129.128 631.661 129.416L630.381 131.08C629.613 130.685 628.967 130.152 628.445 129.48C627.922 128.808 627.506 128.019 627.197 127.112C626.877 128.051 626.434 128.893 625.869 129.64C625.314 130.376 624.621 130.947 623.789 131.352L622.525 129.64C623.143 129.352 623.677 128.968 624.125 128.488C624.583 128.008 624.957 127.469 625.245 126.872C625.543 126.275 625.762 125.64 625.901 124.968C626.05 124.285 626.125 123.603 626.125 122.92V120.776H628.253V122.92ZM650.171 122.824H638.187V121.176H643.147V119.624H645.259V121.176H650.171V122.824ZM639.163 125.944C639.163 125.133 639.606 124.509 640.491 124.072C641.387 123.624 642.625 123.4 644.203 123.4C645.782 123.4 647.019 123.624 647.915 124.072C648.811 124.509 649.259 125.133 649.259 125.944C649.259 126.755 648.811 127.379 647.915 127.816C647.019 128.253 645.782 128.472 644.203 128.472C642.625 128.472 641.387 128.253 640.491 127.816C639.606 127.379 639.163 126.755 639.163 125.944ZM647.067 125.944C647.067 125.603 646.833 125.357 646.363 125.208C645.894 125.048 645.174 124.968 644.203 124.968C643.233 124.968 642.513 125.048 642.043 125.208C641.585 125.357 641.355 125.603 641.355 125.944C641.355 126.584 642.305 126.904 644.203 126.904C646.113 126.904 647.067 126.584 647.067 125.944ZM650.891 130.872H645.259V134.392H643.147V130.872H637.547V129.176H650.891V130.872ZM665.786 124.12V125.864H664.026V130.664H661.914V119.624H664.026V124.12H665.786ZM658.074 125.72C658.191 125.016 658.271 124.397 658.314 123.864C658.357 123.331 658.383 122.84 658.394 122.392H652.906V120.712H660.474V121.624C660.474 122.136 660.458 122.755 660.426 123.48C660.405 124.195 660.309 125.021 660.138 125.96L658.074 125.72ZM661.242 128.056C660.485 128.195 659.706 128.307 658.906 128.392C658.117 128.477 657.333 128.541 656.554 128.584C655.775 128.627 655.018 128.659 654.282 128.68C653.557 128.691 652.879 128.696 652.25 128.696L652.058 127.016C652.463 127.016 652.89 127.016 653.338 127.016C653.797 127.016 654.266 127.011 654.746 127V124.136H656.81V126.92C657.546 126.888 658.271 126.845 658.986 126.792C659.701 126.728 660.41 126.648 661.114 126.552L661.242 128.056ZM656.314 132.44H664.49V134.12H654.202V129.688H656.314V132.44ZM679.241 119.624V134.408H677.129V119.624H679.241ZM669.929 129.24C671.049 129.24 672.1 129.203 673.081 129.128C674.062 129.053 675.07 128.931 676.105 128.76L676.329 130.472C675.721 130.579 675.129 130.669 674.553 130.744C673.977 130.808 673.396 130.861 672.809 130.904C672.222 130.936 671.625 130.957 671.017 130.968C670.409 130.979 669.769 130.984 669.097 130.984H667.769V124.92H672.553V122.568H667.753V120.888H674.713V126.584H669.929V129.24ZM697.537 119.624V134.408H695.425V119.624H697.537ZM691.041 122.92C691.041 123.603 691.115 124.275 691.265 124.936C691.414 125.597 691.638 126.216 691.937 126.792C692.235 127.368 692.614 127.885 693.073 128.344C693.542 128.792 694.086 129.149 694.705 129.416L693.505 131.128C692.641 130.744 691.926 130.205 691.361 129.512C690.795 128.808 690.347 128.003 690.017 127.096C689.686 128.099 689.227 128.979 688.641 129.736C688.054 130.483 687.307 131.064 686.401 131.48L685.137 129.736C685.777 129.459 686.337 129.085 686.817 128.616C687.297 128.136 687.691 127.597 688.001 127C688.31 126.392 688.539 125.741 688.689 125.048C688.849 124.344 688.929 123.635 688.929 122.92V120.776H691.041V122.92ZM712.031 128.344C710.741 128.088 709.637 127.624 708.719 126.952C707.813 126.28 707.119 125.475 706.639 124.536C706.159 125.475 705.466 126.285 704.559 126.968C703.653 127.64 702.554 128.099 701.263 128.344L700.367 126.584C701.199 126.445 701.935 126.205 702.575 125.864C703.215 125.512 703.754 125.107 704.191 124.648C704.629 124.189 704.959 123.693 705.183 123.16C705.407 122.616 705.519 122.083 705.519 121.56V120.504H707.775V121.56C707.775 122.093 707.887 122.632 708.111 123.176C708.335 123.709 708.666 124.205 709.103 124.664C709.541 125.123 710.079 125.523 710.719 125.864C711.359 126.205 712.095 126.445 712.927 126.584L712.031 128.344ZM713.391 130.872V132.584H700.047V130.872H713.391ZM727.326 119.656V128.44H725.326V119.656H727.326ZM722.43 124.872H720.99V123.176H722.43V119.864H724.398V128.328H722.43V124.872ZM721.582 127.544C721.166 127.619 720.761 127.677 720.366 127.72C719.971 127.763 719.566 127.8 719.15 127.832C718.745 127.853 718.313 127.869 717.854 127.88C717.395 127.88 716.894 127.88 716.35 127.88H715.342V120.52H720.878V122.184H717.374V123.352H720.366V124.952H717.374V126.216C718.142 126.216 718.841 126.195 719.47 126.152C720.11 126.099 720.755 126.008 721.406 125.88L721.582 127.544ZM717.342 129.016H727.326V134.2H717.342V129.016ZM719.422 132.552H725.262V130.664H719.422V132.552Z" fill="#31383F"/>
<path d="M554.904 179.112V180.472H541.816V179.112H547.512V176.2H543.288V168.744H544.92V171.176H551.768V168.744H553.4V176.2H549.16V179.112H554.904ZM544.92 174.872H551.768V172.504H544.92V174.872ZM557.175 172.552C557.847 172.488 558.46 172.371 559.015 172.2C559.58 172.029 560.071 171.821 560.487 171.576C560.903 171.331 561.233 171.059 561.479 170.76C561.735 170.461 561.889 170.147 561.943 169.816H557.735V168.488H568.407V169.816H564.167C564.22 170.147 564.369 170.461 564.615 170.76C564.871 171.059 565.207 171.331 565.623 171.576C566.039 171.821 566.524 172.029 567.079 172.2C567.644 172.371 568.263 172.488 568.935 172.552L568.359 173.832C567.068 173.693 565.959 173.379 565.031 172.888C564.103 172.397 563.447 171.779 563.063 171.032C562.668 171.779 562.007 172.397 561.079 172.888C560.161 173.379 559.057 173.693 557.767 173.832L557.175 172.552ZM569.591 174.568V175.896H556.519V174.568H569.591ZM563.031 176.936C564.588 176.936 565.804 177.171 566.679 177.64C567.564 178.099 568.007 178.749 568.007 179.592C568.007 180.435 567.575 181.085 566.711 181.544C565.857 182.003 564.631 182.232 563.031 182.232C562.263 182.232 561.569 182.173 560.951 182.056C560.332 181.939 559.809 181.768 559.383 181.544C558.956 181.32 558.625 181.043 558.391 180.712C558.167 180.381 558.055 180.008 558.055 179.592C558.055 179.176 558.167 178.803 558.391 178.472C558.625 178.141 558.956 177.864 559.383 177.64C559.809 177.405 560.332 177.229 560.951 177.112C561.569 176.995 562.263 176.936 563.031 176.936ZM563.031 180.936C564.097 180.936 564.913 180.824 565.479 180.6C566.055 180.376 566.343 180.04 566.343 179.592C566.343 179.144 566.055 178.808 565.479 178.584C564.913 178.349 564.097 178.232 563.031 178.232C561.964 178.232 561.148 178.349 560.583 178.584C560.017 178.808 559.735 179.144 559.735 179.592C559.735 180.04 560.017 180.376 560.583 180.6C561.148 180.824 561.964 180.936 563.031 180.936ZM583.254 167.752V182.248H581.59V173.848H578.502V172.504H581.59V167.752H583.254ZM576.486 171.336C576.486 172.008 576.566 172.669 576.726 173.32C576.896 173.96 577.136 174.563 577.446 175.128C577.755 175.683 578.128 176.184 578.566 176.632C579.014 177.069 579.515 177.416 580.07 177.672L579.094 179C578.262 178.595 577.558 178.013 576.982 177.256C576.416 176.499 575.979 175.635 575.67 174.664C575.35 175.699 574.896 176.616 574.31 177.416C573.734 178.205 573.03 178.813 572.198 179.24L571.158 177.928C571.723 177.651 572.23 177.277 572.678 176.808C573.136 176.339 573.52 175.816 573.83 175.24C574.15 174.653 574.395 174.024 574.566 173.352C574.736 172.68 574.822 172.008 574.822 171.336V168.952H576.486V171.336ZM588.932 183.32C588.186 182.104 587.604 180.835 587.188 179.512C586.772 178.179 586.564 176.717 586.564 175.128C586.564 173.539 586.772 172.083 587.188 170.76C587.604 169.437 588.186 168.168 588.932 166.952L590.084 167.448C589.38 168.611 588.868 169.837 588.548 171.128C588.228 172.408 588.068 173.741 588.068 175.128C588.068 176.525 588.228 177.864 588.548 179.144C588.868 180.424 589.38 181.645 590.084 182.808L588.932 183.32ZM605.036 174.856H602.844V182.216H601.196V167.768H602.844V173.48H605.036V174.856ZM599.116 169.224C599.116 170.301 599.02 171.347 598.828 172.36C598.646 173.363 598.31 174.317 597.82 175.224C597.34 176.131 596.678 176.984 595.836 177.784C594.993 178.573 593.916 179.299 592.604 179.96L591.708 178.68C592.988 178.04 594.017 177.352 594.796 176.616C595.574 175.869 596.177 175.043 596.604 174.136L592.028 174.584L591.804 173.16L597.1 172.824C597.292 172.12 597.42 171.368 597.484 170.568H592.54V169.224H599.116ZM617.995 175.928H607.979V169.048H617.883V170.392H609.627V174.6H617.995V175.928ZM619.483 179.016V180.376H606.379V179.016H619.483ZM621.001 182.808C621.705 181.645 622.217 180.424 622.537 179.144C622.857 177.864 623.017 176.525 623.017 175.128C623.017 173.741 622.857 172.408 622.537 171.128C622.217 169.837 621.705 168.611 621.001 167.448L622.153 166.952C622.921 168.168 623.508 169.437 623.913 170.76C624.329 172.083 624.537 173.539 624.537 175.128C624.537 176.717 624.329 178.179 623.913 179.512C623.497 180.835 622.911 182.104 622.153 183.32L621.001 182.808ZM643.675 170.744V172.104H641.643V175.192H639.995V167.784H641.643V170.744H643.675ZM637.675 174.712H630.859V168.392H632.507V170.296H636.043V168.392H637.675V174.712ZM636.043 171.56H632.507V173.4H636.043V171.56ZM633.963 180.808H642.123V182.104H632.347V178.312H640.011V177.112H632.315V175.832H641.643V179.528H633.963V180.808ZM658.17 173.56V174.904H645.082V173.56H654.554C654.724 172.76 654.826 172.061 654.858 171.464C654.9 170.856 654.922 170.28 654.922 169.736H646.73V168.408H656.538V169.512C656.538 170.067 656.522 170.664 656.49 171.304C656.468 171.944 656.367 172.696 656.186 173.56H658.17ZM654.874 176.04H656.522V182.056H646.714V176.04H648.346V177.768H654.874V176.04ZM654.874 179.048H648.346V180.728H654.874V179.048Z" fill="#31383F"/>
<circle cx="526" cy="176" r="3" fill="#31383F"/>
<path d="M554.152 203.768V218.216H552.568V203.768H554.152ZM549.624 204.088H551.176V217.544H549.624V210.536H546.776V209.192H549.624V204.088ZM543.928 213.512C544.813 213.512 545.597 213.485 546.28 213.432C546.973 213.368 547.672 213.261 548.376 213.112L548.52 214.472C548.115 214.547 547.715 214.611 547.32 214.664C546.936 214.717 546.536 214.76 546.12 214.792C545.704 214.824 545.261 214.845 544.792 214.856C544.333 214.867 543.827 214.872 543.272 214.872H542.296V205.48H547.768V206.824H543.928V213.512ZM568.423 203.768V218.264H566.759V203.768H568.423ZM560.727 204.84C561.271 204.84 561.767 204.963 562.215 205.208C562.673 205.443 563.068 205.784 563.399 206.232C563.729 206.669 563.985 207.203 564.167 207.832C564.359 208.451 564.455 209.149 564.455 209.928C564.455 210.707 564.359 211.416 564.167 212.056C563.985 212.685 563.729 213.219 563.399 213.656C563.068 214.093 562.673 214.435 562.215 214.68C561.767 214.915 561.271 215.032 560.727 215.032C560.193 215.032 559.697 214.915 559.239 214.68C558.791 214.435 558.401 214.093 558.071 213.656C557.74 213.219 557.479 212.685 557.287 212.056C557.105 211.416 557.015 210.707 557.015 209.928C557.015 209.149 557.105 208.451 557.287 207.832C557.479 207.203 557.74 206.669 558.071 206.232C558.401 205.784 558.791 205.443 559.239 205.208C559.697 204.963 560.193 204.84 560.727 204.84ZM560.727 206.328C560.087 206.328 559.569 206.648 559.175 207.288C558.791 207.917 558.599 208.797 558.599 209.928C558.599 211.091 558.791 211.987 559.175 212.616C559.569 213.245 560.087 213.56 560.727 213.56C561.367 213.56 561.884 213.245 562.279 212.616C562.673 211.987 562.871 211.091 562.871 209.928C562.871 208.797 562.673 207.917 562.279 207.288C561.884 206.648 561.367 206.328 560.727 206.328ZM583.254 203.752V218.248H581.59V210.424H578.822V209.064H581.59V203.752H583.254ZM573.542 213.528C574.118 213.528 574.656 213.523 575.158 213.512C575.659 213.491 576.144 213.464 576.614 213.432C577.083 213.4 577.542 213.357 577.99 213.304C578.448 213.251 578.912 213.187 579.382 213.112L579.526 214.44C579.014 214.536 578.507 214.616 578.006 214.68C577.515 214.733 577.008 214.776 576.486 214.808C575.963 214.829 575.419 214.845 574.854 214.856C574.288 214.867 573.68 214.872 573.03 214.872H571.894V205.032H578.598V206.392H573.542V209.096H578.006V210.408H573.542V213.528ZM601.886 203.784V218.232H600.318V203.784H601.886ZM597.422 204.072H598.958V217.56H597.422V210.536H595.63V214.696H590.03V205.16H591.582V208.584H594.11V205.16H595.63V209.176H597.422V204.072ZM594.11 209.896H591.582V213.368H594.11V209.896ZM616.157 203.768V218.264H614.493V203.768H616.157ZM608.461 204.84C609.005 204.84 609.501 204.963 609.949 205.208C610.408 205.443 610.802 205.784 611.133 206.232C611.464 206.669 611.72 207.203 611.901 207.832C612.093 208.451 612.189 209.149 612.189 209.928C612.189 210.707 612.093 211.416 611.901 212.056C611.72 212.685 611.464 213.219 611.133 213.656C610.802 214.093 610.408 214.435 609.949 214.68C609.501 214.915 609.005 215.032 608.461 215.032C607.928 215.032 607.432 214.915 606.973 214.68C606.525 214.435 606.136 214.093 605.805 213.656C605.474 213.219 605.213 212.685 605.021 212.056C604.84 211.416 604.749 210.707 604.749 209.928C604.749 209.149 604.84 208.451 605.021 207.832C605.213 207.203 605.474 206.669 605.805 206.232C606.136 205.784 606.525 205.443 606.973 205.208C607.432 204.963 607.928 204.84 608.461 204.84ZM608.461 206.328C607.821 206.328 607.304 206.648 606.909 207.288C606.525 207.917 606.333 208.797 606.333 209.928C606.333 211.091 606.525 211.987 606.909 212.616C607.304 213.245 607.821 213.56 608.461 213.56C609.101 213.56 609.618 213.245 610.013 212.616C610.408 211.987 610.605 211.091 610.605 209.928C610.605 208.797 610.408 207.917 610.013 207.288C609.618 206.648 609.101 206.328 608.461 206.328ZM630.796 212.2C630.209 212.083 629.644 211.901 629.1 211.656C628.567 211.411 628.065 211.117 627.596 210.776C627.137 210.435 626.727 210.051 626.364 209.624C626.001 209.187 625.703 208.723 625.468 208.232C625.233 208.723 624.935 209.187 624.572 209.624C624.209 210.051 623.793 210.435 623.324 210.776C622.865 211.117 622.364 211.411 621.82 211.656C621.287 211.901 620.727 212.083 620.14 212.2L619.436 210.84C620.151 210.712 620.817 210.483 621.436 210.152C622.065 209.821 622.615 209.432 623.084 208.984C623.553 208.525 623.921 208.024 624.188 207.48C624.465 206.925 624.604 206.365 624.604 205.8V204.712H626.348V205.8C626.348 206.376 626.481 206.941 626.748 207.496C627.025 208.04 627.399 208.541 627.868 209C628.337 209.448 628.881 209.837 629.5 210.168C630.129 210.488 630.801 210.712 631.516 210.84L630.796 212.2ZM632.076 215.016V216.376H618.988V215.016H632.076ZM649.269 203.768V218.248H647.621V210.296H644.773V208.936H647.621V203.768H649.269ZM642.469 207.736C642.469 208.344 642.554 208.957 642.725 209.576C642.906 210.195 643.157 210.781 643.477 211.336C643.797 211.891 644.181 212.392 644.629 212.84C645.087 213.277 645.594 213.624 646.149 213.88L645.189 215.176C644.357 214.771 643.642 214.184 643.045 213.416C642.447 212.648 641.989 211.779 641.669 210.808C641.349 211.843 640.885 212.771 640.277 213.592C639.669 214.403 638.943 215.032 638.101 215.48L637.125 214.168C637.679 213.901 638.181 213.539 638.629 213.08C639.087 212.621 639.477 212.104 639.797 211.528C640.117 210.952 640.362 210.339 640.533 209.688C640.714 209.037 640.805 208.387 640.805 207.736V206.568H637.685V205.224H645.605V206.568H642.469V207.736ZM665.332 207.304V208.664H663.284V212.424H661.636V203.784H663.284V207.304H665.332ZM659.684 211.864C658.873 211.608 658.18 211.229 657.604 210.728C657.038 210.227 656.601 209.64 656.292 208.968C655.972 209.736 655.508 210.413 654.9 211C654.302 211.587 653.572 212.029 652.708 212.328L651.876 211.032C652.441 210.84 652.942 210.584 653.38 210.264C653.828 209.944 654.201 209.581 654.5 209.176C654.798 208.771 655.022 208.333 655.172 207.864C655.332 207.395 655.411 206.915 655.411 206.424V206.136H652.34V204.808H660.1V206.136H657.076V206.408C657.076 206.856 657.15 207.293 657.3 207.72C657.449 208.147 657.668 208.541 657.956 208.904C658.244 209.267 658.596 209.592 659.012 209.88C659.438 210.168 659.929 210.403 660.484 210.584L659.684 211.864ZM658.628 212.76C659.374 212.76 660.041 212.824 660.628 212.952C661.225 213.069 661.732 213.245 662.148 213.48C662.564 213.715 662.884 214.003 663.108 214.344C663.332 214.675 663.444 215.059 663.444 215.496C663.444 215.923 663.332 216.307 663.108 216.648C662.884 216.989 662.564 217.277 662.148 217.512C661.732 217.747 661.225 217.923 660.628 218.04C660.041 218.168 659.374 218.232 658.628 218.232C657.881 218.232 657.209 218.168 656.612 218.04C656.025 217.923 655.524 217.747 655.108 217.512C654.692 217.277 654.372 216.989 654.148 216.648C653.924 216.307 653.812 215.923 653.812 215.496C653.812 215.059 653.924 214.675 654.148 214.344C654.372 214.003 654.692 213.715 655.108 213.48C655.524 213.245 656.025 213.069 656.612 212.952C657.209 212.824 657.881 212.76 658.628 212.76ZM658.628 216.936C659.662 216.936 660.452 216.819 660.996 216.584C661.54 216.339 661.812 215.976 661.812 215.496C661.812 215.016 661.54 214.659 660.996 214.424C660.452 214.179 659.662 214.056 658.628 214.056C657.593 214.056 656.804 214.179 656.26 214.424C655.716 214.659 655.444 215.016 655.444 215.496C655.444 215.976 655.716 216.339 656.26 216.584C656.804 216.819 657.593 216.936 658.628 216.936ZM669.682 219.32C668.936 218.104 668.354 216.835 667.938 215.512C667.522 214.179 667.314 212.717 667.314 211.128C667.314 209.539 667.522 208.083 667.938 206.76C668.354 205.437 668.936 204.168 669.682 202.952L670.834 203.448C670.13 204.611 669.618 205.837 669.298 207.128C668.978 208.408 668.818 209.741 668.818 211.128C668.818 212.525 668.978 213.864 669.298 215.144C669.618 216.424 670.13 217.645 670.834 218.808L669.682 219.32ZM684.298 203.768V218.232H682.634V203.768H684.298ZM681.514 206.792H672.778V205.464H676.33V203.8H677.978V205.464H681.514V206.792ZM677.978 214.184C678.628 214.141 679.274 214.099 679.914 214.056C680.564 214.003 681.199 213.933 681.818 213.848L681.93 215.048C681.13 215.187 680.324 215.293 679.514 215.368C678.703 215.443 677.898 215.501 677.098 215.544C676.308 215.587 675.54 215.613 674.794 215.624C674.058 215.635 673.359 215.64 672.698 215.64L672.49 214.28C673.066 214.28 673.679 214.28 674.33 214.28C674.98 214.269 675.647 214.253 676.33 214.232V212.824C675.498 212.696 674.836 212.403 674.346 211.944C673.866 211.475 673.626 210.888 673.626 210.184C673.626 209.779 673.711 209.411 673.882 209.08C674.052 208.749 674.292 208.467 674.602 208.232C674.922 207.997 675.295 207.816 675.722 207.688C676.159 207.56 676.639 207.496 677.162 207.496C677.684 207.496 678.159 207.56 678.586 207.688C679.023 207.816 679.396 207.997 679.706 208.232C680.015 208.467 680.255 208.749 680.426 209.08C680.596 209.411 680.682 209.779 680.682 210.184C680.682 210.888 680.436 211.475 679.946 211.944C679.466 212.403 678.81 212.696 677.978 212.824V214.184ZM675.194 210.184C675.194 210.632 675.375 210.984 675.738 211.24C676.1 211.496 676.575 211.624 677.162 211.624C677.738 211.624 678.207 211.496 678.57 211.24C678.932 210.984 679.114 210.632 679.114 210.184C679.114 209.736 678.932 209.389 678.57 209.144C678.207 208.888 677.738 208.76 677.162 208.76C676.575 208.76 676.1 208.888 675.738 209.144C675.375 209.389 675.194 209.736 675.194 210.184ZM697.449 212.264V203.768H699.097V214.76H697.449V213.416H694.617V212.264H697.449ZM691.737 209.416C691.214 209.416 690.729 209.357 690.281 209.24C689.843 209.112 689.465 208.941 689.145 208.728C688.835 208.504 688.59 208.237 688.409 207.928C688.238 207.608 688.153 207.256 688.153 206.872C688.153 206.488 688.238 206.141 688.409 205.832C688.59 205.512 688.835 205.245 689.145 205.032C689.465 204.808 689.843 204.637 690.281 204.52C690.729 204.392 691.214 204.328 691.737 204.328C692.27 204.328 692.755 204.392 693.193 204.52C693.63 204.637 694.003 204.808 694.312 205.032C694.622 205.245 694.862 205.512 695.033 205.832C695.214 206.141 695.305 206.488 695.305 206.872C695.305 207.256 695.214 207.608 695.033 207.928C694.862 208.237 694.622 208.504 694.312 208.728C694.003 208.941 693.63 209.112 693.193 209.24C692.755 209.357 692.27 209.416 691.737 209.416ZM691.737 205.544C691.129 205.544 690.638 205.667 690.265 205.912C689.902 206.147 689.721 206.467 689.721 206.872C689.721 207.277 689.902 207.603 690.265 207.848C690.638 208.083 691.129 208.2 691.737 208.2C692.345 208.2 692.83 208.083 693.193 207.848C693.555 207.603 693.737 207.277 693.737 206.872C693.737 206.467 693.555 206.147 693.193 205.912C692.83 205.667 692.345 205.544 691.737 205.544ZM691.081 211.608C690.377 211.64 689.705 211.661 689.065 211.672C688.435 211.683 687.833 211.688 687.257 211.688L687.049 210.344C687.71 210.344 688.419 210.339 689.177 210.328C689.945 210.317 690.729 210.301 691.529 210.28C692.329 210.248 693.134 210.205 693.945 210.152C694.755 210.088 695.545 210.008 696.312 209.912L696.441 211.096C695.833 211.203 695.214 211.293 694.585 211.368C693.966 211.432 693.347 211.48 692.729 211.512V214.296H691.081V211.608ZM699.433 216.616V217.96H689.001V213.688H690.649V216.616H699.433ZM712.167 207.416V203.784H713.815V212.392H712.167V208.76H709.607V207.416H712.167ZM709.623 211.928C708.823 211.651 708.141 211.245 707.575 210.712C707.01 210.168 706.573 209.544 706.263 208.84C705.943 209.64 705.485 210.344 704.887 210.952C704.29 211.549 703.559 212.003 702.695 212.312L701.847 211C702.413 210.797 702.914 210.536 703.351 210.216C703.789 209.885 704.157 209.512 704.455 209.096C704.754 208.68 704.983 208.232 705.143 207.752C705.303 207.272 705.383 206.787 705.383 206.296V206.088H702.327V204.76H710.055V206.088H707.047V206.28C707.047 206.739 707.122 207.187 707.271 207.624C707.421 208.061 707.639 208.472 707.927 208.856C708.215 209.24 708.567 209.587 708.983 209.896C709.41 210.195 709.895 210.44 710.439 210.632L709.623 211.928ZM709.015 212.776C709.773 212.776 710.45 212.84 711.047 212.968C711.645 213.085 712.151 213.261 712.567 213.496C712.994 213.731 713.319 214.019 713.543 214.36C713.767 214.691 713.879 215.075 713.879 215.512C713.879 215.939 713.767 216.323 713.543 216.664C713.319 217.005 712.994 217.293 712.567 217.528C712.151 217.763 711.645 217.939 711.047 218.056C710.45 218.184 709.773 218.248 709.015 218.248C708.258 218.248 707.575 218.184 706.967 218.056C706.37 217.939 705.858 217.763 705.431 217.528C705.015 217.293 704.695 217.005 704.471 216.664C704.247 216.323 704.135 215.939 704.135 215.512C704.135 215.075 704.247 214.691 704.471 214.36C704.695 214.019 705.015 213.731 705.431 213.496C705.858 213.261 706.37 213.085 706.967 212.968C707.575 212.84 708.258 212.776 709.015 212.776ZM709.015 216.968C710.05 216.968 710.845 216.845 711.399 216.6C711.954 216.355 712.231 215.992 712.231 215.512C712.231 215.032 711.954 214.669 711.399 214.424C710.845 214.179 710.05 214.056 709.015 214.056C707.981 214.056 707.181 214.179 706.615 214.424C706.061 214.669 705.783 215.032 705.783 215.512C705.783 215.992 706.061 216.355 706.615 216.6C707.181 216.845 707.981 216.968 709.015 216.968ZM729.654 215.112V216.472H716.566V215.112H722.262V212.2H718.038V204.744H719.67V207.176H726.518V204.744H728.15V212.2H723.91V215.112H729.654ZM719.67 210.872H726.518V208.504H719.67V210.872ZM731.189 218.808C731.893 217.645 732.405 216.424 732.725 215.144C733.045 213.864 733.205 212.525 733.205 211.128C733.205 209.741 733.045 208.408 732.725 207.128C732.405 205.837 731.893 204.611 731.189 203.448L732.341 202.952C733.109 204.168 733.695 205.437 734.101 206.76C734.517 208.083 734.725 209.539 734.725 211.128C734.725 212.717 734.517 214.179 734.101 215.512C733.685 216.835 733.098 218.104 732.341 219.32L731.189 218.808Z" fill="#31383F"/>
<circle cx="526" cy="212" r="3" fill="#31383F"/>
<path d="M553.704 239.768V254.264H552.04V239.768H553.704ZM547.144 243.352C547.144 244.024 547.229 244.685 547.4 245.336C547.581 245.976 547.832 246.579 548.152 247.144C548.483 247.699 548.877 248.2 549.336 248.648C549.805 249.085 550.323 249.432 550.888 249.688L549.928 251C549.096 250.605 548.371 250.035 547.752 249.288C547.144 248.541 546.675 247.667 546.344 246.664C546.013 247.731 545.533 248.669 544.904 249.48C544.285 250.28 543.539 250.893 542.664 251.32L541.688 249.944C542.264 249.688 542.787 249.331 543.256 248.872C543.725 248.413 544.125 247.891 544.456 247.304C544.787 246.717 545.043 246.088 545.224 245.416C545.405 244.733 545.496 244.045 545.496 243.352V240.984H547.144V243.352ZM568.455 239.752V254.264H566.791V239.752H568.455ZM559.015 249.464C560.156 249.453 561.249 249.416 562.295 249.352C563.351 249.277 564.449 249.149 565.591 248.968L565.767 250.312C565.148 250.419 564.545 250.509 563.959 250.584C563.372 250.648 562.785 250.701 562.199 250.744C561.612 250.776 561.02 250.797 560.423 250.808C559.836 250.819 559.223 250.824 558.583 250.824H557.351V245.096H562.391V242.408H557.319V241.064H564.055V246.424H559.015V249.464ZM578.902 244.184C578.827 244.579 578.683 244.941 578.47 245.272C578.256 245.592 577.99 245.869 577.67 246.104C577.35 246.339 576.982 246.52 576.566 246.648C576.15 246.776 575.702 246.84 575.222 246.84C574.678 246.84 574.176 246.76 573.718 246.6C573.259 246.429 572.859 246.2 572.518 245.912C572.187 245.613 571.926 245.261 571.734 244.856C571.542 244.451 571.446 244.008 571.446 243.528C571.446 243.048 571.542 242.605 571.734 242.2C571.926 241.795 572.187 241.448 572.518 241.16C572.859 240.861 573.259 240.632 573.718 240.472C574.176 240.301 574.678 240.216 575.222 240.216C575.702 240.216 576.144 240.28 576.55 240.408C576.966 240.536 577.334 240.717 577.654 240.952C577.974 241.176 578.24 241.448 578.454 241.768C578.667 242.088 578.811 242.445 578.885 242.84H581.558V239.768H583.222V247.08H581.558V244.184H578.902ZM573.03 243.528C573.03 244.136 573.232 244.616 573.638 244.968C574.054 245.32 574.582 245.496 575.222 245.496C575.862 245.496 576.384 245.32 576.79 244.968C577.195 244.616 577.398 244.136 577.398 243.528C577.398 242.92 577.195 242.44 576.79 242.088C576.384 241.736 575.862 241.56 575.222 241.56C574.582 241.56 574.054 241.736 573.638 242.088C573.232 242.44 573.03 242.92 573.03 243.528ZM583.702 252.76V254.056H573.83V250.264H581.59V249.08H573.814V247.8H583.222V251.48H575.462V252.76H583.702ZM593.284 248.12H586.628V240.744H588.26V243.128H591.668V240.744H593.284V243.752H596.292V239.784H597.94V250.488H596.292V245.096H593.284V248.12ZM591.668 244.424H588.26V246.776H591.668V244.424ZM598.276 252.616V253.96H588.532V249.432H590.196V252.616H598.276ZM613.107 243.08H601.283V241.752H606.387V239.976H608.035V241.752H613.107V243.08ZM613.779 251.304V252.664H600.675V251.304H606.387V249.448C605.128 249.363 604.147 249.08 603.443 248.6C602.739 248.12 602.387 247.48 602.387 246.68C602.387 246.243 602.499 245.853 602.723 245.512C602.947 245.171 603.267 244.883 603.683 244.648C604.099 244.403 604.6 244.221 605.187 244.104C605.784 243.976 606.451 243.912 607.187 243.912C607.923 243.912 608.59 243.976 609.187 244.104C609.784 244.221 610.291 244.403 610.707 244.648C611.123 244.883 611.443 245.171 611.667 245.512C611.891 245.853 612.003 246.243 612.003 246.68C612.003 247.48 611.656 248.12 610.963 248.6C610.27 249.069 609.294 249.352 608.035 249.448V251.304H613.779ZM604.067 246.68C604.067 247.16 604.334 247.533 604.867 247.8C605.411 248.056 606.184 248.184 607.187 248.184C608.19 248.184 608.963 248.056 609.507 247.8C610.051 247.533 610.323 247.16 610.323 246.68C610.323 246.2 610.051 245.832 609.507 245.576C608.963 245.32 608.19 245.192 607.187 245.192C606.184 245.192 605.411 245.32 604.867 245.576C604.334 245.832 604.067 246.2 604.067 246.68ZM628.498 251.176V252.536H615.41V251.176H621.106V248.712H616.994V244.056H625.314V242.12H616.962V240.792H626.946V245.368H618.61V247.384H627.266V248.712H622.754V251.176H628.498ZM646.795 251.144V252.504H633.707V251.144H639.403V247.736H635.307V240.872H645.195V242.2H636.955V246.408H645.323V247.736H641.051V251.144H646.795ZM661.753 243.976V245.352H659.705V250.2H658.057V239.8H659.705V243.976H661.753ZM656.953 247.08C655.727 247.325 654.564 247.491 653.465 247.576C652.377 247.661 651.3 247.704 650.233 247.704H649.065V240.792H650.713V246.344C651.684 246.323 652.655 246.269 653.625 246.184C654.607 246.099 655.647 245.949 656.745 245.736L656.953 247.08ZM652.249 252.616H660.201V253.96H650.585V249.208H652.249V252.616ZM666.344 241.528H664.296V240.2H675V241.528H672.968V244.184H674.92V245.512H664.376V244.184H666.344V241.528ZM671.32 241.528H667.992V244.184H671.32V241.528ZM670.488 247.992V249.464H674.616V254.056H664.696V249.464H668.84V247.992H663.128V246.664H676.2V247.992H670.488ZM673 250.776H666.328V252.744H673V250.776ZM693.409 239.784V254.248H691.745V246.824H688.641V245.464H691.745V239.784H693.409ZM688.705 241.304C688.705 242.36 688.598 243.379 688.385 244.36C688.172 245.341 687.814 246.269 687.313 247.144C686.812 248.008 686.145 248.819 685.313 249.576C684.492 250.323 683.468 251 682.241 251.608L681.361 250.328C682.3 249.859 683.11 249.352 683.793 248.808C684.476 248.253 685.046 247.656 685.505 247.016C685.964 246.376 686.316 245.693 686.561 244.968C686.806 244.243 686.961 243.469 687.025 242.648H682.001V241.304H688.705ZM708.48 239.784V254.216H706.912V246.712H705.2V253.512H703.648V240.072H705.2V245.368H706.912V239.784H708.48ZM698.192 249.528C698.96 249.517 699.701 249.491 700.416 249.448C701.141 249.395 701.92 249.299 702.752 249.16L702.896 250.504C701.925 250.675 701.018 250.781 700.176 250.824C699.344 250.867 698.48 250.888 697.584 250.888H696.608V245.256H700.416V242.616H696.576V241.272H702V246.584H698.192V249.528ZM724.207 243.304V244.664H722.159V248.408H720.511V239.784H722.159V243.304H724.207ZM718.191 247.416H711.375V240.696H713.023V242.696H716.559V240.696H718.191V247.416ZM716.559 243.992H713.023V246.104H716.559V243.992ZM717.503 248.744C718.249 248.744 718.916 248.808 719.503 248.936C720.1 249.064 720.607 249.245 721.023 249.48C721.439 249.715 721.759 250.003 721.983 250.344C722.207 250.685 722.319 251.069 722.319 251.496C722.319 251.923 722.207 252.307 721.983 252.648C721.759 252.989 721.439 253.277 721.023 253.512C720.607 253.757 720.1 253.939 719.503 254.056C718.916 254.184 718.249 254.248 717.503 254.248C716.756 254.248 716.084 254.184 715.487 254.056C714.9 253.939 714.399 253.757 713.983 253.512C713.567 253.277 713.247 252.989 713.023 252.648C712.799 252.307 712.687 251.923 712.687 251.496C712.687 251.069 712.799 250.685 713.023 250.344C713.247 250.003 713.567 249.715 713.983 249.48C714.399 249.245 714.9 249.064 715.487 248.936C716.084 248.808 716.756 248.744 717.503 248.744ZM717.503 252.952C718.537 252.952 719.327 252.829 719.871 252.584C720.415 252.339 720.687 251.976 720.687 251.496C720.687 251.016 720.415 250.659 719.871 250.424C719.327 250.179 718.537 250.056 717.503 250.056C716.468 250.056 715.679 250.179 715.135 250.424C714.591 250.659 714.319 251.016 714.319 251.496C714.319 251.976 714.591 252.339 715.135 252.584C715.679 252.829 716.468 252.952 717.503 252.952ZM737.485 239.784V254.232H735.821V239.784H737.485ZM730.925 243.96C730.925 244.568 731.011 245.171 731.181 245.768C731.363 246.355 731.619 246.909 731.949 247.432C732.28 247.944 732.675 248.408 733.133 248.824C733.592 249.24 734.104 249.571 734.669 249.816L733.757 251.112C732.915 250.739 732.179 250.184 731.549 249.448C730.931 248.712 730.451 247.875 730.109 246.936C729.789 247.939 729.315 248.845 728.685 249.656C728.067 250.467 727.331 251.075 726.477 251.48L725.533 250.168C726.099 249.912 726.605 249.56 727.053 249.112C727.512 248.664 727.907 248.163 728.237 247.608C728.568 247.043 728.819 246.445 728.989 245.816C729.171 245.187 729.261 244.568 729.261 243.96V242.584H726.045V241.224H734.141V242.584H730.925V243.96Z" fill="#31383F"/>
<circle cx="526" cy="248" r="3" fill="#31383F"/>
<path d="M552.136 279.416V275.784H553.784V284.392H552.136V280.76H549.576V279.416H552.136ZM549.592 283.928C548.792 283.651 548.109 283.245 547.544 282.712C546.979 282.168 546.541 281.544 546.232 280.84C545.912 281.64 545.453 282.344 544.856 282.952C544.259 283.549 543.528 284.003 542.664 284.312L541.816 283C542.381 282.797 542.883 282.536 543.32 282.216C543.757 281.885 544.125 281.512 544.424 281.096C544.723 280.68 544.952 280.232 545.112 279.752C545.272 279.272 545.352 278.787 545.352 278.296V278.088H542.296V276.76H550.024V278.088H547.016V278.28C547.016 278.739 547.091 279.187 547.24 279.624C547.389 280.061 547.608 280.472 547.896 280.856C548.184 281.24 548.536 281.587 548.952 281.896C549.379 282.195 549.864 282.44 550.408 282.632L549.592 283.928ZM548.984 284.776C549.741 284.776 550.419 284.84 551.016 284.968C551.613 285.085 552.12 285.261 552.536 285.496C552.963 285.731 553.288 286.019 553.512 286.36C553.736 286.691 553.848 287.075 553.848 287.512C553.848 287.939 553.736 288.323 553.512 288.664C553.288 289.005 552.963 289.293 552.536 289.528C552.12 289.763 551.613 289.939 551.016 290.056C550.419 290.184 549.741 290.248 548.984 290.248C548.227 290.248 547.544 290.184 546.936 290.056C546.339 289.939 545.827 289.763 545.4 289.528C544.984 289.293 544.664 289.005 544.44 288.664C544.216 288.323 544.104 287.939 544.104 287.512C544.104 287.075 544.216 286.691 544.44 286.36C544.664 286.019 544.984 285.731 545.4 285.496C545.827 285.261 546.339 285.085 546.936 284.968C547.544 284.84 548.227 284.776 548.984 284.776ZM548.984 288.968C550.019 288.968 550.813 288.845 551.368 288.6C551.923 288.355 552.2 287.992 552.2 287.512C552.2 287.032 551.923 286.669 551.368 286.424C550.813 286.179 550.019 286.056 548.984 286.056C547.949 286.056 547.149 286.179 546.584 286.424C546.029 286.669 545.752 287.032 545.752 287.512C545.752 287.992 546.029 288.355 546.584 288.6C547.149 288.845 547.949 288.968 548.984 288.968ZM568.455 275.784V290.232H566.807V275.784H568.455ZM564.199 277.304C564.199 278.381 564.081 279.416 563.847 280.408C563.623 281.389 563.244 282.317 562.711 283.192C562.188 284.067 561.5 284.883 560.647 285.64C559.793 286.387 558.748 287.059 557.511 287.656L556.631 286.344C558.529 285.427 559.948 284.333 560.887 283.064C561.825 281.784 562.364 280.312 562.503 278.648H557.351V277.304H564.199ZM583.11 282.44C581.883 282.248 580.811 281.864 579.894 281.288C578.976 280.712 578.277 280.008 577.798 279.176C577.318 280.019 576.614 280.728 575.686 281.304C574.768 281.869 573.696 282.248 572.47 282.44L571.83 281.112C572.566 281.005 573.243 280.824 573.862 280.568C574.491 280.301 575.03 279.987 575.478 279.624C575.926 279.251 576.278 278.845 576.534 278.408C576.79 277.96 576.918 277.496 576.918 277.016V276.248H578.661V277.016C578.661 277.485 578.79 277.944 579.046 278.392C579.302 278.84 579.654 279.251 580.102 279.624C580.56 279.987 581.099 280.301 581.718 280.568C582.347 280.824 583.024 281.005 583.75 281.112L583.11 282.44ZM584.31 285.144H578.566V290.248H576.918V285.144H571.254V283.8H584.31V285.144ZM597.892 275.752V290.264H596.228V275.752H597.892ZM588.452 285.464C589.594 285.453 590.687 285.416 591.732 285.352C592.788 285.277 593.887 285.149 595.028 284.968L595.204 286.312C594.586 286.419 593.983 286.509 593.396 286.584C592.81 286.648 592.223 286.701 591.636 286.744C591.05 286.776 590.458 286.797 589.86 286.808C589.274 286.819 588.66 286.824 588.02 286.824H586.788V281.096H591.828V278.408H586.756V277.064H593.492V282.424H588.452V285.464ZM608.093 275.432H609.373L604.925 291.08H603.645L608.093 275.432ZM626.05 275.768V284.184H624.402V280.632H621.842V279.288H624.402V275.768H626.05ZM621.858 283.816C621.058 283.539 620.37 283.133 619.794 282.6C619.228 282.056 618.791 281.432 618.482 280.728C618.162 281.507 617.703 282.195 617.106 282.792C616.508 283.389 615.778 283.837 614.914 284.136L614.066 282.84C614.631 282.648 615.132 282.392 615.57 282.072C616.007 281.741 616.375 281.373 616.674 280.968C616.983 280.552 617.218 280.109 617.378 279.64C617.538 279.16 617.618 278.675 617.618 278.184V277.944H614.562V276.616H622.29V277.944H619.282V278.184C619.282 278.632 619.356 279.075 619.506 279.512C619.655 279.949 619.874 280.36 620.162 280.744C620.45 281.128 620.802 281.475 621.218 281.784C621.644 282.093 622.124 282.344 622.658 282.536L621.858 283.816ZM616.562 284.84H626.05V290.056H616.562V284.84ZM618.178 288.744H624.434V286.152H618.178V288.744ZM640.768 275.768V283.96H639.12V280.728H636.256V279.368H639.12V275.768H640.768ZM636.224 276.648C636.224 277.587 636.07 278.451 635.76 279.24C635.462 280.029 635.024 280.744 634.448 281.384C633.883 282.013 633.19 282.563 632.368 283.032C631.547 283.491 630.614 283.869 629.568 284.168L628.896 282.856C630.603 282.408 631.915 281.768 632.832 280.936C633.76 280.104 634.299 279.123 634.448 277.992H629.664V276.648H636.224ZM631.36 284.552H640.768V290.056H631.36V284.552ZM632.976 288.728H639.152V285.864H632.976V288.728ZM657.417 279.416V275.784H659.065V284.392H657.417V280.76H654.857V279.416H657.417ZM654.873 283.928C654.073 283.651 653.391 283.245 652.825 282.712C652.26 282.168 651.823 281.544 651.513 280.84C651.193 281.64 650.735 282.344 650.137 282.952C649.54 283.549 648.809 284.003 647.945 284.312L647.097 283C647.663 282.797 648.164 282.536 648.601 282.216C649.039 281.885 649.407 281.512 649.705 281.096C650.004 280.68 650.233 280.232 650.393 279.752C650.553 279.272 650.633 278.787 650.633 278.296V278.088H647.577V276.76H655.305V278.088H652.297V278.28C652.297 278.739 652.372 279.187 652.521 279.624C652.671 280.061 652.889 280.472 653.177 280.856C653.465 281.24 653.817 281.587 654.233 281.896C654.66 282.195 655.145 282.44 655.689 282.632L654.873 283.928ZM654.265 284.776C655.023 284.776 655.7 284.84 656.297 284.968C656.895 285.085 657.401 285.261 657.817 285.496C658.244 285.731 658.569 286.019 658.793 286.36C659.017 286.691 659.129 287.075 659.129 287.512C659.129 287.939 659.017 288.323 658.793 288.664C658.569 289.005 658.244 289.293 657.817 289.528C657.401 289.763 656.895 289.939 656.297 290.056C655.7 290.184 655.023 290.248 654.265 290.248C653.508 290.248 652.825 290.184 652.217 290.056C651.62 289.939 651.108 289.763 650.681 289.528C650.265 289.293 649.945 289.005 649.721 288.664C649.497 288.323 649.385 287.939 649.385 287.512C649.385 287.075 649.497 286.691 649.721 286.36C649.945 286.019 650.265 285.731 650.681 285.496C651.108 285.261 651.62 285.085 652.217 284.968C652.825 284.84 653.508 284.776 654.265 284.776ZM654.265 288.968C655.3 288.968 656.095 288.845 656.649 288.6C657.204 288.355 657.481 287.992 657.481 287.512C657.481 287.032 657.204 286.669 656.649 286.424C656.095 286.179 655.3 286.056 654.265 286.056C653.231 286.056 652.431 286.179 651.865 286.424C651.311 286.669 651.033 287.032 651.033 287.512C651.033 287.992 651.311 288.355 651.865 288.6C652.431 288.845 653.231 288.968 654.265 288.968ZM674.904 287.112V288.472H661.816V287.112H667.512V284.2H663.288V276.744H664.92V279.176H671.768V276.744H673.4V284.2H669.16V287.112H674.904ZM664.92 282.872H671.768V280.504H664.92V282.872ZM693.441 280.072V281.432H691.393V286.376H689.745V275.784H691.393V280.072H693.441ZM687.985 280.36C687.985 280.883 687.884 281.368 687.681 281.816C687.489 282.253 687.222 282.632 686.881 282.952C686.54 283.272 686.129 283.523 685.649 283.704C685.18 283.885 684.673 283.976 684.129 283.976C683.585 283.976 683.078 283.885 682.609 283.704C682.14 283.523 681.734 283.272 681.393 282.952C681.052 282.632 680.78 282.253 680.577 281.816C680.385 281.368 680.289 280.883 680.289 280.36C680.289 279.827 680.385 279.341 680.577 278.904C680.78 278.467 681.052 278.088 681.393 277.768C681.734 277.448 682.14 277.203 682.609 277.032C683.078 276.851 683.585 276.76 684.129 276.76C684.673 276.76 685.18 276.851 685.649 277.032C686.129 277.203 686.54 277.448 686.881 277.768C687.222 278.088 687.489 278.467 687.681 278.904C687.884 279.341 687.985 279.827 687.985 280.36ZM681.905 280.36C681.905 280.691 681.958 280.995 682.065 281.272C682.182 281.539 682.342 281.768 682.545 281.96C682.748 282.152 682.982 282.301 683.249 282.408C683.516 282.504 683.809 282.552 684.129 282.552C684.449 282.552 684.742 282.504 685.009 282.408C685.286 282.301 685.521 282.152 685.713 281.96C685.916 281.768 686.076 281.539 686.193 281.272C686.31 280.995 686.369 280.691 686.369 280.36C686.369 280.029 686.31 279.731 686.193 279.464C686.076 279.197 685.916 278.968 685.713 278.776C685.521 278.584 685.286 278.44 685.009 278.344C684.742 278.237 684.449 278.184 684.129 278.184C683.809 278.184 683.516 278.237 683.249 278.344C682.982 278.44 682.748 278.584 682.545 278.776C682.342 278.968 682.182 279.197 682.065 279.464C681.958 279.731 681.905 280.029 681.905 280.36ZM683.905 288.616H691.969V289.96H682.241V285.288H683.905V288.616ZM707.12 275.784V290.232H705.552V282.888H703.84V289.512H702.288V276.072H703.84V281.528H705.552V275.784H707.12ZM697.12 285.176C697.76 285.155 698.426 285.117 699.12 285.064C699.813 285 700.56 284.893 701.36 284.744L701.536 286.152C700.565 286.333 699.664 286.451 698.832 286.504C698 286.557 697.2 286.584 696.432 286.584H695.472V277.448H697.12V285.176Z" fill="#31383F"/>
<circle cx="526" cy="284" r="3" fill="#31383F"/>
<path d="M553.704 311.768V326.264H552.04V311.768H553.704ZM547.144 315.352C547.144 316.024 547.229 316.685 547.4 317.336C547.581 317.976 547.832 318.579 548.152 319.144C548.483 319.699 548.877 320.2 549.336 320.648C549.805 321.085 550.323 321.432 550.888 321.688L549.928 323C549.096 322.605 548.371 322.035 547.752 321.288C547.144 320.541 546.675 319.667 546.344 318.664C546.013 319.731 545.533 320.669 544.904 321.48C544.285 322.28 543.539 322.893 542.664 323.32L541.688 321.944C542.264 321.688 542.787 321.331 543.256 320.872C543.725 320.413 544.125 319.891 544.456 319.304C544.787 318.717 545.043 318.088 545.224 317.416C545.405 316.733 545.496 316.045 545.496 315.352V312.984H547.144V315.352ZM568.887 311.784V326.232H567.303V311.784H568.887ZM564.391 312.136H565.927V325.528H564.391V320.664H562.023V319.32H564.391V317.032H562.279C561.948 318.259 561.388 319.389 560.599 320.424C559.82 321.448 558.748 322.365 557.383 323.176L556.439 322.008C557.943 321.101 559.063 320.067 559.799 318.904C560.545 317.731 560.977 316.392 561.095 314.888H557.143V313.56H562.727C562.727 313.933 562.711 314.296 562.679 314.648C562.657 315 562.62 315.347 562.567 315.688H564.391V312.136ZM587.904 320.2H582.144V326.232H580.48V320.2H574.832V318.84H584.224C584.437 317.837 584.56 316.947 584.592 316.168C584.624 315.389 584.64 314.664 584.64 313.992H576.4V312.664H586.256V313.928C586.256 314.611 586.24 315.341 586.208 316.12C586.176 316.899 586.069 317.805 585.888 318.84H587.904V320.2ZM601.886 311.784V326.216H600.318V318.76H598.67V325.544H597.118V312.056H598.67V317.416H600.318V311.784H601.886ZM590.03 313.368H595.598V322.472H590.03V313.368ZM591.566 321.16H594.062V314.68H591.566V321.16ZM604.381 322.968H606.269L605.245 326.296H603.773L604.381 322.968ZM624.613 316.056V317.416H622.565V322.424H620.917V311.784H622.565V316.056H624.613ZM620.085 319.832C619.37 319.949 618.634 320.045 617.877 320.12C617.119 320.184 616.367 320.237 615.621 320.28C614.874 320.323 614.143 320.349 613.429 320.36C612.725 320.371 612.063 320.376 611.445 320.376L611.269 319.016C611.535 319.016 611.807 319.016 612.085 319.016C612.373 319.016 612.666 319.011 612.965 319V314.392H611.653V313.048H619.381V314.392H618.069V318.824C618.751 318.771 619.386 318.707 619.973 318.632L620.085 319.832ZM614.549 318.984C614.858 318.973 615.173 318.963 615.493 318.952C615.823 318.941 616.149 318.925 616.469 318.904V314.392H614.549V318.984ZM615.077 324.616H623.141V325.96H613.413V321.432H615.077V324.616ZM638.34 311.784V326.216H636.772V318.76H635.124V325.544H633.572V312.056H635.124V317.416H636.772V311.784H638.34ZM626.484 313.368H632.052V322.472H626.484V313.368ZM628.02 321.16H630.516V314.68H628.02V321.16ZM640.834 322.968H642.722L641.698 326.296H640.226L640.834 322.968ZM659.594 318.44C658.367 318.248 657.295 317.864 656.378 317.288C655.461 316.712 654.762 316.008 654.282 315.176C653.802 316.019 653.098 316.728 652.17 317.304C651.253 317.869 650.181 318.248 648.954 318.44L648.314 317.112C649.05 317.005 649.727 316.824 650.346 316.568C650.975 316.301 651.514 315.987 651.962 315.624C652.41 315.251 652.762 314.845 653.018 314.408C653.274 313.96 653.402 313.496 653.402 313.016V312.248H655.146V313.016C655.146 313.485 655.274 313.944 655.53 314.392C655.786 314.84 656.138 315.251 656.586 315.624C657.045 315.987 657.583 316.301 658.202 316.568C658.831 316.824 659.509 317.005 660.234 317.112L659.594 318.44ZM660.794 321.144H655.05V326.248H653.402V321.144H647.738V319.8H660.794V321.144ZM674.377 311.752V326.264H672.713V311.752H674.377ZM664.937 321.464C666.078 321.453 667.171 321.416 668.217 321.352C669.273 321.277 670.371 321.149 671.513 320.968L671.689 322.312C671.07 322.419 670.467 322.509 669.881 322.584C669.294 322.648 668.707 322.701 668.121 322.744C667.534 322.776 666.942 322.797 666.345 322.808C665.758 322.819 665.145 322.824 664.505 322.824H663.273V317.096H668.313V314.408H663.241V313.064H669.977V318.424H664.937V321.464ZM692.642 311.768V326.264H690.978V311.768H692.642ZM684.946 312.84C685.49 312.84 685.986 312.963 686.434 313.208C686.892 313.443 687.287 313.784 687.618 314.232C687.948 314.669 688.204 315.203 688.385 315.832C688.578 316.451 688.674 317.149 688.674 317.928C688.674 318.707 688.578 319.416 688.385 320.056C688.204 320.685 687.948 321.219 687.618 321.656C687.287 322.093 686.892 322.435 686.434 322.68C685.986 322.915 685.49 323.032 684.946 323.032C684.412 323.032 683.916 322.915 683.458 322.68C683.01 322.435 682.62 322.093 682.289 321.656C681.959 321.219 681.698 320.685 681.506 320.056C681.324 319.416 681.234 318.707 681.234 317.928C681.234 317.149 681.324 316.451 681.506 315.832C681.698 315.203 681.959 314.669 682.289 314.232C682.62 313.784 683.01 313.443 683.458 313.208C683.916 312.963 684.412 312.84 684.946 312.84ZM684.946 314.328C684.306 314.328 683.788 314.648 683.394 315.288C683.01 315.917 682.818 316.797 682.818 317.928C682.818 319.091 683.01 319.987 683.394 320.616C683.788 321.245 684.306 321.56 684.946 321.56C685.586 321.56 686.103 321.245 686.498 320.616C686.892 319.987 687.09 319.091 687.09 317.928C687.09 316.797 686.892 315.917 686.498 315.288C686.103 314.648 685.586 314.328 684.946 314.328ZM707.44 311.784V320.68H705.792V318.216H703.2V316.888H705.792V315.192H703.2V313.864H705.792V311.784H707.44ZM703.152 319.8C702.726 319.875 702.299 319.939 701.872 319.992C701.456 320.035 701.008 320.067 700.528 320.088C700.059 320.109 699.547 320.125 698.992 320.136C698.438 320.147 697.808 320.152 697.104 320.152H696.048V315.672H700.656V313.944H696.016V312.616H702.288V316.936H697.664V318.808C698.272 318.808 698.816 318.803 699.296 318.792C699.776 318.781 700.224 318.765 700.64 318.744C701.056 318.712 701.451 318.675 701.824 318.632C702.198 318.589 702.582 318.536 702.976 318.472L703.152 319.8ZM697.664 321.4H707.44V326.264H705.792V322.744H697.664V321.4ZM725.753 311.768V326.248H724.105V318.296H721.257V316.936H724.105V311.768H725.753ZM718.953 315.736C718.953 316.344 719.038 316.957 719.209 317.576C719.39 318.195 719.641 318.781 719.961 319.336C720.281 319.891 720.665 320.392 721.113 320.84C721.572 321.277 722.078 321.624 722.633 321.88L721.673 323.176C720.841 322.771 720.126 322.184 719.529 321.416C718.932 320.648 718.473 319.779 718.153 318.808C717.833 319.843 717.369 320.771 716.761 321.592C716.153 322.403 715.428 323.032 714.585 323.48L713.609 322.168C714.164 321.901 714.665 321.539 715.113 321.08C715.572 320.621 715.961 320.104 716.281 319.528C716.601 318.952 716.846 318.339 717.017 317.688C717.198 317.037 717.289 316.387 717.289 315.736V314.568H714.169V313.224H722.089V314.568H718.953V315.736ZM741.816 315.304V316.664H739.768V320.424H738.12V311.784H739.768V315.304H741.816ZM736.168 319.864C735.357 319.608 734.664 319.229 734.088 318.728C733.523 318.227 733.085 317.64 732.776 316.968C732.456 317.736 731.992 318.413 731.384 319C730.787 319.587 730.056 320.029 729.192 320.328L728.36 319.032C728.925 318.84 729.427 318.584 729.864 318.264C730.312 317.944 730.685 317.581 730.984 317.176C731.283 316.771 731.507 316.333 731.656 315.864C731.816 315.395 731.896 314.915 731.896 314.424V314.136H728.824V312.808H736.584V314.136H733.56V314.408C733.56 314.856 733.635 315.293 733.784 315.72C733.933 316.147 734.152 316.541 734.44 316.904C734.728 317.267 735.08 317.592 735.496 317.88C735.923 318.168 736.413 318.403 736.968 318.584L736.168 319.864ZM735.112 320.76C735.859 320.76 736.525 320.824 737.112 320.952C737.709 321.069 738.216 321.245 738.632 321.48C739.048 321.715 739.368 322.003 739.592 322.344C739.816 322.675 739.928 323.059 739.928 323.496C739.928 323.923 739.816 324.307 739.592 324.648C739.368 324.989 739.048 325.277 738.632 325.512C738.216 325.747 737.709 325.923 737.112 326.04C736.525 326.168 735.859 326.232 735.112 326.232C734.365 326.232 733.693 326.168 733.096 326.04C732.509 325.923 732.008 325.747 731.592 325.512C731.176 325.277 730.856 324.989 730.632 324.648C730.408 324.307 730.296 323.923 730.296 323.496C730.296 323.059 730.408 322.675 730.632 322.344C730.856 322.003 731.176 321.715 731.592 321.48C732.008 321.245 732.509 321.069 733.096 320.952C733.693 320.824 734.365 320.76 735.112 320.76ZM735.112 324.936C736.147 324.936 736.936 324.819 737.48 324.584C738.024 324.339 738.296 323.976 738.296 323.496C738.296 323.016 738.024 322.659 737.48 322.424C736.936 322.179 736.147 322.056 735.112 322.056C734.077 322.056 733.288 322.179 732.744 322.424C732.2 322.659 731.928 323.016 731.928 323.496C731.928 323.976 732.2 324.339 732.744 324.584C733.288 324.819 734.077 324.936 735.112 324.936Z" fill="#31383F"/>
<circle cx="526" cy="320" r="3" fill="#31383F"/>
<circle opacity="0.8" cx="150" cy="160" r="79.5" fill="#E9EEF5" stroke="#E5EBF0"/>
<path d="M139.8 154.5V156.68H137.36V162.86H134.72V149.3H137.36V154.5H139.8ZM133.88 159.7C132.973 159.86 132.04 159.987 131.08 160.08C130.133 160.173 129.187 160.247 128.24 160.3C127.307 160.353 126.393 160.387 125.5 160.4C124.62 160.413 123.8 160.42 123.04 160.42L122.76 158.28L124.68 158.26V152.92H123.24V150.82H133.06V152.92H131.6V158C131.96 157.973 132.313 157.94 132.66 157.9C133.007 157.86 133.353 157.82 133.7 157.78L133.88 159.7ZM127.22 158.22C127.527 158.207 127.833 158.2 128.14 158.2C128.46 158.187 128.773 158.167 129.08 158.14V152.92H127.22V158.22ZM128.12 165.3H138.02V167.4H125.48V161.6H128.12V165.3ZM157.058 149.28V167.7H154.558V158.44H153.018V166.88H150.558V149.58H153.018V156.32H154.558V149.28H157.058ZM141.778 151.18H149.038V163.12H141.778V151.18ZM144.238 161.06H146.598V153.26H144.238V161.06ZM176.757 158.5H174.077V167.72H171.437V149.3H174.077V156.32H176.757V158.5ZM166.417 154.26C166.417 154.953 166.51 155.673 166.697 156.42C166.884 157.153 167.157 157.853 167.517 158.52C167.89 159.187 168.357 159.8 168.917 160.36C169.477 160.92 170.137 161.373 170.897 161.72L169.437 163.8C168.397 163.333 167.524 162.667 166.817 161.8C166.11 160.92 165.55 159.933 165.137 158.84C164.724 160.053 164.15 161.133 163.417 162.08C162.684 163.027 161.79 163.753 160.737 164.26L159.257 162.16C160.017 161.813 160.677 161.353 161.237 160.78C161.797 160.193 162.264 159.547 162.637 158.84C163.024 158.12 163.31 157.367 163.497 156.58C163.684 155.793 163.777 155.02 163.777 154.26V153.24H159.957V151.06H170.077V153.24H166.417V154.26Z" fill="#31383F"/>
<circle opacity="0.8" cx="150" cy="308" r="79.5" fill="#F1EAE2" stroke="#EEE7E0"/>
<path d="M139.52 308.32H132.44V315.72H129.76V308.32H122.88V306.2H134.48C134.707 305.027 134.847 303.98 134.9 303.06C134.953 302.14 134.98 301.28 134.98 300.48H124.78V298.36H137.56V300.02C137.56 300.887 137.54 301.813 137.5 302.8C137.46 303.773 137.327 304.907 137.1 306.2H139.52V308.32ZM157.058 297.28V315.7H154.558V306.44H153.018V314.88H150.558V297.58H153.018V304.32H154.558V297.28H157.058ZM141.778 299.18H149.038V311.12H141.778V299.18ZM144.238 309.06H146.598V301.26H144.238V309.06ZM176.757 306.5H174.077V315.72H171.437V297.3H174.077V304.32H176.757V306.5ZM166.417 302.26C166.417 302.953 166.51 303.673 166.697 304.42C166.884 305.153 167.157 305.853 167.517 306.52C167.89 307.187 168.357 307.8 168.917 308.36C169.477 308.92 170.137 309.373 170.897 309.72L169.437 311.8C168.397 311.333 167.524 310.667 166.817 309.8C166.11 308.92 165.55 307.933 165.137 306.84C164.724 308.053 164.15 309.133 163.417 310.08C162.684 311.027 161.79 311.753 160.737 312.26L159.257 310.16C160.017 309.813 160.677 309.353 161.237 308.78C161.797 308.193 162.264 307.547 162.637 306.84C163.024 306.12 163.31 305.367 163.497 304.58C163.684 303.793 163.777 303.02 163.777 302.26V301.24H159.957V299.06H170.077V301.24H166.417V302.26Z" fill="#31383F"/>
</svg>
