<svg width="810" height="400" viewBox="0 0 810 400" fill="none" xmlns="http://www.w3.org/2000/svg">
<path d="M0 0H810V400H0V0Z" fill="#FAFBFC"/>
<circle opacity="0.8" cx="211" cy="198" r="89.5" fill="#E9EEF5" stroke="#E5EBF0"/>
<path d="M200.8 192.5V194.68H198.36V200.86H195.72V187.3H198.36V192.5H200.8ZM194.88 197.7C193.973 197.86 193.04 197.987 192.08 198.08C191.133 198.173 190.187 198.247 189.24 198.3C188.307 198.353 187.393 198.387 186.5 198.4C185.62 198.413 184.8 198.42 184.04 198.42L183.76 196.28L185.68 196.26V190.92H184.24V188.82H194.06V190.92H192.6V196C192.96 195.973 193.313 195.94 193.66 195.9C194.007 195.86 194.353 195.82 194.7 195.78L194.88 197.7ZM188.22 196.22C188.527 196.207 188.833 196.2 189.14 196.2C189.46 196.187 189.773 196.167 190.08 196.14V190.92H188.22V196.22ZM189.12 203.3H199.02V205.4H186.48V199.6H189.12V203.3ZM218.058 187.28V205.7H215.558V196.44H214.018V204.88H211.558V187.58H214.018V194.32H215.558V187.28H218.058ZM202.778 189.18H210.038V201.12H202.778V189.18ZM205.238 199.06H207.598V191.26H205.238V199.06ZM237.757 196.5H235.077V205.72H232.437V187.3H235.077V194.32H237.757V196.5ZM227.417 192.26C227.417 192.953 227.51 193.673 227.697 194.42C227.884 195.153 228.157 195.853 228.517 196.52C228.89 197.187 229.357 197.8 229.917 198.36C230.477 198.92 231.137 199.373 231.897 199.72L230.437 201.8C229.397 201.333 228.524 200.667 227.817 199.8C227.11 198.92 226.55 197.933 226.137 196.84C225.724 198.053 225.15 199.133 224.417 200.08C223.684 201.027 222.79 201.753 221.737 202.26L220.257 200.16C221.017 199.813 221.677 199.353 222.237 198.78C222.797 198.193 223.264 197.547 223.637 196.84C224.024 196.12 224.31 195.367 224.497 194.58C224.684 193.793 224.777 193.02 224.777 192.26V191.24H220.957V189.06H231.077V191.24H227.417V192.26Z" fill="#31383F"/>
<circle opacity="0.8" cx="589" cy="198" r="79.5" fill="#F1EAE2" stroke="#EEE7E0"/>
<path d="M578.52 198.32H571.44V205.72H568.76V198.32H561.88V196.2H573.48C573.707 195.027 573.847 193.98 573.9 193.06C573.953 192.14 573.98 191.28 573.98 190.48H563.78V188.36H576.56V190.02C576.56 190.887 576.54 191.813 576.5 192.8C576.46 193.773 576.327 194.907 576.1 196.2H578.52V198.32ZM596.058 187.28V205.7H593.558V196.44H592.018V204.88H589.558V187.58H592.018V194.32H593.558V187.28H596.058ZM580.778 189.18H588.038V201.12H580.778V189.18ZM583.238 199.06H585.598V191.26H583.238V199.06ZM615.757 196.5H613.077V205.72H610.437V187.3H613.077V194.32H615.757V196.5ZM605.417 192.26C605.417 192.953 605.51 193.673 605.697 194.42C605.884 195.153 606.157 195.853 606.517 196.52C606.89 197.187 607.357 197.8 607.917 198.36C608.477 198.92 609.137 199.373 609.897 199.72L608.437 201.8C607.397 201.333 606.524 200.667 605.817 199.8C605.11 198.92 604.55 197.933 604.137 196.84C603.724 198.053 603.15 199.133 602.417 200.08C601.684 201.027 600.79 201.753 599.737 202.26L598.257 200.16C599.017 199.813 599.677 199.353 600.237 198.78C600.797 198.193 601.264 197.547 601.637 196.84C602.024 196.12 602.31 195.367 602.497 194.58C602.684 193.793 602.777 193.02 602.777 192.26V191.24H598.957V189.06H609.077V191.24H605.417V192.26Z" fill="#31383F"/>
<path d="M340.762 208.296V221.232H338.914V208.296H340.762ZM330.346 214.288C330.822 214.167 331.238 214.003 331.592 213.798C331.947 213.593 332.246 213.359 332.488 213.098C332.74 212.827 332.932 212.538 333.062 212.23C333.193 211.922 333.272 211.609 333.3 211.292H330.724V209.822H333.314V208.422H335.176V209.822H337.794V211.292H335.19C335.218 211.6 335.298 211.903 335.428 212.202C335.568 212.491 335.76 212.762 336.002 213.014C336.245 213.266 336.544 213.495 336.898 213.7C337.253 213.896 337.668 214.055 338.144 214.176L337.332 215.576C336.576 215.389 335.946 215.1 335.442 214.708C334.948 214.307 334.556 213.84 334.266 213.308C333.977 213.868 333.576 214.358 333.062 214.778C332.558 215.189 331.928 215.497 331.172 215.702L330.346 214.288ZM335.176 217.2C335.708 217.163 336.222 217.121 336.716 217.074C337.211 217.027 337.71 216.967 338.214 216.892L338.326 218.236C337.636 218.376 336.931 218.488 336.212 218.572C335.503 218.647 334.798 218.703 334.098 218.74C333.408 218.777 332.74 218.801 332.096 218.81C331.452 218.819 330.855 218.824 330.304 218.824L330.066 217.326C330.542 217.326 331.056 217.326 331.606 217.326C332.157 217.317 332.726 217.303 333.314 217.284V215.324H335.176V217.2ZM353.669 208.324V215.982H351.821V212.874H349.917V211.39H351.821V208.324H353.669ZM349.763 215.632C349.054 215.399 348.456 215.067 347.971 214.638C347.486 214.199 347.108 213.686 346.837 213.098C346.548 213.742 346.151 214.307 345.647 214.792C345.143 215.277 344.513 215.641 343.757 215.884L342.819 214.428C343.342 214.251 343.79 214.022 344.163 213.742C344.546 213.462 344.858 213.149 345.101 212.804C345.353 212.449 345.54 212.076 345.661 211.684C345.782 211.292 345.848 210.895 345.857 210.494H343.323V209.024H350.253V210.494H347.747C347.756 210.858 347.817 211.227 347.929 211.6C348.05 211.964 348.228 212.314 348.461 212.65C348.704 212.977 349.007 213.275 349.371 213.546C349.735 213.807 350.164 214.022 350.659 214.19L349.763 215.632ZM344.877 216.556H353.669V221.218H351.821V218.026H344.877V216.556ZM366.52 208.296V221.232H364.672V208.296H366.52ZM359.912 209.164C360.416 209.164 360.883 209.243 361.312 209.402C361.751 209.561 362.129 209.78 362.446 210.06C362.763 210.34 363.011 210.676 363.188 211.068C363.375 211.451 363.468 211.875 363.468 212.342C363.468 212.799 363.375 213.224 363.188 213.616C363.011 214.008 362.763 214.344 362.446 214.624C362.129 214.904 361.751 215.123 361.312 215.282C360.883 215.441 360.416 215.52 359.912 215.52C359.408 215.52 358.937 215.441 358.498 215.282C358.069 215.123 357.695 214.904 357.378 214.624C357.07 214.344 356.823 214.008 356.636 213.616C356.459 213.224 356.37 212.799 356.37 212.342C356.37 211.875 356.459 211.451 356.636 211.068C356.823 210.676 357.07 210.34 357.378 210.06C357.695 209.78 358.069 209.561 358.498 209.402C358.937 209.243 359.408 209.164 359.912 209.164ZM359.912 210.746C359.408 210.746 358.988 210.886 358.652 211.166C358.325 211.446 358.162 211.838 358.162 212.342C358.162 212.846 358.325 213.238 358.652 213.518C358.988 213.798 359.408 213.938 359.912 213.938C360.416 213.938 360.831 213.798 361.158 213.518C361.494 213.238 361.662 212.846 361.662 212.342C361.662 211.838 361.494 211.446 361.158 211.166C360.831 210.886 360.416 210.746 359.912 210.746ZM355.824 217.116C356.393 217.116 357.009 217.116 357.672 217.116C358.335 217.107 359.021 217.088 359.73 217.06C360.439 217.032 361.153 216.99 361.872 216.934C362.591 216.878 363.291 216.799 363.972 216.696L364.084 218.026C363.393 218.166 362.689 218.278 361.97 218.362C361.261 218.437 360.561 218.493 359.87 218.53C359.179 218.567 358.512 218.591 357.868 218.6C357.224 218.609 356.622 218.614 356.062 218.614L355.824 217.116ZM383.481 216.024H378.525V221.204H376.649V216.024H371.833V214.54H379.953C380.111 213.719 380.209 212.986 380.247 212.342C380.284 211.698 380.303 211.096 380.303 210.536H373.163V209.052H382.109V210.214C382.109 210.821 382.095 211.469 382.067 212.16C382.039 212.841 381.945 213.635 381.787 214.54H383.481V216.024ZM395.758 208.296V221.19H394.008V214.708H392.93V220.616H391.208V208.506H392.93V213.224H394.008V208.296H395.758ZM385.062 209.626H390.144V217.984H385.062V209.626ZM386.784 216.542H388.436V211.082H386.784V216.542ZM409.547 214.75H407.671V221.204H405.823V208.31H407.671V213.224H409.547V214.75ZM402.309 211.782C402.309 212.267 402.374 212.771 402.505 213.294C402.635 213.807 402.827 214.297 403.079 214.764C403.34 215.231 403.667 215.66 404.059 216.052C404.451 216.444 404.913 216.761 405.445 217.004L404.423 218.46C403.695 218.133 403.083 217.667 402.589 217.06C402.094 216.444 401.702 215.753 401.413 214.988C401.123 215.837 400.722 216.593 400.209 217.256C399.695 217.919 399.07 218.427 398.333 218.782L397.297 217.312C397.829 217.069 398.291 216.747 398.683 216.346C399.075 215.935 399.401 215.483 399.663 214.988C399.933 214.484 400.134 213.957 400.265 213.406C400.395 212.855 400.461 212.314 400.461 211.782V211.068H397.787V209.542H404.871V211.068H402.309V211.782ZM424.687 208.296V221.19H422.937V214.708H421.859V220.616H420.137V208.506H421.859V213.224H422.937V208.296H424.687ZM413.991 209.626H419.073V217.984H413.991V209.626ZM415.713 216.542H417.365V211.082H415.713V216.542ZM437.216 216.08H435.354V208.31H437.216V216.08ZM433.716 215.688C432.979 215.492 432.354 215.198 431.84 214.806C431.327 214.414 430.921 213.952 430.622 213.42C430.333 214.017 429.927 214.54 429.404 214.988C428.891 215.427 428.252 215.753 427.486 215.968L426.618 214.526C427.122 214.386 427.561 214.199 427.934 213.966C428.308 213.723 428.62 213.453 428.872 213.154C429.124 212.846 429.311 212.519 429.432 212.174C429.563 211.819 429.638 211.465 429.656 211.11H427.052V209.654H429.656V208.324H431.504V209.654H434.094V211.11H431.504C431.523 211.437 431.598 211.759 431.728 212.076C431.859 212.393 432.05 212.692 432.302 212.972C432.554 213.252 432.867 213.504 433.24 213.728C433.614 213.943 434.052 214.115 434.556 214.246L433.716 215.688ZM432.862 216.304C433.544 216.304 434.155 216.36 434.696 216.472C435.238 216.584 435.695 216.747 436.068 216.962C436.451 217.167 436.745 217.424 436.95 217.732C437.156 218.031 437.258 218.371 437.258 218.754C437.258 219.146 437.156 219.496 436.95 219.804C436.745 220.112 436.451 220.369 436.068 220.574C435.695 220.789 435.238 220.947 434.696 221.05C434.155 221.162 433.544 221.218 432.862 221.218C432.181 221.218 431.565 221.162 431.014 221.05C430.473 220.947 430.011 220.789 429.628 220.574C429.255 220.369 428.966 220.112 428.76 219.804C428.555 219.496 428.452 219.146 428.452 218.754C428.452 218.371 428.555 218.031 428.76 217.732C428.966 217.424 429.255 217.167 429.628 216.962C430.011 216.747 430.473 216.584 431.014 216.472C431.565 216.36 432.181 216.304 432.862 216.304ZM432.862 219.79C434.57 219.79 435.424 219.445 435.424 218.754C435.424 218.063 434.57 217.718 432.862 217.718C431.145 217.718 430.286 218.063 430.286 218.754C430.286 219.445 431.145 219.79 432.862 219.79ZM453.239 208.296V221.232H451.391V208.296H453.239ZM447.555 211.18C447.555 211.777 447.62 212.365 447.751 212.944C447.882 213.523 448.078 214.064 448.339 214.568C448.6 215.072 448.932 215.525 449.333 215.926C449.744 216.318 450.22 216.631 450.761 216.864L449.711 218.362C448.955 218.026 448.33 217.555 447.835 216.948C447.34 216.332 446.948 215.627 446.659 214.834C446.37 215.711 445.968 216.481 445.455 217.144C444.942 217.797 444.288 218.306 443.495 218.67L442.389 217.144C442.949 216.901 443.439 216.575 443.859 216.164C444.279 215.744 444.624 215.273 444.895 214.75C445.166 214.218 445.366 213.649 445.497 213.042C445.637 212.426 445.707 211.805 445.707 211.18V209.304H447.555V211.18ZM465.922 215.926C464.793 215.702 463.827 215.296 463.024 214.708C462.231 214.12 461.624 213.415 461.204 212.594C460.784 213.415 460.177 214.125 459.384 214.722C458.591 215.31 457.629 215.711 456.5 215.926L455.716 214.386C456.444 214.265 457.088 214.055 457.648 213.756C458.208 213.448 458.679 213.093 459.062 212.692C459.445 212.291 459.734 211.857 459.93 211.39C460.126 210.914 460.224 210.447 460.224 209.99V209.066H462.198V209.99C462.198 210.457 462.296 210.928 462.492 211.404C462.688 211.871 462.977 212.305 463.36 212.706C463.743 213.107 464.214 213.457 464.774 213.756C465.334 214.055 465.978 214.265 466.706 214.386L465.922 215.926ZM467.112 218.138V219.636H455.436V218.138H467.112ZM479.305 208.324V216.01H477.555V208.324H479.305ZM475.021 212.888H473.761V211.404H475.021V208.506H476.743V215.912H475.021V212.888ZM474.279 215.226C473.915 215.291 473.56 215.343 473.215 215.38C472.87 215.417 472.515 215.45 472.151 215.478C471.796 215.497 471.418 215.511 471.017 215.52C470.616 215.52 470.177 215.52 469.701 215.52H468.819V209.08H473.663V210.536H470.597V211.558H473.215V212.958H470.597V214.064C471.269 214.064 471.88 214.045 472.431 214.008C472.991 213.961 473.556 213.882 474.125 213.77L474.279 215.226ZM470.569 216.514H479.305V221.05H470.569V216.514ZM472.389 219.608H477.499V217.956H472.389V219.608Z" fill="#31383F"/>
<path d="M329.408 222.1H480.593V222.8H329.408V222.1Z" fill="#31383F"/>
<path opacity="0.5" d="M304.646 191.646C304.451 191.842 304.451 192.158 304.646 192.354L307.828 195.536C308.024 195.731 308.34 195.731 308.536 195.536C308.731 195.34 308.731 195.024 308.536 194.828L305.707 192L308.536 189.172C308.731 188.976 308.731 188.66 308.536 188.464C308.34 188.269 308.024 188.269 307.828 188.464L304.646 191.646ZM505.354 192.354C505.549 192.158 505.549 191.842 505.354 191.646L502.172 188.464C501.976 188.269 501.66 188.269 501.464 188.464C501.269 188.66 501.269 188.976 501.464 189.172L504.293 192L501.464 194.828C501.269 195.024 501.269 195.34 501.464 195.536C501.66 195.731 501.976 195.731 502.172 195.536L505.354 192.354ZM305 192.5H505V191.5H305V192.5Z" fill="#31383F"/>
<path d="M368.702 158.268C368.039 157.185 367.526 156.061 367.162 154.894C366.798 153.718 366.616 152.425 366.616 151.016C366.616 149.616 366.798 148.333 367.162 147.166C367.526 145.99 368.039 144.861 368.702 143.778L369.99 144.324C369.402 145.369 368.968 146.447 368.688 147.558C368.417 148.659 368.282 149.812 368.282 151.016C368.282 152.239 368.417 153.401 368.688 154.502C368.968 155.603 369.402 156.677 369.99 157.722L368.702 158.268ZM371.879 149.252C372.541 149.168 373.12 149.033 373.615 148.846C374.119 148.659 374.543 148.44 374.889 148.188C375.243 147.936 375.514 147.661 375.701 147.362C375.897 147.054 376.018 146.746 376.065 146.438H372.355V144.968H381.917V146.438H378.263C378.309 146.746 378.426 147.054 378.613 147.362C378.809 147.661 379.079 147.936 379.425 148.188C379.77 148.44 380.19 148.659 380.685 148.846C381.189 149.033 381.767 149.168 382.421 149.252L381.763 150.694C380.633 150.535 379.681 150.232 378.907 149.784C378.132 149.336 377.549 148.776 377.157 148.104C376.765 148.776 376.181 149.336 375.407 149.784C374.632 150.232 373.68 150.535 372.551 150.694L371.879 149.252ZM382.981 152.906H378.039V157.232H376.191V152.906H371.333V151.436H382.981V152.906ZM384.324 157.722C384.912 156.677 385.341 155.603 385.612 154.502C385.892 153.401 386.032 152.239 386.032 151.016C386.032 149.812 385.892 148.659 385.612 147.558C385.341 146.447 384.912 145.369 384.324 144.324L385.598 143.778C386.27 144.861 386.788 145.99 387.152 147.166C387.516 148.333 387.698 149.616 387.698 151.016C387.698 152.425 387.511 153.718 387.138 154.894C386.774 156.061 386.26 157.185 385.598 158.268L384.324 157.722ZM401.459 150.876H399.611V157.204H397.763V144.31H399.611V149.35H401.459V150.876ZM394.123 146.214H396.923V147.684H389.419V146.214H392.275V144.534H394.123V146.214ZM393.213 148.412C393.679 148.412 394.109 148.487 394.501 148.636C394.902 148.785 395.247 149 395.537 149.28C395.826 149.551 396.05 149.873 396.209 150.246C396.377 150.619 396.461 151.03 396.461 151.478C396.461 151.935 396.377 152.355 396.209 152.738C396.05 153.111 395.826 153.438 395.537 153.718C395.247 153.989 394.902 154.199 394.501 154.348C394.109 154.497 393.679 154.572 393.213 154.572C392.746 154.572 392.312 154.497 391.911 154.348C391.509 154.199 391.159 153.989 390.861 153.718C390.571 153.438 390.343 153.111 390.175 152.738C390.016 152.355 389.937 151.935 389.937 151.478C389.937 151.03 390.016 150.619 390.175 150.246C390.343 149.873 390.571 149.551 390.861 149.28C391.159 149 391.509 148.785 391.911 148.636C392.312 148.487 392.746 148.412 393.213 148.412ZM393.213 153.06C393.661 153.06 394.02 152.925 394.291 152.654C394.571 152.374 394.711 151.982 394.711 151.478C394.711 150.993 394.571 150.61 394.291 150.33C394.02 150.05 393.661 149.91 393.213 149.91C392.765 149.91 392.401 150.05 392.121 150.33C391.841 150.601 391.701 150.988 391.701 151.492C391.701 151.996 391.841 152.383 392.121 152.654C392.401 152.925 392.765 153.06 393.213 153.06ZM413.05 144.296V157.232H411.202V144.296H413.05ZM406.12 145.206C406.605 145.206 407.053 145.313 407.464 145.528C407.884 145.743 408.243 146.051 408.542 146.452C408.84 146.844 409.074 147.325 409.242 147.894C409.419 148.454 409.508 149.089 409.508 149.798C409.508 150.507 409.419 151.147 409.242 151.716C409.074 152.285 408.84 152.771 408.542 153.172C408.243 153.573 407.884 153.881 407.464 154.096C407.053 154.311 406.605 154.418 406.12 154.418C405.634 154.418 405.182 154.311 404.762 154.096C404.351 153.881 403.996 153.573 403.698 153.172C403.399 152.771 403.161 152.285 402.984 151.716C402.816 151.147 402.732 150.507 402.732 149.798C402.732 149.089 402.816 148.454 402.984 147.894C403.161 147.325 403.399 146.844 403.698 146.452C403.996 146.051 404.351 145.743 404.762 145.528C405.182 145.313 405.634 145.206 406.12 145.206ZM406.12 146.872C405.644 146.872 405.256 147.119 404.958 147.614C404.659 148.109 404.51 148.837 404.51 149.798C404.51 150.759 404.659 151.492 404.958 151.996C405.256 152.491 405.644 152.738 406.12 152.738C406.596 152.738 406.983 152.491 407.282 151.996C407.58 151.492 407.73 150.759 407.73 149.798C407.73 148.837 407.58 148.109 407.282 147.614C406.983 147.119 406.596 146.872 406.12 146.872ZM425.929 144.296V157.232H424.081V144.296H425.929ZM420.245 147.18C420.245 147.777 420.31 148.365 420.441 148.944C420.571 149.523 420.767 150.064 421.029 150.568C421.29 151.072 421.621 151.525 422.023 151.926C422.433 152.318 422.909 152.631 423.451 152.864L422.401 154.362C421.645 154.026 421.019 153.555 420.525 152.948C420.03 152.332 419.638 151.627 419.349 150.834C419.059 151.711 418.658 152.481 418.145 153.144C417.631 153.797 416.978 154.306 416.185 154.67L415.079 153.144C415.639 152.901 416.129 152.575 416.549 152.164C416.969 151.744 417.314 151.273 417.585 150.75C417.855 150.218 418.056 149.649 418.187 149.042C418.327 148.426 418.397 147.805 418.397 147.18V145.304H420.245V147.18ZM439.983 147.908V149.42H438.261V153.536H436.413V144.31H438.261V147.908H439.983ZM434.789 145.276C434.789 147.04 434.276 148.515 433.249 149.7C432.223 150.876 430.739 151.744 428.797 152.304L428.027 150.834C429.502 150.442 430.627 149.891 431.401 149.182C432.176 148.463 432.638 147.651 432.787 146.746H428.587V145.276H434.789ZM431.793 155.51H438.709V156.98H429.945V152.612H431.793V155.51ZM337.481 174.208V175.706H325.805V174.208H330.705V171.842H327.037V165.108H328.871V167.11H334.387V165.108H336.207V171.842H332.553V174.208H337.481ZM328.871 170.372H334.387V168.566H328.871V170.372ZM339.188 168.328C340.411 168.216 341.344 167.978 341.988 167.614C342.632 167.241 343.029 166.83 343.178 166.382H339.748V164.912H349.282V166.382H345.838C345.987 166.83 346.384 167.241 347.028 167.614C347.672 167.978 348.61 168.216 349.842 168.328L349.198 169.77C347.919 169.658 346.902 169.392 346.146 168.972C345.39 168.552 344.844 168.034 344.508 167.418C344.163 168.034 343.612 168.552 342.856 168.972C342.1 169.392 341.083 169.658 339.804 169.77L339.188 168.328ZM350.332 170.26V171.716H338.684V170.26H350.332ZM344.48 172.416C345.18 172.416 345.805 172.472 346.356 172.584C346.907 172.687 347.373 172.841 347.756 173.046C348.148 173.251 348.447 173.503 348.652 173.802C348.857 174.091 348.96 174.427 348.96 174.81C348.96 175.193 348.857 175.533 348.652 175.832C348.447 176.131 348.148 176.383 347.756 176.588C347.373 176.793 346.907 176.947 346.356 177.05C345.805 177.162 345.18 177.218 344.48 177.218C343.089 177.218 341.997 177.008 341.204 176.588C340.411 176.168 340.014 175.575 340.014 174.81C340.014 174.054 340.411 173.466 341.204 173.046C341.997 172.626 343.089 172.416 344.48 172.416ZM344.48 175.79C346.216 175.79 347.084 175.463 347.084 174.81C347.084 174.474 346.869 174.231 346.44 174.082C346.011 173.923 345.357 173.844 344.48 173.844C343.603 173.844 342.949 173.923 342.52 174.082C342.091 174.231 341.876 174.474 341.876 174.81C341.876 175.463 342.744 175.79 344.48 175.79ZM362.343 164.31V177.204H360.495V170.75H358.003V169.252H360.495V164.31H362.343ZM358.087 165.64C358.087 166.611 357.998 167.539 357.821 168.426C357.644 169.313 357.336 170.148 356.897 170.932C356.468 171.716 355.884 172.449 355.147 173.13C354.419 173.802 353.5 174.418 352.389 174.978L351.409 173.55C352.212 173.149 352.902 172.719 353.481 172.262C354.06 171.805 354.54 171.31 354.923 170.778C355.306 170.246 355.6 169.677 355.805 169.07C356.01 168.463 356.146 167.81 356.211 167.11H352.025V165.64H358.087ZM375.502 164.296V177.19H373.752V170.652H372.59V176.588H370.868V164.534H372.59V169.168H373.752V164.296H375.502ZM366.584 172.836C367.172 172.817 367.755 172.789 368.334 172.752C368.913 172.715 369.524 172.645 370.168 172.542L370.308 174.04C369.468 174.171 368.684 174.255 367.956 174.292C367.237 174.329 366.486 174.348 365.702 174.348H364.792V169.098H367.872V167.04H364.778V165.556H369.65V170.554H366.584V172.836ZM391.175 164.296V177.232H389.327V164.296H391.175ZM385.491 167.18C385.491 167.777 385.556 168.365 385.687 168.944C385.817 169.523 386.013 170.064 386.275 170.568C386.536 171.072 386.867 171.525 387.269 171.926C387.679 172.318 388.155 172.631 388.697 172.864L387.647 174.362C386.891 174.026 386.265 173.555 385.771 172.948C385.276 172.332 384.884 171.627 384.595 170.834C384.305 171.711 383.904 172.481 383.391 173.144C382.877 173.797 382.224 174.306 381.431 174.67L380.325 173.144C380.885 172.901 381.375 172.575 381.795 172.164C382.215 171.744 382.56 171.273 382.831 170.75C383.101 170.218 383.302 169.649 383.433 169.042C383.573 168.426 383.643 167.805 383.643 167.18V165.304H385.491V167.18ZM403.858 171.926C402.728 171.702 401.762 171.296 400.96 170.708C400.166 170.12 399.56 169.415 399.14 168.594C398.72 169.415 398.113 170.125 397.32 170.722C396.526 171.31 395.565 171.711 394.436 171.926L393.652 170.386C394.38 170.265 395.024 170.055 395.584 169.756C396.144 169.448 396.615 169.093 396.998 168.692C397.38 168.291 397.67 167.857 397.866 167.39C398.062 166.914 398.16 166.447 398.16 165.99V165.066H400.134V165.99C400.134 166.457 400.232 166.928 400.428 167.404C400.624 167.871 400.913 168.305 401.296 168.706C401.678 169.107 402.15 169.457 402.71 169.756C403.27 170.055 403.914 170.265 404.642 170.386L403.858 171.926ZM405.048 174.138V175.636H393.372V174.138H405.048ZM417.24 164.324V172.01H415.49V164.324H417.24ZM412.956 168.888H411.696V167.404H412.956V164.506H414.678V171.912H412.956V168.888ZM412.214 171.226C411.85 171.291 411.496 171.343 411.15 171.38C410.805 171.417 410.45 171.45 410.086 171.478C409.732 171.497 409.354 171.511 408.952 171.52C408.551 171.52 408.112 171.52 407.636 171.52H406.754V165.08H411.598V166.536H408.532V167.558H411.15V168.958H408.532V170.064C409.204 170.064 409.816 170.045 410.366 170.008C410.926 169.961 411.491 169.882 412.06 169.77L412.214 171.226ZM408.504 172.514H417.24V177.05H408.504V172.514ZM410.324 175.608H415.434V173.956H410.324V175.608ZM424.975 178.268C424.313 177.185 423.799 176.061 423.435 174.894C423.071 173.718 422.889 172.425 422.889 171.016C422.889 169.616 423.071 168.333 423.435 167.166C423.799 165.99 424.313 164.861 424.975 163.778L426.263 164.324C425.675 165.369 425.241 166.447 424.961 167.558C424.691 168.659 424.555 169.812 424.555 171.016C424.555 172.239 424.691 173.401 424.961 174.502C425.241 175.603 425.675 176.677 426.263 177.722L424.975 178.268ZM439.45 168.006V169.518H437.742V173.69H435.894V164.31H437.742V168.006H439.45ZM434.676 168.412C434.676 168.888 434.588 169.327 434.41 169.728C434.233 170.12 433.986 170.465 433.668 170.764C433.351 171.053 432.982 171.282 432.562 171.45C432.142 171.609 431.685 171.688 431.19 171.688C430.696 171.688 430.234 171.609 429.804 171.45C429.384 171.282 429.016 171.053 428.698 170.764C428.381 170.465 428.134 170.12 427.956 169.728C427.779 169.327 427.69 168.888 427.69 168.412C427.69 167.936 427.779 167.497 427.956 167.096C428.134 166.695 428.381 166.349 428.698 166.06C429.016 165.771 429.384 165.547 429.804 165.388C430.234 165.22 430.696 165.136 431.19 165.136C431.685 165.136 432.142 165.22 432.562 165.388C432.982 165.547 433.351 165.771 433.668 166.06C433.986 166.349 434.233 166.695 434.41 167.096C434.588 167.497 434.676 167.936 434.676 168.412ZM429.496 168.412C429.496 168.944 429.655 169.359 429.972 169.658C430.299 169.947 430.705 170.092 431.19 170.092C431.666 170.092 432.068 169.947 432.394 169.658C432.721 169.359 432.884 168.944 432.884 168.412C432.884 167.88 432.721 167.469 432.394 167.18C432.068 166.881 431.666 166.732 431.19 166.732C430.705 166.732 430.299 166.881 429.972 167.18C429.655 167.469 429.496 167.88 429.496 168.412ZM431.274 175.51H438.204V176.98H429.426V172.724H431.274V175.51ZM449.403 167.642V164.31H451.251V173.718H449.403V169.14H447.387V167.642H449.403ZM447.345 172.052C446.636 171.819 446.038 171.483 445.553 171.044C445.068 170.605 444.69 170.092 444.419 169.504C444.13 170.148 443.728 170.713 443.215 171.198C442.711 171.683 442.081 172.052 441.325 172.304L440.401 170.834C440.933 170.666 441.39 170.437 441.773 170.148C442.156 169.859 442.468 169.537 442.711 169.182C442.963 168.827 443.145 168.449 443.257 168.048C443.378 167.637 443.439 167.231 443.439 166.83V166.648H440.905V165.178H447.835V166.648H445.329V166.816C445.329 167.199 445.385 167.581 445.497 167.964C445.609 168.337 445.782 168.692 446.015 169.028C446.258 169.364 446.561 169.672 446.925 169.952C447.298 170.223 447.737 170.442 448.241 170.61L447.345 172.052ZM451.545 175.51V176.98H442.753V172.934H444.601V175.51H451.545ZM464.13 164.31V177.204H462.282V170.75H459.79V169.252H462.282V164.31H464.13ZM459.874 165.64C459.874 166.611 459.785 167.539 459.608 168.426C459.431 169.313 459.123 170.148 458.684 170.932C458.255 171.716 457.671 172.449 456.934 173.13C456.206 173.802 455.287 174.418 454.176 174.978L453.196 173.55C453.999 173.149 454.689 172.719 455.268 172.262C455.847 171.805 456.327 171.31 456.71 170.778C457.093 170.246 457.387 169.677 457.592 169.07C457.797 168.463 457.933 167.81 457.998 167.11H453.812V165.64H459.874ZM477.289 164.296V177.19H475.539V170.652H474.377V176.588H472.655V164.534H474.377V169.168H475.539V164.296H477.289ZM468.371 172.836C468.959 172.817 469.542 172.789 470.121 172.752C470.7 172.715 471.311 172.645 471.955 172.542L472.095 174.04C471.255 174.171 470.471 174.255 469.743 174.292C469.024 174.329 468.273 174.348 467.489 174.348H466.579V169.098H469.659V167.04H466.565V165.556H471.437V170.554H468.371V172.836ZM479.234 177.722C479.822 176.677 480.251 175.603 480.522 174.502C480.802 173.401 480.942 172.239 480.942 171.016C480.942 169.812 480.802 168.659 480.522 167.558C480.251 166.447 479.822 165.369 479.234 164.324L480.508 163.778C481.18 164.861 481.698 165.99 482.062 167.166C482.426 168.333 482.608 169.616 482.608 171.016C482.608 172.425 482.421 173.718 482.048 174.894C481.684 176.061 481.171 177.185 480.508 178.268L479.234 177.722Z" fill="#BE9162"/>
<path d="M54.032 48.952V50.664H40.688V48.952H46.288V46.248H42.096V38.552H44.192V40.84H50.496V38.552H52.576V46.248H48.4V48.952H54.032ZM44.192 44.568H50.496V42.504H44.192V44.568ZM55.9828 42.232C57.3801 42.104 58.4468 41.832 59.1828 41.416C59.9188 40.9893 60.3721 40.52 60.5428 40.008H56.6228V38.328H67.5188V40.008H63.5828C63.7534 40.52 64.2068 40.9893 64.9428 41.416C65.6788 41.832 66.7508 42.104 68.1588 42.232L67.4228 43.88C65.9614 43.752 64.7988 43.448 63.9348 42.968C63.0708 42.488 62.4468 41.896 62.0628 41.192C61.6681 41.896 61.0388 42.488 60.1748 42.968C59.3108 43.448 58.1481 43.752 56.6868 43.88L55.9828 42.232ZM68.7188 44.44V46.104H55.4068V44.44H68.7188ZM62.0308 46.904C62.8308 46.904 63.5454 46.968 64.1748 47.096C64.8041 47.2133 65.3374 47.3893 65.7748 47.624C66.2228 47.8587 66.5641 48.1467 66.7988 48.488C67.0334 48.8187 67.1508 49.2027 67.1508 49.64C67.1508 50.0773 67.0334 50.4667 66.7988 50.808C66.5641 51.1493 66.2228 51.4373 65.7748 51.672C65.3374 51.9067 64.8041 52.0827 64.1748 52.2C63.5454 52.328 62.8308 52.392 62.0308 52.392C60.4414 52.392 59.1934 52.152 58.2868 51.672C57.3801 51.192 56.9268 50.5147 56.9268 49.64C56.9268 48.776 57.3801 48.104 58.2868 47.624C59.1934 47.144 60.4414 46.904 62.0308 46.904ZM62.0308 50.76C64.0148 50.76 65.0068 50.3867 65.0068 49.64C65.0068 49.256 64.7614 48.9787 64.2708 48.808C63.7801 48.6267 63.0334 48.536 62.0308 48.536C61.0281 48.536 60.2814 48.6267 59.7908 48.808C59.3001 48.9787 59.0548 49.256 59.0548 49.64C59.0548 50.3867 60.0468 50.76 62.0308 50.76ZM82.3335 37.624V52.408H80.2215V37.624H82.3335ZM75.8375 40.92C75.8375 41.6027 75.9122 42.2747 76.0615 42.936C76.2108 43.5973 76.4348 44.216 76.7335 44.792C77.0322 45.368 77.4108 45.8853 77.8695 46.344C78.3388 46.792 78.8828 47.1493 79.5015 47.416L78.3015 49.128C77.4375 48.744 76.7228 48.2053 76.1575 47.512C75.5922 46.808 75.1442 46.0027 74.8135 45.096C74.4828 46.0987 74.0242 46.9787 73.4375 47.736C72.8508 48.4827 72.1042 49.064 71.1975 49.48L69.9335 47.736C70.5735 47.4587 71.1335 47.0853 71.6135 46.616C72.0935 46.136 72.4882 45.5973 72.7975 45C73.1068 44.392 73.3362 43.7413 73.4855 43.048C73.6455 42.344 73.7255 41.6347 73.7255 40.92V38.776H75.8375V40.92ZM96.8283 46.344C95.5376 46.088 94.4336 45.624 93.5163 44.952C92.6096 44.28 91.9163 43.4747 91.4363 42.536C90.9563 43.4747 90.2629 44.2853 89.3563 44.968C88.4496 45.64 87.3509 46.0987 86.0603 46.344L85.1643 44.584C85.9963 44.4453 86.7323 44.2053 87.3723 43.864C88.0123 43.512 88.5509 43.1067 88.9883 42.648C89.4256 42.1893 89.7563 41.6933 89.9803 41.16C90.2043 40.616 90.3163 40.0827 90.3163 39.56V38.504H92.5723V39.56C92.5723 40.0933 92.6843 40.632 92.9083 41.176C93.1323 41.7093 93.4629 42.2053 93.9003 42.664C94.3376 43.1227 94.8763 43.5227 95.5163 43.864C96.1563 44.2053 96.8923 44.4453 97.7243 44.584L96.8283 46.344ZM98.1883 48.872V50.584H84.8443V48.872H98.1883ZM112.123 37.656V46.44H110.123V37.656H112.123ZM107.227 42.872H105.787V41.176H107.227V37.864H109.195V46.328H107.227V42.872ZM106.379 45.544C105.963 45.6187 105.558 45.6773 105.163 45.72C104.768 45.7627 104.363 45.8 103.947 45.832C103.542 45.8533 103.11 45.8693 102.651 45.88C102.192 45.88 101.691 45.88 101.147 45.88H100.139V38.52H105.675V40.184H102.171V41.352H105.163V42.952H102.171V44.216C102.939 44.216 103.638 44.1947 104.267 44.152C104.907 44.0987 105.552 44.008 106.203 43.88L106.379 45.544ZM102.139 47.016H112.123V52.2H102.139V47.016ZM104.219 50.552H110.059V48.664H104.219V50.552ZM121.411 37.32H122.979L119.011 53.112H117.443L121.411 37.32ZM141.287 41.8V43.544H139.335V48.488H137.223V37.64H139.335V41.8H141.287ZM136.551 45.96C135.826 46.088 135.079 46.1893 134.311 46.264C133.554 46.3387 132.796 46.3973 132.039 46.44C131.292 46.4827 130.562 46.5093 129.847 46.52C129.143 46.5307 128.487 46.536 127.879 46.536L127.655 44.824L129.191 44.808V40.536H128.039V38.856H135.895V40.536H134.727V44.6C135.015 44.5787 135.298 44.552 135.575 44.52C135.852 44.488 136.13 44.456 136.407 44.424L136.551 45.96ZM131.223 44.776C131.468 44.7653 131.714 44.76 131.959 44.76C132.215 44.7493 132.466 44.7333 132.711 44.712V40.536H131.223V44.776ZM131.943 50.44H139.863V52.12H129.831V47.48H131.943V50.44ZM155.094 37.624V52.36H153.094V44.952H151.862V51.704H149.894V37.864H151.862V43.256H153.094V37.624H155.094ZM142.87 39.144H148.678V48.696H142.87V39.144ZM144.838 47.048H146.726V40.808H144.838V47.048ZM170.852 45H168.708V52.376H166.596V37.64H168.708V43.256H170.852V45ZM162.58 41.608C162.58 42.1627 162.655 42.7387 162.804 43.336C162.954 43.9227 163.172 44.4827 163.46 45.016C163.759 45.5493 164.132 46.04 164.58 46.488C165.028 46.936 165.556 47.2987 166.164 47.576L164.996 49.24C164.164 48.8667 163.466 48.3333 162.9 47.64C162.335 46.936 161.887 46.1467 161.556 45.272C161.226 46.2427 160.767 47.1067 160.18 47.864C159.594 48.6213 158.879 49.2027 158.036 49.608L156.852 47.928C157.46 47.6507 157.988 47.2827 158.436 46.824C158.884 46.3547 159.258 45.8373 159.556 45.272C159.866 44.696 160.095 44.0933 160.244 43.464C160.394 42.8347 160.468 42.216 160.468 41.608V40.792H157.412V39.048H165.508V40.792H162.58V41.608Z" fill="#31383F"/>
<path d="M645.032 321.952V323.664H631.688V321.952H637.288V319.248H633.096V311.552H635.192V313.84H641.496V311.552H643.576V319.248H639.4V321.952H645.032ZM635.192 317.568H641.496V315.504H635.192V317.568ZM646.983 315.232C648.38 315.104 649.447 314.832 650.183 314.416C650.919 313.989 651.372 313.52 651.543 313.008H647.623V311.328H658.519V313.008H654.583C654.753 313.52 655.207 313.989 655.943 314.416C656.679 314.832 657.751 315.104 659.159 315.232L658.423 316.88C656.961 316.752 655.799 316.448 654.935 315.968C654.071 315.488 653.447 314.896 653.063 314.192C652.668 314.896 652.039 315.488 651.175 315.968C650.311 316.448 649.148 316.752 647.687 316.88L646.983 315.232ZM659.719 317.44V319.104H646.407V317.44H659.719ZM653.031 319.904C653.831 319.904 654.545 319.968 655.175 320.096C655.804 320.213 656.337 320.389 656.775 320.624C657.223 320.859 657.564 321.147 657.799 321.488C658.033 321.819 658.151 322.203 658.151 322.64C658.151 323.077 658.033 323.467 657.799 323.808C657.564 324.149 657.223 324.437 656.775 324.672C656.337 324.907 655.804 325.083 655.175 325.2C654.545 325.328 653.831 325.392 653.031 325.392C651.441 325.392 650.193 325.152 649.287 324.672C648.38 324.192 647.927 323.515 647.927 322.64C647.927 321.776 648.38 321.104 649.287 320.624C650.193 320.144 651.441 319.904 653.031 319.904ZM653.031 323.76C655.015 323.76 656.007 323.387 656.007 322.64C656.007 322.256 655.761 321.979 655.271 321.808C654.78 321.627 654.033 321.536 653.031 321.536C652.028 321.536 651.281 321.627 650.791 321.808C650.3 321.979 650.055 322.256 650.055 322.64C650.055 323.387 651.047 323.76 653.031 323.76ZM673.334 310.624V325.408H671.222V310.624H673.334ZM666.838 313.92C666.838 314.603 666.912 315.275 667.062 315.936C667.211 316.597 667.435 317.216 667.734 317.792C668.032 318.368 668.411 318.885 668.87 319.344C669.339 319.792 669.883 320.149 670.502 320.416L669.302 322.128C668.438 321.744 667.723 321.205 667.158 320.512C666.592 319.808 666.144 319.003 665.814 318.096C665.483 319.099 665.024 319.979 664.438 320.736C663.851 321.483 663.104 322.064 662.198 322.48L660.934 320.736C661.574 320.459 662.134 320.085 662.614 319.616C663.094 319.136 663.488 318.597 663.798 318C664.107 317.392 664.336 316.741 664.486 316.048C664.646 315.344 664.726 314.635 664.726 313.92V311.776H666.838V313.92ZM687.828 319.344C686.538 319.088 685.434 318.624 684.516 317.952C683.61 317.28 682.916 316.475 682.436 315.536C681.956 316.475 681.263 317.285 680.356 317.968C679.45 318.64 678.351 319.099 677.06 319.344L676.164 317.584C676.996 317.445 677.732 317.205 678.372 316.864C679.012 316.512 679.551 316.107 679.988 315.648C680.426 315.189 680.756 314.693 680.98 314.16C681.204 313.616 681.316 313.083 681.316 312.56V311.504H683.572V312.56C683.572 313.093 683.684 313.632 683.908 314.176C684.132 314.709 684.463 315.205 684.9 315.664C685.338 316.123 685.876 316.523 686.516 316.864C687.156 317.205 687.892 317.445 688.724 317.584L687.828 319.344ZM689.188 321.872V323.584H675.844V321.872H689.188ZM703.123 310.656V319.44H701.123V310.656H703.123ZM698.227 315.872H696.787V314.176H698.227V310.864H700.195V319.328H698.227V315.872ZM697.379 318.544C696.963 318.619 696.558 318.677 696.163 318.72C695.768 318.763 695.363 318.8 694.947 318.832C694.542 318.853 694.11 318.869 693.651 318.88C693.192 318.88 692.691 318.88 692.147 318.88H691.139V311.52H696.675V313.184H693.171V314.352H696.163V315.952H693.171V317.216C693.939 317.216 694.638 317.195 695.267 317.152C695.907 317.099 696.552 317.008 697.203 316.88L697.379 318.544ZM693.139 320.016H703.123V325.2H693.139V320.016ZM695.219 323.552H701.059V321.664H695.219V323.552ZM712.411 310.32H713.979L710.011 326.112H708.443L712.411 310.32ZM732.063 319.456H726.399V325.376H724.255V319.456H718.751V317.76H728.031C728.212 316.821 728.324 315.984 728.367 315.248C728.41 314.512 728.431 313.824 728.431 313.184H720.271V311.488H730.495V312.816C730.495 313.509 730.479 314.251 730.447 315.04C730.415 315.819 730.308 316.725 730.127 317.76H732.063V319.456ZM746.094 310.624V325.36H744.094V317.952H742.862V324.704H740.894V310.864H742.862V316.256H744.094V310.624H746.094ZM733.87 312.144H739.678V321.696H733.87V312.144ZM735.838 320.048H737.726V313.808H735.838V320.048ZM761.852 318H759.708V325.376H757.596V310.64H759.708V316.256H761.852V318ZM753.58 314.608C753.58 315.163 753.655 315.739 753.804 316.336C753.954 316.923 754.172 317.483 754.46 318.016C754.759 318.549 755.132 319.04 755.58 319.488C756.028 319.936 756.556 320.299 757.164 320.576L755.996 322.24C755.164 321.867 754.466 321.333 753.9 320.64C753.335 319.936 752.887 319.147 752.556 318.272C752.226 319.243 751.767 320.107 751.18 320.864C750.594 321.621 749.879 322.203 749.036 322.608L747.852 320.928C748.46 320.651 748.988 320.283 749.436 319.824C749.884 319.355 750.258 318.837 750.556 318.272C750.866 317.696 751.095 317.093 751.244 316.464C751.394 315.835 751.468 315.216 751.468 314.608V313.792H748.412V312.048H756.508V313.792H753.58V314.608Z" fill="#31383F"/>
<g opacity="0.75">
<path d="M478.889 341.436V354.092H477.447V341.436H478.889ZM472.547 347.288C472.071 347.288 471.632 347.223 471.231 347.092C470.839 346.961 470.498 346.779 470.209 346.546C469.919 346.313 469.691 346.033 469.523 345.706C469.364 345.379 469.285 345.02 469.285 344.628C469.285 344.236 469.364 343.881 469.523 343.564C469.691 343.237 469.919 342.957 470.209 342.724C470.498 342.491 470.839 342.309 471.231 342.178C471.632 342.047 472.071 341.982 472.547 341.982C473.023 341.982 473.457 342.047 473.849 342.178C474.25 342.309 474.595 342.491 474.885 342.724C475.174 342.957 475.398 343.237 475.557 343.564C475.725 343.881 475.809 344.236 475.809 344.628C475.809 345.02 475.725 345.379 475.557 345.706C475.398 346.033 475.174 346.313 474.885 346.546C474.595 346.779 474.25 346.961 473.849 347.092C473.457 347.223 473.023 347.288 472.547 347.288ZM472.547 343.172C471.987 343.172 471.534 343.303 471.189 343.564C470.843 343.825 470.671 344.18 470.671 344.628C470.671 345.076 470.843 345.435 471.189 345.706C471.534 345.967 471.987 346.098 472.547 346.098C473.107 346.098 473.559 345.967 473.905 345.706C474.25 345.435 474.423 345.076 474.423 344.628C474.423 344.18 474.25 343.825 473.905 343.564C473.559 343.303 473.107 343.172 472.547 343.172ZM476.719 348.828C476.159 348.94 475.594 349.029 475.025 349.094C474.455 349.159 473.891 349.215 473.331 349.262V353.7H471.889V349.346C471.291 349.365 470.717 349.379 470.167 349.388C469.625 349.397 469.103 349.402 468.599 349.402L468.431 348.212C469 348.212 469.616 348.207 470.279 348.198C470.951 348.189 471.641 348.17 472.351 348.142C473.069 348.114 473.788 348.072 474.507 348.016C475.235 347.951 475.939 347.867 476.621 347.764L476.719 348.828ZM492.972 345.86H491.18V349.08H489.738V341.422H491.18V344.67H492.972V345.86ZM488.59 348.142C488.16 348.217 487.736 348.277 487.316 348.324C486.905 348.371 486.471 348.408 486.014 348.436C485.566 348.464 485.08 348.483 484.558 348.492C484.044 348.501 483.466 348.506 482.822 348.506H481.828V342.276H487.68V343.438H483.27V344.796H487.442V345.93H483.27V347.344C483.83 347.344 484.338 347.339 484.796 347.33C485.262 347.321 485.696 347.302 486.098 347.274C486.508 347.246 486.9 347.209 487.274 347.162C487.656 347.115 488.044 347.059 488.436 346.994L488.59 348.142ZM482.864 349.668H491.18V354.078H489.738V350.83H482.864V349.668ZM505.627 348.8H500.587V354.078H499.131V348.8H494.189V347.61H502.407C502.593 346.733 502.701 345.953 502.729 345.272C502.757 344.591 502.771 343.956 502.771 343.368H495.561V342.206H504.185V343.312C504.185 343.909 504.171 344.549 504.143 345.23C504.115 345.911 504.021 346.705 503.863 347.61H505.627V348.8ZM517.862 341.436V354.064H516.49V347.54H515.048V353.476H513.69V341.674H515.048V346.364H516.49V341.436H517.862ZM507.488 342.822H512.36V350.788H507.488V342.822ZM508.832 349.64H511.016V343.97H508.832V349.64ZM533.885 341.436V354.078H532.499V341.436H533.885ZM529.951 341.744H531.295V353.462H529.951V349.206H527.879V348.03H529.951V346.028H528.103C527.814 347.101 527.324 348.091 526.633 348.996C525.952 349.892 525.014 350.695 523.819 351.404L522.993 350.382C524.309 349.589 525.289 348.683 525.933 347.666C526.587 346.639 526.965 345.468 527.067 344.152H523.609V342.99H528.495C528.495 343.317 528.481 343.634 528.453 343.942C528.435 344.25 528.402 344.553 528.355 344.852H529.951V341.744ZM545.826 344.432V345.958H547.576V347.148H545.826V348.926H544.384V341.436H545.826V343.242H547.576V344.432H545.826ZM542.844 345.202C542.844 345.65 542.76 346.061 542.592 346.434C542.424 346.807 542.186 347.129 541.878 347.4C541.58 347.661 541.225 347.867 540.814 348.016C540.404 348.165 539.956 348.24 539.47 348.24C538.994 348.24 538.551 348.165 538.14 348.016C537.73 347.867 537.37 347.661 537.062 347.4C536.764 347.129 536.53 346.807 536.362 346.434C536.194 346.061 536.11 345.65 536.11 345.202C536.11 344.754 536.194 344.343 536.362 343.97C536.53 343.597 536.764 343.279 537.062 343.018C537.37 342.747 537.73 342.537 538.14 342.388C538.551 342.239 538.994 342.164 539.47 342.164C539.956 342.164 540.404 342.239 540.814 342.388C541.225 342.537 541.58 342.747 541.878 343.018C542.186 343.279 542.424 343.597 542.592 343.97C542.76 344.343 542.844 344.754 542.844 345.202ZM537.524 345.202C537.524 345.762 537.706 346.205 538.07 346.532C538.444 346.859 538.91 347.022 539.47 347.022C540.04 347.022 540.506 346.859 540.87 346.532C541.244 346.205 541.43 345.762 541.43 345.202C541.43 344.642 541.244 344.199 540.87 343.872C540.506 343.545 540.04 343.382 539.47 343.382C538.91 343.382 538.444 343.545 538.07 343.872C537.706 344.199 537.524 344.642 537.524 345.202ZM537.51 349.486H545.826V354.092H544.384V350.648H537.51V349.486ZM559.335 341.408V354.092H557.879V346.742H555.177V345.566H557.879V341.408H559.335ZM553.413 344.544C553.413 345.132 553.483 345.711 553.623 346.28C553.772 346.84 553.982 347.367 554.253 347.862C554.524 348.347 554.85 348.786 555.233 349.178C555.625 349.561 556.064 349.864 556.549 350.088L555.695 351.25C554.967 350.895 554.351 350.387 553.847 349.724C553.352 349.061 552.97 348.305 552.699 347.456C552.419 348.361 552.022 349.164 551.509 349.864C551.005 350.555 550.389 351.087 549.661 351.46L548.751 350.312C549.246 350.069 549.689 349.743 550.081 349.332C550.482 348.921 550.818 348.464 551.089 347.96C551.369 347.447 551.584 346.896 551.733 346.308C551.882 345.72 551.957 345.132 551.957 344.544V342.458H553.413V344.544Z" fill="#31383F"/>
<circle cx="571" cy="348" r="2" fill="#31383F"/>
<circle cx="695" cy="348" r="2" fill="#31383F"/>
<path d="M593.93 351.348V352.538H582.478V351.348H587.462V348.8H583.766V342.276H585.194V344.404H591.186V342.276H592.614V348.8H588.904V351.348H593.93ZM585.194 347.638H591.186V345.566H585.194V347.638ZM595.917 345.608C596.505 345.552 597.041 345.449 597.527 345.3C598.021 345.151 598.451 344.969 598.815 344.754C599.179 344.539 599.468 344.301 599.683 344.04C599.907 343.779 600.042 343.503 600.089 343.214H596.407V342.052H605.745V343.214H602.035C602.081 343.503 602.212 343.779 602.427 344.04C602.651 344.301 602.945 344.539 603.309 344.754C603.673 344.969 604.097 345.151 604.583 345.3C605.077 345.449 605.619 345.552 606.207 345.608L605.703 346.728C604.573 346.607 603.603 346.331 602.791 345.902C601.979 345.473 601.405 344.931 601.069 344.278C600.723 344.931 600.145 345.473 599.333 345.902C598.53 346.331 597.564 346.607 596.435 346.728L595.917 345.608ZM606.781 347.372V348.534H595.343V347.372H606.781ZM601.041 349.444C602.403 349.444 603.467 349.649 604.233 350.06C605.007 350.461 605.395 351.031 605.395 351.768C605.395 352.505 605.017 353.075 604.261 353.476C603.514 353.877 602.441 354.078 601.041 354.078C600.369 354.078 599.762 354.027 599.221 353.924C598.679 353.821 598.222 353.672 597.849 353.476C597.475 353.28 597.186 353.037 596.981 352.748C596.785 352.459 596.687 352.132 596.687 351.768C596.687 351.404 596.785 351.077 596.981 350.788C597.186 350.499 597.475 350.256 597.849 350.06C598.222 349.855 598.679 349.701 599.221 349.598C599.762 349.495 600.369 349.444 601.041 349.444ZM601.041 352.944C601.974 352.944 602.688 352.846 603.183 352.65C603.687 352.454 603.939 352.16 603.939 351.768C603.939 351.376 603.687 351.082 603.183 350.886C602.688 350.681 601.974 350.578 601.041 350.578C600.107 350.578 599.393 350.681 598.899 350.886C598.404 351.082 598.157 351.376 598.157 351.768C598.157 352.16 598.404 352.454 598.899 352.65C599.393 352.846 600.107 352.944 601.041 352.944ZM618.735 341.408V354.092H617.279V346.742H614.577V345.566H617.279V341.408H618.735ZM612.813 344.544C612.813 345.132 612.883 345.711 613.023 346.28C613.173 346.84 613.383 347.367 613.653 347.862C613.924 348.347 614.251 348.786 614.633 349.178C615.025 349.561 615.464 349.864 615.949 350.088L615.095 351.25C614.367 350.895 613.751 350.387 613.247 349.724C612.753 349.061 612.37 348.305 612.099 347.456C611.819 348.361 611.423 349.164 610.909 349.864C610.405 350.555 609.789 351.087 609.061 351.46L608.151 350.312C608.646 350.069 609.089 349.743 609.481 349.332C609.883 348.921 610.219 348.464 610.489 347.96C610.769 347.447 610.984 346.896 611.133 346.308C611.283 345.72 611.357 345.132 611.357 344.544V342.458H612.813V344.544ZM623.704 355.03C623.051 353.966 622.542 352.855 622.178 351.698C621.814 350.531 621.632 349.253 621.632 347.862C621.632 346.471 621.814 345.197 622.178 344.04C622.542 342.883 623.051 341.772 623.704 340.708L624.712 341.142C624.096 342.159 623.648 343.233 623.368 344.362C623.088 345.482 622.948 346.649 622.948 347.862C622.948 349.085 623.088 350.256 623.368 351.376C623.648 352.496 624.096 353.565 624.712 354.582L623.704 355.03ZM637.795 347.624H635.877V354.064H634.435V341.422H635.877V346.42H637.795V347.624ZM632.615 342.696C632.615 343.639 632.531 344.553 632.363 345.44C632.204 346.317 631.91 347.153 631.481 347.946C631.061 348.739 630.482 349.486 629.745 350.186C629.008 350.877 628.065 351.511 626.917 352.09L626.133 350.97C627.253 350.41 628.154 349.808 628.835 349.164C629.516 348.511 630.044 347.787 630.417 346.994L626.413 347.386L626.217 346.14L630.851 345.846C631.019 345.23 631.131 344.572 631.187 343.872H626.861V342.696H632.615ZM649.134 348.562H640.37V342.542H649.036V343.718H641.812V347.4H649.134V348.562ZM650.436 351.264V352.454H638.97V351.264H650.436ZM651.765 354.582C652.381 353.565 652.829 352.496 653.109 351.376C653.389 350.256 653.529 349.085 653.529 347.862C653.529 346.649 653.389 345.482 653.109 344.362C652.829 343.233 652.381 342.159 651.765 341.142L652.773 340.708C653.445 341.772 653.958 342.883 654.313 344.04C654.677 345.197 654.859 346.471 654.859 347.862C654.859 349.253 654.677 350.531 654.313 351.698C653.949 352.855 653.435 353.966 652.773 355.03L651.765 354.582ZM671.604 344.026V345.216H669.826V347.918H668.384V341.436H669.826V344.026H671.604ZM666.354 347.498H660.39V341.968H661.832V343.634H664.926V341.968H666.354V347.498ZM664.926 344.74H661.832V346.35H664.926V344.74ZM663.106 352.832H670.246V353.966H661.692V350.648H668.398V349.598H661.664V348.478H669.826V351.712H663.106V352.832ZM684.287 346.49V347.666H672.835V346.49H681.123C681.272 345.79 681.361 345.179 681.389 344.656C681.426 344.124 681.445 343.62 681.445 343.144H674.277V341.982H682.859V342.948C682.859 343.433 682.845 343.956 682.817 344.516C682.798 345.076 682.71 345.734 682.551 346.49H684.287ZM681.403 348.66H682.845V353.924H674.263V348.66H675.691V350.172H681.403V348.66ZM681.403 351.292H675.691V352.762H681.403V351.292Z" fill="#31383F"/>
<path d="M717.828 347.638H715.854V354.078H714.412V341.436H715.854V346.448H717.828V347.638ZM710.492 344.558C710.492 345.118 710.562 345.678 710.702 346.238C710.851 346.789 711.056 347.307 711.318 347.792C711.588 348.277 711.91 348.716 712.284 349.108C712.666 349.491 713.096 349.799 713.572 350.032L712.69 351.18C712.008 350.825 711.42 350.331 710.926 349.696C710.431 349.052 710.048 348.305 709.778 347.456C709.507 348.333 709.11 349.122 708.588 349.822C708.074 350.513 707.454 351.045 706.726 351.418L705.844 350.256C706.338 350.013 706.782 349.691 707.174 349.29C707.575 348.879 707.911 348.422 708.182 347.918C708.462 347.414 708.676 346.877 708.826 346.308C708.975 345.729 709.05 345.146 709.05 344.558V342.486H710.492V344.558ZM729.74 343.97H719.506V342.822H723.93V341.394H725.372V342.822H729.74V343.97ZM720.444 346.728C720.444 346.028 720.813 345.496 721.55 345.132C722.297 344.768 723.333 344.586 724.658 344.586C725.984 344.586 727.015 344.768 727.752 345.132C728.499 345.496 728.872 346.028 728.872 346.728C728.872 347.409 728.499 347.937 727.752 348.31C727.015 348.683 725.984 348.87 724.658 348.87C723.333 348.87 722.297 348.683 721.55 348.31C720.813 347.937 720.444 347.409 720.444 346.728ZM727.36 346.728C727.36 346.028 726.46 345.678 724.658 345.678C722.848 345.678 721.942 346.028 721.942 346.728C721.942 347.437 722.848 347.792 724.658 347.792C726.46 347.792 727.36 347.437 727.36 346.728ZM730.398 350.788H725.372V354.092H723.93V350.788H718.932V349.626H730.398V350.788ZM746.59 345.44V346.63H744.91V350.928H743.454V341.436H744.91V345.44H746.59ZM740.22 346.7C740.351 346.019 740.43 345.426 740.458 344.922C740.496 344.409 740.519 343.956 740.528 343.564H735.586V342.388H741.942V343.116C741.942 343.545 741.928 344.073 741.9 344.698C741.882 345.314 741.793 346.033 741.634 346.854L740.22 346.7ZM742.782 348.534C742.129 348.646 741.457 348.739 740.766 348.814C740.076 348.879 739.39 348.931 738.708 348.968C738.036 349.005 737.383 349.033 736.748 349.052C736.114 349.061 735.521 349.066 734.97 349.066L734.816 347.89C735.208 347.89 735.614 347.89 736.034 347.89C736.454 347.89 736.888 347.881 737.336 347.862V345.272H738.764V347.82C739.436 347.792 740.099 347.755 740.752 347.708C741.415 347.661 742.059 347.587 742.684 347.484L742.782 348.534ZM738.176 352.664H745.316V353.84H736.72V350.088H738.176V352.664ZM758.265 341.408V354.106H756.809V341.408H758.265ZM750.005 349.906C751.004 349.897 751.96 349.864 752.875 349.808C753.799 349.743 754.76 349.631 755.759 349.472L755.913 350.648C755.372 350.741 754.844 350.821 754.331 350.886C753.818 350.942 753.304 350.989 752.791 351.026C752.278 351.054 751.76 351.073 751.237 351.082C750.724 351.091 750.187 351.096 749.627 351.096H748.549V346.084H752.959V343.732H748.521V342.556H754.415V347.246H750.005V349.906Z" fill="#31383F"/>
</g>
<g opacity="0.75">
<path d="M51.172 68.436V81.092H49.73V68.436H51.172ZM44.83 74.288C44.354 74.288 43.9153 74.2227 43.514 74.092C43.122 73.9613 42.7813 73.7793 42.492 73.546C42.2027 73.3127 41.974 73.0327 41.806 72.706C41.6473 72.3793 41.568 72.02 41.568 71.628C41.568 71.236 41.6473 70.8813 41.806 70.564C41.974 70.2373 42.2027 69.9573 42.492 69.724C42.7813 69.4907 43.122 69.3087 43.514 69.178C43.9153 69.0473 44.354 68.982 44.83 68.982C45.306 68.982 45.74 69.0473 46.132 69.178C46.5333 69.3087 46.8787 69.4907 47.168 69.724C47.4573 69.9573 47.6813 70.2373 47.84 70.564C48.008 70.8813 48.092 71.236 48.092 71.628C48.092 72.02 48.008 72.3793 47.84 72.706C47.6813 73.0327 47.4573 73.3127 47.168 73.546C46.8787 73.7793 46.5333 73.9613 46.132 74.092C45.74 74.2227 45.306 74.288 44.83 74.288ZM44.83 70.172C44.27 70.172 43.8173 70.3027 43.472 70.564C43.1267 70.8253 42.954 71.18 42.954 71.628C42.954 72.076 43.1267 72.4353 43.472 72.706C43.8173 72.9673 44.27 73.098 44.83 73.098C45.39 73.098 45.8427 72.9673 46.188 72.706C46.5333 72.4353 46.706 72.076 46.706 71.628C46.706 71.18 46.5333 70.8253 46.188 70.564C45.8427 70.3027 45.39 70.172 44.83 70.172ZM49.002 75.828C48.442 75.94 47.8773 76.0287 47.308 76.094C46.7387 76.1593 46.174 76.2153 45.614 76.262V80.7H44.172V76.346C43.5747 76.3647 43.0007 76.3787 42.45 76.388C41.9087 76.3973 41.386 76.402 40.882 76.402L40.714 75.212C41.2833 75.212 41.8993 75.2073 42.562 75.198C43.234 75.1887 43.9247 75.17 44.634 75.142C45.3527 75.114 46.0713 75.072 46.79 75.016C47.518 74.9507 48.2227 74.8667 48.904 74.764L49.002 75.828ZM65.2549 72.86H63.4629V76.08H62.0209V68.422H63.4629V71.67H65.2549V72.86ZM60.8729 75.142C60.4436 75.2167 60.0189 75.2773 59.5989 75.324C59.1882 75.3707 58.7542 75.408 58.2969 75.436C57.8489 75.464 57.3636 75.4827 56.8409 75.492C56.3276 75.5013 55.7489 75.506 55.1049 75.506H54.1109V69.276H59.9629V70.438H55.5529V71.796H59.7249V72.93H55.5529V74.344C56.1129 74.344 56.6216 74.3393 57.0789 74.33C57.5456 74.3207 57.9796 74.302 58.3809 74.274C58.7916 74.246 59.1836 74.2087 59.5569 74.162C59.9396 74.1153 60.3269 74.0593 60.7189 73.994L60.8729 75.142ZM55.1469 76.668H63.4629V81.078H62.0209V77.83H55.1469V76.668ZM78.1338 72.174V73.364H76.3418V77.746H74.8998V68.436H76.3418V72.174H78.1338ZM74.1718 75.478C73.5465 75.5807 72.9025 75.6647 72.2398 75.73C71.5771 75.786 70.9191 75.8327 70.2658 75.87C69.6125 75.9073 68.9731 75.9307 68.3478 75.94C67.7318 75.9493 67.1531 75.954 66.6118 75.954L66.4578 74.764C66.6911 74.764 66.9291 74.764 67.1718 74.764C67.4238 74.764 67.6805 74.7593 67.9418 74.75V70.718H66.7938V69.542H73.5558V70.718H72.4078V74.596C73.0051 74.5493 73.5605 74.4933 74.0738 74.428L74.1718 75.478ZM69.3278 74.736C69.5985 74.7267 69.8738 74.7173 70.1538 74.708C70.4431 74.6987 70.7278 74.6847 71.0078 74.666V70.718H69.3278V74.736ZM69.7898 79.664H76.8458V80.84H68.3338V76.878H69.7898V79.664ZM90.1447 68.436V81.064H88.7727V74.54H87.3307V80.476H85.9727V68.674H87.3307V73.364H88.7727V68.436H90.1447ZM79.7707 69.822H84.6427V77.788H79.7707V69.822ZM81.1147 76.64H83.2987V70.97H81.1147V76.64ZM106.168 68.436V81.078H104.782V68.436H106.168ZM102.234 68.744H103.578V80.462H102.234V76.206H100.162V75.03H102.234V73.028H100.386C100.097 74.1013 99.6072 75.0907 98.9165 75.996C98.2352 76.892 97.2972 77.6947 96.1025 78.404L95.2765 77.382C96.5925 76.5887 97.5725 75.6833 98.2165 74.666C98.8698 73.6393 99.2478 72.468 99.3505 71.152H95.8925V69.99H100.778C100.778 70.3167 100.764 70.634 100.736 70.942C100.718 71.25 100.685 71.5533 100.638 71.852H102.234V68.744ZM118.109 71.432V72.958H119.859V74.148H118.109V75.926H116.667V68.436H118.109V70.242H119.859V71.432H118.109ZM115.127 72.202C115.127 72.65 115.043 73.0607 114.875 73.434C114.707 73.8073 114.469 74.1293 114.161 74.4C113.863 74.6613 113.508 74.8667 113.097 75.016C112.687 75.1653 112.239 75.24 111.753 75.24C111.277 75.24 110.834 75.1653 110.423 75.016C110.013 74.8667 109.653 74.6613 109.345 74.4C109.047 74.1293 108.813 73.8073 108.645 73.434C108.477 73.0607 108.393 72.65 108.393 72.202C108.393 71.754 108.477 71.3433 108.645 70.97C108.813 70.5967 109.047 70.2793 109.345 70.018C109.653 69.7473 110.013 69.5373 110.423 69.388C110.834 69.2387 111.277 69.164 111.753 69.164C112.239 69.164 112.687 69.2387 113.097 69.388C113.508 69.5373 113.863 69.7473 114.161 70.018C114.469 70.2793 114.707 70.5967 114.875 70.97C115.043 71.3433 115.127 71.754 115.127 72.202ZM109.807 72.202C109.807 72.762 109.989 73.2053 110.353 73.532C110.727 73.8587 111.193 74.022 111.753 74.022C112.323 74.022 112.789 73.8587 113.153 73.532C113.527 73.2053 113.713 72.762 113.713 72.202C113.713 71.642 113.527 71.1987 113.153 70.872C112.789 70.5453 112.323 70.382 111.753 70.382C111.193 70.382 110.727 70.5453 110.353 70.872C109.989 71.1987 109.807 71.642 109.807 72.202ZM109.793 76.486H118.109V81.092H116.667V77.648H109.793V76.486ZM131.618 68.408V81.092H130.162V73.742H127.46V72.566H130.162V68.408H131.618ZM125.696 71.544C125.696 72.132 125.766 72.7107 125.906 73.28C126.056 73.84 126.266 74.3673 126.536 74.862C126.807 75.3473 127.134 75.786 127.516 76.178C127.908 76.5607 128.347 76.864 128.832 77.088L127.978 78.25C127.25 77.8953 126.634 77.3867 126.13 76.724C125.636 76.0613 125.253 75.3053 124.982 74.456C124.702 75.3613 124.306 76.164 123.792 76.864C123.288 77.5547 122.672 78.0867 121.944 78.46L121.034 77.312C121.529 77.0693 121.972 76.7427 122.364 76.332C122.766 75.9213 123.102 75.464 123.372 74.96C123.652 74.4467 123.867 73.896 124.016 73.308C124.166 72.72 124.24 72.132 124.24 71.544V69.458H125.696V71.544Z" fill="#31383F"/>
<path d="M165.186 68.422V75.59H163.744V72.762H161.238V71.572H163.744V68.422H165.186ZM161.21 69.192C161.21 70.0133 161.075 70.7693 160.804 71.46C160.543 72.1507 160.16 72.776 159.656 73.336C159.161 73.8867 158.555 74.3673 157.836 74.778C157.117 75.1793 156.301 75.5107 155.386 75.772L154.798 74.624C156.291 74.232 157.439 73.672 158.242 72.944C159.054 72.216 159.525 71.3573 159.656 70.368H155.47V69.192H161.21ZM156.954 76.108H165.186V80.924H156.954V76.108ZM158.368 79.762H163.772V77.256H158.368V79.762ZM179.353 74.638H177.379V81.078H175.937V68.436H177.379V73.448H179.353V74.638ZM172.017 71.558C172.017 72.118 172.087 72.678 172.227 73.238C172.376 73.7887 172.582 74.3067 172.843 74.792C173.114 75.2773 173.436 75.716 173.809 76.108C174.192 76.4907 174.621 76.7987 175.097 77.032L174.215 78.18C173.534 77.8253 172.946 77.3307 172.451 76.696C171.956 76.052 171.574 75.3053 171.303 74.456C171.032 75.3333 170.636 76.122 170.113 76.822C169.6 77.5127 168.979 78.0447 168.251 78.418L167.369 77.256C167.864 77.0133 168.307 76.6913 168.699 76.29C169.1 75.8793 169.436 75.422 169.707 74.918C169.987 74.414 170.202 73.8773 170.351 73.308C170.5 72.7293 170.575 72.146 170.575 71.558V69.486H172.017V71.558ZM186.949 68.128H188.069L184.177 81.82H183.057L186.949 68.128ZM202.661 68.422V75.59H201.219V72.762H198.713V71.572H201.219V68.422H202.661ZM198.685 69.192C198.685 70.0133 198.549 70.7693 198.279 71.46C198.017 72.1507 197.635 72.776 197.131 73.336C196.636 73.8867 196.029 74.3673 195.311 74.778C194.592 75.1793 193.775 75.5107 192.861 75.772L192.273 74.624C193.766 74.232 194.914 73.672 195.717 72.944C196.529 72.216 197 71.3573 197.131 70.368H192.945V69.192H198.685ZM194.429 76.108H202.661V80.924H194.429V76.108ZM195.843 79.762H201.247V77.256H195.843V79.762ZM215.442 74.26C214.368 74.092 213.43 73.756 212.628 73.252C211.825 72.748 211.214 72.132 210.794 71.404C210.374 72.1413 209.758 72.762 208.946 73.266C208.143 73.7607 207.205 74.092 206.132 74.26L205.572 73.098C206.216 73.0047 206.808 72.846 207.35 72.622C207.9 72.3887 208.372 72.1133 208.764 71.796C209.156 71.4693 209.464 71.1147 209.688 70.732C209.912 70.34 210.024 69.934 210.024 69.514V68.842H211.55V69.514C211.55 69.9247 211.662 70.326 211.886 70.718C212.11 71.11 212.418 71.4693 212.81 71.796C213.211 72.1133 213.682 72.3887 214.224 72.622C214.774 72.846 215.367 73.0047 216.002 73.098L215.442 74.26ZM216.492 76.626H211.466V81.092H210.024V76.626H205.068V75.45H216.492V76.626ZM224.423 68.128H225.543L221.651 81.82H220.531L224.423 68.128ZM240.037 74.26C238.964 74.092 238.026 73.756 237.223 73.252C236.421 72.748 235.809 72.132 235.389 71.404C234.969 72.1413 234.353 72.762 233.541 73.266C232.739 73.7607 231.801 74.092 230.727 74.26L230.167 73.098C230.811 73.0047 231.404 72.846 231.945 72.622C232.496 72.3887 232.967 72.1133 233.359 71.796C233.751 71.4693 234.059 71.1147 234.283 70.732C234.507 70.34 234.619 69.934 234.619 69.514V68.842H236.145V69.514C236.145 69.9247 236.257 70.326 236.481 70.718C236.705 71.11 237.013 71.4693 237.405 71.796C237.807 72.1133 238.278 72.3887 238.819 72.622C239.37 72.846 239.963 73.0047 240.597 73.098L240.037 74.26ZM241.087 76.626H236.061V81.092H234.619V76.626H229.663V75.45H241.087V76.626ZM252.972 68.408V81.106H251.516V68.408H252.972ZM244.712 76.906C245.711 76.8967 246.667 76.864 247.582 76.808C248.506 76.7427 249.467 76.6307 250.466 76.472L250.62 77.648C250.079 77.7413 249.551 77.8207 249.038 77.886C248.525 77.942 248.011 77.9887 247.498 78.026C246.985 78.054 246.467 78.0727 245.944 78.082C245.431 78.0913 244.894 78.096 244.334 78.096H243.256V73.084H247.666V70.732H243.228V69.556H249.122V74.246H244.712V76.906Z" fill="#31383F"/>
<path d="M287.152 75.8H282.112V81.078H280.656V75.8H275.714V74.61H283.932C284.119 73.7327 284.226 72.9533 284.254 72.272C284.282 71.5907 284.296 70.956 284.296 70.368H277.086V69.206H285.71V70.312C285.71 70.9093 285.696 71.5487 285.668 72.23C285.64 72.9113 285.547 73.7047 285.388 74.61H287.152V75.8ZM299.387 68.436V81.064H298.015V74.54H296.573V80.476H295.215V68.674H296.573V73.364H298.015V68.436H299.387ZM289.013 69.822H293.885V77.788H289.013V69.822ZM290.357 76.64H292.541V70.97H290.357V76.64ZM313.232 74.61H311.258V81.078H309.816V68.436H311.258V73.42H313.232V74.61ZM305.896 72.104C305.896 72.5893 305.97 73.0887 306.12 73.602C306.269 74.106 306.479 74.5913 306.75 75.058C307.03 75.5153 307.366 75.9353 307.758 76.318C308.15 76.6913 308.584 76.99 309.06 77.214L308.262 78.348C307.552 78.012 306.936 77.522 306.414 76.878C305.891 76.234 305.485 75.5013 305.196 74.68C304.916 75.5667 304.505 76.3647 303.964 77.074C303.432 77.7833 302.797 78.3153 302.06 78.67L301.234 77.522C301.719 77.2887 302.158 76.976 302.55 76.584C302.951 76.1827 303.292 75.7393 303.572 75.254C303.852 74.7593 304.066 74.2413 304.216 73.7C304.374 73.1587 304.454 72.6267 304.454 72.104V70.886H301.696V69.696H308.57V70.886H305.896V72.104ZM326.512 72.468H323.95V71.278H326.512V68.436H327.954V77.844H326.512V72.468ZM324.174 75.856C323.492 75.604 322.909 75.2353 322.424 74.75C321.938 74.2647 321.56 73.7 321.29 73.056C321.01 73.7653 320.608 74.3907 320.086 74.932C319.572 75.464 318.952 75.87 318.224 76.15L317.454 75.03C317.948 74.8527 318.387 74.6147 318.77 74.316C319.152 74.0173 319.47 73.6767 319.722 73.294C319.983 72.9113 320.179 72.496 320.31 72.048C320.45 71.6 320.52 71.1427 320.52 70.676V69.206H321.99V70.704C321.99 71.124 322.055 71.5393 322.186 71.95C322.316 72.3607 322.508 72.7433 322.76 73.098C323.012 73.4527 323.32 73.7747 323.684 74.064C324.048 74.344 324.468 74.568 324.944 74.736L324.174 75.856ZM328.248 79.664V80.84H319.722V76.85H321.178V79.664H328.248ZM339.39 71.614V68.436H340.832V75.968H339.39V72.79H337.15V71.614H339.39ZM337.164 75.562C336.464 75.3193 335.867 74.9647 335.372 74.498C334.878 74.022 334.495 73.476 334.224 72.86C333.944 73.56 333.543 74.176 333.02 74.708C332.498 75.2307 331.858 75.6273 331.102 75.898L330.36 74.75C330.855 74.5727 331.294 74.344 331.676 74.064C332.059 73.7747 332.381 73.448 332.642 73.084C332.904 72.72 333.104 72.328 333.244 71.908C333.384 71.488 333.454 71.0633 333.454 70.634V70.452H330.78V69.29H337.542V70.452H334.91V70.62C334.91 71.0213 334.976 71.4133 335.106 71.796C335.237 72.1787 335.428 72.538 335.68 72.874C335.932 73.21 336.24 73.5133 336.604 73.784C336.978 74.0453 337.402 74.26 337.878 74.428L337.164 75.562ZM336.632 76.304C337.295 76.304 337.888 76.36 338.41 76.472C338.933 76.5747 339.376 76.7287 339.74 76.934C340.114 77.1393 340.398 77.3913 340.594 77.69C340.79 77.9793 340.888 78.3153 340.888 78.698C340.888 79.0713 340.79 79.4073 340.594 79.706C340.398 80.0047 340.114 80.2567 339.74 80.462C339.376 80.6673 338.933 80.8213 338.41 80.924C337.888 81.036 337.295 81.092 336.632 81.092C335.97 81.092 335.372 81.036 334.84 80.924C334.318 80.8213 333.87 80.6673 333.496 80.462C333.132 80.2567 332.852 80.0047 332.656 79.706C332.46 79.4073 332.362 79.0713 332.362 78.698C332.362 78.3153 332.46 77.9793 332.656 77.69C332.852 77.3913 333.132 77.1393 333.496 76.934C333.87 76.7287 334.318 76.5747 334.84 76.472C335.372 76.36 335.97 76.304 336.632 76.304ZM336.632 79.972C337.538 79.972 338.233 79.8647 338.718 79.65C339.204 79.4353 339.446 79.118 339.446 78.698C339.446 78.278 339.204 77.9607 338.718 77.746C338.233 77.5313 337.538 77.424 336.632 77.424C335.727 77.424 335.027 77.5313 334.532 77.746C334.047 77.9607 333.804 78.278 333.804 78.698C333.804 79.118 334.047 79.4353 334.532 79.65C335.027 79.8647 335.727 79.972 336.632 79.972Z" fill="#31383F"/>
<path d="M374.186 68.436V81.092H372.73V74.596H370.014V73.406H372.73V68.436H374.186ZM370.07 69.766C370.07 70.69 369.977 71.5813 369.79 72.44C369.603 73.2987 369.291 74.1107 368.852 74.876C368.413 75.632 367.83 76.3413 367.102 77.004C366.383 77.6573 365.487 78.25 364.414 78.782L363.644 77.662C364.465 77.2513 365.175 76.808 365.772 76.332C366.369 75.8467 366.869 75.324 367.27 74.764C367.671 74.204 367.979 73.6067 368.194 72.972C368.409 72.3373 368.544 71.6607 368.6 70.942H364.204V69.766H370.07ZM387.373 68.436V81.064H386.001V74.498H384.503V80.448H383.145V68.688H384.503V73.322H386.001V68.436H387.373ZM378.371 76.962C379.043 76.9527 379.692 76.9293 380.317 76.892C380.952 76.8453 381.633 76.7613 382.361 76.64L382.487 77.816C381.638 77.9653 380.844 78.0587 380.107 78.096C379.379 78.1333 378.623 78.152 377.839 78.152H376.985V73.224H380.317V70.914H376.957V69.738H381.703V74.386H378.371V76.962ZM401.176 74.624H399.258V81.064H397.816V68.422H399.258V73.42H401.176V74.624ZM395.954 69.766C395.954 70.6807 395.851 71.5673 395.646 72.426C395.44 73.2847 395.109 74.0967 394.652 74.862C394.194 75.6273 393.606 76.3413 392.888 77.004C392.169 77.6573 391.292 78.2453 390.256 78.768L389.458 77.662C392.538 76.0753 394.222 73.8353 394.512 70.942H390.088V69.766H395.954ZM413.047 68.45V75.954H411.675V72.776H410.359V75.898H409.001V68.688H410.359V71.6H411.675V68.45H413.047ZM408.203 72.244C408.203 72.692 408.128 73.1027 407.979 73.476C407.839 73.84 407.638 74.1573 407.377 74.428C407.125 74.6893 406.821 74.8947 406.467 75.044C406.121 75.1933 405.739 75.268 405.319 75.268C404.899 75.268 404.511 75.1933 404.157 75.044C403.802 74.8947 403.499 74.6893 403.247 74.428C402.995 74.1573 402.794 73.84 402.645 73.476C402.505 73.1027 402.435 72.692 402.435 72.244C402.435 71.796 402.505 71.3853 402.645 71.012C402.794 70.6387 402.995 70.3213 403.247 70.06C403.499 69.7893 403.802 69.584 404.157 69.444C404.511 69.2947 404.899 69.22 405.319 69.22C405.739 69.22 406.121 69.2947 406.467 69.444C406.821 69.584 407.125 69.7893 407.377 70.06C407.638 70.3213 407.839 70.6387 407.979 71.012C408.128 71.3853 408.203 71.796 408.203 72.244ZM403.737 72.244C403.737 72.804 403.881 73.2473 404.171 73.574C404.46 73.9007 404.843 74.064 405.319 74.064C405.776 74.064 406.154 73.9007 406.453 73.574C406.751 73.2473 406.901 72.804 406.901 72.244C406.901 71.684 406.751 71.2453 406.453 70.928C406.154 70.6013 405.776 70.438 405.319 70.438C404.843 70.438 404.46 70.6013 404.171 70.928C403.881 71.2453 403.737 71.684 403.737 72.244ZM404.479 76.612H413.047V81.078H411.605V77.774H404.479V76.612ZM430.022 72.188V73.378H428.23V77.704H426.788V68.436H428.23V72.188H430.022ZM425.248 72.44C425.248 72.8973 425.16 73.322 424.982 73.714C424.814 74.0967 424.581 74.428 424.282 74.708C423.984 74.988 423.624 75.2073 423.204 75.366C422.794 75.5247 422.35 75.604 421.874 75.604C421.398 75.604 420.955 75.5247 420.544 75.366C420.134 75.2073 419.779 74.988 419.48 74.708C419.182 74.428 418.944 74.0967 418.766 73.714C418.598 73.322 418.514 72.8973 418.514 72.44C418.514 71.9733 418.598 71.5487 418.766 71.166C418.944 70.7833 419.182 70.452 419.48 70.172C419.779 69.892 420.134 69.6773 420.544 69.528C420.955 69.3693 421.398 69.29 421.874 69.29C422.35 69.29 422.794 69.3693 423.204 69.528C423.624 69.6773 423.984 69.892 424.282 70.172C424.581 70.452 424.814 70.7833 424.982 71.166C425.16 71.5487 425.248 71.9733 425.248 72.44ZM419.928 72.44C419.928 72.7293 419.975 72.9953 420.068 73.238C420.171 73.4713 420.311 73.672 420.488 73.84C420.666 74.008 420.871 74.1387 421.104 74.232C421.338 74.316 421.594 74.358 421.874 74.358C422.154 74.358 422.411 74.316 422.644 74.232C422.887 74.1387 423.092 74.008 423.26 73.84C423.438 73.672 423.578 73.4713 423.68 73.238C423.783 72.9953 423.834 72.7293 423.834 72.44C423.834 72.1507 423.783 71.8893 423.68 71.656C423.578 71.4227 423.438 71.222 423.26 71.054C423.092 70.886 422.887 70.76 422.644 70.676C422.411 70.5827 422.154 70.536 421.874 70.536C421.594 70.536 421.338 70.5827 421.104 70.676C420.871 70.76 420.666 70.886 420.488 71.054C420.311 71.222 420.171 71.4227 420.068 71.656C419.975 71.8893 419.928 72.1507 419.928 72.44ZM421.678 79.664H428.734V80.84H420.222V76.752H421.678V79.664ZM440.269 71.824V68.45H441.711V77.69H440.269V73.014H437.973V71.824H440.269ZM438.043 75.898C437.343 75.6553 436.741 75.3007 436.237 74.834C435.743 74.358 435.36 73.8073 435.089 73.182C434.809 73.882 434.408 74.4933 433.885 75.016C433.363 75.5293 432.723 75.9167 431.967 76.178L431.225 75.044C431.72 74.876 432.159 74.652 432.541 74.372C432.924 74.0827 433.246 73.7607 433.507 73.406C433.778 73.042 433.983 72.6547 434.123 72.244C434.263 71.824 434.333 71.404 434.333 70.984V70.55H431.659V69.388H438.421V70.55H435.789V70.984C435.789 71.376 435.855 71.7633 435.985 72.146C436.116 72.5193 436.307 72.874 436.559 73.21C436.811 73.546 437.119 73.8493 437.483 74.12C437.857 74.3907 438.281 74.61 438.757 74.778L438.043 75.898ZM442.033 79.664V80.84H433.521V76.892H434.963V79.664H442.033ZM457.721 68.436V81.092H456.265V74.596H453.549V73.406H456.265V68.436H457.721ZM453.605 69.766C453.605 70.69 453.512 71.5813 453.325 72.44C453.138 73.2987 452.826 74.1107 452.387 74.876C451.948 75.632 451.365 76.3413 450.637 77.004C449.918 77.6573 449.022 78.25 447.949 78.782L447.179 77.662C448 77.2513 448.71 76.808 449.307 76.332C449.904 75.8467 450.404 75.324 450.805 74.764C451.206 74.204 451.514 73.6067 451.729 72.972C451.944 72.3373 452.079 71.6607 452.135 70.942H447.739V69.766H453.605ZM470.908 68.436V81.064H469.536V74.498H468.038V80.448H466.68V68.688H468.038V73.322H469.536V68.436H470.908ZM461.906 76.962C462.578 76.9527 463.227 76.9293 463.852 76.892C464.487 76.8453 465.168 76.7613 465.896 76.64L466.022 77.816C465.173 77.9653 464.379 78.0587 463.642 78.096C462.914 78.1333 462.158 78.152 461.374 78.152H460.52V73.224H463.852V70.914H460.492V69.738H465.238V74.386H461.906V76.962Z" fill="#31383F"/>
<circle cx="144" cy="75" r="2" fill="#31383F"/>
<circle cx="265" cy="75" r="2" fill="#31383F"/>
<circle cx="353" cy="75" r="2" fill="#31383F"/>
</g>
<path opacity="0.5" d="M121 198H88V99.5L96 107.5" stroke="#31383F"/>
<path opacity="0.5" d="M669 194H718V292.5L710 284.5" stroke="#31383F"/>
</svg>
