<svg width="39" height="56" viewBox="0 0 39 56" fill="none" xmlns="http://www.w3.org/2000/svg">
<path d="M31.9466 13.2624V0H8.04956V13.2624C-0.103072 19.839 -1.37521 31.7629 5.21118 39.9034C6.05244 40.9483 7.00312 41.8976 8.04956 42.7376V56H31.9466V42.7376C40.0992 36.161 41.3714 24.2371 34.785 16.0966C33.9437 15.0517 32.993 14.1024 31.9466 13.2624ZM10.7853 2.73171H29.2108V11.4185C23.4794 8.2361 16.5168 8.2361 10.7853 11.4185V2.73171ZM29.2108 53.2683H10.7853V44.5883C16.5168 47.7707 23.4794 47.7707 29.2108 44.5883V53.2683ZM19.9981 44.24C11.0179 44.24 3.73386 36.9668 3.73386 28C3.73386 19.0332 11.0179 11.76 19.9981 11.76C28.9783 11.76 36.2623 19.0332 36.2623 28C36.2486 36.9668 28.9783 44.2263 19.9981 44.24Z" fill="#31383F"/>
<path d="M21.3666 18.0771H18.6309V29.3659H28.336V26.6342H21.3666V18.0771Z" fill="#31383F"/>
</svg>
