<svg width="28" height="28" viewBox="0 0 28 28" fill="none" xmlns="http://www.w3.org/2000/svg">
<path d="M8.07342 12.229C7.67465 12.229 7.35352 12.5537 7.35352 12.9524C7.35352 13.3512 7.67818 13.6759 8.07342 13.6759C8.47219 13.6759 8.79685 13.3512 8.79685 12.9524C8.79685 12.5537 8.47219 12.229 8.07342 12.229Z" fill="white"/>
<path d="M15.2056 12.1548C14.775 12.1548 14.4292 12.5041 14.4292 12.9312C14.4292 13.3617 14.7786 13.7075 15.2056 13.7075C15.6361 13.7075 15.9819 13.3582 15.9819 12.9312C15.9819 12.5006 15.6326 12.1548 15.2056 12.1548Z" fill="white"/>
<path d="M21.6599 5.05469H6.30551C4.7563 5.05469 3.5 6.31099 3.5 7.86019V16.9719C3.5 18.5211 4.7563 19.7774 6.30551 19.7774H11.7295L13.5751 24.1215C13.5751 24.1215 13.7022 24.4991 14.0092 24.4991C14.3162 24.4991 14.4432 24.1215 14.4432 24.1215L16.2889 19.7774H21.6634C23.2126 19.7774 24.4689 18.5211 24.4689 16.9719V7.86019C24.4619 6.31099 23.2056 5.05469 21.6599 5.05469ZM10.085 13.1113C10.0779 14.7769 8.35229 14.8263 8.35229 14.8263C7.68532 14.8263 7.31125 14.3852 7.31125 14.3852V14.6852H6.05848V9.50821C6.05495 9.50821 6.05142 9.50468 6.05848 9.50468V9.50821C6.13612 9.52232 7.31125 9.50468 7.31125 9.50468V11.4844C7.60768 10.9798 8.45816 10.9904 8.45816 10.9904C10.3179 11.1633 10.085 13.1113 10.085 13.1113ZM12.2941 11.1492V14.6922H11.066V11.1845C11.066 10.708 10.4732 10.5739 10.4732 10.5739V9.33882C12.4353 9.41645 12.2941 11.1492 12.2941 11.1492ZM15.2055 14.8263C14.0692 14.8263 13.1481 13.9794 13.1481 12.9313C13.1481 11.8832 14.0692 11.0362 15.2055 11.0362C16.3418 11.0362 17.2629 11.8832 17.2629 12.9313C17.2629 13.9758 16.3418 14.8263 15.2055 14.8263ZM21.9316 14.8263C21.9316 14.8263 21.9493 16.6261 20.1213 16.6261H19.5637V15.4615H19.899C19.899 15.4615 20.6683 15.5321 20.6577 14.3499C20.6577 14.3499 20.506 14.8298 19.4296 14.8298C19.4296 14.8298 17.9016 14.7204 17.9016 13.2277V12.6631C17.9016 12.6631 17.9369 11.1174 19.6167 10.9939C19.6167 10.9939 20.2801 10.9233 20.6859 11.4703V11.0892H21.9316V14.8263Z" fill="white"/>
<path d="M19.9765 12.1724C19.5566 12.1724 19.2178 12.5111 19.2178 12.9311C19.2178 13.351 19.5566 13.6898 19.9765 13.6898C20.3964 13.6898 20.7352 13.351 20.7352 12.9311C20.7387 12.5111 20.3964 12.1724 19.9765 12.1724Z" fill="white"/>
</svg>
