<svg width="28" height="28" viewBox="0 0 28 28" fill="none" xmlns="http://www.w3.org/2000/svg">
<path d="M11.9589 12.1611L11.2495 14.1852H12.6903L11.9814 12.1633C11.9737 12.1633 11.9672 12.1611 11.9589 12.1611Z" fill="white"/>
<path d="M14.0826 5.05469C8.23786 5.05469 3.5 8.80024 3.5 13.4208C3.5 16.4284 5.50764 19.0638 8.52021 20.5385C8.29872 21.3653 7.71868 23.5325 7.60246 23.9963C7.45937 24.5719 7.81353 24.5643 8.04543 24.4091C8.22745 24.2879 10.9456 22.4404 12.1183 21.6427C12.7548 21.737 13.411 21.7869 14.0826 21.7869C19.9274 21.7869 24.6652 18.0408 24.6652 13.4208C24.6652 8.80024 19.9274 5.05469 14.0826 5.05469ZM8.87382 15.7168C8.87382 15.8522 8.81845 15.9843 8.72251 16.0803C8.62766 16.1751 8.49608 16.2305 8.36122 16.2305H8.24883C8.11341 16.2305 7.98129 16.1757 7.88699 16.0803C7.7905 15.9843 7.73568 15.8517 7.73568 15.7168V12.0096H6.72966C6.43855 12.0096 6.20336 11.7739 6.20336 11.4833C6.20336 11.1927 6.4391 10.957 6.72966 10.957H9.82446C10.1156 10.957 10.3513 11.1927 10.3513 11.4833C10.3513 11.7739 10.1156 12.0096 9.82446 12.0096H8.87382V15.7168ZM13.9401 16.2031C13.6736 16.2968 13.3814 16.1565 13.2877 15.89L13.0256 15.1412H10.9149L10.6523 15.89C10.5586 16.1565 10.2663 16.2968 9.9999 16.2031C9.734 16.1093 9.59365 15.8177 9.6874 15.5507L11.2038 11.4828C11.2121 11.4586 11.223 11.4356 11.2334 11.4137C11.2954 11.1127 11.6068 10.8824 11.9834 10.8824C12.3228 10.8824 12.6073 11.0699 12.706 11.3265C12.7076 11.3276 12.7109 11.3315 12.7109 11.3315L14.2531 15.5507C14.3469 15.8177 14.206 16.1099 13.9401 16.2031ZM17.2613 16.196H15.1583C14.8935 16.196 14.6807 15.9821 14.6807 15.7179C14.6807 15.6872 14.684 15.6565 14.6895 15.6269C14.6846 15.5967 14.6807 15.5671 14.6807 15.5353V11.4543C14.6807 11.1385 14.9362 10.883 15.252 10.883C15.5672 10.883 15.8227 11.1385 15.8227 11.4543V15.2404H17.2618C17.5266 15.2404 17.7394 15.4547 17.7394 15.7179C17.7388 15.9821 17.5261 16.196 17.2613 16.196ZM21.7585 16.1291C21.5332 16.299 21.2124 16.253 21.0436 16.0277L19.5266 14.037L19.2004 14.3627V15.6603C19.2004 15.9761 18.9449 16.2316 18.6297 16.2316C18.3145 16.2316 18.0584 15.9767 18.0584 15.6603V11.4537C18.0584 11.1379 18.3139 10.8824 18.6297 10.8824C18.9449 10.8824 19.2004 11.1379 19.2004 11.4537V12.9411L20.9942 11.1472C21.1911 10.951 21.5096 10.951 21.7053 11.1472C21.9016 11.3435 21.9016 11.662 21.7053 11.8578L20.2563 13.3073L21.8599 15.4136C22.0293 15.6395 21.9838 15.9597 21.7585 16.1291Z" fill="white"/>
</svg>
