<svg width="28" height="28" viewBox="0 0 28 28" fill="none" xmlns="http://www.w3.org/2000/svg">
<path d="M11.4673 22.1669C18.6899 22.1669 22.6414 16.1816 22.6414 10.9927C22.6414 10.8245 22.6377 10.6525 22.6302 10.4842C23.3989 9.92828 24.0623 9.23971 24.5892 8.45083C23.8733 8.76935 23.1132 8.97737 22.3348 9.06779C23.1544 8.57655 23.768 7.80484 24.062 6.8957C23.291 7.35261 22.4478 7.67493 21.5687 7.84882C20.9763 7.2194 20.1931 6.80265 19.3401 6.66301C18.4871 6.52336 17.6119 6.66859 16.8498 7.07625C16.0876 7.4839 15.481 8.13128 15.1236 8.91829C14.7663 9.70529 14.6782 10.5881 14.8729 11.4302C13.3118 11.3519 11.7846 10.9463 10.3903 10.2399C8.99592 9.53345 7.76562 8.54188 6.77909 7.32945C6.27769 8.19393 6.12426 9.21689 6.34998 10.1904C6.57571 11.164 7.16366 12.015 7.99433 12.5707C7.37071 12.5509 6.76075 12.383 6.21485 12.0808V12.1294C6.21429 13.0366 6.52792 13.916 7.10243 14.6182C7.67694 15.3203 8.47686 15.8018 9.36623 15.9808C8.78855 16.1388 8.18224 16.1619 7.59423 16.0481C7.8452 16.8283 8.33348 17.5107 8.99093 18C9.64839 18.4894 10.4422 18.7612 11.2616 18.7777C9.87051 19.8704 8.15208 20.4631 6.38311 20.4603C6.0694 20.4598 5.756 20.4406 5.44458 20.4027C7.24166 21.5557 9.33215 22.168 11.4673 22.1669Z" fill="white"/>
</svg>
