<svg width="124" height="32" viewBox="0 0 124 32" fill="none" xmlns="http://www.w3.org/2000/svg">
<path d="M22.73 12.07C22.67 12.07 22.61 12.1 22.58 12.14L22.57 12.13L19.51 14.88L13.86 10.25L13.85 10.27C13.82 10.25 13.79 10.24 13.75 10.24C13.64 10.24 13.54 10.33 13.54 10.45C13.54 10.5 13.56 10.54 13.58 10.57V10.58L18.97 15.52C19.17 15.69 19.39 15.8 19.57 15.8C19.64 15.8 19.7 15.78 19.74 15.76C19.82 15.73 19.89 15.69 19.96 15.63L22.86 12.47C22.92 12.43 22.96 12.37 22.96 12.3C22.94 12.17 22.85 12.07 22.73 12.07Z" fill="black"/>
<path d="M28.96 15.0001C28.96 9.67008 24.62 5.33008 19.29 5.33008C13.96 5.33008 9.62 9.67008 9.62 15.0001C9.62 20.3301 13.96 24.6701 19.29 24.6701C24.62 24.6701 28.96 20.3301 28.96 15.0001ZM19.29 6.64008C23.9 6.64008 27.65 10.3901 27.65 15.0001C27.65 19.6101 23.9 23.3601 19.29 23.3601C14.68 23.3601 10.93 19.6101 10.93 15.0001C10.93 10.3901 14.68 6.64008 19.29 6.64008Z" fill="black"/>
<path d="M33.74 3H19.29C12.67 3 7.29004 8.38 7.29004 15V15.05C7.31004 15.35 7.52004 17.99 8.45004 19.3C8.57004 19.47 8.77004 19.58 8.98004 19.58C9.12004 19.58 9.25004 19.54 9.36004 19.46C9.65004 19.25 9.72004 18.84 9.52004 18.55C8.82004 17.57 8.62004 15.2 8.60004 14.98C8.61004 9.09 13.4 4.31 19.29 4.31H33.75C34.11 4.31 34.41 4.02 34.41 3.66C34.4 3.29 34.1 3 33.74 3Z" fill="black"/>
<path d="M30.03 11.54C29.91 11.54 29.8 11.57 29.7 11.63C29.39 11.81 29.28 12.22 29.47 12.53C30.03 13.49 29.98 14.96 29.98 14.98V15C29.98 20.89 25.18 25.69 19.29 25.69H4.66C4.29 25.69 4 25.98 4 26.34C4 26.7 4.29 27 4.66 27H19.29C25.9 27 31.28 21.62 31.29 15.01C31.3 14.79 31.34 13.11 30.6 11.86C30.48 11.66 30.27 11.54 30.03 11.54Z" fill="black"/>
<path d="M45.8801 22.4901H43.7401V16.2201H41.94V22.4901H39.8V9.36011H41.94V14.2901H43.7401V9.36011H45.8801V22.4901Z" fill="black"/>
<path d="M54.61 18.7599H52.47V9.37988H54.61V18.7599Z" fill="black"/>
<path d="M67.38 20.39C67.38 21.19 67.0399 21.8 66.3699 22.2C65.8199 22.52 65.12 22.68 64.27 22.68C63.42 22.68 62.7199 22.52 62.1899 22.2C61.5299 21.79 61.2 21.19 61.2 20.39V17.31H63.34V20.21C63.34 20.68 63.66 20.92 64.29 20.92C64.93 20.92 65.25 20.68 65.25 20.21V18.87C65.25 18.36 64.9 17.75 64.2 17.04C63.55 16.42 62.9 15.79 62.25 15.17C61.55 14.43 61.2 13.77 61.2 13.18V11.33C61.2 10.53 61.5299 9.93005 62.1899 9.53005C62.7299 9.21005 63.42 9.05005 64.27 9.05005C65.12 9.05005 65.8199 9.21005 66.3699 9.53005C67.0499 9.92005 67.38 10.52 67.38 11.33V14.2H65.24V11.49C65.24 11.06 64.9199 10.84 64.2799 10.84C63.6399 10.84 63.33 11.06 63.33 11.49V13.08C63.33 13.36 64 14.15 65.36 15.46C66.71 16.77 67.38 17.65 67.38 18.11V20.39Z" fill="black"/>
<path d="M76.11 22.5101H73.97V13.1001H76.11V22.5101Z" fill="black"/>
<path d="M88.8699 22.43H87.1999C87.1999 22.33 87.1899 22.16 87.1599 21.93C86.6799 22.43 86.0999 22.68 85.4199 22.68C84.7099 22.68 84.0999 22.51 83.5999 22.18C82.9899 21.77 82.6799 21.17 82.6799 20.38V11.33C82.6799 10.54 82.9999 9.94005 83.6499 9.53005C84.1899 9.21005 84.8799 9.05005 85.7299 9.05005C86.5799 9.05005 87.2799 9.21005 87.8299 9.53005C88.5099 9.94005 88.8399 10.54 88.8399 11.33V14.22H86.6999V11.49C86.6999 11.06 86.3799 10.84 85.7499 10.84C85.1299 10.84 84.8099 11.06 84.8099 11.49V20.22C84.8099 20.69 85.1199 20.93 85.7499 20.93C86.3899 20.93 86.6999 20.69 86.6999 20.22V17.56H86.0299V15.78H88.8399V22.43H88.8699Z" fill="black"/>
<path d="M102.54 22.4901H100.5L100.02 18.9901H97.94L97.46 22.4901H95.45L97.19 9.36011H100.76L102.54 22.4901ZM99.75 17.0601L99.12 12.0501H98.85L98.18 17.0601H99.75Z" fill="black"/>
<path d="M116.43 22.4901H112.88L111.28 12.2901L111.11 12.3101V22.4901H109.14V9.36011H112.66L114.3 19.4701L114.47 19.4501V9.36011H116.44V22.4901H116.43Z" fill="black"/>
<path d="M54.61 20.24H52.47V22.49H54.61V20.24Z" fill="black"/>
<path d="M76.11 9.1499H73.97V11.3999H76.11V9.1499Z" fill="black"/>
</svg>
