<svg width="28" height="28" viewBox="0 0 28 28" fill="none" xmlns="http://www.w3.org/2000/svg">
<path d="M5.83319 6.125H22.1665C22.4072 6.125 22.638 6.21719 22.8082 6.38128C22.9783 6.54538 23.0739 6.76794 23.0739 7V21C23.0739 21.2321 22.9783 21.4546 22.8082 21.6187C22.638 21.7828 22.4072 21.875 22.1665 21.875H5.83319C5.59253 21.875 5.36173 21.7828 5.19155 21.6187C5.02138 21.4546 4.92578 21.2321 4.92578 21V7C4.92578 6.76794 5.02138 6.54538 5.19155 6.38128C5.36173 6.21719 5.59253 6.125 5.83319 6.125ZM14.0543 13.7226L8.236 8.95825L7.06091 10.2917L14.0661 16.0274L20.9452 10.2874L19.7583 8.9635L14.0552 13.7226H14.0543Z" fill="white"/>
</svg>
