<svg width="920" height="400" viewBox="0 0 920 400" fill="none" xmlns="http://www.w3.org/2000/svg">
<path d="M47.2863 64.424L42.0863 75H40.1663L44.9343 65.64C45.0729 65.3413 45.2596 65.0587 45.4943 64.792H39.1743V63.176H47.2863V64.424ZM48.8655 72.968H50.7535L49.7295 76.296H48.2575L48.8655 72.968ZM60.447 69.096C60.447 69.8 60.3777 70.5093 60.239 71.224C60.1003 71.9387 59.8603 72.5893 59.519 73.176C59.1883 73.752 58.7457 74.2213 58.191 74.584C57.6363 74.9467 56.9483 75.128 56.127 75.128C55.3057 75.128 54.6177 74.9467 54.063 74.584C53.5083 74.2213 53.0657 73.752 52.735 73.176C52.4043 72.5893 52.1697 71.9387 52.031 71.224C51.8923 70.5093 51.823 69.8 51.823 69.096C51.823 68.392 51.8923 67.6827 52.031 66.968C52.1697 66.2427 52.4043 65.592 52.735 65.016C53.0657 64.44 53.5083 63.9707 54.063 63.608C54.6177 63.2347 55.3057 63.048 56.127 63.048C56.959 63.048 57.6523 63.2347 58.207 63.608C58.7617 63.9813 59.2043 64.4613 59.535 65.048C59.8657 65.6347 60.1003 66.2853 60.239 67C60.3777 67.7147 60.447 68.4133 60.447 69.096ZM58.623 69.096C58.623 68.68 58.5963 68.2107 58.543 67.688C58.4897 67.1653 58.3723 66.6693 58.191 66.2C58.0203 65.7307 57.7697 65.336 57.439 65.016C57.119 64.696 56.6817 64.536 56.127 64.536C55.5723 64.536 55.1297 64.696 54.799 65.016C54.479 65.336 54.2283 65.7307 54.047 66.2C53.8763 66.6693 53.7643 67.1653 53.711 67.688C53.6577 68.2107 53.631 68.68 53.631 69.096C53.631 69.512 53.6577 69.9813 53.711 70.504C53.7643 71.0267 53.8763 71.5227 54.047 71.992C54.2283 72.4613 54.4843 72.856 54.815 73.176C55.1457 73.496 55.583 73.656 56.127 73.656C56.6817 73.656 57.119 73.496 57.439 73.176C57.7697 72.856 58.0203 72.4613 58.191 71.992C58.3723 71.5227 58.4897 71.0267 58.543 70.504C58.5963 69.9813 58.623 69.512 58.623 69.096ZM69.9783 69.096C69.9783 69.8 69.9089 70.5093 69.7703 71.224C69.6316 71.9387 69.3916 72.5893 69.0503 73.176C68.7196 73.752 68.2769 74.2213 67.7223 74.584C67.1676 74.9467 66.4796 75.128 65.6583 75.128C64.8369 75.128 64.1489 74.9467 63.5943 74.584C63.0396 74.2213 62.5969 73.752 62.2663 73.176C61.9356 72.5893 61.7009 71.9387 61.5623 71.224C61.4236 70.5093 61.3543 69.8 61.3543 69.096C61.3543 68.392 61.4236 67.6827 61.5623 66.968C61.7009 66.2427 61.9356 65.592 62.2663 65.016C62.5969 64.44 63.0396 63.9707 63.5943 63.608C64.1489 63.2347 64.8369 63.048 65.6583 63.048C66.4903 63.048 67.1836 63.2347 67.7383 63.608C68.2929 63.9813 68.7356 64.4613 69.0663 65.048C69.3969 65.6347 69.6316 66.2853 69.7703 67C69.9089 67.7147 69.9783 68.4133 69.9783 69.096ZM68.1543 69.096C68.1543 68.68 68.1276 68.2107 68.0743 67.688C68.0209 67.1653 67.9036 66.6693 67.7223 66.2C67.5516 65.7307 67.3009 65.336 66.9703 65.016C66.6503 64.696 66.2129 64.536 65.6583 64.536C65.1036 64.536 64.6609 64.696 64.3303 65.016C64.0103 65.336 63.7596 65.7307 63.5783 66.2C63.4076 66.6693 63.2956 67.1653 63.2423 67.688C63.1889 68.2107 63.1623 68.68 63.1623 69.096C63.1623 69.512 63.1889 69.9813 63.2423 70.504C63.2956 71.0267 63.4076 71.5227 63.5783 71.992C63.7596 72.4613 64.0156 72.856 64.3463 73.176C64.6769 73.496 65.1143 73.656 65.6583 73.656C66.2129 73.656 66.6503 73.496 66.9703 73.176C67.3009 72.856 67.5516 72.4613 67.7223 71.992C67.9036 71.5227 68.0209 71.0267 68.0743 70.504C68.1276 69.9813 68.1543 69.512 68.1543 69.096ZM79.5095 69.096C79.5095 69.8 79.4402 70.5093 79.3015 71.224C79.1628 71.9387 78.9228 72.5893 78.5815 73.176C78.2508 73.752 77.8082 74.2213 77.2535 74.584C76.6988 74.9467 76.0108 75.128 75.1895 75.128C74.3682 75.128 73.6802 74.9467 73.1255 74.584C72.5708 74.2213 72.1282 73.752 71.7975 73.176C71.4668 72.5893 71.2322 71.9387 71.0935 71.224C70.9548 70.5093 70.8855 69.8 70.8855 69.096C70.8855 68.392 70.9548 67.6827 71.0935 66.968C71.2322 66.2427 71.4668 65.592 71.7975 65.016C72.1282 64.44 72.5708 63.9707 73.1255 63.608C73.6802 63.2347 74.3682 63.048 75.1895 63.048C76.0215 63.048 76.7148 63.2347 77.2695 63.608C77.8242 63.9813 78.2668 64.4613 78.5975 65.048C78.9282 65.6347 79.1628 66.2853 79.3015 67C79.4402 67.7147 79.5095 68.4133 79.5095 69.096ZM77.6855 69.096C77.6855 68.68 77.6588 68.2107 77.6055 67.688C77.5522 67.1653 77.4348 66.6693 77.2535 66.2C77.0828 65.7307 76.8322 65.336 76.5015 65.016C76.1815 64.696 75.7442 64.536 75.1895 64.536C74.6348 64.536 74.1922 64.696 73.8615 65.016C73.5415 65.336 73.2908 65.7307 73.1095 66.2C72.9388 66.6693 72.8268 67.1653 72.7735 67.688C72.7202 68.2107 72.6935 68.68 72.6935 69.096C72.6935 69.512 72.7202 69.9813 72.7735 70.504C72.8268 71.0267 72.9388 71.5227 73.1095 71.992C73.2908 72.4613 73.5468 72.856 73.8775 73.176C74.2082 73.496 74.6455 73.656 75.1895 73.656C75.7442 73.656 76.1815 73.496 76.5015 73.176C76.8322 72.856 77.0828 72.4613 77.2535 71.992C77.4348 71.5227 77.5522 71.0267 77.6055 70.504C77.6588 69.9813 77.6855 69.512 77.6855 69.096ZM80.8968 72.968H82.7848L81.7608 76.296H80.2888L80.8968 72.968ZM92.4783 69.096C92.4783 69.8 92.4089 70.5093 92.2703 71.224C92.1316 71.9387 91.8916 72.5893 91.5503 73.176C91.2196 73.752 90.7769 74.2213 90.2223 74.584C89.6676 74.9467 88.9796 75.128 88.1583 75.128C87.3369 75.128 86.6489 74.9467 86.0943 74.584C85.5396 74.2213 85.0969 73.752 84.7663 73.176C84.4356 72.5893 84.2009 71.9387 84.0623 71.224C83.9236 70.5093 83.8543 69.8 83.8543 69.096C83.8543 68.392 83.9236 67.6827 84.0623 66.968C84.2009 66.2427 84.4356 65.592 84.7663 65.016C85.0969 64.44 85.5396 63.9707 86.0943 63.608C86.6489 63.2347 87.3369 63.048 88.1583 63.048C88.9903 63.048 89.6836 63.2347 90.2383 63.608C90.7929 63.9813 91.2356 64.4613 91.5663 65.048C91.8969 65.6347 92.1316 66.2853 92.2703 67C92.4089 67.7147 92.4783 68.4133 92.4783 69.096ZM90.6543 69.096C90.6543 68.68 90.6276 68.2107 90.5743 67.688C90.5209 67.1653 90.4036 66.6693 90.2223 66.2C90.0516 65.7307 89.8009 65.336 89.4703 65.016C89.1503 64.696 88.7129 64.536 88.1583 64.536C87.6036 64.536 87.1609 64.696 86.8303 65.016C86.5103 65.336 86.2596 65.7307 86.0783 66.2C85.9076 66.6693 85.7956 67.1653 85.7423 67.688C85.6889 68.2107 85.6623 68.68 85.6623 69.096C85.6623 69.512 85.6889 69.9813 85.7423 70.504C85.7956 71.0267 85.9076 71.5227 86.0783 71.992C86.2596 72.4613 86.5156 72.856 86.8463 73.176C87.1769 73.496 87.6143 73.656 88.1583 73.656C88.7129 73.656 89.1503 73.496 89.4703 73.176C89.8009 72.856 90.0516 72.4613 90.2223 71.992C90.4036 71.5227 90.5209 71.0267 90.5743 70.504C90.6276 69.9813 90.6543 69.512 90.6543 69.096ZM102.01 69.096C102.01 69.8 101.94 70.5093 101.802 71.224C101.663 71.9387 101.423 72.5893 101.082 73.176C100.751 73.752 100.308 74.2213 99.7535 74.584C99.1988 74.9467 98.5108 75.128 97.6895 75.128C96.8682 75.128 96.1802 74.9467 95.6255 74.584C95.0708 74.2213 94.6282 73.752 94.2975 73.176C93.9668 72.5893 93.7322 71.9387 93.5935 71.224C93.4548 70.5093 93.3855 69.8 93.3855 69.096C93.3855 68.392 93.4548 67.6827 93.5935 66.968C93.7322 66.2427 93.9668 65.592 94.2975 65.016C94.6282 64.44 95.0708 63.9707 95.6255 63.608C96.1802 63.2347 96.8682 63.048 97.6895 63.048C98.5215 63.048 99.2148 63.2347 99.7695 63.608C100.324 63.9813 100.767 64.4613 101.098 65.048C101.428 65.6347 101.663 66.2853 101.802 67C101.94 67.7147 102.01 68.4133 102.01 69.096ZM100.186 69.096C100.186 68.68 100.159 68.2107 100.106 67.688C100.052 67.1653 99.9348 66.6693 99.7535 66.2C99.5828 65.7307 99.3322 65.336 99.0015 65.016C98.6815 64.696 98.2442 64.536 97.6895 64.536C97.1348 64.536 96.6922 64.696 96.3615 65.016C96.0415 65.336 95.7908 65.7307 95.6095 66.2C95.4388 66.6693 95.3268 67.1653 95.2735 67.688C95.2202 68.2107 95.1935 68.68 95.1935 69.096C95.1935 69.512 95.2202 69.9813 95.2735 70.504C95.3268 71.0267 95.4388 71.5227 95.6095 71.992C95.7908 72.4613 96.0468 72.856 96.3775 73.176C96.7082 73.496 97.1455 73.656 97.6895 73.656C98.2442 73.656 98.6815 73.496 99.0015 73.176C99.3322 72.856 99.5828 72.4613 99.7535 71.992C99.9348 71.5227 100.052 71.0267 100.106 70.504C100.159 69.9813 100.186 69.512 100.186 69.096ZM111.541 69.096C111.541 69.8 111.471 70.5093 111.333 71.224C111.194 71.9387 110.954 72.5893 110.613 73.176C110.282 73.752 109.839 74.2213 109.285 74.584C108.73 74.9467 108.042 75.128 107.221 75.128C106.399 75.128 105.711 74.9467 105.157 74.584C104.602 74.2213 104.159 73.752 103.829 73.176C103.498 72.5893 103.263 71.9387 103.125 71.224C102.986 70.5093 102.917 69.8 102.917 69.096C102.917 68.392 102.986 67.6827 103.125 66.968C103.263 66.2427 103.498 65.592 103.829 65.016C104.159 64.44 104.602 63.9707 105.157 63.608C105.711 63.2347 106.399 63.048 107.221 63.048C108.053 63.048 108.746 63.2347 109.301 63.608C109.855 63.9813 110.298 64.4613 110.629 65.048C110.959 65.6347 111.194 66.2853 111.333 67C111.471 67.7147 111.541 68.4133 111.541 69.096ZM109.717 69.096C109.717 68.68 109.69 68.2107 109.637 67.688C109.583 67.1653 109.466 66.6693 109.285 66.2C109.114 65.7307 108.863 65.336 108.533 65.016C108.213 64.696 107.775 64.536 107.221 64.536C106.666 64.536 106.223 64.696 105.893 65.016C105.573 65.336 105.322 65.7307 105.141 66.2C104.97 66.6693 104.858 67.1653 104.805 67.688C104.751 68.2107 104.725 68.68 104.725 69.096C104.725 69.512 104.751 69.9813 104.805 70.504C104.858 71.0267 104.97 71.5227 105.141 71.992C105.322 72.4613 105.578 72.856 105.909 73.176C106.239 73.496 106.677 73.656 107.221 73.656C107.775 73.656 108.213 73.496 108.533 73.176C108.863 72.856 109.114 72.4613 109.285 71.992C109.466 71.5227 109.583 71.0267 109.637 70.504C109.69 69.9813 109.717 69.512 109.717 69.096Z" fill="#31383F"/>
<path d="M46.0063 163.176L42.0063 168.136C42.5609 167.827 43.1583 167.672 43.7983 167.672C44.3316 167.672 44.8116 167.763 45.2383 167.944C45.6756 168.115 46.0436 168.36 46.3423 168.68C46.6516 168.989 46.8863 169.363 47.0463 169.8C47.2169 170.227 47.3023 170.696 47.3023 171.208C47.3023 171.784 47.1956 172.312 46.9823 172.792C46.7689 173.272 46.4756 173.688 46.1023 174.04C45.7289 174.381 45.2916 174.648 44.7903 174.84C44.2889 175.032 43.7503 175.128 43.1743 175.128C42.5663 175.128 42.0116 175.032 41.5103 174.84C41.0196 174.648 40.5983 174.376 40.2463 174.024C39.9049 173.661 39.6383 173.229 39.4463 172.728C39.2649 172.216 39.1743 171.645 39.1743 171.016C39.1743 170.376 39.3129 169.757 39.5903 169.16C39.8783 168.552 40.2089 167.997 40.5823 167.496L43.8143 163.176H46.0063ZM43.1423 173.672C43.4729 173.672 43.7823 173.619 44.0703 173.512C44.3689 173.395 44.6249 173.235 44.8383 173.032C45.0516 172.819 45.2223 172.573 45.3503 172.296C45.4783 172.008 45.5423 171.688 45.5423 171.336C45.5423 170.632 45.3289 170.072 44.9023 169.656C44.4756 169.229 43.9103 169.016 43.2063 169.016C42.8756 169.016 42.5663 169.075 42.2783 169.192C41.9903 169.309 41.7396 169.469 41.5263 169.672C41.3236 169.875 41.1636 170.115 41.0463 170.392C40.9289 170.669 40.8703 170.973 40.8703 171.304C40.8703 171.997 41.0623 172.568 41.4463 173.016C41.8409 173.453 42.4063 173.672 43.1423 173.672ZM48.8655 172.968H50.7535L49.7295 176.296H48.2575L48.8655 172.968ZM60.447 169.096C60.447 169.8 60.3777 170.509 60.239 171.224C60.1003 171.939 59.8603 172.589 59.519 173.176C59.1883 173.752 58.7457 174.221 58.191 174.584C57.6363 174.947 56.9483 175.128 56.127 175.128C55.3057 175.128 54.6177 174.947 54.063 174.584C53.5083 174.221 53.0657 173.752 52.735 173.176C52.4043 172.589 52.1697 171.939 52.031 171.224C51.8923 170.509 51.823 169.8 51.823 169.096C51.823 168.392 51.8923 167.683 52.031 166.968C52.1697 166.243 52.4043 165.592 52.735 165.016C53.0657 164.44 53.5083 163.971 54.063 163.608C54.6177 163.235 55.3057 163.048 56.127 163.048C56.959 163.048 57.6523 163.235 58.207 163.608C58.7617 163.981 59.2043 164.461 59.535 165.048C59.8657 165.635 60.1003 166.285 60.239 167C60.3777 167.715 60.447 168.413 60.447 169.096ZM58.623 169.096C58.623 168.68 58.5963 168.211 58.543 167.688C58.4897 167.165 58.3723 166.669 58.191 166.2C58.0203 165.731 57.7697 165.336 57.439 165.016C57.119 164.696 56.6817 164.536 56.127 164.536C55.5723 164.536 55.1297 164.696 54.799 165.016C54.479 165.336 54.2283 165.731 54.047 166.2C53.8763 166.669 53.7643 167.165 53.711 167.688C53.6577 168.211 53.631 168.68 53.631 169.096C53.631 169.512 53.6577 169.981 53.711 170.504C53.7643 171.027 53.8763 171.523 54.047 171.992C54.2283 172.461 54.4843 172.856 54.815 173.176C55.1457 173.496 55.583 173.656 56.127 173.656C56.6817 173.656 57.119 173.496 57.439 173.176C57.7697 172.856 58.0203 172.461 58.191 171.992C58.3723 171.523 58.4897 171.027 58.543 170.504C58.5963 169.981 58.623 169.512 58.623 169.096ZM69.9783 169.096C69.9783 169.8 69.9089 170.509 69.7703 171.224C69.6316 171.939 69.3916 172.589 69.0503 173.176C68.7196 173.752 68.2769 174.221 67.7223 174.584C67.1676 174.947 66.4796 175.128 65.6583 175.128C64.8369 175.128 64.1489 174.947 63.5943 174.584C63.0396 174.221 62.5969 173.752 62.2663 173.176C61.9356 172.589 61.7009 171.939 61.5623 171.224C61.4236 170.509 61.3543 169.8 61.3543 169.096C61.3543 168.392 61.4236 167.683 61.5623 166.968C61.7009 166.243 61.9356 165.592 62.2663 165.016C62.5969 164.44 63.0396 163.971 63.5943 163.608C64.1489 163.235 64.8369 163.048 65.6583 163.048C66.4903 163.048 67.1836 163.235 67.7383 163.608C68.2929 163.981 68.7356 164.461 69.0663 165.048C69.3969 165.635 69.6316 166.285 69.7703 167C69.9089 167.715 69.9783 168.413 69.9783 169.096ZM68.1543 169.096C68.1543 168.68 68.1276 168.211 68.0743 167.688C68.0209 167.165 67.9036 166.669 67.7223 166.2C67.5516 165.731 67.3009 165.336 66.9703 165.016C66.6503 164.696 66.2129 164.536 65.6583 164.536C65.1036 164.536 64.6609 164.696 64.3303 165.016C64.0103 165.336 63.7596 165.731 63.5783 166.2C63.4076 166.669 63.2956 167.165 63.2423 167.688C63.1889 168.211 63.1623 168.68 63.1623 169.096C63.1623 169.512 63.1889 169.981 63.2423 170.504C63.2956 171.027 63.4076 171.523 63.5783 171.992C63.7596 172.461 64.0156 172.856 64.3463 173.176C64.6769 173.496 65.1143 173.656 65.6583 173.656C66.2129 173.656 66.6503 173.496 66.9703 173.176C67.3009 172.856 67.5516 172.461 67.7223 171.992C67.9036 171.523 68.0209 171.027 68.0743 170.504C68.1276 169.981 68.1543 169.512 68.1543 169.096ZM79.5095 169.096C79.5095 169.8 79.4402 170.509 79.3015 171.224C79.1628 171.939 78.9228 172.589 78.5815 173.176C78.2508 173.752 77.8082 174.221 77.2535 174.584C76.6988 174.947 76.0108 175.128 75.1895 175.128C74.3682 175.128 73.6802 174.947 73.1255 174.584C72.5708 174.221 72.1282 173.752 71.7975 173.176C71.4668 172.589 71.2322 171.939 71.0935 171.224C70.9548 170.509 70.8855 169.8 70.8855 169.096C70.8855 168.392 70.9548 167.683 71.0935 166.968C71.2322 166.243 71.4668 165.592 71.7975 165.016C72.1282 164.44 72.5708 163.971 73.1255 163.608C73.6802 163.235 74.3682 163.048 75.1895 163.048C76.0215 163.048 76.7148 163.235 77.2695 163.608C77.8242 163.981 78.2668 164.461 78.5975 165.048C78.9282 165.635 79.1628 166.285 79.3015 167C79.4402 167.715 79.5095 168.413 79.5095 169.096ZM77.6855 169.096C77.6855 168.68 77.6588 168.211 77.6055 167.688C77.5522 167.165 77.4348 166.669 77.2535 166.2C77.0828 165.731 76.8322 165.336 76.5015 165.016C76.1815 164.696 75.7442 164.536 75.1895 164.536C74.6348 164.536 74.1922 164.696 73.8615 165.016C73.5415 165.336 73.2908 165.731 73.1095 166.2C72.9388 166.669 72.8268 167.165 72.7735 167.688C72.7202 168.211 72.6935 168.68 72.6935 169.096C72.6935 169.512 72.7202 169.981 72.7735 170.504C72.8268 171.027 72.9388 171.523 73.1095 171.992C73.2908 172.461 73.5468 172.856 73.8775 173.176C74.2082 173.496 74.6455 173.656 75.1895 173.656C75.7442 173.656 76.1815 173.496 76.5015 173.176C76.8322 172.856 77.0828 172.461 77.2535 171.992C77.4348 171.523 77.5522 171.027 77.6055 170.504C77.6588 169.981 77.6855 169.512 77.6855 169.096ZM80.8968 172.968H82.7848L81.7608 176.296H80.2888L80.8968 172.968ZM92.4783 169.096C92.4783 169.8 92.4089 170.509 92.2703 171.224C92.1316 171.939 91.8916 172.589 91.5503 173.176C91.2196 173.752 90.7769 174.221 90.2223 174.584C89.6676 174.947 88.9796 175.128 88.1583 175.128C87.3369 175.128 86.6489 174.947 86.0943 174.584C85.5396 174.221 85.0969 173.752 84.7663 173.176C84.4356 172.589 84.2009 171.939 84.0623 171.224C83.9236 170.509 83.8543 169.8 83.8543 169.096C83.8543 168.392 83.9236 167.683 84.0623 166.968C84.2009 166.243 84.4356 165.592 84.7663 165.016C85.0969 164.44 85.5396 163.971 86.0943 163.608C86.6489 163.235 87.3369 163.048 88.1583 163.048C88.9903 163.048 89.6836 163.235 90.2383 163.608C90.7929 163.981 91.2356 164.461 91.5663 165.048C91.8969 165.635 92.1316 166.285 92.2703 167C92.4089 167.715 92.4783 168.413 92.4783 169.096ZM90.6543 169.096C90.6543 168.68 90.6276 168.211 90.5743 167.688C90.5209 167.165 90.4036 166.669 90.2223 166.2C90.0516 165.731 89.8009 165.336 89.4703 165.016C89.1503 164.696 88.7129 164.536 88.1583 164.536C87.6036 164.536 87.1609 164.696 86.8303 165.016C86.5103 165.336 86.2596 165.731 86.0783 166.2C85.9076 166.669 85.7956 167.165 85.7423 167.688C85.6889 168.211 85.6623 168.68 85.6623 169.096C85.6623 169.512 85.6889 169.981 85.7423 170.504C85.7956 171.027 85.9076 171.523 86.0783 171.992C86.2596 172.461 86.5156 172.856 86.8463 173.176C87.1769 173.496 87.6143 173.656 88.1583 173.656C88.7129 173.656 89.1503 173.496 89.4703 173.176C89.8009 172.856 90.0516 172.461 90.2223 171.992C90.4036 171.523 90.5209 171.027 90.5743 170.504C90.6276 169.981 90.6543 169.512 90.6543 169.096ZM102.01 169.096C102.01 169.8 101.94 170.509 101.802 171.224C101.663 171.939 101.423 172.589 101.082 173.176C100.751 173.752 100.308 174.221 99.7535 174.584C99.1988 174.947 98.5108 175.128 97.6895 175.128C96.8682 175.128 96.1802 174.947 95.6255 174.584C95.0708 174.221 94.6282 173.752 94.2975 173.176C93.9668 172.589 93.7322 171.939 93.5935 171.224C93.4548 170.509 93.3855 169.8 93.3855 169.096C93.3855 168.392 93.4548 167.683 93.5935 166.968C93.7322 166.243 93.9668 165.592 94.2975 165.016C94.6282 164.44 95.0708 163.971 95.6255 163.608C96.1802 163.235 96.8682 163.048 97.6895 163.048C98.5215 163.048 99.2148 163.235 99.7695 163.608C100.324 163.981 100.767 164.461 101.098 165.048C101.428 165.635 101.663 166.285 101.802 167C101.94 167.715 102.01 168.413 102.01 169.096ZM100.186 169.096C100.186 168.68 100.159 168.211 100.106 167.688C100.052 167.165 99.9348 166.669 99.7535 166.2C99.5828 165.731 99.3322 165.336 99.0015 165.016C98.6815 164.696 98.2442 164.536 97.6895 164.536C97.1348 164.536 96.6922 164.696 96.3615 165.016C96.0415 165.336 95.7908 165.731 95.6095 166.2C95.4388 166.669 95.3268 167.165 95.2735 167.688C95.2202 168.211 95.1935 168.68 95.1935 169.096C95.1935 169.512 95.2202 169.981 95.2735 170.504C95.3268 171.027 95.4388 171.523 95.6095 171.992C95.7908 172.461 96.0468 172.856 96.3775 173.176C96.7082 173.496 97.1455 173.656 97.6895 173.656C98.2442 173.656 98.6815 173.496 99.0015 173.176C99.3322 172.856 99.5828 172.461 99.7535 171.992C99.9348 171.523 100.052 171.027 100.106 170.504C100.159 169.981 100.186 169.512 100.186 169.096ZM111.541 169.096C111.541 169.8 111.471 170.509 111.333 171.224C111.194 171.939 110.954 172.589 110.613 173.176C110.282 173.752 109.839 174.221 109.285 174.584C108.73 174.947 108.042 175.128 107.221 175.128C106.399 175.128 105.711 174.947 105.157 174.584C104.602 174.221 104.159 173.752 103.829 173.176C103.498 172.589 103.263 171.939 103.125 171.224C102.986 170.509 102.917 169.8 102.917 169.096C102.917 168.392 102.986 167.683 103.125 166.968C103.263 166.243 103.498 165.592 103.829 165.016C104.159 164.44 104.602 163.971 105.157 163.608C105.711 163.235 106.399 163.048 107.221 163.048C108.053 163.048 108.746 163.235 109.301 163.608C109.855 163.981 110.298 164.461 110.629 165.048C110.959 165.635 111.194 166.285 111.333 167C111.471 167.715 111.541 168.413 111.541 169.096ZM109.717 169.096C109.717 168.68 109.69 168.211 109.637 167.688C109.583 167.165 109.466 166.669 109.285 166.2C109.114 165.731 108.863 165.336 108.533 165.016C108.213 164.696 107.775 164.536 107.221 164.536C106.666 164.536 106.223 164.696 105.893 165.016C105.573 165.336 105.322 165.731 105.141 166.2C104.97 166.669 104.858 167.165 104.805 167.688C104.751 168.211 104.725 168.68 104.725 169.096C104.725 169.512 104.751 169.981 104.805 170.504C104.858 171.027 104.97 171.523 105.141 171.992C105.322 172.461 105.578 172.856 105.909 173.176C106.239 173.496 106.677 173.656 107.221 173.656C107.775 173.656 108.213 173.496 108.533 173.176C108.863 172.856 109.114 172.461 109.285 171.992C109.466 171.523 109.583 171.027 109.637 170.504C109.69 169.981 109.717 169.512 109.717 169.096Z" fill="#31383F"/>
<path d="M40.2303 272.52C40.5716 272.84 40.9663 273.107 41.4143 273.32C41.8623 273.523 42.3263 273.624 42.8063 273.624C43.1903 273.624 43.5369 273.56 43.8463 273.432C44.1556 273.293 44.4116 273.112 44.6143 272.888C44.8276 272.653 44.9876 272.381 45.0943 272.072C45.2116 271.752 45.2703 271.411 45.2703 271.048C45.2703 270.312 45.0516 269.757 44.6143 269.384C44.1876 269.011 43.6063 268.824 42.8703 268.824C42.5609 268.824 42.2516 268.856 41.9423 268.92C41.6436 268.973 41.3449 269.043 41.0463 269.128L39.9583 268.824L40.9183 263.176H46.6463V264.792H42.1503L41.6703 267.544C42.2036 267.427 42.7263 267.368 43.2383 267.368C43.7823 267.368 44.2836 267.448 44.7423 267.608C45.2009 267.757 45.6009 267.987 45.9423 268.296C46.2836 268.595 46.5503 268.968 46.7423 269.416C46.9343 269.853 47.0303 270.365 47.0303 270.952C47.0303 271.571 46.9236 272.141 46.7103 272.664C46.4969 273.176 46.1983 273.613 45.8143 273.976C45.4303 274.339 44.9716 274.621 44.4383 274.824C43.9049 275.027 43.3236 275.128 42.6943 275.128C42.2356 275.128 41.7609 275.059 41.2703 274.92C40.7796 274.781 40.3476 274.573 39.9743 274.296C39.7289 274.147 39.5103 273.981 39.3183 273.8L40.2303 272.52ZM48.8655 272.968H50.7535L49.7295 276.296H48.2575L48.8655 272.968ZM60.447 269.096C60.447 269.8 60.3777 270.509 60.239 271.224C60.1003 271.939 59.8603 272.589 59.519 273.176C59.1883 273.752 58.7457 274.221 58.191 274.584C57.6363 274.947 56.9483 275.128 56.127 275.128C55.3057 275.128 54.6177 274.947 54.063 274.584C53.5083 274.221 53.0657 273.752 52.735 273.176C52.4043 272.589 52.1697 271.939 52.031 271.224C51.8923 270.509 51.823 269.8 51.823 269.096C51.823 268.392 51.8923 267.683 52.031 266.968C52.1697 266.243 52.4043 265.592 52.735 265.016C53.0657 264.44 53.5083 263.971 54.063 263.608C54.6177 263.235 55.3057 263.048 56.127 263.048C56.959 263.048 57.6523 263.235 58.207 263.608C58.7617 263.981 59.2043 264.461 59.535 265.048C59.8657 265.635 60.1003 266.285 60.239 267C60.3777 267.715 60.447 268.413 60.447 269.096ZM58.623 269.096C58.623 268.68 58.5963 268.211 58.543 267.688C58.4897 267.165 58.3723 266.669 58.191 266.2C58.0203 265.731 57.7697 265.336 57.439 265.016C57.119 264.696 56.6817 264.536 56.127 264.536C55.5723 264.536 55.1297 264.696 54.799 265.016C54.479 265.336 54.2283 265.731 54.047 266.2C53.8763 266.669 53.7643 267.165 53.711 267.688C53.6577 268.211 53.631 268.68 53.631 269.096C53.631 269.512 53.6577 269.981 53.711 270.504C53.7643 271.027 53.8763 271.523 54.047 271.992C54.2283 272.461 54.4843 272.856 54.815 273.176C55.1457 273.496 55.583 273.656 56.127 273.656C56.6817 273.656 57.119 273.496 57.439 273.176C57.7697 272.856 58.0203 272.461 58.191 271.992C58.3723 271.523 58.4897 271.027 58.543 270.504C58.5963 269.981 58.623 269.512 58.623 269.096ZM69.9783 269.096C69.9783 269.8 69.9089 270.509 69.7703 271.224C69.6316 271.939 69.3916 272.589 69.0503 273.176C68.7196 273.752 68.2769 274.221 67.7223 274.584C67.1676 274.947 66.4796 275.128 65.6583 275.128C64.8369 275.128 64.1489 274.947 63.5943 274.584C63.0396 274.221 62.5969 273.752 62.2663 273.176C61.9356 272.589 61.7009 271.939 61.5623 271.224C61.4236 270.509 61.3543 269.8 61.3543 269.096C61.3543 268.392 61.4236 267.683 61.5623 266.968C61.7009 266.243 61.9356 265.592 62.2663 265.016C62.5969 264.44 63.0396 263.971 63.5943 263.608C64.1489 263.235 64.8369 263.048 65.6583 263.048C66.4903 263.048 67.1836 263.235 67.7383 263.608C68.2929 263.981 68.7356 264.461 69.0663 265.048C69.3969 265.635 69.6316 266.285 69.7703 267C69.9089 267.715 69.9783 268.413 69.9783 269.096ZM68.1543 269.096C68.1543 268.68 68.1276 268.211 68.0743 267.688C68.0209 267.165 67.9036 266.669 67.7223 266.2C67.5516 265.731 67.3009 265.336 66.9703 265.016C66.6503 264.696 66.2129 264.536 65.6583 264.536C65.1036 264.536 64.6609 264.696 64.3303 265.016C64.0103 265.336 63.7596 265.731 63.5783 266.2C63.4076 266.669 63.2956 267.165 63.2423 267.688C63.1889 268.211 63.1623 268.68 63.1623 269.096C63.1623 269.512 63.1889 269.981 63.2423 270.504C63.2956 271.027 63.4076 271.523 63.5783 271.992C63.7596 272.461 64.0156 272.856 64.3463 273.176C64.6769 273.496 65.1143 273.656 65.6583 273.656C66.2129 273.656 66.6503 273.496 66.9703 273.176C67.3009 272.856 67.5516 272.461 67.7223 271.992C67.9036 271.523 68.0209 271.027 68.0743 270.504C68.1276 269.981 68.1543 269.512 68.1543 269.096ZM79.5095 269.096C79.5095 269.8 79.4402 270.509 79.3015 271.224C79.1628 271.939 78.9228 272.589 78.5815 273.176C78.2508 273.752 77.8082 274.221 77.2535 274.584C76.6988 274.947 76.0108 275.128 75.1895 275.128C74.3682 275.128 73.6802 274.947 73.1255 274.584C72.5708 274.221 72.1282 273.752 71.7975 273.176C71.4668 272.589 71.2322 271.939 71.0935 271.224C70.9548 270.509 70.8855 269.8 70.8855 269.096C70.8855 268.392 70.9548 267.683 71.0935 266.968C71.2322 266.243 71.4668 265.592 71.7975 265.016C72.1282 264.44 72.5708 263.971 73.1255 263.608C73.6802 263.235 74.3682 263.048 75.1895 263.048C76.0215 263.048 76.7148 263.235 77.2695 263.608C77.8242 263.981 78.2668 264.461 78.5975 265.048C78.9282 265.635 79.1628 266.285 79.3015 267C79.4402 267.715 79.5095 268.413 79.5095 269.096ZM77.6855 269.096C77.6855 268.68 77.6588 268.211 77.6055 267.688C77.5522 267.165 77.4348 266.669 77.2535 266.2C77.0828 265.731 76.8322 265.336 76.5015 265.016C76.1815 264.696 75.7442 264.536 75.1895 264.536C74.6348 264.536 74.1922 264.696 73.8615 265.016C73.5415 265.336 73.2908 265.731 73.1095 266.2C72.9388 266.669 72.8268 267.165 72.7735 267.688C72.7202 268.211 72.6935 268.68 72.6935 269.096C72.6935 269.512 72.7202 269.981 72.7735 270.504C72.8268 271.027 72.9388 271.523 73.1095 271.992C73.2908 272.461 73.5468 272.856 73.8775 273.176C74.2082 273.496 74.6455 273.656 75.1895 273.656C75.7442 273.656 76.1815 273.496 76.5015 273.176C76.8322 272.856 77.0828 272.461 77.2535 271.992C77.4348 271.523 77.5522 271.027 77.6055 270.504C77.6588 269.981 77.6855 269.512 77.6855 269.096ZM80.8968 272.968H82.7848L81.7608 276.296H80.2888L80.8968 272.968ZM92.4783 269.096C92.4783 269.8 92.4089 270.509 92.2703 271.224C92.1316 271.939 91.8916 272.589 91.5503 273.176C91.2196 273.752 90.7769 274.221 90.2223 274.584C89.6676 274.947 88.9796 275.128 88.1583 275.128C87.3369 275.128 86.6489 274.947 86.0943 274.584C85.5396 274.221 85.0969 273.752 84.7663 273.176C84.4356 272.589 84.2009 271.939 84.0623 271.224C83.9236 270.509 83.8543 269.8 83.8543 269.096C83.8543 268.392 83.9236 267.683 84.0623 266.968C84.2009 266.243 84.4356 265.592 84.7663 265.016C85.0969 264.44 85.5396 263.971 86.0943 263.608C86.6489 263.235 87.3369 263.048 88.1583 263.048C88.9903 263.048 89.6836 263.235 90.2383 263.608C90.7929 263.981 91.2356 264.461 91.5663 265.048C91.8969 265.635 92.1316 266.285 92.2703 267C92.4089 267.715 92.4783 268.413 92.4783 269.096ZM90.6543 269.096C90.6543 268.68 90.6276 268.211 90.5743 267.688C90.5209 267.165 90.4036 266.669 90.2223 266.2C90.0516 265.731 89.8009 265.336 89.4703 265.016C89.1503 264.696 88.7129 264.536 88.1583 264.536C87.6036 264.536 87.1609 264.696 86.8303 265.016C86.5103 265.336 86.2596 265.731 86.0783 266.2C85.9076 266.669 85.7956 267.165 85.7423 267.688C85.6889 268.211 85.6623 268.68 85.6623 269.096C85.6623 269.512 85.6889 269.981 85.7423 270.504C85.7956 271.027 85.9076 271.523 86.0783 271.992C86.2596 272.461 86.5156 272.856 86.8463 273.176C87.1769 273.496 87.6143 273.656 88.1583 273.656C88.7129 273.656 89.1503 273.496 89.4703 273.176C89.8009 272.856 90.0516 272.461 90.2223 271.992C90.4036 271.523 90.5209 271.027 90.5743 270.504C90.6276 269.981 90.6543 269.512 90.6543 269.096ZM102.01 269.096C102.01 269.8 101.94 270.509 101.802 271.224C101.663 271.939 101.423 272.589 101.082 273.176C100.751 273.752 100.308 274.221 99.7535 274.584C99.1988 274.947 98.5108 275.128 97.6895 275.128C96.8682 275.128 96.1802 274.947 95.6255 274.584C95.0708 274.221 94.6282 273.752 94.2975 273.176C93.9668 272.589 93.7322 271.939 93.5935 271.224C93.4548 270.509 93.3855 269.8 93.3855 269.096C93.3855 268.392 93.4548 267.683 93.5935 266.968C93.7322 266.243 93.9668 265.592 94.2975 265.016C94.6282 264.44 95.0708 263.971 95.6255 263.608C96.1802 263.235 96.8682 263.048 97.6895 263.048C98.5215 263.048 99.2148 263.235 99.7695 263.608C100.324 263.981 100.767 264.461 101.098 265.048C101.428 265.635 101.663 266.285 101.802 267C101.94 267.715 102.01 268.413 102.01 269.096ZM100.186 269.096C100.186 268.68 100.159 268.211 100.106 267.688C100.052 267.165 99.9348 266.669 99.7535 266.2C99.5828 265.731 99.3322 265.336 99.0015 265.016C98.6815 264.696 98.2442 264.536 97.6895 264.536C97.1348 264.536 96.6922 264.696 96.3615 265.016C96.0415 265.336 95.7908 265.731 95.6095 266.2C95.4388 266.669 95.3268 267.165 95.2735 267.688C95.2202 268.211 95.1935 268.68 95.1935 269.096C95.1935 269.512 95.2202 269.981 95.2735 270.504C95.3268 271.027 95.4388 271.523 95.6095 271.992C95.7908 272.461 96.0468 272.856 96.3775 273.176C96.7082 273.496 97.1455 273.656 97.6895 273.656C98.2442 273.656 98.6815 273.496 99.0015 273.176C99.3322 272.856 99.5828 272.461 99.7535 271.992C99.9348 271.523 100.052 271.027 100.106 270.504C100.159 269.981 100.186 269.512 100.186 269.096ZM111.541 269.096C111.541 269.8 111.471 270.509 111.333 271.224C111.194 271.939 110.954 272.589 110.613 273.176C110.282 273.752 109.839 274.221 109.285 274.584C108.73 274.947 108.042 275.128 107.221 275.128C106.399 275.128 105.711 274.947 105.157 274.584C104.602 274.221 104.159 273.752 103.829 273.176C103.498 272.589 103.263 271.939 103.125 271.224C102.986 270.509 102.917 269.8 102.917 269.096C102.917 268.392 102.986 267.683 103.125 266.968C103.263 266.243 103.498 265.592 103.829 265.016C104.159 264.44 104.602 263.971 105.157 263.608C105.711 263.235 106.399 263.048 107.221 263.048C108.053 263.048 108.746 263.235 109.301 263.608C109.855 263.981 110.298 264.461 110.629 265.048C110.959 265.635 111.194 266.285 111.333 267C111.471 267.715 111.541 268.413 111.541 269.096ZM109.717 269.096C109.717 268.68 109.69 268.211 109.637 267.688C109.583 267.165 109.466 266.669 109.285 266.2C109.114 265.731 108.863 265.336 108.533 265.016C108.213 264.696 107.775 264.536 107.221 264.536C106.666 264.536 106.223 264.696 105.893 265.016C105.573 265.336 105.322 265.731 105.141 266.2C104.97 266.669 104.858 267.165 104.805 267.688C104.751 268.211 104.725 268.68 104.725 269.096C104.725 269.512 104.751 269.981 104.805 270.504C104.858 271.027 104.97 271.523 105.141 271.992C105.322 272.461 105.578 272.856 105.909 273.176C106.239 273.496 106.677 273.656 107.221 273.656C107.775 273.656 108.213 273.496 108.533 273.176C108.863 272.856 109.114 272.461 109.285 271.992C109.466 271.523 109.583 271.027 109.637 270.504C109.69 269.981 109.717 269.512 109.717 269.096Z" fill="#31383F"/>
<path opacity="0.75" d="M169.752 352H161.752V350.976L165.736 346.976C166.013 346.699 166.275 346.421 166.52 346.144C166.765 345.867 166.995 345.563 167.208 345.232C167.411 344.869 167.56 344.475 167.656 344.048C167.752 343.621 167.757 343.227 167.672 342.864C167.597 342.491 167.411 342.181 167.112 341.936C166.824 341.68 166.397 341.552 165.832 341.552C165.512 341.552 165.219 341.611 164.952 341.728C164.685 341.835 164.456 341.984 164.264 342.176C164.072 342.368 163.928 342.597 163.832 342.864C163.736 343.131 163.699 343.424 163.72 343.744L161.96 343.424C162.109 342.357 162.531 341.531 163.224 340.944C163.928 340.347 164.829 340.048 165.928 340.048C166.429 340.048 166.899 340.123 167.336 340.272C167.773 340.411 168.152 340.624 168.472 340.912C168.803 341.189 169.064 341.536 169.256 341.952C169.448 342.368 169.544 342.843 169.544 343.376C169.544 343.824 169.475 344.24 169.336 344.624C169.197 345.008 169.011 345.376 168.776 345.728C168.552 346.069 168.296 346.395 168.008 346.704C167.72 347.013 167.427 347.317 167.128 347.616L164.12 350.656C164.365 350.592 164.616 350.539 164.872 350.496C165.139 350.453 165.4 350.432 165.656 350.432H169.752V352ZM179.603 346.096C179.603 346.8 179.534 347.509 179.395 348.224C179.257 348.939 179.017 349.589 178.675 350.176C178.345 350.752 177.902 351.221 177.347 351.584C176.793 351.947 176.105 352.128 175.283 352.128C174.462 352.128 173.774 351.947 173.219 351.584C172.665 351.221 172.222 350.752 171.891 350.176C171.561 349.589 171.326 348.939 171.187 348.224C171.049 347.509 170.979 346.8 170.979 346.096C170.979 345.392 171.049 344.683 171.187 343.968C171.326 343.243 171.561 342.592 171.891 342.016C172.222 341.44 172.665 340.971 173.219 340.608C173.774 340.235 174.462 340.048 175.283 340.048C176.115 340.048 176.809 340.235 177.363 340.608C177.918 340.981 178.361 341.461 178.691 342.048C179.022 342.635 179.257 343.285 179.395 344C179.534 344.715 179.603 345.413 179.603 346.096ZM177.779 346.096C177.779 345.68 177.753 345.211 177.699 344.688C177.646 344.165 177.529 343.669 177.347 343.2C177.177 342.731 176.926 342.336 176.595 342.016C176.275 341.696 175.838 341.536 175.283 341.536C174.729 341.536 174.286 341.696 173.955 342.016C173.635 342.336 173.385 342.731 173.203 343.2C173.033 343.669 172.921 344.165 172.867 344.688C172.814 345.211 172.787 345.68 172.787 346.096C172.787 346.512 172.814 346.981 172.867 347.504C172.921 348.027 173.033 348.523 173.203 348.992C173.385 349.461 173.641 349.856 173.971 350.176C174.302 350.496 174.739 350.656 175.283 350.656C175.838 350.656 176.275 350.496 176.595 350.176C176.926 349.856 177.177 349.461 177.347 348.992C177.529 348.523 177.646 348.027 177.699 347.504C177.753 346.981 177.779 346.512 177.779 346.096ZM188.815 352H180.815V350.976L184.799 346.976C185.076 346.699 185.337 346.421 185.583 346.144C185.828 345.867 186.057 345.563 186.271 345.232C186.473 344.869 186.623 344.475 186.719 344.048C186.815 343.621 186.82 343.227 186.735 342.864C186.66 342.491 186.473 342.181 186.175 341.936C185.887 341.68 185.46 341.552 184.895 341.552C184.575 341.552 184.281 341.611 184.015 341.728C183.748 341.835 183.519 341.984 183.327 342.176C183.135 342.368 182.991 342.597 182.895 342.864C182.799 343.131 182.761 343.424 182.783 343.744L181.023 343.424C181.172 342.357 181.593 341.531 182.287 340.944C182.991 340.347 183.892 340.048 184.991 340.048C185.492 340.048 185.961 340.123 186.399 340.272C186.836 340.411 187.215 340.624 187.535 340.912C187.865 341.189 188.127 341.536 188.319 341.952C188.511 342.368 188.607 342.843 188.607 343.376C188.607 343.824 188.537 344.24 188.399 344.624C188.26 345.008 188.073 345.376 187.839 345.728C187.615 346.069 187.359 346.395 187.071 346.704C186.783 347.013 186.489 347.317 186.191 347.616L183.183 350.656C183.428 350.592 183.679 350.539 183.935 350.496C184.201 350.453 184.463 350.432 184.719 350.432H188.815V352ZM198.666 346.096C198.666 346.8 198.596 347.509 198.458 348.224C198.319 348.939 198.079 349.589 197.738 350.176C197.407 350.752 196.964 351.221 196.41 351.584C195.855 351.947 195.167 352.128 194.346 352.128C193.524 352.128 192.836 351.947 192.282 351.584C191.727 351.221 191.284 350.752 190.954 350.176C190.623 349.589 190.388 348.939 190.25 348.224C190.111 347.509 190.042 346.8 190.042 346.096C190.042 345.392 190.111 344.683 190.25 343.968C190.388 343.243 190.623 342.592 190.954 342.016C191.284 341.44 191.727 340.971 192.282 340.608C192.836 340.235 193.524 340.048 194.346 340.048C195.178 340.048 195.871 340.235 196.426 340.608C196.98 340.981 197.423 341.461 197.754 342.048C198.084 342.635 198.319 343.285 198.458 344C198.596 344.715 198.666 345.413 198.666 346.096ZM196.842 346.096C196.842 345.68 196.815 345.211 196.762 344.688C196.708 344.165 196.591 343.669 196.41 343.2C196.239 342.731 195.988 342.336 195.658 342.016C195.338 341.696 194.9 341.536 194.346 341.536C193.791 341.536 193.348 341.696 193.018 342.016C192.698 342.336 192.447 342.731 192.266 343.2C192.095 343.669 191.983 344.165 191.93 344.688C191.876 345.211 191.85 345.68 191.85 346.096C191.85 346.512 191.876 346.981 191.93 347.504C191.983 348.027 192.095 348.523 192.266 348.992C192.447 349.461 192.703 349.856 193.034 350.176C193.364 350.496 193.802 350.656 194.346 350.656C194.9 350.656 195.338 350.496 195.658 350.176C195.988 349.856 196.239 349.461 196.41 348.992C196.591 348.523 196.708 348.027 196.762 347.504C196.815 346.981 196.842 346.512 196.842 346.096ZM199.925 345.424H205.365V346.784H199.925V345.424ZM208.7 344.064L207.724 342.88L210.924 340.144H212.364V350.464H214.588V352H208.14V350.464H210.604V343.248C210.604 343.12 210.604 342.992 210.604 342.864C210.604 342.725 210.609 342.587 210.62 342.448L208.7 344.064ZM218.231 344.064L217.255 342.88L220.455 340.144H221.895V350.464H224.119V352H217.671V350.464H220.135V343.248C220.135 343.12 220.135 342.992 220.135 342.864C220.135 342.725 220.14 342.587 220.151 342.448L218.231 344.064ZM226.034 345.424H231.474V346.784H226.034V345.424ZM234.809 344.064L233.833 342.88L237.033 340.144H238.473V350.464H240.697V352H234.249V350.464H236.713V343.248C236.713 343.12 236.713 342.992 236.713 342.864C236.713 342.725 236.719 342.587 236.729 342.448L234.809 344.064ZM244.341 344.064L243.365 342.88L246.565 340.144H248.005V350.464H250.229V352H243.781V350.464H246.245V343.248C246.245 343.12 246.245 342.992 246.245 342.864C246.245 342.725 246.25 342.587 246.261 342.448L244.341 344.064Z" fill="#31383F"/>
<path opacity="0.75" d="M749.752 352H741.752V350.976L745.736 346.976C746.013 346.699 746.275 346.421 746.52 346.144C746.765 345.867 746.995 345.563 747.208 345.232C747.411 344.869 747.56 344.475 747.656 344.048C747.752 343.621 747.757 343.227 747.672 342.864C747.597 342.491 747.411 342.181 747.112 341.936C746.824 341.68 746.397 341.552 745.832 341.552C745.512 341.552 745.219 341.611 744.952 341.728C744.685 341.835 744.456 341.984 744.264 342.176C744.072 342.368 743.928 342.597 743.832 342.864C743.736 343.131 743.699 343.424 743.72 343.744L741.96 343.424C742.109 342.357 742.531 341.531 743.224 340.944C743.928 340.347 744.829 340.048 745.928 340.048C746.429 340.048 746.899 340.123 747.336 340.272C747.773 340.411 748.152 340.624 748.472 340.912C748.803 341.189 749.064 341.536 749.256 341.952C749.448 342.368 749.544 342.843 749.544 343.376C749.544 343.824 749.475 344.24 749.336 344.624C749.197 345.008 749.011 345.376 748.776 345.728C748.552 346.069 748.296 346.395 748.008 346.704C747.72 347.013 747.427 347.317 747.128 347.616L744.12 350.656C744.365 350.592 744.616 350.539 744.872 350.496C745.139 350.453 745.4 350.432 745.656 350.432H749.752V352ZM759.603 346.096C759.603 346.8 759.534 347.509 759.395 348.224C759.257 348.939 759.017 349.589 758.675 350.176C758.345 350.752 757.902 351.221 757.347 351.584C756.793 351.947 756.105 352.128 755.283 352.128C754.462 352.128 753.774 351.947 753.219 351.584C752.665 351.221 752.222 350.752 751.891 350.176C751.561 349.589 751.326 348.939 751.187 348.224C751.049 347.509 750.979 346.8 750.979 346.096C750.979 345.392 751.049 344.683 751.187 343.968C751.326 343.243 751.561 342.592 751.891 342.016C752.222 341.44 752.665 340.971 753.219 340.608C753.774 340.235 754.462 340.048 755.283 340.048C756.115 340.048 756.809 340.235 757.363 340.608C757.918 340.981 758.361 341.461 758.691 342.048C759.022 342.635 759.257 343.285 759.395 344C759.534 344.715 759.603 345.413 759.603 346.096ZM757.779 346.096C757.779 345.68 757.753 345.211 757.699 344.688C757.646 344.165 757.529 343.669 757.347 343.2C757.177 342.731 756.926 342.336 756.595 342.016C756.275 341.696 755.838 341.536 755.283 341.536C754.729 341.536 754.286 341.696 753.955 342.016C753.635 342.336 753.385 342.731 753.203 343.2C753.033 343.669 752.921 344.165 752.867 344.688C752.814 345.211 752.787 345.68 752.787 346.096C752.787 346.512 752.814 346.981 752.867 347.504C752.921 348.027 753.033 348.523 753.203 348.992C753.385 349.461 753.641 349.856 753.971 350.176C754.302 350.496 754.739 350.656 755.283 350.656C755.838 350.656 756.275 350.496 756.595 350.176C756.926 349.856 757.177 349.461 757.347 348.992C757.529 348.523 757.646 348.027 757.699 347.504C757.753 346.981 757.779 346.512 757.779 346.096ZM768.815 352H760.815V350.976L764.799 346.976C765.076 346.699 765.337 346.421 765.583 346.144C765.828 345.867 766.057 345.563 766.271 345.232C766.473 344.869 766.623 344.475 766.719 344.048C766.815 343.621 766.82 343.227 766.735 342.864C766.66 342.491 766.473 342.181 766.175 341.936C765.887 341.68 765.46 341.552 764.895 341.552C764.575 341.552 764.281 341.611 764.015 341.728C763.748 341.835 763.519 341.984 763.327 342.176C763.135 342.368 762.991 342.597 762.895 342.864C762.799 343.131 762.761 343.424 762.783 343.744L761.023 343.424C761.172 342.357 761.593 341.531 762.287 340.944C762.991 340.347 763.892 340.048 764.991 340.048C765.492 340.048 765.961 340.123 766.399 340.272C766.836 340.411 767.215 340.624 767.535 340.912C767.865 341.189 768.127 341.536 768.319 341.952C768.511 342.368 768.607 342.843 768.607 343.376C768.607 343.824 768.537 344.24 768.399 344.624C768.26 345.008 768.073 345.376 767.839 345.728C767.615 346.069 767.359 346.395 767.071 346.704C766.783 347.013 766.489 347.317 766.191 347.616L763.183 350.656C763.428 350.592 763.679 350.539 763.935 350.496C764.201 350.453 764.463 350.432 764.719 350.432H768.815V352ZM778.666 346.096C778.666 346.8 778.596 347.509 778.458 348.224C778.319 348.939 778.079 349.589 777.738 350.176C777.407 350.752 776.964 351.221 776.41 351.584C775.855 351.947 775.167 352.128 774.346 352.128C773.524 352.128 772.836 351.947 772.282 351.584C771.727 351.221 771.284 350.752 770.954 350.176C770.623 349.589 770.388 348.939 770.25 348.224C770.111 347.509 770.042 346.8 770.042 346.096C770.042 345.392 770.111 344.683 770.25 343.968C770.388 343.243 770.623 342.592 770.954 342.016C771.284 341.44 771.727 340.971 772.282 340.608C772.836 340.235 773.524 340.048 774.346 340.048C775.178 340.048 775.871 340.235 776.426 340.608C776.98 340.981 777.423 341.461 777.754 342.048C778.084 342.635 778.319 343.285 778.458 344C778.596 344.715 778.666 345.413 778.666 346.096ZM776.842 346.096C776.842 345.68 776.815 345.211 776.762 344.688C776.708 344.165 776.591 343.669 776.41 343.2C776.239 342.731 775.988 342.336 775.658 342.016C775.338 341.696 774.9 341.536 774.346 341.536C773.791 341.536 773.348 341.696 773.018 342.016C772.698 342.336 772.447 342.731 772.266 343.2C772.095 343.669 771.983 344.165 771.93 344.688C771.876 345.211 771.85 345.68 771.85 346.096C771.85 346.512 771.876 346.981 771.93 347.504C771.983 348.027 772.095 348.523 772.266 348.992C772.447 349.461 772.703 349.856 773.034 350.176C773.364 350.496 773.802 350.656 774.346 350.656C774.9 350.656 775.338 350.496 775.658 350.176C775.988 349.856 776.239 349.461 776.41 348.992C776.591 348.523 776.708 348.027 776.762 347.504C776.815 346.981 776.842 346.512 776.842 346.096ZM779.925 345.424H785.365V346.784H779.925V345.424ZM788.7 344.064L787.724 342.88L790.924 340.144H792.364V350.464H794.588V352H788.14V350.464H790.604V343.248C790.604 343.12 790.604 342.992 790.604 342.864C790.604 342.725 790.609 342.587 790.62 342.448L788.7 344.064ZM804.455 352H796.455V350.976L800.439 346.976C800.716 346.699 800.978 346.421 801.223 346.144C801.468 345.867 801.698 345.563 801.911 345.232C802.114 344.869 802.263 344.475 802.359 344.048C802.455 343.621 802.46 343.227 802.375 342.864C802.3 342.491 802.114 342.181 801.815 341.936C801.527 341.68 801.1 341.552 800.535 341.552C800.215 341.552 799.922 341.611 799.655 341.728C799.388 341.835 799.159 341.984 798.967 342.176C798.775 342.368 798.631 342.597 798.535 342.864C798.439 343.131 798.402 343.424 798.423 343.744L796.663 343.424C796.812 342.357 797.234 341.531 797.927 340.944C798.631 340.347 799.532 340.048 800.631 340.048C801.132 340.048 801.602 340.123 802.039 340.272C802.476 340.411 802.855 340.624 803.175 340.912C803.506 341.189 803.767 341.536 803.959 341.952C804.151 342.368 804.247 342.843 804.247 343.376C804.247 343.824 804.178 344.24 804.039 344.624C803.9 345.008 803.714 345.376 803.479 345.728C803.255 346.069 802.999 346.395 802.711 346.704C802.423 347.013 802.13 347.317 801.831 347.616L798.823 350.656C799.068 350.592 799.319 350.539 799.575 350.496C799.842 350.453 800.103 350.432 800.359 350.432H804.455V352ZM806.034 345.424H811.474V346.784H806.034V345.424ZM814.809 344.064L813.833 342.88L817.033 340.144H818.473V350.464H820.697V352H814.249V350.464H816.713V343.248C816.713 343.12 816.713 342.992 816.713 342.864C816.713 342.725 816.719 342.587 816.729 342.448L814.809 344.064ZM824.341 344.064L823.365 342.88L826.565 340.144H828.005V350.464H830.229V352H823.781V350.464H826.245V343.248C826.245 343.12 826.245 342.992 826.245 342.864C826.245 342.725 826.25 342.587 826.261 342.448L824.341 344.064Z" fill="#31383F"/>
<rect opacity="0.2" x="136" y="320" width="720" height="1" fill="#31383F"/>
<rect opacity="0.2" x="136" y="20" width="1" height="300" fill="#31383F"/>
<path d="M159 303.933C159 303.933 173.5 282.864 188.5 267.933C203.5 253.001 216 242.933 238.5 255.933C261 268.933 274.5 288.411 300.5 285C326.5 281.589 329 251 340.5 220.501C352 190.002 362 168.5 384.5 168.5C407 168.5 418.5 189 429.269 200.353C440.039 211.706 449.845 221.35 466 225C482.582 228.747 499 223.501 508.62 211.933C518.24 200.364 516.245 195.678 554.873 115.805C593.5 35.9326 626.585 35.0694 647 43.501C667.415 51.9326 698.542 86.0522 728.557 110.277C758.573 134.501 775.242 130.898 787.5 120.001C810 100.001 837 64.6651 837 64.6651" stroke="url(#paint0_linear)" stroke-width="2" stroke-linecap="round" stroke-linejoin="round"/>
<path d="M211 252L208.113 257H213.887L211 252ZM211 282L213.887 277H208.113L211 282ZM210.5 256.5V277.5H211.5V256.5H210.5Z" fill="#1466B1"/>
<path d="M301 248L298.113 253H303.887L301 248ZM301 286L303.887 281H298.113L301 286ZM300.5 252.5V281.5H301.5V252.5H300.5Z" fill="#1466B1"/>
<path d="M378 170L375.113 175L380.887 175L378 170ZM378 217L380.887 212L375.113 212L378 217ZM377.5 174.5L377.5 212.5L378.5 212.5L378.5 174.5L377.5 174.5Z" fill="#1466B1"/>
<path d="M485 175L482.113 180L487.887 180L485 175ZM485 225L487.887 220L482.113 220L485 225ZM484.5 179.5L484.5 220.5L485.5 220.5L485.5 179.5L484.5 179.5Z" fill="#1466B1"/>
<path d="M617 42L614.113 47L619.887 47L617 42ZM617 122L619.887 117L614.113 117L617 122ZM616.5 46.5L616.5 117.5L617.5 117.5L617.5 46.5L616.5 46.5Z" fill="#1466B1"/>
<path d="M155 306L823 40" stroke="#FF4A4A"/>
<defs>
<linearGradient id="paint0_linear" x1="304.94" y1="328.752" x2="1034.15" y2="62.7823" gradientUnits="userSpaceOnUse">
<stop stop-color="#AAB4C4" stop-opacity="0.5"/>
<stop offset="0.682292" stop-color="#4A5E73"/>
<stop offset="1" stop-color="#36383C"/>
</linearGradient>
</defs>
</svg>
