<svg width="448" height="250" viewBox="0 0 448 250" fill="none" xmlns="http://www.w3.org/2000/svg">
<path d="M0 0H448V250H0V0Z" fill="#FAFBFC"/>
<path d="M135 175L139.33 167.5L130.67 167.5L135 175ZM135.75 168.25L135.75 45L134.25 45L134.25 168.25L135.75 168.25Z" fill="#1466B1"/>
<path d="M31.4201 47.407L27.1951 56H25.6351L29.5091 48.395C29.6217 48.1523 29.7734 47.9227 29.9641 47.706H24.8291V46.393H31.4201V47.407ZM32.7032 54.349H34.2372L33.4052 57.053H32.2092L32.7032 54.349ZM42.1132 51.203C42.1132 51.775 42.0569 52.3513 41.9442 52.932C41.8315 53.5127 41.6365 54.0413 41.3592 54.518C41.0905 54.986 40.7309 55.3673 40.2802 55.662C39.8295 55.9567 39.2705 56.104 38.6032 56.104C37.9359 56.104 37.3769 55.9567 36.9262 55.662C36.4755 55.3673 36.1159 54.986 35.8472 54.518C35.5785 54.0413 35.3879 53.5127 35.2752 52.932C35.1625 52.3513 35.1062 51.775 35.1062 51.203C35.1062 50.631 35.1625 50.0547 35.2752 49.474C35.3879 48.8847 35.5785 48.356 35.8472 47.888C36.1159 47.42 36.4755 47.0387 36.9262 46.744C37.3769 46.4407 37.9359 46.289 38.6032 46.289C39.2792 46.289 39.8425 46.4407 40.2932 46.744C40.7439 47.0473 41.1035 47.4373 41.3722 47.914C41.6409 48.3907 41.8315 48.9193 41.9442 49.5C42.0569 50.0807 42.1132 50.6483 42.1132 51.203ZM40.6312 51.203C40.6312 50.865 40.6095 50.4837 40.5662 50.059C40.5229 49.6343 40.4275 49.2313 40.2802 48.85C40.1415 48.4687 39.9379 48.148 39.6692 47.888C39.4092 47.628 39.0539 47.498 38.6032 47.498C38.1525 47.498 37.7929 47.628 37.5242 47.888C37.2642 48.148 37.0605 48.4687 36.9132 48.85C36.7745 49.2313 36.6835 49.6343 36.6402 50.059C36.5969 50.4837 36.5752 50.865 36.5752 51.203C36.5752 51.541 36.5969 51.9223 36.6402 52.347C36.6835 52.7717 36.7745 53.1747 36.9132 53.556C37.0605 53.9373 37.2685 54.258 37.5372 54.518C37.8059 54.778 38.1612 54.908 38.6032 54.908C39.0539 54.908 39.4092 54.778 39.6692 54.518C39.9379 54.258 40.1415 53.9373 40.2802 53.556C40.4275 53.1747 40.5229 52.7717 40.5662 52.347C40.6095 51.9223 40.6312 51.541 40.6312 51.203ZM49.8573 51.203C49.8573 51.775 49.801 52.3513 49.6883 52.932C49.5757 53.5127 49.3807 54.0413 49.1033 54.518C48.8347 54.986 48.475 55.3673 48.0243 55.662C47.5737 55.9567 47.0147 56.104 46.3473 56.104C45.68 56.104 45.121 55.9567 44.6703 55.662C44.2197 55.3673 43.86 54.986 43.5913 54.518C43.3227 54.0413 43.132 53.5127 43.0193 52.932C42.9067 52.3513 42.8503 51.775 42.8503 51.203C42.8503 50.631 42.9067 50.0547 43.0193 49.474C43.132 48.8847 43.3227 48.356 43.5913 47.888C43.86 47.42 44.2197 47.0387 44.6703 46.744C45.121 46.4407 45.68 46.289 46.3473 46.289C47.0233 46.289 47.5867 46.4407 48.0373 46.744C48.488 47.0473 48.8477 47.4373 49.1163 47.914C49.385 48.3907 49.5757 48.9193 49.6883 49.5C49.801 50.0807 49.8573 50.6483 49.8573 51.203ZM48.3753 51.203C48.3753 50.865 48.3537 50.4837 48.3103 50.059C48.267 49.6343 48.1717 49.2313 48.0243 48.85C47.8857 48.4687 47.682 48.148 47.4133 47.888C47.1533 47.628 46.798 47.498 46.3473 47.498C45.8967 47.498 45.537 47.628 45.2683 47.888C45.0083 48.148 44.8047 48.4687 44.6573 48.85C44.5187 49.2313 44.4277 49.6343 44.3843 50.059C44.341 50.4837 44.3193 50.865 44.3193 51.203C44.3193 51.541 44.341 51.9223 44.3843 52.347C44.4277 52.7717 44.5187 53.1747 44.6573 53.556C44.8047 53.9373 45.0127 54.258 45.2813 54.518C45.55 54.778 45.9053 54.908 46.3473 54.908C46.798 54.908 47.1533 54.778 47.4133 54.518C47.682 54.258 47.8857 53.9373 48.0243 53.556C48.1717 53.1747 48.267 52.7717 48.3103 52.347C48.3537 51.9223 48.3753 51.541 48.3753 51.203ZM57.6015 51.203C57.6015 51.775 57.5451 52.3513 57.4325 52.932C57.3198 53.5127 57.1248 54.0413 56.8475 54.518C56.5788 54.986 56.2191 55.3673 55.7685 55.662C55.3178 55.9567 54.7588 56.104 54.0915 56.104C53.4241 56.104 52.8651 55.9567 52.4145 55.662C51.9638 55.3673 51.6041 54.986 51.3355 54.518C51.0668 54.0413 50.8761 53.5127 50.7635 52.932C50.6508 52.3513 50.5945 51.775 50.5945 51.203C50.5945 50.631 50.6508 50.0547 50.7635 49.474C50.8761 48.8847 51.0668 48.356 51.3355 47.888C51.6041 47.42 51.9638 47.0387 52.4145 46.744C52.8651 46.4407 53.4241 46.289 54.0915 46.289C54.7675 46.289 55.3308 46.4407 55.7815 46.744C56.2321 47.0473 56.5918 47.4373 56.8605 47.914C57.1291 48.3907 57.3198 48.9193 57.4325 49.5C57.5451 50.0807 57.6015 50.6483 57.6015 51.203ZM56.1195 51.203C56.1195 50.865 56.0978 50.4837 56.0545 50.059C56.0111 49.6343 55.9158 49.2313 55.7685 48.85C55.6298 48.4687 55.4261 48.148 55.1575 47.888C54.8975 47.628 54.5421 47.498 54.0915 47.498C53.6408 47.498 53.2811 47.628 53.0125 47.888C52.7525 48.148 52.5488 48.4687 52.4015 48.85C52.2628 49.2313 52.1718 49.6343 52.1285 50.059C52.0851 50.4837 52.0635 50.865 52.0635 51.203C52.0635 51.541 52.0851 51.9223 52.1285 52.347C52.1718 52.7717 52.2628 53.1747 52.4015 53.556C52.5488 53.9373 52.7568 54.258 53.0255 54.518C53.2941 54.778 53.6495 54.908 54.0915 54.908C54.5421 54.908 54.8975 54.778 55.1575 54.518C55.4261 54.258 55.6298 53.9373 55.7685 53.556C55.9158 53.1747 56.0111 52.7717 56.0545 52.347C56.0978 51.9223 56.1195 51.541 56.1195 51.203ZM58.7286 54.349H60.2626L59.4306 57.053H58.2346L58.7286 54.349ZM68.1386 51.203C68.1386 51.775 68.0822 52.3513 67.9696 52.932C67.8569 53.5127 67.6619 54.0413 67.3846 54.518C67.1159 54.986 66.7562 55.3673 66.3056 55.662C65.8549 55.9567 65.2959 56.104 64.6286 56.104C63.9612 56.104 63.4022 55.9567 62.9516 55.662C62.5009 55.3673 62.1412 54.986 61.8726 54.518C61.6039 54.0413 61.4132 53.5127 61.3006 52.932C61.1879 52.3513 61.1316 51.775 61.1316 51.203C61.1316 50.631 61.1879 50.0547 61.3006 49.474C61.4132 48.8847 61.6039 48.356 61.8726 47.888C62.1412 47.42 62.5009 47.0387 62.9516 46.744C63.4022 46.4407 63.9612 46.289 64.6286 46.289C65.3046 46.289 65.8679 46.4407 66.3186 46.744C66.7692 47.0473 67.1289 47.4373 67.3976 47.914C67.6662 48.3907 67.8569 48.9193 67.9696 49.5C68.0822 50.0807 68.1386 50.6483 68.1386 51.203ZM66.6566 51.203C66.6566 50.865 66.6349 50.4837 66.5916 50.059C66.5482 49.6343 66.4529 49.2313 66.3056 48.85C66.1669 48.4687 65.9632 48.148 65.6946 47.888C65.4346 47.628 65.0792 47.498 64.6286 47.498C64.1779 47.498 63.8182 47.628 63.5496 47.888C63.2896 48.148 63.0859 48.4687 62.9386 48.85C62.7999 49.2313 62.7089 49.6343 62.6656 50.059C62.6222 50.4837 62.6006 50.865 62.6006 51.203C62.6006 51.541 62.6222 51.9223 62.6656 52.347C62.7089 52.7717 62.7999 53.1747 62.9386 53.556C63.0859 53.9373 63.2939 54.258 63.5626 54.518C63.8312 54.778 64.1866 54.908 64.6286 54.908C65.0792 54.908 65.4346 54.778 65.6946 54.518C65.9632 54.258 66.1669 53.9373 66.3056 53.556C66.4529 53.1747 66.5482 52.7717 66.5916 52.347C66.6349 51.9223 66.6566 51.541 66.6566 51.203ZM75.8827 51.203C75.8827 51.775 75.8264 52.3513 75.7137 52.932C75.6011 53.5127 75.4061 54.0413 75.1287 54.518C74.8601 54.986 74.5004 55.3673 74.0497 55.662C73.5991 55.9567 73.0401 56.104 72.3727 56.104C71.7054 56.104 71.1464 55.9567 70.6957 55.662C70.2451 55.3673 69.8854 54.986 69.6167 54.518C69.3481 54.0413 69.1574 53.5127 69.0447 52.932C68.9321 52.3513 68.8757 51.775 68.8757 51.203C68.8757 50.631 68.9321 50.0547 69.0447 49.474C69.1574 48.8847 69.3481 48.356 69.6167 47.888C69.8854 47.42 70.2451 47.0387 70.6957 46.744C71.1464 46.4407 71.7054 46.289 72.3727 46.289C73.0487 46.289 73.6121 46.4407 74.0627 46.744C74.5134 47.0473 74.8731 47.4373 75.1417 47.914C75.4104 48.3907 75.6011 48.9193 75.7137 49.5C75.8264 50.0807 75.8827 50.6483 75.8827 51.203ZM74.4007 51.203C74.4007 50.865 74.3791 50.4837 74.3357 50.059C74.2924 49.6343 74.1971 49.2313 74.0497 48.85C73.9111 48.4687 73.7074 48.148 73.4387 47.888C73.1787 47.628 72.8234 47.498 72.3727 47.498C71.9221 47.498 71.5624 47.628 71.2937 47.888C71.0337 48.148 70.8301 48.4687 70.6827 48.85C70.5441 49.2313 70.4531 49.6343 70.4097 50.059C70.3664 50.4837 70.3447 50.865 70.3447 51.203C70.3447 51.541 70.3664 51.9223 70.4097 52.347C70.4531 52.7717 70.5441 53.1747 70.6827 53.556C70.8301 53.9373 71.0381 54.258 71.3067 54.518C71.5754 54.778 71.9307 54.908 72.3727 54.908C72.8234 54.908 73.1787 54.778 73.4387 54.518C73.7074 54.258 73.9111 53.9373 74.0497 53.556C74.1971 53.1747 74.2924 52.7717 74.3357 52.347C74.3791 51.9223 74.4007 51.541 74.4007 51.203ZM83.6269 51.203C83.6269 51.775 83.5705 52.3513 83.4579 52.932C83.3452 53.5127 83.1502 54.0413 82.8729 54.518C82.6042 54.986 82.2445 55.3673 81.7939 55.662C81.3432 55.9567 80.7842 56.104 80.1169 56.104C79.4495 56.104 78.8905 55.9567 78.4399 55.662C77.9892 55.3673 77.6295 54.986 77.3609 54.518C77.0922 54.0413 76.9015 53.5127 76.7889 52.932C76.6762 52.3513 76.6199 51.775 76.6199 51.203C76.6199 50.631 76.6762 50.0547 76.7889 49.474C76.9015 48.8847 77.0922 48.356 77.3609 47.888C77.6295 47.42 77.9892 47.0387 78.4399 46.744C78.8905 46.4407 79.4495 46.289 80.1169 46.289C80.7929 46.289 81.3562 46.4407 81.8069 46.744C82.2575 47.0473 82.6172 47.4373 82.8859 47.914C83.1545 48.3907 83.3452 48.9193 83.4579 49.5C83.5705 50.0807 83.6269 50.6483 83.6269 51.203ZM82.1449 51.203C82.1449 50.865 82.1232 50.4837 82.0799 50.059C82.0365 49.6343 81.9412 49.2313 81.7939 48.85C81.6552 48.4687 81.4515 48.148 81.1829 47.888C80.9229 47.628 80.5675 47.498 80.1169 47.498C79.6662 47.498 79.3065 47.628 79.0379 47.888C78.7779 48.148 78.5742 48.4687 78.4269 48.85C78.2882 49.2313 78.1972 49.6343 78.1539 50.059C78.1105 50.4837 78.0889 50.865 78.0889 51.203C78.0889 51.541 78.1105 51.9223 78.1539 52.347C78.1972 52.7717 78.2882 53.1747 78.4269 53.556C78.5742 53.9373 78.7822 54.258 79.0509 54.518C79.3195 54.778 79.6749 54.908 80.1169 54.908C80.5675 54.908 80.9229 54.778 81.1829 54.518C81.4515 54.258 81.6552 53.9373 81.7939 53.556C81.9412 53.1747 82.0365 52.7717 82.0799 52.347C82.1232 51.9223 82.1449 51.541 82.1449 51.203Z" fill="#31383F"/>
<path d="M30.3801 106.393L27.1301 110.423C27.5807 110.172 28.0661 110.046 28.5861 110.046C29.0194 110.046 29.4094 110.12 29.7561 110.267C30.1114 110.406 30.4104 110.605 30.6531 110.865C30.9044 111.116 31.0951 111.42 31.2251 111.775C31.3637 112.122 31.4331 112.503 31.4331 112.919C31.4331 113.387 31.3464 113.816 31.1731 114.206C30.9997 114.596 30.7614 114.934 30.4581 115.22C30.1547 115.497 29.7994 115.714 29.3921 115.87C28.9847 116.026 28.5471 116.104 28.0791 116.104C27.5851 116.104 27.1344 116.026 26.7271 115.87C26.3284 115.714 25.9861 115.493 25.7001 115.207C25.4227 114.912 25.2061 114.561 25.0501 114.154C24.9027 113.738 24.8291 113.274 24.8291 112.763C24.8291 112.243 24.9417 111.74 25.1671 111.255C25.4011 110.761 25.6697 110.31 25.9731 109.903L28.5991 106.393H30.3801ZM28.0531 114.921C28.3217 114.921 28.5731 114.878 28.8071 114.791C29.0497 114.696 29.2577 114.566 29.4311 114.401C29.6044 114.228 29.7431 114.028 29.8471 113.803C29.9511 113.569 30.0031 113.309 30.0031 113.023C30.0031 112.451 29.8297 111.996 29.4831 111.658C29.1364 111.311 28.6771 111.138 28.1051 111.138C27.8364 111.138 27.5851 111.186 27.3511 111.281C27.1171 111.376 26.9134 111.506 26.7401 111.671C26.5754 111.836 26.4454 112.031 26.3501 112.256C26.2547 112.481 26.2071 112.728 26.2071 112.997C26.2071 113.56 26.3631 114.024 26.6751 114.388C26.9957 114.743 27.4551 114.921 28.0531 114.921ZM32.7032 114.349H34.2372L33.4052 117.053H32.2092L32.7032 114.349ZM42.1132 111.203C42.1132 111.775 42.0569 112.351 41.9442 112.932C41.8315 113.513 41.6365 114.041 41.3592 114.518C41.0905 114.986 40.7309 115.367 40.2802 115.662C39.8295 115.957 39.2705 116.104 38.6032 116.104C37.9359 116.104 37.3769 115.957 36.9262 115.662C36.4755 115.367 36.1159 114.986 35.8472 114.518C35.5785 114.041 35.3879 113.513 35.2752 112.932C35.1625 112.351 35.1062 111.775 35.1062 111.203C35.1062 110.631 35.1625 110.055 35.2752 109.474C35.3879 108.885 35.5785 108.356 35.8472 107.888C36.1159 107.42 36.4755 107.039 36.9262 106.744C37.3769 106.441 37.9359 106.289 38.6032 106.289C39.2792 106.289 39.8425 106.441 40.2932 106.744C40.7439 107.047 41.1035 107.437 41.3722 107.914C41.6409 108.391 41.8315 108.919 41.9442 109.5C42.0569 110.081 42.1132 110.648 42.1132 111.203ZM40.6312 111.203C40.6312 110.865 40.6095 110.484 40.5662 110.059C40.5229 109.634 40.4275 109.231 40.2802 108.85C40.1415 108.469 39.9379 108.148 39.6692 107.888C39.4092 107.628 39.0539 107.498 38.6032 107.498C38.1525 107.498 37.7929 107.628 37.5242 107.888C37.2642 108.148 37.0605 108.469 36.9132 108.85C36.7745 109.231 36.6835 109.634 36.6402 110.059C36.5969 110.484 36.5752 110.865 36.5752 111.203C36.5752 111.541 36.5969 111.922 36.6402 112.347C36.6835 112.772 36.7745 113.175 36.9132 113.556C37.0605 113.937 37.2685 114.258 37.5372 114.518C37.8059 114.778 38.1612 114.908 38.6032 114.908C39.0539 114.908 39.4092 114.778 39.6692 114.518C39.9379 114.258 40.1415 113.937 40.2802 113.556C40.4275 113.175 40.5229 112.772 40.5662 112.347C40.6095 111.922 40.6312 111.541 40.6312 111.203ZM49.8573 111.203C49.8573 111.775 49.801 112.351 49.6883 112.932C49.5757 113.513 49.3807 114.041 49.1033 114.518C48.8347 114.986 48.475 115.367 48.0243 115.662C47.5737 115.957 47.0147 116.104 46.3473 116.104C45.68 116.104 45.121 115.957 44.6703 115.662C44.2197 115.367 43.86 114.986 43.5913 114.518C43.3227 114.041 43.132 113.513 43.0193 112.932C42.9067 112.351 42.8503 111.775 42.8503 111.203C42.8503 110.631 42.9067 110.055 43.0193 109.474C43.132 108.885 43.3227 108.356 43.5913 107.888C43.86 107.42 44.2197 107.039 44.6703 106.744C45.121 106.441 45.68 106.289 46.3473 106.289C47.0233 106.289 47.5867 106.441 48.0373 106.744C48.488 107.047 48.8477 107.437 49.1163 107.914C49.385 108.391 49.5757 108.919 49.6883 109.5C49.801 110.081 49.8573 110.648 49.8573 111.203ZM48.3753 111.203C48.3753 110.865 48.3537 110.484 48.3103 110.059C48.267 109.634 48.1717 109.231 48.0243 108.85C47.8857 108.469 47.682 108.148 47.4133 107.888C47.1533 107.628 46.798 107.498 46.3473 107.498C45.8967 107.498 45.537 107.628 45.2683 107.888C45.0083 108.148 44.8047 108.469 44.6573 108.85C44.5187 109.231 44.4277 109.634 44.3843 110.059C44.341 110.484 44.3193 110.865 44.3193 111.203C44.3193 111.541 44.341 111.922 44.3843 112.347C44.4277 112.772 44.5187 113.175 44.6573 113.556C44.8047 113.937 45.0127 114.258 45.2813 114.518C45.55 114.778 45.9053 114.908 46.3473 114.908C46.798 114.908 47.1533 114.778 47.4133 114.518C47.682 114.258 47.8857 113.937 48.0243 113.556C48.1717 113.175 48.267 112.772 48.3103 112.347C48.3537 111.922 48.3753 111.541 48.3753 111.203ZM57.6015 111.203C57.6015 111.775 57.5451 112.351 57.4325 112.932C57.3198 113.513 57.1248 114.041 56.8475 114.518C56.5788 114.986 56.2191 115.367 55.7685 115.662C55.3178 115.957 54.7588 116.104 54.0915 116.104C53.4241 116.104 52.8651 115.957 52.4145 115.662C51.9638 115.367 51.6041 114.986 51.3355 114.518C51.0668 114.041 50.8761 113.513 50.7635 112.932C50.6508 112.351 50.5945 111.775 50.5945 111.203C50.5945 110.631 50.6508 110.055 50.7635 109.474C50.8761 108.885 51.0668 108.356 51.3355 107.888C51.6041 107.42 51.9638 107.039 52.4145 106.744C52.8651 106.441 53.4241 106.289 54.0915 106.289C54.7675 106.289 55.3308 106.441 55.7815 106.744C56.2321 107.047 56.5918 107.437 56.8605 107.914C57.1291 108.391 57.3198 108.919 57.4325 109.5C57.5451 110.081 57.6015 110.648 57.6015 111.203ZM56.1195 111.203C56.1195 110.865 56.0978 110.484 56.0545 110.059C56.0111 109.634 55.9158 109.231 55.7685 108.85C55.6298 108.469 55.4261 108.148 55.1575 107.888C54.8975 107.628 54.5421 107.498 54.0915 107.498C53.6408 107.498 53.2811 107.628 53.0125 107.888C52.7525 108.148 52.5488 108.469 52.4015 108.85C52.2628 109.231 52.1718 109.634 52.1285 110.059C52.0851 110.484 52.0635 110.865 52.0635 111.203C52.0635 111.541 52.0851 111.922 52.1285 112.347C52.1718 112.772 52.2628 113.175 52.4015 113.556C52.5488 113.937 52.7568 114.258 53.0255 114.518C53.2941 114.778 53.6495 114.908 54.0915 114.908C54.5421 114.908 54.8975 114.778 55.1575 114.518C55.4261 114.258 55.6298 113.937 55.7685 113.556C55.9158 113.175 56.0111 112.772 56.0545 112.347C56.0978 111.922 56.1195 111.541 56.1195 111.203ZM58.7286 114.349H60.2626L59.4306 117.053H58.2346L58.7286 114.349ZM68.1386 111.203C68.1386 111.775 68.0822 112.351 67.9696 112.932C67.8569 113.513 67.6619 114.041 67.3846 114.518C67.1159 114.986 66.7562 115.367 66.3056 115.662C65.8549 115.957 65.2959 116.104 64.6286 116.104C63.9612 116.104 63.4022 115.957 62.9516 115.662C62.5009 115.367 62.1412 114.986 61.8726 114.518C61.6039 114.041 61.4132 113.513 61.3006 112.932C61.1879 112.351 61.1316 111.775 61.1316 111.203C61.1316 110.631 61.1879 110.055 61.3006 109.474C61.4132 108.885 61.6039 108.356 61.8726 107.888C62.1412 107.42 62.5009 107.039 62.9516 106.744C63.4022 106.441 63.9612 106.289 64.6286 106.289C65.3046 106.289 65.8679 106.441 66.3186 106.744C66.7692 107.047 67.1289 107.437 67.3976 107.914C67.6662 108.391 67.8569 108.919 67.9696 109.5C68.0822 110.081 68.1386 110.648 68.1386 111.203ZM66.6566 111.203C66.6566 110.865 66.6349 110.484 66.5916 110.059C66.5482 109.634 66.4529 109.231 66.3056 108.85C66.1669 108.469 65.9632 108.148 65.6946 107.888C65.4346 107.628 65.0792 107.498 64.6286 107.498C64.1779 107.498 63.8182 107.628 63.5496 107.888C63.2896 108.148 63.0859 108.469 62.9386 108.85C62.7999 109.231 62.7089 109.634 62.6656 110.059C62.6222 110.484 62.6006 110.865 62.6006 111.203C62.6006 111.541 62.6222 111.922 62.6656 112.347C62.7089 112.772 62.7999 113.175 62.9386 113.556C63.0859 113.937 63.2939 114.258 63.5626 114.518C63.8312 114.778 64.1866 114.908 64.6286 114.908C65.0792 114.908 65.4346 114.778 65.6946 114.518C65.9632 114.258 66.1669 113.937 66.3056 113.556C66.4529 113.175 66.5482 112.772 66.5916 112.347C66.6349 111.922 66.6566 111.541 66.6566 111.203ZM75.8827 111.203C75.8827 111.775 75.8264 112.351 75.7137 112.932C75.6011 113.513 75.4061 114.041 75.1287 114.518C74.8601 114.986 74.5004 115.367 74.0497 115.662C73.5991 115.957 73.0401 116.104 72.3727 116.104C71.7054 116.104 71.1464 115.957 70.6957 115.662C70.2451 115.367 69.8854 114.986 69.6167 114.518C69.3481 114.041 69.1574 113.513 69.0447 112.932C68.9321 112.351 68.8757 111.775 68.8757 111.203C68.8757 110.631 68.9321 110.055 69.0447 109.474C69.1574 108.885 69.3481 108.356 69.6167 107.888C69.8854 107.42 70.2451 107.039 70.6957 106.744C71.1464 106.441 71.7054 106.289 72.3727 106.289C73.0487 106.289 73.6121 106.441 74.0627 106.744C74.5134 107.047 74.8731 107.437 75.1417 107.914C75.4104 108.391 75.6011 108.919 75.7137 109.5C75.8264 110.081 75.8827 110.648 75.8827 111.203ZM74.4007 111.203C74.4007 110.865 74.3791 110.484 74.3357 110.059C74.2924 109.634 74.1971 109.231 74.0497 108.85C73.9111 108.469 73.7074 108.148 73.4387 107.888C73.1787 107.628 72.8234 107.498 72.3727 107.498C71.9221 107.498 71.5624 107.628 71.2937 107.888C71.0337 108.148 70.8301 108.469 70.6827 108.85C70.5441 109.231 70.4531 109.634 70.4097 110.059C70.3664 110.484 70.3447 110.865 70.3447 111.203C70.3447 111.541 70.3664 111.922 70.4097 112.347C70.4531 112.772 70.5441 113.175 70.6827 113.556C70.8301 113.937 71.0381 114.258 71.3067 114.518C71.5754 114.778 71.9307 114.908 72.3727 114.908C72.8234 114.908 73.1787 114.778 73.4387 114.518C73.7074 114.258 73.9111 113.937 74.0497 113.556C74.1971 113.175 74.2924 112.772 74.3357 112.347C74.3791 111.922 74.4007 111.541 74.4007 111.203ZM83.6269 111.203C83.6269 111.775 83.5705 112.351 83.4579 112.932C83.3452 113.513 83.1502 114.041 82.8729 114.518C82.6042 114.986 82.2445 115.367 81.7939 115.662C81.3432 115.957 80.7842 116.104 80.1169 116.104C79.4495 116.104 78.8905 115.957 78.4399 115.662C77.9892 115.367 77.6295 114.986 77.3609 114.518C77.0922 114.041 76.9015 113.513 76.7889 112.932C76.6762 112.351 76.6199 111.775 76.6199 111.203C76.6199 110.631 76.6762 110.055 76.7889 109.474C76.9015 108.885 77.0922 108.356 77.3609 107.888C77.6295 107.42 77.9892 107.039 78.4399 106.744C78.8905 106.441 79.4495 106.289 80.1169 106.289C80.7929 106.289 81.3562 106.441 81.8069 106.744C82.2575 107.047 82.6172 107.437 82.8859 107.914C83.1545 108.391 83.3452 108.919 83.4579 109.5C83.5705 110.081 83.6269 110.648 83.6269 111.203ZM82.1449 111.203C82.1449 110.865 82.1232 110.484 82.0799 110.059C82.0365 109.634 81.9412 109.231 81.7939 108.85C81.6552 108.469 81.4515 108.148 81.1829 107.888C80.9229 107.628 80.5675 107.498 80.1169 107.498C79.6662 107.498 79.3065 107.628 79.0379 107.888C78.7779 108.148 78.5742 108.469 78.4269 108.85C78.2882 109.231 78.1972 109.634 78.1539 110.059C78.1105 110.484 78.0889 110.865 78.0889 111.203C78.0889 111.541 78.1105 111.922 78.1539 112.347C78.1972 112.772 78.2882 113.175 78.4269 113.556C78.5742 113.937 78.7822 114.258 79.0509 114.518C79.3195 114.778 79.6749 114.908 80.1169 114.908C80.5675 114.908 80.9229 114.778 81.1829 114.518C81.4515 114.258 81.6552 113.937 81.7939 113.556C81.9412 113.175 82.0365 112.772 82.0799 112.347C82.1232 111.922 82.1449 111.541 82.1449 111.203Z" fill="#31383F"/>
<path d="M25.6871 173.985C25.9644 174.245 26.2851 174.462 26.6491 174.635C27.0131 174.8 27.3901 174.882 27.7801 174.882C28.0921 174.882 28.3737 174.83 28.6251 174.726C28.8764 174.613 29.0844 174.466 29.2491 174.284C29.4224 174.093 29.5524 173.872 29.6391 173.621C29.7344 173.361 29.7821 173.084 29.7821 172.789C29.7821 172.191 29.6044 171.74 29.2491 171.437C28.9024 171.134 28.4301 170.982 27.8321 170.982C27.5807 170.982 27.3294 171.008 27.0781 171.06C26.8354 171.103 26.5927 171.16 26.3501 171.229L25.4661 170.982L26.2461 166.393H30.9001V167.706H27.2471L26.8571 169.942C27.2904 169.847 27.7151 169.799 28.1311 169.799C28.5731 169.799 28.9804 169.864 29.3531 169.994C29.7257 170.115 30.0507 170.302 30.3281 170.553C30.6054 170.796 30.8221 171.099 30.9781 171.463C31.1341 171.818 31.2121 172.234 31.2121 172.711C31.2121 173.214 31.1254 173.677 30.9521 174.102C30.7787 174.518 30.5361 174.873 30.2241 175.168C29.9121 175.463 29.5394 175.692 29.1061 175.857C28.6727 176.022 28.2004 176.104 27.6891 176.104C27.3164 176.104 26.9307 176.048 26.5321 175.935C26.1334 175.822 25.7824 175.653 25.4791 175.428C25.2797 175.307 25.1021 175.172 24.9461 175.025L25.6871 173.985ZM32.7032 174.349H34.2372L33.4052 177.053H32.2092L32.7032 174.349ZM42.1132 171.203C42.1132 171.775 42.0569 172.351 41.9442 172.932C41.8315 173.513 41.6365 174.041 41.3592 174.518C41.0905 174.986 40.7309 175.367 40.2802 175.662C39.8295 175.957 39.2705 176.104 38.6032 176.104C37.9359 176.104 37.3769 175.957 36.9262 175.662C36.4755 175.367 36.1159 174.986 35.8472 174.518C35.5785 174.041 35.3879 173.513 35.2752 172.932C35.1625 172.351 35.1062 171.775 35.1062 171.203C35.1062 170.631 35.1625 170.055 35.2752 169.474C35.3879 168.885 35.5785 168.356 35.8472 167.888C36.1159 167.42 36.4755 167.039 36.9262 166.744C37.3769 166.441 37.9359 166.289 38.6032 166.289C39.2792 166.289 39.8425 166.441 40.2932 166.744C40.7439 167.047 41.1035 167.437 41.3722 167.914C41.6409 168.391 41.8315 168.919 41.9442 169.5C42.0569 170.081 42.1132 170.648 42.1132 171.203ZM40.6312 171.203C40.6312 170.865 40.6095 170.484 40.5662 170.059C40.5229 169.634 40.4275 169.231 40.2802 168.85C40.1415 168.469 39.9379 168.148 39.6692 167.888C39.4092 167.628 39.0539 167.498 38.6032 167.498C38.1525 167.498 37.7929 167.628 37.5242 167.888C37.2642 168.148 37.0605 168.469 36.9132 168.85C36.7745 169.231 36.6835 169.634 36.6402 170.059C36.5969 170.484 36.5752 170.865 36.5752 171.203C36.5752 171.541 36.5969 171.922 36.6402 172.347C36.6835 172.772 36.7745 173.175 36.9132 173.556C37.0605 173.937 37.2685 174.258 37.5372 174.518C37.8059 174.778 38.1612 174.908 38.6032 174.908C39.0539 174.908 39.4092 174.778 39.6692 174.518C39.9379 174.258 40.1415 173.937 40.2802 173.556C40.4275 173.175 40.5229 172.772 40.5662 172.347C40.6095 171.922 40.6312 171.541 40.6312 171.203ZM49.8573 171.203C49.8573 171.775 49.801 172.351 49.6883 172.932C49.5757 173.513 49.3807 174.041 49.1033 174.518C48.8347 174.986 48.475 175.367 48.0243 175.662C47.5737 175.957 47.0147 176.104 46.3473 176.104C45.68 176.104 45.121 175.957 44.6703 175.662C44.2197 175.367 43.86 174.986 43.5913 174.518C43.3227 174.041 43.132 173.513 43.0193 172.932C42.9067 172.351 42.8503 171.775 42.8503 171.203C42.8503 170.631 42.9067 170.055 43.0193 169.474C43.132 168.885 43.3227 168.356 43.5913 167.888C43.86 167.42 44.2197 167.039 44.6703 166.744C45.121 166.441 45.68 166.289 46.3473 166.289C47.0233 166.289 47.5867 166.441 48.0373 166.744C48.488 167.047 48.8477 167.437 49.1163 167.914C49.385 168.391 49.5757 168.919 49.6883 169.5C49.801 170.081 49.8573 170.648 49.8573 171.203ZM48.3753 171.203C48.3753 170.865 48.3537 170.484 48.3103 170.059C48.267 169.634 48.1717 169.231 48.0243 168.85C47.8857 168.469 47.682 168.148 47.4133 167.888C47.1533 167.628 46.798 167.498 46.3473 167.498C45.8967 167.498 45.537 167.628 45.2683 167.888C45.0083 168.148 44.8047 168.469 44.6573 168.85C44.5187 169.231 44.4277 169.634 44.3843 170.059C44.341 170.484 44.3193 170.865 44.3193 171.203C44.3193 171.541 44.341 171.922 44.3843 172.347C44.4277 172.772 44.5187 173.175 44.6573 173.556C44.8047 173.937 45.0127 174.258 45.2813 174.518C45.55 174.778 45.9053 174.908 46.3473 174.908C46.798 174.908 47.1533 174.778 47.4133 174.518C47.682 174.258 47.8857 173.937 48.0243 173.556C48.1717 173.175 48.267 172.772 48.3103 172.347C48.3537 171.922 48.3753 171.541 48.3753 171.203ZM57.6015 171.203C57.6015 171.775 57.5451 172.351 57.4325 172.932C57.3198 173.513 57.1248 174.041 56.8475 174.518C56.5788 174.986 56.2191 175.367 55.7685 175.662C55.3178 175.957 54.7588 176.104 54.0915 176.104C53.4241 176.104 52.8651 175.957 52.4145 175.662C51.9638 175.367 51.6041 174.986 51.3355 174.518C51.0668 174.041 50.8761 173.513 50.7635 172.932C50.6508 172.351 50.5945 171.775 50.5945 171.203C50.5945 170.631 50.6508 170.055 50.7635 169.474C50.8761 168.885 51.0668 168.356 51.3355 167.888C51.6041 167.42 51.9638 167.039 52.4145 166.744C52.8651 166.441 53.4241 166.289 54.0915 166.289C54.7675 166.289 55.3308 166.441 55.7815 166.744C56.2321 167.047 56.5918 167.437 56.8605 167.914C57.1291 168.391 57.3198 168.919 57.4325 169.5C57.5451 170.081 57.6015 170.648 57.6015 171.203ZM56.1195 171.203C56.1195 170.865 56.0978 170.484 56.0545 170.059C56.0111 169.634 55.9158 169.231 55.7685 168.85C55.6298 168.469 55.4261 168.148 55.1575 167.888C54.8975 167.628 54.5421 167.498 54.0915 167.498C53.6408 167.498 53.2811 167.628 53.0125 167.888C52.7525 168.148 52.5488 168.469 52.4015 168.85C52.2628 169.231 52.1718 169.634 52.1285 170.059C52.0851 170.484 52.0635 170.865 52.0635 171.203C52.0635 171.541 52.0851 171.922 52.1285 172.347C52.1718 172.772 52.2628 173.175 52.4015 173.556C52.5488 173.937 52.7568 174.258 53.0255 174.518C53.2941 174.778 53.6495 174.908 54.0915 174.908C54.5421 174.908 54.8975 174.778 55.1575 174.518C55.4261 174.258 55.6298 173.937 55.7685 173.556C55.9158 173.175 56.0111 172.772 56.0545 172.347C56.0978 171.922 56.1195 171.541 56.1195 171.203ZM58.7286 174.349H60.2626L59.4306 177.053H58.2346L58.7286 174.349ZM68.1386 171.203C68.1386 171.775 68.0822 172.351 67.9696 172.932C67.8569 173.513 67.6619 174.041 67.3846 174.518C67.1159 174.986 66.7562 175.367 66.3056 175.662C65.8549 175.957 65.2959 176.104 64.6286 176.104C63.9612 176.104 63.4022 175.957 62.9516 175.662C62.5009 175.367 62.1412 174.986 61.8726 174.518C61.6039 174.041 61.4132 173.513 61.3006 172.932C61.1879 172.351 61.1316 171.775 61.1316 171.203C61.1316 170.631 61.1879 170.055 61.3006 169.474C61.4132 168.885 61.6039 168.356 61.8726 167.888C62.1412 167.42 62.5009 167.039 62.9516 166.744C63.4022 166.441 63.9612 166.289 64.6286 166.289C65.3046 166.289 65.8679 166.441 66.3186 166.744C66.7692 167.047 67.1289 167.437 67.3976 167.914C67.6662 168.391 67.8569 168.919 67.9696 169.5C68.0822 170.081 68.1386 170.648 68.1386 171.203ZM66.6566 171.203C66.6566 170.865 66.6349 170.484 66.5916 170.059C66.5482 169.634 66.4529 169.231 66.3056 168.85C66.1669 168.469 65.9632 168.148 65.6946 167.888C65.4346 167.628 65.0792 167.498 64.6286 167.498C64.1779 167.498 63.8182 167.628 63.5496 167.888C63.2896 168.148 63.0859 168.469 62.9386 168.85C62.7999 169.231 62.7089 169.634 62.6656 170.059C62.6222 170.484 62.6006 170.865 62.6006 171.203C62.6006 171.541 62.6222 171.922 62.6656 172.347C62.7089 172.772 62.7999 173.175 62.9386 173.556C63.0859 173.937 63.2939 174.258 63.5626 174.518C63.8312 174.778 64.1866 174.908 64.6286 174.908C65.0792 174.908 65.4346 174.778 65.6946 174.518C65.9632 174.258 66.1669 173.937 66.3056 173.556C66.4529 173.175 66.5482 172.772 66.5916 172.347C66.6349 171.922 66.6566 171.541 66.6566 171.203ZM75.8827 171.203C75.8827 171.775 75.8264 172.351 75.7137 172.932C75.6011 173.513 75.4061 174.041 75.1287 174.518C74.8601 174.986 74.5004 175.367 74.0497 175.662C73.5991 175.957 73.0401 176.104 72.3727 176.104C71.7054 176.104 71.1464 175.957 70.6957 175.662C70.2451 175.367 69.8854 174.986 69.6167 174.518C69.3481 174.041 69.1574 173.513 69.0447 172.932C68.9321 172.351 68.8757 171.775 68.8757 171.203C68.8757 170.631 68.9321 170.055 69.0447 169.474C69.1574 168.885 69.3481 168.356 69.6167 167.888C69.8854 167.42 70.2451 167.039 70.6957 166.744C71.1464 166.441 71.7054 166.289 72.3727 166.289C73.0487 166.289 73.6121 166.441 74.0627 166.744C74.5134 167.047 74.8731 167.437 75.1417 167.914C75.4104 168.391 75.6011 168.919 75.7137 169.5C75.8264 170.081 75.8827 170.648 75.8827 171.203ZM74.4007 171.203C74.4007 170.865 74.3791 170.484 74.3357 170.059C74.2924 169.634 74.1971 169.231 74.0497 168.85C73.9111 168.469 73.7074 168.148 73.4387 167.888C73.1787 167.628 72.8234 167.498 72.3727 167.498C71.9221 167.498 71.5624 167.628 71.2937 167.888C71.0337 168.148 70.8301 168.469 70.6827 168.85C70.5441 169.231 70.4531 169.634 70.4097 170.059C70.3664 170.484 70.3447 170.865 70.3447 171.203C70.3447 171.541 70.3664 171.922 70.4097 172.347C70.4531 172.772 70.5441 173.175 70.6827 173.556C70.8301 173.937 71.0381 174.258 71.3067 174.518C71.5754 174.778 71.9307 174.908 72.3727 174.908C72.8234 174.908 73.1787 174.778 73.4387 174.518C73.7074 174.258 73.9111 173.937 74.0497 173.556C74.1971 173.175 74.2924 172.772 74.3357 172.347C74.3791 171.922 74.4007 171.541 74.4007 171.203ZM83.6269 171.203C83.6269 171.775 83.5705 172.351 83.4579 172.932C83.3452 173.513 83.1502 174.041 82.8729 174.518C82.6042 174.986 82.2445 175.367 81.7939 175.662C81.3432 175.957 80.7842 176.104 80.1169 176.104C79.4495 176.104 78.8905 175.957 78.4399 175.662C77.9892 175.367 77.6295 174.986 77.3609 174.518C77.0922 174.041 76.9015 173.513 76.7889 172.932C76.6762 172.351 76.6199 171.775 76.6199 171.203C76.6199 170.631 76.6762 170.055 76.7889 169.474C76.9015 168.885 77.0922 168.356 77.3609 167.888C77.6295 167.42 77.9892 167.039 78.4399 166.744C78.8905 166.441 79.4495 166.289 80.1169 166.289C80.7929 166.289 81.3562 166.441 81.8069 166.744C82.2575 167.047 82.6172 167.437 82.8859 167.914C83.1545 168.391 83.3452 168.919 83.4579 169.5C83.5705 170.081 83.6269 170.648 83.6269 171.203ZM82.1449 171.203C82.1449 170.865 82.1232 170.484 82.0799 170.059C82.0365 169.634 81.9412 169.231 81.7939 168.85C81.6552 168.469 81.4515 168.148 81.1829 167.888C80.9229 167.628 80.5675 167.498 80.1169 167.498C79.6662 167.498 79.3065 167.628 79.0379 167.888C78.7779 168.148 78.5742 168.469 78.4269 168.85C78.2882 169.231 78.1972 169.634 78.1539 170.059C78.1105 170.484 78.0889 170.865 78.0889 171.203C78.0889 171.541 78.1105 171.922 78.1539 172.347C78.1972 172.772 78.2882 173.175 78.4269 173.556C78.5742 173.937 78.7822 174.258 79.0509 174.518C79.3195 174.778 79.6749 174.908 80.1169 174.908C80.5675 174.908 80.9229 174.778 81.1829 174.518C81.4515 174.258 81.6552 173.937 81.7939 173.556C81.9412 173.175 82.0365 172.772 82.0799 172.347C82.1232 171.922 82.1449 171.541 82.1449 171.203Z" fill="#31383F"/>
<path opacity="0.75" d="M126.707 224H120.207V223.168L123.444 219.918C123.669 219.693 123.881 219.467 124.081 219.242C124.28 219.017 124.466 218.77 124.64 218.501C124.804 218.206 124.926 217.886 125.004 217.539C125.082 217.192 125.086 216.872 125.017 216.577C124.956 216.274 124.804 216.022 124.562 215.823C124.328 215.615 123.981 215.511 123.522 215.511C123.262 215.511 123.023 215.559 122.807 215.654C122.59 215.741 122.404 215.862 122.248 216.018C122.092 216.174 121.975 216.36 121.897 216.577C121.819 216.794 121.788 217.032 121.806 217.292L120.376 217.032C120.497 216.165 120.839 215.494 121.403 215.017C121.975 214.532 122.707 214.289 123.6 214.289C124.007 214.289 124.388 214.35 124.744 214.471C125.099 214.584 125.407 214.757 125.667 214.991C125.935 215.216 126.148 215.498 126.304 215.836C126.46 216.174 126.538 216.56 126.538 216.993C126.538 217.357 126.481 217.695 126.369 218.007C126.256 218.319 126.104 218.618 125.914 218.904C125.732 219.181 125.524 219.446 125.29 219.697C125.056 219.948 124.817 220.195 124.575 220.438L122.131 222.908C122.33 222.856 122.534 222.813 122.742 222.778C122.958 222.743 123.171 222.726 123.379 222.726H126.707V224ZM134.711 219.203C134.711 219.775 134.655 220.351 134.542 220.932C134.429 221.513 134.234 222.041 133.957 222.518C133.688 222.986 133.329 223.367 132.878 223.662C132.427 223.957 131.868 224.104 131.201 224.104C130.534 224.104 129.975 223.957 129.524 223.662C129.073 223.367 128.714 222.986 128.445 222.518C128.176 222.041 127.986 221.513 127.873 220.932C127.76 220.351 127.704 219.775 127.704 219.203C127.704 218.631 127.76 218.055 127.873 217.474C127.986 216.885 128.176 216.356 128.445 215.888C128.714 215.42 129.073 215.039 129.524 214.744C129.975 214.441 130.534 214.289 131.201 214.289C131.877 214.289 132.44 214.441 132.891 214.744C133.342 215.047 133.701 215.437 133.97 215.914C134.239 216.391 134.429 216.919 134.542 217.5C134.655 218.081 134.711 218.648 134.711 219.203ZM133.229 219.203C133.229 218.865 133.207 218.484 133.164 218.059C133.121 217.634 133.025 217.231 132.878 216.85C132.739 216.469 132.536 216.148 132.267 215.888C132.007 215.628 131.652 215.498 131.201 215.498C130.75 215.498 130.391 215.628 130.122 215.888C129.862 216.148 129.658 216.469 129.511 216.85C129.372 217.231 129.281 217.634 129.238 218.059C129.195 218.484 129.173 218.865 129.173 219.203C129.173 219.541 129.195 219.922 129.238 220.347C129.281 220.772 129.372 221.175 129.511 221.556C129.658 221.937 129.866 222.258 130.135 222.518C130.404 222.778 130.759 222.908 131.201 222.908C131.652 222.908 132.007 222.778 132.267 222.518C132.536 222.258 132.739 221.937 132.878 221.556C133.025 221.175 133.121 220.772 133.164 220.347C133.207 219.922 133.229 219.541 133.229 219.203ZM142.195 224H135.695V223.168L138.932 219.918C139.157 219.693 139.37 219.467 139.569 219.242C139.768 219.017 139.955 218.77 140.128 218.501C140.293 218.206 140.414 217.886 140.492 217.539C140.57 217.192 140.574 216.872 140.505 216.577C140.444 216.274 140.293 216.022 140.05 215.823C139.816 215.615 139.469 215.511 139.01 215.511C138.75 215.511 138.512 215.559 138.295 215.654C138.078 215.741 137.892 215.862 137.736 216.018C137.58 216.174 137.463 216.36 137.385 216.577C137.307 216.794 137.277 217.032 137.294 217.292L135.864 217.032C135.985 216.165 136.328 215.494 136.891 215.017C137.463 214.532 138.195 214.289 139.088 214.289C139.495 214.289 139.877 214.35 140.232 214.471C140.587 214.584 140.895 214.757 141.155 214.991C141.424 215.216 141.636 215.498 141.792 215.836C141.948 216.174 142.026 216.56 142.026 216.993C142.026 217.357 141.97 217.695 141.857 218.007C141.744 218.319 141.593 218.618 141.402 218.904C141.22 219.181 141.012 219.446 140.778 219.697C140.544 219.948 140.306 220.195 140.063 220.438L137.619 222.908C137.818 222.856 138.022 222.813 138.23 222.778C138.447 222.743 138.659 222.726 138.867 222.726H142.195V224ZM150.199 219.203C150.199 219.775 150.143 220.351 150.03 220.932C149.917 221.513 149.722 222.041 149.445 222.518C149.176 222.986 148.817 223.367 148.366 223.662C147.915 223.957 147.356 224.104 146.689 224.104C146.022 224.104 145.463 223.957 145.012 223.662C144.561 223.367 144.202 222.986 143.933 222.518C143.664 222.041 143.474 221.513 143.361 220.932C143.248 220.351 143.192 219.775 143.192 219.203C143.192 218.631 143.248 218.055 143.361 217.474C143.474 216.885 143.664 216.356 143.933 215.888C144.202 215.42 144.561 215.039 145.012 214.744C145.463 214.441 146.022 214.289 146.689 214.289C147.365 214.289 147.928 214.441 148.379 214.744C148.83 215.047 149.189 215.437 149.458 215.914C149.727 216.391 149.917 216.919 150.03 217.5C150.143 218.081 150.199 218.648 150.199 219.203ZM148.717 219.203C148.717 218.865 148.695 218.484 148.652 218.059C148.609 217.634 148.513 217.231 148.366 216.85C148.227 216.469 148.024 216.148 147.755 215.888C147.495 215.628 147.14 215.498 146.689 215.498C146.238 215.498 145.879 215.628 145.61 215.888C145.35 216.148 145.146 216.469 144.999 216.85C144.86 217.231 144.769 217.634 144.726 218.059C144.683 218.484 144.661 218.865 144.661 219.203C144.661 219.541 144.683 219.922 144.726 220.347C144.769 220.772 144.86 221.175 144.999 221.556C145.146 221.937 145.354 222.258 145.623 222.518C145.892 222.778 146.247 222.908 146.689 222.908C147.14 222.908 147.495 222.778 147.755 222.518C148.024 222.258 148.227 221.937 148.366 221.556C148.513 221.175 148.609 220.772 148.652 220.347C148.695 219.922 148.717 219.541 148.717 219.203ZM151.222 218.657H155.642V219.762H151.222V218.657ZM158.352 217.552L157.559 216.59L160.159 214.367H161.329V222.752H163.136V224H157.897V222.752H159.899V216.889C159.899 216.785 159.899 216.681 159.899 216.577C159.899 216.464 159.903 216.352 159.912 216.239L158.352 217.552ZM166.096 217.552L165.303 216.59L167.903 214.367H169.073V222.752H170.88V224H165.641V222.752H167.643V216.889C167.643 216.785 167.643 216.681 167.643 216.577C167.643 216.464 167.647 216.352 167.656 216.239L166.096 217.552ZM172.436 218.657H176.856V219.762H172.436V218.657ZM179.566 217.552L178.773 216.59L181.373 214.367H182.543V222.752H184.35V224H179.111V222.752H181.113V216.889C181.113 216.785 181.113 216.681 181.113 216.577C181.113 216.464 181.117 216.352 181.126 216.239L179.566 217.552ZM187.31 217.552L186.517 216.59L189.117 214.367H190.287V222.752H192.094V224H186.855V222.752H188.857V216.889C188.857 216.785 188.857 216.681 188.857 216.577C188.857 216.464 188.861 216.352 188.87 216.239L187.31 217.552Z" fill="#31383F"/>
<path opacity="0.75" d="M327.707 224H321.207V223.168L324.444 219.918C324.669 219.693 324.881 219.467 325.081 219.242C325.28 219.017 325.466 218.77 325.64 218.501C325.804 218.206 325.926 217.886 326.004 217.539C326.082 217.192 326.086 216.872 326.017 216.577C325.956 216.274 325.804 216.022 325.562 215.823C325.328 215.615 324.981 215.511 324.522 215.511C324.262 215.511 324.023 215.559 323.807 215.654C323.59 215.741 323.404 215.862 323.248 216.018C323.092 216.174 322.975 216.36 322.897 216.577C322.819 216.794 322.788 217.032 322.806 217.292L321.376 217.032C321.497 216.165 321.839 215.494 322.403 215.017C322.975 214.532 323.707 214.289 324.6 214.289C325.007 214.289 325.388 214.35 325.744 214.471C326.099 214.584 326.407 214.757 326.667 214.991C326.935 215.216 327.148 215.498 327.304 215.836C327.46 216.174 327.538 216.56 327.538 216.993C327.538 217.357 327.481 217.695 327.369 218.007C327.256 218.319 327.104 218.618 326.914 218.904C326.732 219.181 326.524 219.446 326.29 219.697C326.056 219.948 325.817 220.195 325.575 220.438L323.131 222.908C323.33 222.856 323.534 222.813 323.742 222.778C323.958 222.743 324.171 222.726 324.379 222.726H327.707V224ZM335.711 219.203C335.711 219.775 335.655 220.351 335.542 220.932C335.429 221.513 335.234 222.041 334.957 222.518C334.688 222.986 334.329 223.367 333.878 223.662C333.427 223.957 332.868 224.104 332.201 224.104C331.534 224.104 330.975 223.957 330.524 223.662C330.073 223.367 329.714 222.986 329.445 222.518C329.176 222.041 328.986 221.513 328.873 220.932C328.76 220.351 328.704 219.775 328.704 219.203C328.704 218.631 328.76 218.055 328.873 217.474C328.986 216.885 329.176 216.356 329.445 215.888C329.714 215.42 330.073 215.039 330.524 214.744C330.975 214.441 331.534 214.289 332.201 214.289C332.877 214.289 333.44 214.441 333.891 214.744C334.342 215.047 334.701 215.437 334.97 215.914C335.239 216.391 335.429 216.919 335.542 217.5C335.655 218.081 335.711 218.648 335.711 219.203ZM334.229 219.203C334.229 218.865 334.207 218.484 334.164 218.059C334.121 217.634 334.025 217.231 333.878 216.85C333.739 216.469 333.536 216.148 333.267 215.888C333.007 215.628 332.652 215.498 332.201 215.498C331.75 215.498 331.391 215.628 331.122 215.888C330.862 216.148 330.658 216.469 330.511 216.85C330.372 217.231 330.281 217.634 330.238 218.059C330.195 218.484 330.173 218.865 330.173 219.203C330.173 219.541 330.195 219.922 330.238 220.347C330.281 220.772 330.372 221.175 330.511 221.556C330.658 221.937 330.866 222.258 331.135 222.518C331.404 222.778 331.759 222.908 332.201 222.908C332.652 222.908 333.007 222.778 333.267 222.518C333.536 222.258 333.739 221.937 333.878 221.556C334.025 221.175 334.121 220.772 334.164 220.347C334.207 219.922 334.229 219.541 334.229 219.203ZM343.195 224H336.695V223.168L339.932 219.918C340.157 219.693 340.37 219.467 340.569 219.242C340.768 219.017 340.955 218.77 341.128 218.501C341.293 218.206 341.414 217.886 341.492 217.539C341.57 217.192 341.574 216.872 341.505 216.577C341.444 216.274 341.293 216.022 341.05 215.823C340.816 215.615 340.469 215.511 340.01 215.511C339.75 215.511 339.512 215.559 339.295 215.654C339.078 215.741 338.892 215.862 338.736 216.018C338.58 216.174 338.463 216.36 338.385 216.577C338.307 216.794 338.277 217.032 338.294 217.292L336.864 217.032C336.985 216.165 337.328 215.494 337.891 215.017C338.463 214.532 339.195 214.289 340.088 214.289C340.495 214.289 340.877 214.35 341.232 214.471C341.587 214.584 341.895 214.757 342.155 214.991C342.424 215.216 342.636 215.498 342.792 215.836C342.948 216.174 343.026 216.56 343.026 216.993C343.026 217.357 342.97 217.695 342.857 218.007C342.744 218.319 342.593 218.618 342.402 218.904C342.22 219.181 342.012 219.446 341.778 219.697C341.544 219.948 341.306 220.195 341.063 220.438L338.619 222.908C338.818 222.856 339.022 222.813 339.23 222.778C339.447 222.743 339.659 222.726 339.867 222.726H343.195V224ZM351.199 219.203C351.199 219.775 351.143 220.351 351.03 220.932C350.917 221.513 350.722 222.041 350.445 222.518C350.176 222.986 349.817 223.367 349.366 223.662C348.915 223.957 348.356 224.104 347.689 224.104C347.022 224.104 346.463 223.957 346.012 223.662C345.561 223.367 345.202 222.986 344.933 222.518C344.664 222.041 344.474 221.513 344.361 220.932C344.248 220.351 344.192 219.775 344.192 219.203C344.192 218.631 344.248 218.055 344.361 217.474C344.474 216.885 344.664 216.356 344.933 215.888C345.202 215.42 345.561 215.039 346.012 214.744C346.463 214.441 347.022 214.289 347.689 214.289C348.365 214.289 348.928 214.441 349.379 214.744C349.83 215.047 350.189 215.437 350.458 215.914C350.727 216.391 350.917 216.919 351.03 217.5C351.143 218.081 351.199 218.648 351.199 219.203ZM349.717 219.203C349.717 218.865 349.695 218.484 349.652 218.059C349.609 217.634 349.513 217.231 349.366 216.85C349.227 216.469 349.024 216.148 348.755 215.888C348.495 215.628 348.14 215.498 347.689 215.498C347.238 215.498 346.879 215.628 346.61 215.888C346.35 216.148 346.146 216.469 345.999 216.85C345.86 217.231 345.769 217.634 345.726 218.059C345.683 218.484 345.661 218.865 345.661 219.203C345.661 219.541 345.683 219.922 345.726 220.347C345.769 220.772 345.86 221.175 345.999 221.556C346.146 221.937 346.354 222.258 346.623 222.518C346.892 222.778 347.247 222.908 347.689 222.908C348.14 222.908 348.495 222.778 348.755 222.518C349.024 222.258 349.227 221.937 349.366 221.556C349.513 221.175 349.609 220.772 349.652 220.347C349.695 219.922 349.717 219.541 349.717 219.203ZM352.222 218.657H356.642V219.762H352.222V218.657ZM359.352 217.552L358.559 216.59L361.159 214.367H362.329V222.752H364.136V224H358.897V222.752H360.899V216.889C360.899 216.785 360.899 216.681 360.899 216.577C360.899 216.464 360.903 216.352 360.912 216.239L359.352 217.552ZM372.153 224H365.653V223.168L368.89 219.918C369.115 219.693 369.328 219.467 369.527 219.242C369.726 219.017 369.913 218.77 370.086 218.501C370.251 218.206 370.372 217.886 370.45 217.539C370.528 217.192 370.532 216.872 370.463 216.577C370.402 216.274 370.251 216.022 370.008 215.823C369.774 215.615 369.427 215.511 368.968 215.511C368.708 215.511 368.47 215.559 368.253 215.654C368.036 215.741 367.85 215.862 367.694 216.018C367.538 216.174 367.421 216.36 367.343 216.577C367.265 216.794 367.235 217.032 367.252 217.292L365.822 217.032C365.943 216.165 366.286 215.494 366.849 215.017C367.421 214.532 368.153 214.289 369.046 214.289C369.453 214.289 369.835 214.35 370.19 214.471C370.545 214.584 370.853 214.757 371.113 214.991C371.382 215.216 371.594 215.498 371.75 215.836C371.906 216.174 371.984 216.56 371.984 216.993C371.984 217.357 371.928 217.695 371.815 218.007C371.702 218.319 371.551 218.618 371.36 218.904C371.178 219.181 370.97 219.446 370.736 219.697C370.502 219.948 370.264 220.195 370.021 220.438L367.577 222.908C367.776 222.856 367.98 222.813 368.188 222.778C368.405 222.743 368.617 222.726 368.825 222.726H372.153V224ZM373.436 218.657H377.856V219.762H373.436V218.657ZM380.566 217.552L379.773 216.59L382.373 214.367H383.543V222.752H385.35V224H380.111V222.752H382.113V216.889C382.113 216.785 382.113 216.681 382.113 216.577C382.113 216.464 382.117 216.352 382.126 216.239L380.566 217.552ZM388.31 217.552L387.517 216.59L390.117 214.367H391.287V222.752H393.094V224H387.855V222.752H389.857V216.889C389.857 216.785 389.857 216.681 389.857 216.577C389.857 216.464 389.861 216.352 389.87 216.239L388.31 217.552Z" fill="#31383F"/>
<rect opacity="0.2" x="94" y="201" width="320" height="1" fill="#31383F"/>
<rect opacity="0.2" x="94" y="22" width="1" height="180" fill="#31383F"/>
<path d="M396 20C396 17.7909 397.791 16 400 16H428C430.209 16 432 17.7909 432 20V48C432 50.2091 430.209 52 428 52H400C397.791 52 396 50.2091 396 48V20Z" fill="#D74C4C"/>
<path d="M418.38 33.806C418.38 34.73 418.282 35.5327 418.086 36.214C417.89 36.886 417.615 37.446 417.26 37.894C416.915 38.3327 416.504 38.6593 416.028 38.874C415.552 39.0887 415.034 39.196 414.474 39.196C413.933 39.196 413.424 39.0887 412.948 38.874C412.481 38.6593 412.071 38.3327 411.716 37.894C411.371 37.446 411.1 36.886 410.904 36.214C410.708 35.5327 410.61 34.73 410.61 33.806C410.61 32.8727 410.708 32.07 410.904 31.398C411.1 30.7167 411.371 30.1567 411.716 29.718C412.071 29.27 412.481 28.9387 412.948 28.724C413.424 28.5093 413.933 28.402 414.474 28.402C415.034 28.402 415.552 28.5093 416.028 28.724C416.504 28.9387 416.915 29.27 417.26 29.718C417.615 30.1567 417.89 30.7167 418.086 31.398C418.282 32.07 418.38 32.8727 418.38 33.806ZM416.42 33.806C416.42 33.0593 416.364 32.4433 416.252 31.958C416.149 31.4633 416.009 31.076 415.832 30.796C415.655 30.5067 415.445 30.306 415.202 30.194C414.969 30.0727 414.726 30.012 414.474 30.012C414.231 30.012 413.993 30.0727 413.76 30.194C413.536 30.306 413.335 30.5067 413.158 30.796C412.981 31.076 412.836 31.4633 412.724 31.958C412.621 32.4433 412.57 33.0593 412.57 33.806C412.57 34.5433 412.621 35.1547 412.724 35.64C412.836 36.1253 412.981 36.5127 413.158 36.802C413.335 37.0913 413.536 37.292 413.76 37.404C413.993 37.516 414.231 37.572 414.474 37.572C414.726 37.572 414.969 37.516 415.202 37.404C415.445 37.292 415.655 37.0913 415.832 36.802C416.009 36.5127 416.149 36.1253 416.252 35.64C416.364 35.1547 416.42 34.5433 416.42 33.806Z" fill="white"/>
</svg>
