<svg width="113" height="24" viewBox="0 0 113 24" fill="none" xmlns="http://www.w3.org/2000/svg">
<path d="M18.73 9.07023C18.67 9.07023 18.61 9.10023 18.58 9.14023L18.57 9.13023L15.51 11.8802L9.86004 7.25023L9.85004 7.27023C9.82004 7.25023 9.79004 7.24023 9.75004 7.24023C9.64004 7.24023 9.54004 7.33023 9.54004 7.45023C9.54004 7.50023 9.56004 7.54023 9.58004 7.57023V7.58023L14.97 12.5202C15.17 12.6902 15.39 12.8002 15.57 12.8002C15.64 12.8002 15.7 12.7802 15.74 12.7602C15.82 12.7302 15.89 12.6902 15.96 12.6302L18.86 9.47023C18.92 9.43023 18.96 9.37023 18.96 9.30023C18.94 9.17023 18.85 9.07023 18.73 9.07023Z" fill="black"/>
<path d="M24.9601 12.0001C24.9601 6.67008 20.6201 2.33008 15.2901 2.33008C9.96012 2.33008 5.62012 6.67008 5.62012 12.0001C5.62012 17.3301 9.96012 21.6701 15.2901 21.6701C20.6201 21.6701 24.9601 17.3301 24.9601 12.0001ZM15.2901 3.64008C19.9001 3.64008 23.6501 7.39008 23.6501 12.0001C23.6501 16.6101 19.9001 20.3601 15.2901 20.3601C10.6801 20.3601 6.93012 16.6101 6.93012 12.0001C6.93012 7.39008 10.6801 3.64008 15.2901 3.64008Z" fill="black"/>
<path d="M29.74 0H15.29C8.67004 0 3.29004 5.38 3.29004 12V12.05C3.31004 12.35 3.52004 14.99 4.45004 16.3C4.57004 16.47 4.77004 16.58 4.98004 16.58C5.12004 16.58 5.25004 16.54 5.36004 16.46C5.65004 16.25 5.72004 15.84 5.52004 15.55C4.82004 14.57 4.62004 12.2 4.60004 11.98C4.61004 6.09 9.40004 1.31 15.29 1.31H29.75C30.11 1.31 30.41 1.02 30.41 0.66C30.4 0.29 30.1 0 29.74 0Z" fill="black"/>
<path d="M26.03 8.54004C25.91 8.54004 25.8 8.57004 25.7 8.63004C25.39 8.81004 25.28 9.22004 25.47 9.53004C26.03 10.49 25.98 11.96 25.98 11.98V12C25.98 17.89 21.18 22.69 15.29 22.69H0.66C0.29 22.69 0 22.98 0 23.34C0 23.7 0.29 24 0.66 24H15.29C21.9 24 27.28 18.62 27.29 12.01C27.3 11.79 27.34 10.11 26.6 8.86004C26.48 8.66004 26.27 8.54004 26.03 8.54004Z" fill="black"/>
<path d="M41.8801 19.4899H39.7401V13.2199H37.94V19.4899H35.8V6.35986H37.94V11.2899H39.7401V6.35986H41.8801V19.4899Z" fill="black"/>
<path d="M50.61 15.7599H48.47V6.37988H50.61V15.7599Z" fill="black"/>
<path d="M63.38 17.3898C63.38 18.1898 63.0399 18.7998 62.3699 19.1998C61.8199 19.5198 61.12 19.6798 60.27 19.6798C59.42 19.6798 58.7199 19.5198 58.1899 19.1998C57.5299 18.7898 57.2 18.1898 57.2 17.3898V14.3098H59.34V17.2098C59.34 17.6798 59.66 17.9198 60.29 17.9198C60.93 17.9198 61.25 17.6798 61.25 17.2098V15.8698C61.25 15.3598 60.9 14.7498 60.2 14.0398C59.55 13.4198 58.9 12.7898 58.25 12.1698C57.55 11.4298 57.2 10.7698 57.2 10.1798V8.3298C57.2 7.5298 57.5299 6.9298 58.1899 6.5298C58.7299 6.2098 59.42 6.0498 60.27 6.0498C61.12 6.0498 61.8199 6.2098 62.3699 6.5298C63.0499 6.9198 63.38 7.5198 63.38 8.3298V11.1998H61.24V8.4898C61.24 8.0598 60.9199 7.8398 60.2799 7.8398C59.6399 7.8398 59.33 8.0598 59.33 8.4898V10.0798C59.33 10.3598 60 11.1498 61.36 12.4598C62.71 13.7698 63.38 14.6498 63.38 15.1098V17.3898Z" fill="black"/>
<path d="M72.11 19.5101H69.97V10.1001H72.11V19.5101Z" fill="black"/>
<path d="M84.8699 19.4298H83.1999C83.1999 19.3298 83.1899 19.1598 83.1599 18.9298C82.6799 19.4298 82.0999 19.6798 81.4199 19.6798C80.7099 19.6798 80.0999 19.5098 79.5999 19.1798C78.9899 18.7698 78.6799 18.1698 78.6799 17.3798V8.3298C78.6799 7.5398 78.9999 6.9398 79.6499 6.5298C80.1899 6.2098 80.8799 6.0498 81.7299 6.0498C82.5799 6.0498 83.2799 6.2098 83.8299 6.5298C84.5099 6.9398 84.8399 7.5398 84.8399 8.3298V11.2198H82.6999V8.4898C82.6999 8.0598 82.3799 7.8398 81.7499 7.8398C81.1299 7.8398 80.8099 8.0598 80.8099 8.4898V17.2198C80.8099 17.6898 81.1199 17.9298 81.7499 17.9298C82.3899 17.9298 82.6999 17.6898 82.6999 17.2198V14.5598H82.0299V12.7798H84.8399V19.4298H84.8699Z" fill="black"/>
<path d="M98.54 19.4899H96.5L96.02 15.9899H93.94L93.46 19.4899H91.45L93.19 6.35986H96.76L98.54 19.4899ZM95.75 14.0599L95.12 9.04986H94.85L94.18 14.0599H95.75Z" fill="black"/>
<path d="M112.43 19.4899H108.88L107.28 9.28986L107.11 9.30986V19.4899H105.14V6.35986H108.66L110.3 16.4699L110.47 16.4499V6.35986H112.44V19.4899H112.43Z" fill="black"/>
<path d="M50.61 17.2402H48.47V19.4902H50.61V17.2402Z" fill="black"/>
<path d="M72.11 6.1499H69.97V8.3999H72.11V6.1499Z" fill="black"/>
</svg>
